;TYPE=PLATED
;Layer: PTH_Through
;EasyEDA Pro v1.9.29, 2023-05-19 09:05:20
;Gerber Generator version 0.3
M48
METRIC,LZ,000.000
;Hole size 1 = 1.000 METRIC
T01C1.000
;Hole size 2 = 1.500 METRIC
T02C1.500
;Hole size 3 = 3.000 METRIC
T03C3.000
;Hole size 4 = 3.200 METRIC
T04C3.200
%
G05
G90
T01
X093000Y-052500
X093000Y-057500
X093000Y-055000
X078500Y-057500
X078500Y-052500
X093000Y-015500
X093000Y-020500
X093000Y-018000
X078500Y-020500
X078500Y-015500
T02
X086150Y-049400G85X084850Y-049400
X086150Y-060600G85X084850Y-060600
X086150Y-012400G85X084850Y-012400
X086150Y-023600G85X084850Y-023600
T03
X068000Y-005000
X005000Y-068000
X068000Y-068000
T04
X005000Y-005000
X078000Y-005000
X098000Y-005000
X078000Y-068000
X098000Y-068000
M30