;TYPE=PLATED
;Layer: PTH_Through_Via
;EasyEDA Pro v1.9.29, 2023-05-19 09:05:20
;Gerber Generator version 0.3
M48
METRIC,LZ,000.000
;Hole size 1 = 0.300 METRIC
T01C0.300
;Hole size 2 = 0.304 METRIC
T02C0.304
;Hole size 3 = 0.305 METRIC
T03C0.305
%
G05
G90
T01
X051586Y-017556
X051586Y-018956
X050886Y-016856
X050186Y-017556
X050186Y-018956
X052986Y-018956
X052986Y-017556
X052286Y-016856
X052286Y-018256
X050886Y-018256
X050886Y-019656
X052286Y-019656
T02
X076635Y-059865
X076635Y-054785
X076635Y-049705
X076635Y-044625
X076635Y-039545
X076635Y-034465
X076635Y-024305
X076635Y-019225
X076635Y-014145
X076635Y-009065
X081080Y-064945
X081080Y-059865
X081080Y-054785
X081080Y-049705
X081080Y-029385
X083820Y-068580
X086160Y-014145
X092202Y-069088
X091240Y-059865
X091240Y-054785
X091240Y-049705
X091240Y-044625
X091440Y-034036
X091948Y-023368
X091240Y-014145
X094488Y-063119
X096320Y-054785
X096320Y-044625
X096320Y-039545
X096320Y-009065
X006096Y-059563
X006096Y-056388
X006223Y-047244
X006223Y-044069
X006096Y-034544
X005842Y-024511
X006096Y-013970
X008080Y-054785
X008080Y-049705
X008080Y-029385
X009144Y-019304
X013160Y-054785
X013160Y-049705
X013160Y-003985
X018240Y-059865
X018240Y-054785
X018240Y-003985
X023320Y-034465
X023320Y-003985
X028400Y-003985
X033480Y-024305
X034163Y-018288
X033528Y-014224
X033480Y-009065
X033480Y-003985
X038560Y-024305
X048720Y-024305
X048720Y-019225
X048720Y-014145
X053800Y-024305
X053800Y-014145
X058880Y-014145
X063627Y-019177
X069040Y-059865
X069040Y-054785
X069040Y-049705
X069040Y-044625
X081080Y-039545
X087503Y-044069
X085217Y-046101
X093472Y-037719
X093599Y-027305
X098806Y-063627
T03
X028605Y-008868
X023876Y-018161
X021336Y-018161
X020066Y-016002
X008943Y-013467
X020955Y-031369
X017005Y-027940
X020251Y-020193
X018034Y-023114
X021075Y-023674
X015621Y-023114
X011938Y-029972
X011189Y-027940
X007366Y-023876
X009398Y-028829
X014224Y-012319
X021189Y-014163
X027305Y-018161
X024868Y-014289
X052832Y-061063
X018669Y-014224
X027456Y-014291
X039116Y-014605
X030607Y-031369
X018288Y-049657
X023114Y-046736
X032385Y-036322
X063373Y-056769
X045466Y-059563
X027559Y-064008
X065024Y-035560
X016129Y-035941
X016129Y-038227
X021971Y-026924
X025974Y-036342
X028702Y-034036
X025908Y-038862
X053975Y-065913
X053975Y-057785
X011430Y-056896
X014986Y-060325
X008868Y-056037
X008890Y-056007
X010541Y-046228
X014351Y-031623
X013589Y-035687
X016002Y-062738
X017272Y-060198
X024384Y-022733
X019177Y-010795
X026670Y-020320
X028702Y-031115
X028702Y-029591
X026289Y-028067
X067564Y-013081
X047752Y-011049
X011430Y-039243
X039624Y-020447
X031242Y-020447
X030607Y-036068
X036576Y-036195
X032639Y-040259
X020320Y-039624
X019431Y-026035
X033909Y-025019
X034798Y-032512
X037846Y-032512
X035941Y-036957
X027813Y-025781
X034671Y-026289
X029464Y-027813
X035560Y-027178
X033909Y-031242
X038481Y-031242
X034671Y-030607
X019177Y-041783
X063119Y-040894
X062357Y-041783
X019812Y-022733
X013081Y-037973
X042418Y-013970
X014351Y-037973
X042418Y-014859
X015113Y-037592
X041529Y-015367
X064643Y-011811
X068199Y-013970
X064638Y-013076
X067564Y-014986
X042400Y-010537
X033274Y-033782
X029718Y-035052
X036957Y-031877
X028956Y-035814
X030480Y-049911
X026924Y-036703
X037211Y-037592
X037465Y-036068
X018034Y-041783
X039624Y-037084
X022606Y-040005
X015494Y-042037
X015494Y-053467
X035560Y-029845
X040640Y-031369
X039531Y-031403
X034671Y-021209
X040640Y-020574
X035306Y-021971
X040513Y-021717
X039878Y-036322
X039878Y-035433
X039878Y-034417
X030480Y-046736
X063754Y-046863
X030480Y-048641
X063881Y-048641
X040767Y-030480
X037592Y-029083
X035941Y-022860
X040513Y-022860
X065913Y-050165
X062865Y-052451
X040894Y-029591
X039243Y-023495
X040767Y-028448
X040005Y-024257
X040767Y-027178
X040767Y-025019
X058547Y-040259
X063119Y-032004
X066421Y-026162
X059436Y-020701
X058166Y-019431
X056896Y-018161
X055626Y-016891
X089027Y-009144
X089027Y-017272
X080623Y-037435
X080645Y-018669
X078740Y-027178
X085852Y-040005
X096520Y-037719
X081915Y-029464
X081153Y-007874
X082677Y-028702
X082931Y-009271
X098911Y-055616
X089154Y-054229
X089154Y-055245
X081153Y-055753
X087249Y-068961
X086360Y-068961
X081788Y-040513
X081788Y-065786
X082550Y-042291
X083820Y-063246
X083439Y-057658
X083439Y-025908
X088011Y-031623
X087249Y-034163
X084709Y-036195
X085725Y-041402
X090297Y-044577
X090297Y-030480
X089408Y-043561
X089408Y-031115
X086233Y-030607
X086360Y-025273
X010795Y-036449
X023663Y-027772
X026289Y-026162
X040005Y-016002
X037592Y-019177
X026670Y-066294
X066371Y-031703
X066371Y-040553
X066548Y-033655
X066802Y-038481
X035052Y-008763
X023495Y-006096
X011651Y-006043
X011651Y-009759
X009144Y-008255
X063119Y-033020
X060071Y-063754
X022270Y-066294
X009017Y-062484
X008382Y-064516
X008890Y-051689
X009144Y-039751
X005969Y-029464
X006118Y-051716
X006096Y-019304
X066675Y-042418
X066548Y-051054
X063235Y-061829
X062230Y-050673
X065913Y-058801
X065913Y-055337
X067691Y-010922
X068453Y-019685
X068326Y-024765
X068326Y-027506
X063627Y-017653
X063627Y-020574
X026289Y-010287
X090297Y-022098
X096320Y-024636
X095885Y-016510
X091948Y-025400
X096139Y-017526
X092837Y-025781
X097282Y-018415
X091186Y-032131
X085471Y-038608
X082804Y-021336
X088138Y-012446
X088011Y-011430
X060452Y-055753
X028448Y-057150
X014859Y-064389
X029972Y-064643
X013589Y-065278
X028448Y-065278
X023622Y-061849
X039497Y-061849
X024638Y-061087
X033528Y-061087
X021844Y-057277
X023114Y-053340
X025146Y-057277
X030861Y-058293
X046990Y-064135
X057277Y-064643
X021209Y-062738
X061087Y-062738
X036957Y-042545
X031496Y-042418
X057912Y-043561
X057531Y-052070
X051181Y-052959
X057912Y-049657
X053086Y-049657
X057150Y-044450
X020828Y-052832
X020701Y-053848
X021209Y-042545
X016510Y-045339
X027051Y-051181
X037973Y-041529
X024765Y-041656
X035179Y-041783
X019812Y-054991
X029972Y-053213
X032131Y-043942
X034925Y-043942
X030607Y-045466
X056134Y-045466
X045339Y-054102
X055118Y-053467
X055118Y-047371
X032766Y-047371
X043688Y-054229
X059055Y-049784
X033909Y-040259
X035179Y-040005
X033401Y-046355
X055626Y-046482
X056388Y-055880
X053086Y-055880
X055753Y-052705
X042926Y-053721
X042418Y-058420
X030607Y-052197
X059309Y-055499
X058293Y-057531
X031369Y-052070
X059690Y-058039
X059436Y-032639
X058166Y-034163
X056896Y-035560
X055626Y-036576
X047625Y-052070
X042799Y-033655
X043434Y-036576
X061214Y-030607
X030226Y-018288
X015748Y-049784
X019685Y-059055
X033528Y-064643
X036830Y-064643
X040547Y-064643
X047879Y-065913
X061341Y-065913
X063391Y-065913
X063500Y-064008
X031877Y-059563
X036957Y-059690
X042799Y-059690
X046101Y-057658
X049403Y-061595
X026924Y-056388
X025527Y-055499
X017780Y-037846
X023114Y-041783
X026162Y-045593
X021082Y-046863
X061976Y-040259
X046736Y-033909
X048006Y-033909
X049254Y-033909
X050563Y-033909
X051805Y-033909
X053086Y-031877
X054392Y-031877
X044704Y-029591
X043307Y-028321
X035052Y-010922
X035560Y-014224
X029464Y-032258
X027686Y-032766
X032639Y-028448
X032639Y-030099
X060198Y-060071
X037846Y-043942
X054136Y-043942
X061976Y-029337
X064135Y-026289
M30