G04 Layer: InnerLayer2*
G04 EasyEDA Pro v1.9.29, 2023-05-19 09:05:19*
G04 Gerber Generator version 0.3*
G04 Scale: 100 percent, Rotated: No, Reflected: No*
G04 Dimensions in millimeters*
G04 Leading zeros omitted, absolute positions, 3 integers and 3 decimals*
%FSLAX33Y33*%
%MOMM*%
%ADD999C,0.2032*%
%ADD10C,0.254*%
%ADD11C,5.0*%
%ADD12R,1.999996X1.999996*%
%ADD13C,1.999996*%
%ADD14R,3.199994X1.999996*%
%ADD15C,0.610001*%
%ADD16C,0.5013*%
%ADD17C,0.500024*%
%ADD18C,0.750001*%
%ADD19C,0.499999*%
%ADD20C,0.508*%
G75*


G04 Copper Start*
G36*
G01X8602Y-68097D02*
G01X8602Y-68025D01*
G03X5000Y-64424I-3602J0D01*
G01X3102D01*
G01Y-8627D01*
G01X5000D01*
G03X8602Y-5025I0J3602D01*
G01Y-3127D01*
G01X36398D01*
G01Y-10033D01*
G03X36500Y-10135I102J0D01*
G01X69898D01*
G01Y-64424D01*
G01X68000D01*
G03X64398Y-68025I0J-3602D01*
G01Y-68097D01*
G01X52657D01*
G01X53265Y-67489D01*
G03X53444Y-67056I-433J433D01*
G01Y-66310D01*
G03X53975Y-66576I531J397D01*
G03X54638Y-65913I0J663D01*
G03X54587Y-65658I-663J0D01*
G01Y-64643D01*
G03X54408Y-64210I-612J0D01*
G01X54312Y-64115D01*
G03X53879Y-63935I-433J-433D01*
G01X53444D01*
G01Y-61318D01*
G01X53445Y-61315D01*
G01X54408Y-60352D01*
G03X54587Y-59920I-433J433D01*
G01Y-58040D01*
G03X54638Y-57785I-612J255D01*
G03X54501Y-57381I-663J0D01*
G01X59606D01*
G03X59027Y-58039I84J-658D01*
G03X59690Y-58702I663J0D01*
G03X60353Y-58039I0J663D01*
G03X59774Y-57381I-663J0D01*
G01X63118D01*
G03X63373Y-57432I255J612D01*
G03X63628Y-57381I0J663D01*
G01X67310D01*
G03X67743Y-57202I0J612D01*
G01X67997Y-56948D01*
G03X68176Y-56515I-433J433D01*
G01Y-35525D01*
G03X68049Y-35152I-612J0D01*
G01Y-17399D01*
G03X67870Y-16966I-612J0D01*
G01X64643Y-13739D01*
G03X65301Y-13076I-5J663D01*
G03X64840Y-12444I-663J0D01*
G03X65306Y-11811I-197J633D01*
G03X64643Y-11148I-663J0D01*
G03X63980Y-11811I0J-663D01*
G03X64441Y-12443I663J0D01*
G03X63975Y-13071I197J-633D01*
G01X63298Y-12394D01*
G03X62865Y-12215I-433J-433D01*
G01X40894D01*
G03X40461Y-12394I0J-612D01*
G01X38863Y-13992D01*
G01X38861Y-13993D01*
G01X37338D01*
G03X36905Y-14172I0J-612D01*
G01X35306Y-15771D01*
G01X28190D01*
G01X28068D01*
G01Y-14546D01*
G03X28119Y-14291I-612J255D01*
G03X27456Y-13628I-663J0D01*
G03X26793Y-14291I0J-663D01*
G03X26844Y-14546I663J0D01*
G01Y-14610D01*
G03X26719Y-14429I-555J-249D01*
G01X26149Y-13859D01*
G03X25719Y-13681I-430J-430D01*
G01X25500D01*
G01Y-13589D01*
G03X25322Y-13159I-608J0D01*
G01X25068Y-12905D01*
G03X24638Y-12727I-430J-430D01*
G01X22017D01*
G03X21587Y-12905I0J-608D01*
G01X20946Y-13546D01*
G03X20799Y-13626I243J-617D01*
G01Y-12623D01*
G01X23821Y-9601D01*
G01X28605D01*
G03X29338Y-8868I0J733D01*
G03X28605Y-8135I-733J0D01*
G01X23517D01*
G03X22999Y-8349I0J-733D01*
G01X19548Y-11801D01*
G03X19333Y-12319I518J-518D01*
G01Y-13024D01*
G03X19187Y-12817I-664J-311D01*
G01X18171Y-11801D01*
G03X17653Y-11586I-518J-518D01*
G01X14224D01*
G01X9398D01*
G03X8880Y-11801I0J-733D01*
G01X8425Y-12256D01*
G03X8210Y-12774I518J-518D01*
G01Y-13467D01*
G03X8943Y-14200I733J0D01*
G03X9676Y-13467I0J733D01*
G01Y-13078D01*
G01X9702Y-13052D01*
G01X14224D01*
G01X17349D01*
G01X17936Y-13639D01*
G01Y-14224D01*
G01Y-19508D01*
G01X16500Y-20945D01*
G03X16285Y-21463I518J-518D01*
G01Y-22803D01*
G03X15621Y-22381I-664J-311D01*
G01X11938D01*
G03X11420Y-22596I0J-733D01*
G01X10658Y-23358D01*
G03X10443Y-23876I518J-518D01*
G01Y-27933D01*
G01Y-29210D01*
G03X10658Y-29728I733J0D01*
G01X11420Y-30490D01*
G03X11938Y-30705I518J518D01*
G03X12671Y-29972I0J733D01*
G03X12456Y-29454I-733J0D01*
G01X11909Y-28906D01*
G01Y-27933D01*
G01Y-24180D01*
G01X12242Y-23847D01*
G01X15621D01*
G03X16285Y-23425I0J733D01*
G01Y-28956D01*
G03X16500Y-29474I733J0D01*
G01X17389Y-30363D01*
G03X17907Y-30578I518J518D01*
G01X18873D01*
G01X20183Y-31887D01*
G03X20701Y-32102I518J518D01*
G01X21590D01*
G03X22323Y-31369I0J733D01*
G03X21590Y-30636I-733J0D01*
G01X21005D01*
G01X19695Y-29327D01*
G03X19177Y-29112I-518J-518D01*
G01X18211D01*
G01X17751Y-28652D01*
G01Y-23868D01*
G01X18151Y-24267D01*
G03X18669Y-24482I518J518D01*
G01X21079D01*
G01X21486D01*
G01Y-26472D01*
G03X21308Y-26924I485J-452D01*
G03X21971Y-27587I663J0D01*
G03X22634Y-26924I0J663D01*
G03X22456Y-26472I-663J0D01*
G01Y-24152D01*
G03X22577Y-23749I-612J403D01*
G01Y-20193D01*
G01Y-18894D01*
G01X23876D01*
G03X24609Y-18161I0J733D01*
G03X23876Y-17428I-733J0D01*
G01X21847D01*
G01X21336D01*
G01X21005D01*
G01X20799Y-17222D01*
G01Y-16002D01*
G01Y-14700D01*
G03X21189Y-14826I390J537D01*
G03X21806Y-14406I0J663D01*
G01X22269Y-13943D01*
G01X24284D01*
G01Y-13975D01*
G03X24205Y-14289I584J-314D01*
G03X24868Y-14952I663J0D01*
G03X25132Y-14897I0J663D01*
G01X25467D01*
G01X25681Y-15111D01*
G01Y-17145D01*
G03X25859Y-17575I608J0D01*
G01X26688Y-18404D01*
G01X26697Y-18425D01*
G01Y-19433D01*
G01X26427Y-19703D01*
G03X26007Y-20320I243J-617D01*
G03X26062Y-20584I663J0D01*
G01Y-22606D01*
G03X26240Y-23036I608J0D01*
G01X26494Y-23290D01*
G03X26924Y-23468I430J430D01*
G01X27942D01*
G01X28094Y-23620D01*
G01Y-25180D01*
G03X27813Y-25118I-281J-601D01*
G03X27150Y-25781I0J-663D01*
G03X27813Y-26444I663J0D01*
G03X28094Y-26382I0J663D01*
G01Y-27048D01*
G01X26822D01*
G03X26479Y-27191I0J-485D01*
G01X26266Y-27404D01*
G03X25626Y-28067I23J-663D01*
G03X26289Y-28730I663J0D01*
G03X26952Y-28090I0J663D01*
G01X27023Y-28019D01*
G01X28094D01*
G01Y-29327D01*
G03X28039Y-29591I608J-264D01*
G03X28094Y-29855I663J0D01*
G01Y-30851D01*
G03X28039Y-31115I608J-264D01*
G03X28094Y-31379I663J0D01*
G01Y-33428D01*
G01X27297D01*
G03X26867Y-33606I0J-608D01*
G01X26367Y-34106D01*
G03X26189Y-34536I430J-430D01*
G01Y-35308D01*
G01X25792Y-35705D01*
G03X25311Y-36342I182J-638D01*
G03X25974Y-37005I663J0D01*
G03X26298Y-36921I0J663D01*
G03X26924Y-37366I626J218D01*
G03X27587Y-36703I0J663D01*
G03X27141Y-36076I-663J0D01*
G01X27227Y-35990D01*
G03X27405Y-35560I-430J430D01*
G01Y-34788D01*
G01X27549Y-34644D01*
G01X28438D01*
G03X28702Y-34699I264J608D01*
G03X29365Y-34036I0J663D01*
G03X29310Y-33772I-663J0D01*
G01Y-31379D01*
G03X29365Y-31115I-608J264D01*
G03X29310Y-30851I-663J0D01*
G01Y-29855D01*
G03X29365Y-29591I-608J264D01*
G03X29310Y-29327I-663J0D01*
G01Y-28458D01*
G03X29464Y-28476I154J645D01*
G03X29995Y-28210I0J663D01*
G01Y-31114D01*
G03X29944Y-31369I612J-255D01*
G03X30354Y-31982I663J0D01*
G01X31011Y-32639D01*
G01Y-35542D01*
G03X30607Y-35405I-404J-526D01*
G03X29944Y-36068I0J-663D01*
G03X30607Y-36731I663J0D01*
G03X31011Y-36594I0J663D01*
G01Y-40259D01*
G01X30099Y-41171D01*
G01X27432D01*
G03X26999Y-41350I0J-612D01*
G01X26491Y-41858D01*
G03X26312Y-42291I433J-433D01*
G01Y-47752D01*
G01X26289Y-47775D01*
G01X23599D01*
G01Y-47188D01*
G03X23777Y-46736I-485J452D01*
G03X23114Y-46073I-663J0D01*
G03X22451Y-46736I0J-663D01*
G03X22629Y-47188I663J0D01*
G01Y-47775D01*
G01X21849D01*
G01X20828D01*
G03X20395Y-47954I0J-612D01*
G01X19304Y-49045D01*
G01X18543D01*
G03X18288Y-48994I-255J-612D01*
G03X17625Y-49657I0J-663D01*
G03X18288Y-50320I663J0D01*
G03X18543Y-50269I0J663D01*
G01X19558D01*
G03X19991Y-50090I0J612D01*
G01X21082Y-48999D01*
G01X21364D01*
G01Y-52442D01*
G03X20828Y-52169I-536J-390D01*
G03X20165Y-52832I0J-663D01*
G03X20346Y-53288I663J0D01*
G03X20038Y-53848I355J-560D01*
G03X20701Y-54511I663J0D01*
G03X21364Y-53859I0J663D01*
G01Y-56819D01*
G03X21181Y-57277I480J-458D01*
G03X21844Y-57940I663J0D01*
G03X22507Y-57277I0J663D01*
G03X22334Y-56831I-663J0D01*
G01Y-53825D01*
G01X22662D01*
G03X23114Y-54003I452J485D01*
G03X23566Y-53825I0J663D01*
G01X24765D01*
G03X25108Y-53683I0J485D01*
G01X26954Y-51837D01*
G03X27051Y-51844I97J656D01*
G03X27714Y-51181I0J663D01*
G03X27051Y-50518I-663J0D01*
G03X26411Y-51008I0J-663D01*
G01X24564Y-52855D01*
G01X23566D01*
G03X23114Y-52677I-452J-485D01*
G03X22662Y-52855I0J-663D01*
G01X22334D01*
G01Y-48999D01*
G01X23132D01*
G01X26543D01*
G03X26976Y-48820I0J612D01*
G01X27357Y-48439D01*
G03X27536Y-48006I-433J433D01*
G01Y-42545D01*
G01X27686Y-42395D01*
G01X30353D01*
G03X30786Y-42216I0J612D01*
G01X30931Y-42070D01*
G03X30833Y-42418I565J-348D01*
G03X31496Y-43081I663J0D01*
G03X32159Y-42418I0J663D01*
G03X31496Y-41755I-663J0D01*
G03X31148Y-41853I0J-663D01*
G01X32056Y-40946D01*
G03X32189Y-40746I-433J433D01*
G03X32639Y-40922I450J487D01*
G03X33274Y-40450I0J663D01*
G03X33909Y-40922I635J191D01*
G03X34572Y-40272I0J663D01*
G03X35179Y-40668I607J267D01*
G03X35842Y-40005I0J663D01*
G03X35179Y-39342I-663J0D01*
G03X34516Y-39992I0J-663D01*
G03X33909Y-39596I-607J-267D01*
G03X33274Y-40068I0J-663D01*
G03X32639Y-39596I-635J-191D01*
G03X32235Y-39733I0J-663D01*
G01Y-36968D01*
G03X32385Y-36985I150J646D01*
G03X33048Y-36322I0J663D01*
G03X32385Y-35659I-663J0D01*
G03X32235Y-35676I0J-663D01*
G01Y-32997D01*
G01X34346D01*
G03X34798Y-33175I452J485D01*
G03X35250Y-32997I0J663D01*
G01X37394D01*
G03X37846Y-33175I452J485D01*
G03X38509Y-32512I0J663D01*
G03X37846Y-31849I-663J0D01*
G03X37620Y-31889I0J-663D01*
G01Y-31877D01*
G03X36957Y-31214I-663J0D01*
G03X36294Y-31877I0J-663D01*
G03X36311Y-32027I663J0D01*
G01X35250D01*
G03X34798Y-31849I-452J-485D01*
G03X34346Y-32027I0J-663D01*
G01X32119D01*
G03X32056Y-31952I-496J-358D01*
G01X31220Y-31116D01*
G01X31219Y-31114D01*
G01Y-23622D01*
G03X31040Y-23189I-612J0D01*
G01X28803Y-20952D01*
G01Y-16995D01*
G01X35560D01*
G03X35993Y-16816I0J612D01*
G01X37592Y-15217D01*
G01X38861D01*
G03X39116Y-15268I255J612D01*
G03X39729Y-14858I0J663D01*
G01X41148Y-13439D01*
G01X42021D01*
G03X41755Y-13970I397J-531D01*
G03X41926Y-14414I663J0D01*
G03X41764Y-14747I492J-444D01*
G03X41529Y-14704I-235J-620D01*
G03X40866Y-15367I0J-663D01*
G03X41529Y-16030I663J0D01*
G03X42183Y-15479I0J663D01*
G03X42418Y-15522I235J620D01*
G03X43081Y-14859I0J663D01*
G03X42910Y-14414I-663J0D01*
G03X43081Y-13970I-492J445D01*
G03X42815Y-13439I-663J0D01*
G01X62611D01*
G01X66825Y-17653D01*
G01Y-25636D01*
G03X66421Y-25499I-404J-526D01*
G03X65758Y-26162I0J-663D01*
G03X66421Y-26825I663J0D01*
G03X66825Y-26688I0J663D01*
G01Y-35075D01*
G01X65476D01*
G03X65024Y-34897I-452J-485D01*
G03X64361Y-35560I0J-663D01*
G03X65024Y-36223I663J0D01*
G03X65476Y-36045I0J663D01*
G01X66952D01*
G01Y-56157D01*
G01X63628D01*
G03X63373Y-56106I-255J-612D01*
G03X63118Y-56157I0J-663D01*
G01X60978D01*
G03X61115Y-55753I-526J404D01*
G03X60452Y-55090I-663J0D01*
G03X59948Y-55322I0J-663D01*
G03X59309Y-54836I-639J-177D01*
G03X58646Y-55499I0J-663D01*
G03X59225Y-56157I663J0D01*
G01X56991D01*
G03X57051Y-55880I-603J277D01*
G03X56388Y-55217I-663J0D01*
G03X55725Y-55880I0J-663D01*
G03X55785Y-56157I663J0D01*
G01X53689D01*
G03X53749Y-55880I-603J277D01*
G03X53086Y-55217I-663J0D01*
G03X52423Y-55880I0J-663D01*
G03X52483Y-56157I663J0D01*
G01X48260D01*
G03X47827Y-56336I0J-612D01*
G01X45213Y-58950D01*
G03X44803Y-59563I253J-613D01*
G03X44854Y-59818I663J0D01*
G01Y-64643D01*
G01X43561Y-65936D01*
G01X28532D01*
G03X29111Y-65278I-84J658D01*
G03X28448Y-64615I-663J0D01*
G03X28171Y-64675I0J-663D01*
G01Y-64263D01*
G03X28222Y-64008I-612J255D01*
G03X28044Y-63556I-663J0D01*
G01Y-58748D01*
G01X28791Y-58001D01*
G03X28933Y-57658I-343J343D01*
G01Y-57602D01*
G03X29111Y-57150I-485J452D01*
G03X28448Y-56487I-663J0D01*
G03X27785Y-57150I0J-663D01*
G03X27899Y-57521I663J0D01*
G01X27216Y-58204D01*
G03X27074Y-58547I343J-343D01*
G01Y-63396D01*
G01X21293D01*
G03X21872Y-62738I-84J658D01*
G03X21209Y-62075I-663J0D01*
G03X20546Y-62738I0J-663D01*
G03X21125Y-63396I663J0D01*
G01X16614D01*
G01Y-62993D01*
G03X16665Y-62738I-612J255D01*
G03X16614Y-62483I-663J0D01*
G01Y-61468D01*
G01X16637Y-61445D01*
G03X17070Y-61266I0J612D01*
G01X17525Y-60811D01*
G03X17935Y-60198I-253J613D01*
G03X17272Y-59535I-663J0D01*
G03X16659Y-59945I0J-663D01*
G01X16383Y-60221D01*
G03X15950Y-60400I0J-612D01*
G01X15569Y-60781D01*
G03X15390Y-61214I433J-433D01*
G01Y-62483D01*
G03X15339Y-62738I612J-255D01*
G03X15390Y-62993I663J0D01*
G01Y-63992D01*
G03X14859Y-63726I-531J-397D01*
G03X14196Y-64389I0J-663D01*
G03X14859Y-65052I663J0D01*
G03X15522Y-64389I0J663D01*
G01Y-64388D01*
G03X16002Y-64620I480J380D01*
G01X26947D01*
G01Y-66548D01*
G03X27254Y-67079I612J0D01*
G01X14097D01*
G01X11153Y-64135D01*
G01Y-57508D01*
G01X11175D01*
G03X11430Y-57559I255J612D01*
G03X11685Y-57508I0J663D01*
G01X12827D01*
G01X12850Y-57531D01*
G01Y-59690D01*
G03X13029Y-60123I612J0D01*
G01X13664Y-60758D01*
G03X14097Y-60937I433J433D01*
G01X14731D01*
G03X14986Y-60988I255J612D01*
G03X15649Y-60325I0J663D01*
G03X14986Y-59662I-663J0D01*
G03X14731Y-59713I0J-663D01*
G01X14351D01*
G01X14074Y-59436D01*
G01Y-57277D01*
G03X13895Y-56844I-612J0D01*
G01X13514Y-56463D01*
G03X13081Y-56284I-433J-433D01*
G01X11685D01*
G03X11430Y-56233I-255J-612D01*
G03X11175Y-56284I0J-663D01*
G01X11153D01*
G01Y-56043D01*
G01Y-46483D01*
G03X11204Y-46228I-612J255D01*
G03X11153Y-45973I-663J0D01*
G01Y-42037D01*
G01X11684Y-41506D01*
G01X17431D01*
G03X17371Y-41783I603J-277D01*
G03X18034Y-42446I663J0D01*
G03X18606Y-42119I0J663D01*
G03X19177Y-42446I572J336D01*
G03X19840Y-41783I0J663D01*
G03X19780Y-41506I-663J0D01*
G01X24119D01*
G03X24102Y-41656I646J-150D01*
G03X24765Y-42319I663J0D01*
G03X25428Y-41656I0J663D01*
G03X24886Y-41004I-663J0D01*
G01X26341Y-39549D01*
G03X26520Y-39117I-433J433D01*
G03X26571Y-38862I-612J255D01*
G03X25908Y-38199I-663J0D01*
G03X25245Y-38862I0J-663D01*
G03X25247Y-38912I663J0D01*
G01X23876Y-40282D01*
G01X23209D01*
G03X23269Y-40005I-603J277D01*
G03X22606Y-39342I-663J0D01*
G03X21943Y-40005I0J-663D01*
G03X22003Y-40282I663J0D01*
G01X20404D01*
G03X20983Y-39624I-84J658D01*
G03X20320Y-38961I-663J0D01*
G03X20128Y-38989I0J-663D01*
G01Y-33867D01*
G03X19949Y-33434I-612J0D01*
G01X19483Y-32968D01*
G03X19050Y-32789I-433J-433D01*
G01X16383D01*
G01X14964Y-31370D01*
G03X14351Y-30960I-613J-253D01*
G03X13688Y-31623I0J-663D01*
G03X14098Y-32236I663J0D01*
G01X15696Y-33834D01*
G03X16129Y-34013I433J433D01*
G01X18796D01*
G01X18904Y-34121D01*
G01Y-40282D01*
G01X12042D01*
G01Y-39498D01*
G03X12093Y-39243I-612J255D01*
G03X11430Y-38580I-663J0D01*
G03X10767Y-39243I0J-663D01*
G03X10818Y-39498I663J0D01*
G01Y-40640D01*
G01X10108Y-41350D01*
G03X9929Y-41783I433J-433D01*
G01Y-45973D01*
G03X9878Y-46228I612J-255D01*
G03X9929Y-46483I663J0D01*
G01Y-55399D01*
G01X9154D01*
G03X8890Y-55344I-264J-608D01*
G03X8346Y-55627I0J-663D01*
G03X8205Y-56037I522J-409D01*
G03X8868Y-56700I663J0D01*
G03X9192Y-56615I0J663D01*
G01X9929D01*
G01Y-56885D01*
G01Y-64389D01*
G03X10108Y-64822I612J0D01*
G01X13383Y-68097D01*
G01X8602D01*
G37*
%LPC*%
G36*
G01X9398Y-29562D02*
G03X10131Y-28829I0J733D01*
G03X9916Y-28311I-733J0D01*
G01X8099Y-26493D01*
G01Y-23876D01*
G03X7366Y-23143I-733J0D01*
G03X6633Y-23876I0J-733D01*
G01Y-26797D01*
G03X6848Y-27315I733J0D01*
G01X8880Y-29347D01*
G03X9398Y-29562I518J518D01*
G37*
G36*
G01X38946Y-31715D02*
G03X39531Y-32066I585J312D01*
G03X40097Y-31750I0J663D01*
G03X40640Y-32032I543J381D01*
G03X41303Y-31369I0J663D01*
G03X41187Y-30994I-663J0D01*
G03X41430Y-30480I-420J514D01*
G03X41314Y-30105I-663J0D01*
G03X41557Y-29591I-420J514D01*
G03X41159Y-28983I-663J0D01*
G03X41430Y-28448I-392J535D01*
G03X40958Y-27813I-663J0D01*
G03X41430Y-27178I-191J635D01*
G03X40767Y-26515I-663J0D01*
G03X40104Y-27178I0J-663D01*
G03X40576Y-27813I663J0D01*
G03X40104Y-28448I191J-635D01*
G03X40502Y-29056I663J0D01*
G03X40231Y-29591I392J-535D01*
G03X40347Y-29966I663J0D01*
G03X40104Y-30480I420J-514D01*
G03X40220Y-30855I663J0D01*
G03X40074Y-31023I420J-514D01*
G03X39531Y-30740I-543J-381D01*
G03X39066Y-30930I0J-663D01*
G03X38481Y-30579I-585J-312D01*
G03X37818Y-31242I0J-663D01*
G03X38481Y-31905I663J0D01*
G03X38946Y-31715I0J663D01*
G37*
G36*
G01X39850Y-22860D02*
G03X40513Y-23523I663J0D01*
G03X41176Y-22860I0J663D01*
G03X40849Y-22288I-663J0D01*
G03X41176Y-21717I-336J572D01*
G03X40905Y-21182I-663J0D01*
G03X41303Y-20574I-265J608D01*
G03X40640Y-19911I-663J0D01*
G03X40184Y-20092I0J-663D01*
G03X39624Y-19784I-560J-355D01*
G03X38961Y-20447I0J-663D01*
G03X39624Y-21110I663J0D01*
G03X40080Y-20929I0J663D01*
G03X40248Y-21109I560J355D01*
G03X39850Y-21717I265J-608D01*
G03X40177Y-22288I663J0D01*
G03X39850Y-22860I336J-571D01*
G37*
G36*
G01X16129Y-38890D02*
G03X16792Y-38227I0J663D01*
G03X16129Y-37564I-663J0D01*
G03X15772Y-37668I0J-663D01*
G03X15776Y-37592I-659J76D01*
G03X15113Y-36929I-663J0D01*
G03X14505Y-37328I0J-663D01*
G03X14351Y-37310I-154J-645D01*
G03X13716Y-37782I0J-663D01*
G03X13081Y-37310I-635J-191D01*
G03X12418Y-37973I0J-663D01*
G03X13081Y-38636I663J0D01*
G03X13716Y-38164I0J663D01*
G03X14351Y-38636I635J191D01*
G03X14959Y-38237I0J663D01*
G03X15113Y-38255I154J645D01*
G03X15470Y-38151I0J663D01*
G03X15466Y-38227I659J-76D01*
G03X16129Y-38890I663J0D01*
G37*
G36*
G01X40767Y-25682D02*
G03X41430Y-25019I0J663D01*
G03X40767Y-24356I-663J0D01*
G03X40659Y-24365I0J-663D01*
G03X40668Y-24257I-654J108D01*
G03X40005Y-23594I-663J0D01*
G03X39897Y-23603I0J-663D01*
G03X39906Y-23495I-654J108D01*
G03X39243Y-22832I-663J0D01*
G03X38580Y-23495I0J-663D01*
G03X39243Y-24158I663J0D01*
G03X39351Y-24149I0J663D01*
G03X39342Y-24257I654J-108D01*
G03X40005Y-24920I663J0D01*
G03X40113Y-24911I0J663D01*
G03X40104Y-25019I654J-108D01*
G03X40767Y-25682I663J0D01*
G37*
G36*
G01X33246Y-31242D02*
G03X33909Y-31905I663J0D01*
G03X34572Y-31263I0J663D01*
G03X34671Y-31270I99J656D01*
G03X35334Y-30607I0J663D01*
G03X35318Y-30462I-663J0D01*
G03X35560Y-30508I242J617D01*
G03X36223Y-29845I0J663D01*
G03X35560Y-29182I-663J0D01*
G03X34897Y-29845I0J-663D01*
G03X34913Y-29990I663J0D01*
G03X34671Y-29944I-242J-617D01*
G03X34008Y-30586I0J-663D01*
G03X33909Y-30579I-99J-656D01*
G03X33246Y-31242I0J-663D01*
G37*
G36*
G01X35941Y-23523D02*
G03X36604Y-22860I0J663D01*
G03X35941Y-22197I-663J0D01*
G01X35929D01*
G03X35969Y-21971I-623J226D01*
G03X35327Y-21308I-663J0D01*
G03X35334Y-21209I-656J99D01*
G03X34671Y-20546I-663J0D01*
G03X34008Y-21209I0J-663D01*
G03X34650Y-21872I663J0D01*
G03X34643Y-21971I656J-99D01*
G03X35306Y-22634I663J0D01*
G01X35318D01*
G03X35278Y-22860I623J-226D01*
G03X35941Y-23523I663J0D01*
G37*
G36*
G01X55118Y-48034D02*
G03X55781Y-47371I0J663D01*
G03X55738Y-47136I-663J0D01*
G03X56289Y-46482I-112J654D01*
G03X56186Y-46127I-663J0D01*
G03X56797Y-45466I-52J661D01*
G03X56134Y-44803I-663J0D01*
G03X55471Y-45466I0J-663D01*
G03X55574Y-45821I663J0D01*
G03X54963Y-46482I52J-661D01*
G03X55006Y-46717I663J0D01*
G03X54455Y-47371I112J-654D01*
G03X55118Y-48034I663J0D01*
G37*
G36*
G01X29972Y-53876D02*
G03X30635Y-53213I0J663D01*
G03X30531Y-52856I-663J0D01*
G03X30607Y-52860I76J659D01*
G03X31077Y-52665I0J663D01*
G03X31369Y-52733I292J595D01*
G03X32032Y-52070I0J663D01*
G03X31369Y-51407I-663J0D01*
G03X30899Y-51602I0J-663D01*
G03X30607Y-51534I-292J-595D01*
G03X29944Y-52197I0J-663D01*
G03X30048Y-52554I663J0D01*
G03X29972Y-52550I-76J-659D01*
G03X29309Y-53213I0J-663D01*
G03X29972Y-53876I663J0D01*
G37*
G36*
G01X67564Y-15649D02*
G03X68227Y-14986I0J663D01*
G03X68123Y-14629I-663J0D01*
G03X68199Y-14633I76J659D01*
G03X68862Y-13970I0J663D01*
G03X68199Y-13307I-663J0D01*
G01X68187D01*
G03X68227Y-13081I-623J226D01*
G03X67564Y-12418I-663J0D01*
G03X66901Y-13081I0J-663D01*
G03X67564Y-13744I663J0D01*
G01X67576D01*
G03X67536Y-13970I623J-226D01*
G03X67640Y-14327I663J0D01*
G03X67564Y-14323I-76J-659D01*
G03X66901Y-14986I0J-663D01*
G03X67564Y-15649I663J0D01*
G37*
G36*
G01X39624Y-37747D02*
G03X40287Y-37084I0J663D01*
G03X40252Y-36870I-663J0D01*
G03X40541Y-36322I-374J548D01*
G03X40370Y-35877I-663J0D01*
G03X40541Y-35433I-492J445D01*
G03X40304Y-34925I-663J0D01*
G03X40541Y-34417I-426J508D01*
G03X39878Y-33754I-663J0D01*
G03X39215Y-34417I0J-663D01*
G03X39452Y-34925I663J0D01*
G03X39215Y-35433I426J-508D01*
G03X39386Y-35877I663J0D01*
G03X39215Y-36322I492J-444D01*
G03X39250Y-36536I663J0D01*
G03X38961Y-37084I374J-548D01*
G03X39624Y-37747I663J0D01*
G37*
G36*
G01X35560Y-27841D02*
G03X36223Y-27178I0J663D01*
G03X35560Y-26515I-663J0D01*
G03X35265Y-26584I0J-663D01*
G03X35334Y-26289I-594J295D01*
G03X34671Y-25626I-663J0D01*
G03X34008Y-26289I0J-663D01*
G03X34671Y-26952I663J0D01*
G03X34966Y-26883I0J663D01*
G03X34897Y-27178I594J-295D01*
G03X35560Y-27841I663J0D01*
G37*
G36*
G01X23622Y-62512D02*
G03X24285Y-61849I0J663D01*
G03X24245Y-61621I-663J0D01*
G03X24638Y-61750I393J534D01*
G03X25301Y-61087I0J663D01*
G03X24638Y-60424I-663J0D01*
G03X23975Y-61087I0J-663D01*
G03X24015Y-61315I663J0D01*
G03X23622Y-61186I-393J-534D01*
G03X22959Y-61849I0J-663D01*
G03X23622Y-62512I663J0D01*
G37*
G36*
G01X57150Y-45113D02*
G03X57813Y-44450I0J663D01*
G03X57767Y-44208I-663J0D01*
G03X57912Y-44224I145J647D01*
G03X58575Y-43561I0J663D01*
G03X57912Y-42898I-663J0D01*
G03X57249Y-43561I0J-663D01*
G03X57295Y-43803I663J0D01*
G03X57150Y-43787I-145J-647D01*
G03X56487Y-44450I0J-663D01*
G03X57150Y-45113I663J0D01*
G37*
G36*
G01X62357Y-42446D02*
G03X63020Y-41783I0J663D01*
G03X62974Y-41541I-663J0D01*
G03X63119Y-41557I145J647D01*
G03X63782Y-40894I0J663D01*
G03X63119Y-40231I-663J0D01*
G03X62456Y-40894I0J-663D01*
G03X62502Y-41136I663J0D01*
G03X62357Y-41120I-145J-647D01*
G03X61694Y-41783I0J-663D01*
G03X62357Y-42446I663J0D01*
G37*
G36*
G01X32103Y-47371D02*
G03X32766Y-48034I663J0D01*
G03X33429Y-47371I0J663D01*
G03X33325Y-47014I-663J0D01*
G03X33401Y-47018I76J659D01*
G03X34064Y-46355I0J663D01*
G03X33401Y-45692I-663J0D01*
G03X32738Y-46355I0J-663D01*
G03X32842Y-46712I663J0D01*
G03X32766Y-46708I-76J-659D01*
G03X32103Y-47371I0J-663D01*
G37*
G36*
G01X28293Y-35814D02*
G03X28956Y-36477I663J0D01*
G03X29619Y-35814I0J663D01*
G03X29610Y-35706I-663J0D01*
G03X29718Y-35715I108J654D01*
G03X30381Y-35052I0J663D01*
G03X29718Y-34389I-663J0D01*
G03X29055Y-35052I0J-663D01*
G03X29064Y-35160I663J0D01*
G03X28956Y-35151I-108J-654D01*
G03X28293Y-35814I0J-663D01*
G37*
G36*
G01X55118Y-54130D02*
G03X55781Y-53467I0J663D01*
G03X55774Y-53368I-663J0D01*
G03X56416Y-52705I-21J663D01*
G03X55753Y-52042I-663J0D01*
G03X55090Y-52705I0J-663D01*
G03X55097Y-52804I663J0D01*
G03X54455Y-53467I21J-663D01*
G03X55118Y-54130I663J0D01*
G37*
G36*
G01X43688Y-54892D02*
G03X44351Y-54229I0J663D01*
G03X43688Y-53566I-663J0D01*
G03X43573Y-53576I0J-663D01*
G03X42926Y-53058I-647J-145D01*
G03X42263Y-53721I0J-663D01*
G03X42926Y-54384I663J0D01*
G03X43041Y-54374I0J663D01*
G03X43688Y-54892I647J145D01*
G37*
G36*
G01X30480Y-47399D02*
G03X31143Y-46736I0J663D01*
G03X30723Y-46119I-663J0D01*
G03X31270Y-45466I-116J653D01*
G03X30607Y-44803I-663J0D01*
G03X29944Y-45466I0J-663D01*
G03X30364Y-46083I663J0D01*
G03X29817Y-46736I116J-653D01*
G03X30480Y-47399I663J0D01*
G37*
G36*
G01X59055Y-50447D02*
G03X59718Y-49784I0J663D01*
G03X59055Y-49121I-663J0D01*
G03X58520Y-49392I0J-663D01*
G03X57912Y-48994I-608J-265D01*
G03X57249Y-49657I0J-663D01*
G03X57912Y-50320I663J0D01*
G03X58447Y-50049I0J663D01*
G03X59055Y-50447I608J265D01*
G37*
G36*
G01X30480Y-50574D02*
G03X31143Y-49911I0J663D01*
G03X30671Y-49276I-663J0D01*
G03X31143Y-48641I-191J635D01*
G03X30480Y-47978I-663J0D01*
G03X29817Y-48641I0J-663D01*
G03X30289Y-49276I663J0D01*
G03X29817Y-49911I191J-635D01*
G03X30480Y-50574I663J0D01*
G37*
G36*
G01X35913Y-36195D02*
G03X36576Y-36858I663J0D01*
G03X37090Y-36615I0J663D01*
G03X37465Y-36731I375J547D01*
G03X38128Y-36068I0J663D01*
G03X37465Y-35405I-663J0D01*
G03X36951Y-35648I0J-663D01*
G03X36576Y-35532I-375J-547D01*
G03X35913Y-36195I0J-663D01*
G37*
G36*
G01X41755Y-58420D02*
G03X42418Y-59083I663J0D01*
G03X43081Y-58420I0J663D01*
G03X42418Y-57757I-663J0D01*
G03X41755Y-58420I0J-663D01*
G37*
G36*
G01X55626Y-37239D02*
G03X56289Y-36576I0J663D01*
G03X55626Y-35913I-663J0D01*
G03X54963Y-36576I0J-663D01*
G03X55626Y-37239I663J0D01*
G37*
G36*
G01X44676Y-54102D02*
G03X45339Y-54765I663J0D01*
G03X46002Y-54102I0J663D01*
G03X45339Y-53439I-663J0D01*
G03X44676Y-54102I0J-663D01*
G37*
G36*
G01X34925Y-44605D02*
G03X35588Y-43942I0J663D01*
G03X34925Y-43279I-663J0D01*
G03X34262Y-43942I0J-663D01*
G03X34925Y-44605I663J0D01*
G37*
G36*
G01X33528Y-61750D02*
G03X34191Y-61087I0J663D01*
G03X33528Y-60424I-663J0D01*
G03X32865Y-61087I0J-663D01*
G03X33528Y-61750I663J0D01*
G37*
G36*
G01X52423Y-49657D02*
G03X53086Y-50320I663J0D01*
G03X53749Y-49657I0J663D01*
G03X53086Y-48994I-663J0D01*
G03X52423Y-49657I0J-663D01*
G37*
G36*
G01X57277Y-65306D02*
G03X57940Y-64643I0J663D01*
G03X57277Y-63980I-663J0D01*
G03X56614Y-64643I0J-663D01*
G03X57277Y-65306I663J0D01*
G37*
G36*
G01X51181Y-53622D02*
G03X51844Y-52959I0J663D01*
G03X51181Y-52296I-663J0D01*
G03X50518Y-52959I0J-663D01*
G03X51181Y-53622I663J0D01*
G37*
G36*
G01X62865Y-53114D02*
G03X63528Y-52451I0J663D01*
G03X62865Y-51788I-663J0D01*
G03X62202Y-52451I0J-663D01*
G03X62865Y-53114I663J0D01*
G37*
G36*
G01X58166Y-34826D02*
G03X58829Y-34163I0J663D01*
G03X58166Y-33500I-663J0D01*
G03X57503Y-34163I0J-663D01*
G03X58166Y-34826I663J0D01*
G37*
G36*
G01X56868Y-52070D02*
G03X57531Y-52733I663J0D01*
G03X58194Y-52070I0J663D01*
G03X57531Y-51407I-663J0D01*
G03X56868Y-52070I0J-663D01*
G37*
G36*
G01X33274Y-34445D02*
G03X33937Y-33782I0J663D01*
G03X33274Y-33119I-663J0D01*
G03X32611Y-33782I0J-663D01*
G03X33274Y-34445I663J0D01*
G37*
G36*
G01X65913Y-50828D02*
G03X66576Y-50165I0J663D01*
G03X65913Y-49502I-663J0D01*
G03X65250Y-50165I0J-663D01*
G03X65913Y-50828I663J0D01*
G37*
G36*
G01X56896Y-36223D02*
G03X57559Y-35560I0J663D01*
G03X56896Y-34897I-663J0D01*
G03X56233Y-35560I0J-663D01*
G03X56896Y-36223I663J0D01*
G37*
G36*
G01X36957Y-43208D02*
G03X37620Y-42545I0J663D01*
G03X36957Y-41882I-663J0D01*
G03X36294Y-42545I0J-663D01*
G03X36957Y-43208I663J0D01*
G37*
G36*
G01X37211Y-38255D02*
G03X37874Y-37592I0J663D01*
G03X37211Y-36929I-663J0D01*
G03X36548Y-37592I0J-663D01*
G03X37211Y-38255I663J0D01*
G37*
G36*
G01X34516Y-41783D02*
G03X35179Y-42446I663J0D01*
G03X35842Y-41783I0J663D01*
G03X35179Y-41120I-663J0D01*
G03X34516Y-41783I0J-663D01*
G37*
G36*
G01X63881Y-49304D02*
G03X64544Y-48641I0J663D01*
G03X63881Y-47978I-663J0D01*
G03X63218Y-48641I0J-663D01*
G03X63881Y-49304I663J0D01*
G37*
G36*
G01X39497Y-62512D02*
G03X40160Y-61849I0J663D01*
G03X39497Y-61186I-663J0D01*
G03X38834Y-61849I0J-663D01*
G03X39497Y-62512I663J0D01*
G37*
G36*
G01X37310Y-41529D02*
G03X37973Y-42192I663J0D01*
G03X38636Y-41529I0J663D01*
G03X37973Y-40866I-663J0D01*
G03X37310Y-41529I0J-663D01*
G37*
G36*
G01X63754Y-47526D02*
G03X64417Y-46863I0J663D01*
G03X63754Y-46200I-663J0D01*
G03X63091Y-46863I0J-663D01*
G03X63754Y-47526I663J0D01*
G37*
G36*
G01X60424Y-62738D02*
G03X61087Y-63401I663J0D01*
G03X61750Y-62738I0J663D01*
G03X61087Y-62075I-663J0D01*
G03X60424Y-62738I0J-663D01*
G37*
G36*
G01X58547Y-40922D02*
G03X59210Y-40259I0J663D01*
G03X58547Y-39596I-663J0D01*
G03X57884Y-40259I0J-663D01*
G03X58547Y-40922I663J0D01*
G37*
G36*
G01X13589Y-65941D02*
G03X14252Y-65278I0J663D01*
G03X13589Y-64615I-663J0D01*
G03X12926Y-65278I0J-663D01*
G03X13589Y-65941I663J0D01*
G37*
G36*
G01X59436Y-33302D02*
G03X60099Y-32639I0J663D01*
G03X59436Y-31976I-663J0D01*
G03X58773Y-32639I0J-663D01*
G03X59436Y-33302I663J0D01*
G37*
G36*
G01X32131Y-44605D02*
G03X32794Y-43942I0J663D01*
G03X32131Y-43279I-663J0D01*
G03X31468Y-43942I0J-663D01*
G03X32131Y-44605I663J0D01*
G37*
G36*
G01X62456Y-32004D02*
G03X63119Y-32667I663J0D01*
G03X63782Y-32004I0J663D01*
G03X63119Y-31341I-663J0D01*
G03X62456Y-32004I0J-663D01*
G37*
G36*
G01X47089Y-11049D02*
G03X47752Y-11712I663J0D01*
G03X48415Y-11049I0J663D01*
G03X47752Y-10386I-663J0D01*
G03X47089Y-11049I0J-663D01*
G37*
G36*
G01X16510Y-46002D02*
G03X17173Y-45339I0J663D01*
G03X16510Y-44676I-663J0D01*
G03X15847Y-45339I0J-663D01*
G03X16510Y-46002I663J0D01*
G37*
G36*
G01X15466Y-35941D02*
G03X16129Y-36604I663J0D01*
G03X16792Y-35941I0J663D01*
G03X16129Y-35278I-663J0D01*
G03X15466Y-35941I0J-663D01*
G37*
G36*
G01X54963Y-16891D02*
G03X55626Y-17554I663J0D01*
G03X56289Y-16891I0J663D01*
G03X55626Y-16228I-663J0D01*
G03X54963Y-16891I0J-663D01*
G37*
G36*
G01X20546Y-42545D02*
G03X21209Y-43208I663J0D01*
G03X21872Y-42545I0J663D01*
G03X21209Y-41882I-663J0D01*
G03X20546Y-42545I0J-663D01*
G37*
G36*
G01X59436Y-21364D02*
G03X60099Y-20701I0J663D01*
G03X59436Y-20038I-663J0D01*
G03X58773Y-20701I0J-663D01*
G03X59436Y-21364I663J0D01*
G37*
G36*
G01X19812Y-55654D02*
G03X20475Y-54991I0J663D01*
G03X19812Y-54328I-663J0D01*
G03X19149Y-54991I0J-663D01*
G03X19812Y-55654I663J0D01*
G37*
G36*
G01X57503Y-19431D02*
G03X58166Y-20094I663J0D01*
G03X58829Y-19431I0J663D01*
G03X58166Y-18768I-663J0D01*
G03X57503Y-19431I0J-663D01*
G37*
G36*
G01X24483Y-57277D02*
G03X25146Y-57940I663J0D01*
G03X25809Y-57277I0J663D01*
G03X25146Y-56614I-663J0D01*
G03X24483Y-57277I0J-663D01*
G37*
G36*
G01X56896Y-18824D02*
G03X57559Y-18161I0J663D01*
G03X56896Y-17498I-663J0D01*
G03X56233Y-18161I0J-663D01*
G03X56896Y-18824I663J0D01*
G37*
G36*
G01X30861Y-58956D02*
G03X31524Y-58293I0J663D01*
G03X30861Y-57630I-663J0D01*
G03X30198Y-58293I0J-663D01*
G03X30861Y-58956I663J0D01*
G37*
G36*
G01X33909Y-25682D02*
G03X34572Y-25019I0J663D01*
G03X33909Y-24356I-663J0D01*
G03X33246Y-25019I0J-663D01*
G03X33909Y-25682I663J0D01*
G37*
G36*
G01X29972Y-65306D02*
G03X30635Y-64643I0J663D01*
G03X29972Y-63980I-663J0D01*
G03X29309Y-64643I0J-663D01*
G03X29972Y-65306I663J0D01*
G37*
G36*
G01X61313Y-29337D02*
G03X61976Y-30000I663J0D01*
G03X62639Y-29337I0J663D01*
G03X61976Y-28674I-663J0D01*
G03X61313Y-29337I0J-663D01*
G37*
G36*
G01X36929Y-29083D02*
G03X37592Y-29746I663J0D01*
G03X38255Y-29083I0J663D01*
G03X37592Y-28420I-663J0D01*
G03X36929Y-29083I0J-663D01*
G37*
G36*
G01X19177Y-11458D02*
G03X19840Y-10795I0J663D01*
G03X19177Y-10132I-663J0D01*
G03X18514Y-10795I0J-663D01*
G03X19177Y-11458I663J0D01*
G37*
G36*
G01X18768Y-26035D02*
G03X19431Y-26698I663J0D01*
G03X20094Y-26035I0J663D01*
G03X19431Y-25372I-663J0D01*
G03X18768Y-26035I0J-663D01*
G37*
G36*
G01X23721Y-22733D02*
G03X24384Y-23396I663J0D01*
G03X25047Y-22733I0J663D01*
G03X24384Y-22070I-663J0D01*
G03X23721Y-22733I0J-663D01*
G37*
G36*
G01X30579Y-20447D02*
G03X31242Y-21110I663J0D01*
G03X31905Y-20447I0J663D01*
G03X31242Y-19784I-663J0D01*
G03X30579Y-20447I0J-663D01*
G37*
%LPD*%
G36*
G01X20128Y-40259D02*
G03X20236Y-40282I192J635D01*
G01X20128D01*
G01Y-40259D01*
G37*
G36*
G01X21364Y-53307D02*
G01X21364Y-53837D01*
G03X21183Y-53392I-663J-11D01*
G03X21364Y-53222I-355J560D01*
G01Y-53307D01*
G37*
G36*
G01X28171Y-65881D02*
G03X28364Y-65936I277J603D01*
G01X28171D01*
G01Y-65881D01*
G37*
G36*
G01X52220Y-66802D02*
G01X51943Y-67079D01*
G01X44120D01*
G03X44248Y-66981I-305J531D01*
G01X45899Y-65330D01*
G03X46078Y-64897I-433J433D01*
G01Y-59818D01*
G01X46079Y-59816D01*
G01X48514Y-57381D01*
G01X53449D01*
G03X53312Y-57785I526J-404D01*
G03X53363Y-58040I663J0D01*
G01Y-59666D01*
G01X52579Y-60449D01*
G03X52169Y-61063I253J-613D01*
G03X52220Y-61318I663J0D01*
G01Y-64547D01*
G01Y-66802D01*
G37*
%LPC*%
G36*
G01X46327Y-64135D02*
G03X46990Y-64798I663J0D01*
G03X47653Y-64135I0J663D01*
G03X46990Y-63472I-663J0D01*
G03X46327Y-64135I0J-663D01*
G37*
%LPD*%
G36*
G01X59813Y-55930D02*
G03X59926Y-56157I639J177D01*
G01X59393D01*
G03X59813Y-55930I-84J658D01*
G37*
G36*
G01X81602Y-69923D02*
G01X81602Y-68025D01*
G03X78000Y-64424I-3602J-0D01*
G01X76102D01*
G01Y-8627D01*
G01X78000D01*
G03X80583Y-7535I0J3602D01*
G03X80490Y-7874I570J-339D01*
G03X81153Y-8537I663J0D01*
G03X81816Y-7874I0J663D01*
G03X81153Y-7211I-663J0D01*
G03X80758Y-7341I0J-663D01*
G03X81602Y-5025I-2758J2316D01*
G01Y-3127D01*
G01X94398D01*
G01Y-5025D01*
G03X98000Y-8627I3602J0D01*
G01X99898D01*
G01Y-64424D01*
G01X98000D01*
G03X94398Y-68025I0J-3602D01*
G01Y-69923D01*
G01X81602D01*
G37*
%LPC*%
G36*
G01X86994Y-69573D02*
G03X87249Y-69624I255J612D01*
G03X87504Y-69573I0J663D01*
G01X90932D01*
G03X91365Y-69394I0J612D01*
G01X97842Y-62917D01*
G03X98021Y-62484I-433J433D01*
G01Y-56228D01*
G01X98656D01*
G03X98911Y-56279I255J612D01*
G03X99574Y-55616I0J663D01*
G03X98911Y-54953I-663J0D01*
G03X98656Y-55004I0J-663D01*
G01X98155D01*
G01X98021Y-54870D01*
G01Y-47371D01*
G01Y-43180D01*
G03X97842Y-42747I-612J0D01*
G01X95100Y-40005D01*
G01X96773Y-38332D01*
G03X97183Y-37719I-253J613D01*
G03X96520Y-37056I-663J0D01*
G03X95907Y-37466I0J-663D01*
G01X93980Y-39393D01*
G01X86107D01*
G03X85852Y-39342I-255J-612D01*
G03X85597Y-39393I0J-663D01*
G01X83447D01*
G01X81236Y-37182D01*
G03X80623Y-36772I-613J-253D01*
G03X80368Y-36823I0J-663D01*
G01X79375D01*
G01X79352Y-36800D01*
G01Y-27433D01*
G03X79403Y-27178I-612J255D01*
G03X79352Y-26923I-663J0D01*
G01Y-25400D01*
G01X81078Y-23674D01*
G03X81257Y-23241I-433J433D01*
G01Y-18924D01*
G03X81308Y-18669I-612J255D01*
G03X81257Y-18414I-663J0D01*
G01Y-18392D01*
G01X89027D01*
G03X89639Y-17780I0J612D01*
G01Y-17527D01*
G03X89690Y-17272I-612J255D01*
G03X89639Y-17017I-663J0D01*
G01Y-11788D01*
G01X96192D01*
G01X96797Y-12393D01*
G01Y-17442D01*
G03X96407Y-16919I-658J-84D01*
G03X96548Y-16510I-522J409D01*
G03X95885Y-15847I-663J0D01*
G03X95222Y-16510I0J-663D01*
G03X95617Y-17117I663J0D01*
G03X95476Y-17526I522J-409D01*
G03X96139Y-18189I663J0D01*
G03X96797Y-17610I0J663D01*
G01Y-17963D01*
G03X96619Y-18415I485J-452D01*
G03X97282Y-19078I663J0D01*
G03X97945Y-18415I0J663D01*
G03X97767Y-17963I-663J0D01*
G01Y-12192D01*
G03X97625Y-11849I-485J0D01*
G01X96736Y-10960D01*
G03X96393Y-10818I-343J-343D01*
G01X89639D01*
G01Y-9399D01*
G03X89690Y-9144I-612J255D01*
G03X89027Y-8481I-663J0D01*
G03X88364Y-9144I0J-663D01*
G03X88415Y-9399I663J0D01*
G01Y-10904D01*
G03X88011Y-10767I-404J-526D01*
G03X87392Y-11192I0J-663D01*
G03X87100Y-11042I-292J-208D01*
G01X83900D01*
G03X83542Y-11400I0J-358D01*
G01Y-13400D01*
G03X83900Y-13758I358J0D01*
G01X87100D01*
G03X87458Y-13400I0J358D01*
G01Y-11796D01*
G03X87656Y-11990I553J366D01*
G03X87475Y-12446I482J-456D01*
G03X88138Y-13109I663J0D01*
G03X88415Y-13049I0J663D01*
G01Y-17017D01*
G03X88372Y-17168I612J-255D01*
G01X80645D01*
G03X80033Y-17780I0J-612D01*
G01Y-18414D01*
G03X79982Y-18669I612J-255D01*
G03X80033Y-18924I663J0D01*
G01Y-22987D01*
G01X78307Y-24713D01*
G03X78128Y-25146I433J-433D01*
G01Y-26923D01*
G03X78077Y-27178I612J-255D01*
G03X78128Y-27433I663J0D01*
G01Y-37054D01*
G03X78307Y-37487I612J0D01*
G01X78688Y-37868D01*
G03X79121Y-38047I433J433D01*
G01X80368D01*
G01X80371Y-38048D01*
G01X82760Y-40438D01*
G03X83193Y-40617I433J433D01*
G01X85597D01*
G03X85852Y-40668I255J612D01*
G03X86107Y-40617I0J663D01*
G01X93980D01*
G01X96797Y-43434D01*
G01Y-46759D01*
G01X91186D01*
G03X90753Y-46938I0J-612D01*
G01X88721Y-48970D01*
G03X88542Y-49403I433J-433D01*
G01Y-53974D01*
G03X88491Y-54229I612J-255D01*
G03X88542Y-54484I663J0D01*
G01Y-54990D01*
G01X88541Y-54992D01*
G01X88392Y-55141D01*
G01X81408D01*
G03X81153Y-55090I-255J-612D01*
G03X80490Y-55753I0J-663D01*
G03X81153Y-56416I663J0D01*
G03X81408Y-56365I0J663D01*
G01X88646D01*
G03X89079Y-56186I0J612D01*
G01X89407Y-55858D01*
G03X89817Y-55245I-253J613D01*
G03X89766Y-54990I-663J0D01*
G01Y-54484D01*
G03X89817Y-54229I-612J255D01*
G03X89766Y-53974I-663J0D01*
G01Y-49657D01*
G01X91440Y-47983D01*
G01X96797D01*
G01Y-55124D01*
G01Y-62230D01*
G01X90678Y-68349D01*
G01X87504D01*
G03X87249Y-68298I-255J-612D01*
G03X86994Y-68349I0J-663D01*
G01X86615D01*
G03X86360Y-68298I-255J-612D01*
G03X85697Y-68961I0J-663D01*
G03X86360Y-69624I663J0D01*
G03X86615Y-69573I0J663D01*
G01X86994D01*
G37*
G36*
G01X93000Y-58858D02*
G03X94358Y-57500I0J1358D01*
G03X93531Y-56250I-1358J0D01*
G03X94358Y-55000I-531J1250D01*
G03X93735Y-53858I-1358J0D01*
G01X94000D01*
G03X94358Y-53500I0J358D01*
G01Y-51500D01*
G03X94000Y-51142I-358J0D01*
G01X92000D01*
G03X91642Y-51500I0J-358D01*
G01Y-53500D01*
G03X92000Y-53858I358J0D01*
G01X92265D01*
G03X91642Y-55000I735J-1142D01*
G03X92469Y-56250I1358J0D01*
G03X91642Y-57500I531J-1250D01*
G03X93000Y-58858I1358J0D01*
G37*
G36*
G01X91642Y-20500D02*
G03X93000Y-21858I1358J0D01*
G03X94358Y-20500I0J1358D01*
G03X93531Y-19250I-1358J0D01*
G03X94358Y-18000I-531J1250D01*
G03X93735Y-16858I-1358J0D01*
G01X94000D01*
G03X94358Y-16500I0J358D01*
G01Y-14500D01*
G03X94000Y-14142I-358J0D01*
G01X92000D01*
G03X91642Y-14500I0J-358D01*
G01Y-16500D01*
G03X92000Y-16858I358J0D01*
G01X92265D01*
G03X91642Y-18000I735J-1142D01*
G03X92469Y-19250I1358J0D01*
G03X91642Y-20500I531J-1250D01*
G37*
G36*
G01X85697Y-25273D02*
G03X86360Y-25936I663J0D01*
G03X87023Y-25273I0J663D01*
G03X86944Y-24958I-663J0D01*
G01X87100D01*
G03X87458Y-24600I0J358D01*
G01Y-22600D01*
G03X87100Y-22242I-358J0D01*
G01X83900D01*
G03X83542Y-22600I0J-358D01*
G01Y-24600D01*
G03X83900Y-24958I358J0D01*
G01X85776D01*
G03X85697Y-25273I584J-315D01*
G37*
G36*
G01X83542Y-61600D02*
G03X83900Y-61958I358J0D01*
G01X87100D01*
G03X87458Y-61600I0J358D01*
G01Y-59600D01*
G03X87100Y-59242I-358J0D01*
G01X83900D01*
G03X83542Y-59600I0J-358D01*
G01Y-61600D01*
G37*
G36*
G01X87100Y-50758D02*
G03X87458Y-50400I0J358D01*
G01Y-48400D01*
G03X87100Y-48042I-358J0D01*
G01X83900D01*
G03X83542Y-48400I0J-358D01*
G01Y-50400D01*
G03X83900Y-50758I358J0D01*
G01X87100D01*
G37*
G36*
G01X78500Y-53858D02*
G03X79858Y-52500I0J1358D01*
G03X78500Y-51142I-1358J0D01*
G03X77142Y-52500I0J-1358D01*
G03X78500Y-53858I1358J0D01*
G37*
G36*
G01X78500Y-58858D02*
G03X79858Y-57500I0J1358D01*
G03X78500Y-56142I-1358J0D01*
G03X77142Y-57500I0J-1358D01*
G03X78500Y-58858I1358J0D01*
G37*
G36*
G01X77142Y-15500D02*
G03X78500Y-16858I1358J0D01*
G03X79858Y-15500I0J1358D01*
G03X78500Y-14142I-1358J0D01*
G03X77142Y-15500I0J-1358D01*
G37*
G36*
G01X78500Y-21858D02*
G03X79858Y-20500I0J1358D01*
G03X78500Y-19142I-1358J0D01*
G03X77142Y-20500I0J-1358D01*
G03X78500Y-21858I1358J0D01*
G37*
G36*
G01X81915Y-30127D02*
G03X82578Y-29464I0J663D01*
G03X82569Y-29356I-663J0D01*
G03X82677Y-29365I108J654D01*
G03X83340Y-28702I0J663D01*
G03X82677Y-28039I-663J0D01*
G03X82014Y-28702I0J-663D01*
G03X82023Y-28810I663J0D01*
G03X81915Y-28801I-108J-654D01*
G03X81252Y-29464I0J-663D01*
G03X81915Y-30127I663J0D01*
G37*
G36*
G01X88745Y-31115D02*
G03X89408Y-31778I663J0D01*
G03X90071Y-31115I0J663D01*
G01Y-31103D01*
G03X90297Y-31143I226J623D01*
G03X90960Y-30480I0J663D01*
G03X90297Y-29817I-663J0D01*
G03X89634Y-30480I0J-663D01*
G01Y-30492D01*
G03X89408Y-30452I-226J-623D01*
G03X88745Y-31115I0J-663D01*
G37*
G36*
G01X92837Y-26444D02*
G03X93500Y-25781I0J663D01*
G03X92837Y-25118I-663J0D01*
G03X92571Y-25173I0J-663D01*
G03X91948Y-24737I-623J-227D01*
G03X91285Y-25400I0J-663D01*
G03X91948Y-26063I663J0D01*
G03X92214Y-26008I0J663D01*
G03X92837Y-26444I623J227D01*
G37*
G36*
G01X86586Y-34163D02*
G03X87249Y-34826I663J0D01*
G03X87912Y-34163I0J663D01*
G03X87249Y-33500I-663J0D01*
G03X86586Y-34163I0J-663D01*
G37*
G36*
G01X81887Y-42291D02*
G03X82550Y-42954I663J0D01*
G03X83213Y-42291I0J663D01*
G03X82550Y-41628I-663J0D01*
G03X81887Y-42291I0J-663D01*
G37*
G36*
G01X84709Y-36858D02*
G03X85372Y-36195I0J663D01*
G03X84709Y-35532I-663J0D01*
G03X84046Y-36195I0J-663D01*
G03X84709Y-36858I663J0D01*
G37*
G36*
G01X81788Y-41176D02*
G03X82451Y-40513I0J663D01*
G03X81788Y-39850I-663J0D01*
G03X81125Y-40513I0J-663D01*
G03X81788Y-41176I663J0D01*
G37*
G36*
G01X88745Y-43561D02*
G03X89408Y-44224I663J0D01*
G03X90071Y-43561I0J663D01*
G03X89408Y-42898I-663J0D01*
G03X88745Y-43561I0J-663D01*
G37*
G36*
G01X85725Y-42065D02*
G03X86388Y-41402I0J663D01*
G03X85725Y-40739I-663J0D01*
G03X85062Y-41402I0J-663D01*
G03X85725Y-42065I663J0D01*
G37*
G36*
G01X90297Y-45240D02*
G03X90960Y-44577I0J663D01*
G03X90297Y-43914I-663J0D01*
G03X89634Y-44577I0J-663D01*
G03X90297Y-45240I663J0D01*
G37*
G36*
G01X83820Y-63909D02*
G03X84483Y-63246I0J663D01*
G03X83820Y-62583I-663J0D01*
G03X83157Y-63246I0J-663D01*
G03X83820Y-63909I663J0D01*
G37*
G36*
G01X81788Y-66449D02*
G03X82451Y-65786I0J663D01*
G03X81788Y-65123I-663J0D01*
G03X81125Y-65786I0J-663D01*
G03X81788Y-66449I663J0D01*
G37*
G36*
G01X83439Y-58321D02*
G03X84102Y-57658I0J663D01*
G03X83439Y-56995I-663J0D01*
G03X82776Y-57658I0J-663D01*
G03X83439Y-58321I663J0D01*
G37*
G36*
G01X85471Y-39271D02*
G03X86134Y-38608I0J663D01*
G03X85471Y-37945I-663J0D01*
G03X84808Y-38608I0J-663D01*
G03X85471Y-39271I663J0D01*
G37*
G36*
G01X90523Y-32131D02*
G03X91186Y-32794I663J0D01*
G03X91849Y-32131I0J663D01*
G03X91186Y-31468I-663J0D01*
G03X90523Y-32131I0J-663D01*
G37*
G36*
G01X82931Y-9934D02*
G03X83594Y-9271I0J663D01*
G03X82931Y-8608I-663J0D01*
G03X82268Y-9271I0J-663D01*
G03X82931Y-9934I663J0D01*
G37*
G36*
G01X82776Y-25908D02*
G03X83439Y-26571I663J0D01*
G03X84102Y-25908I0J663D01*
G03X83439Y-25245I-663J0D01*
G03X82776Y-25908I0J-663D01*
G37*
G36*
G01X96320Y-25299D02*
G03X96983Y-24636I0J663D01*
G03X96320Y-23973I-663J0D01*
G03X95657Y-24636I0J-663D01*
G03X96320Y-25299I663J0D01*
G37*
G36*
G01X88011Y-32286D02*
G03X88674Y-31623I0J663D01*
G03X88011Y-30960I-663J0D01*
G03X87348Y-31623I0J-663D01*
G03X88011Y-32286I663J0D01*
G37*
G36*
G01X86233Y-31270D02*
G03X86896Y-30607I0J663D01*
G03X86233Y-29944I-663J0D01*
G03X85570Y-30607I0J-663D01*
G03X86233Y-31270I663J0D01*
G37*
G36*
G01X82141Y-21336D02*
G03X82804Y-21999I663J0D01*
G03X83467Y-21336I0J663D01*
G03X82804Y-20673I-663J0D01*
G03X82141Y-21336I0J-663D01*
G37*
G36*
G01X90297Y-22761D02*
G03X90960Y-22098I0J663D01*
G03X90297Y-21435I-663J0D01*
G03X89634Y-22098I0J-663D01*
G03X90297Y-22761I663J0D01*
G37*
%LPD*%
G54D999*
G01X8602Y-68097D02*
G01X8602Y-68025D01*
G03X5000Y-64424I-3602J0D01*
G01X3102D01*
G01Y-8627D01*
G01X5000D01*
G03X8602Y-5025I0J3602D01*
G01Y-3127D01*
G01X36398D01*
G01Y-10033D01*
G03X36500Y-10135I102J0D01*
G01X69898D01*
G01Y-64424D01*
G01X68000D01*
G03X64398Y-68025I0J-3602D01*
G01Y-68097D01*
G01X52657D01*
G01X53265Y-67489D01*
G03X53444Y-67056I-433J433D01*
G01Y-66310D01*
G03X53975Y-66576I531J397D01*
G03X54638Y-65913I0J663D01*
G03X54587Y-65658I-663J0D01*
G01Y-64643D01*
G03X54408Y-64210I-612J0D01*
G01X54312Y-64115D01*
G03X53879Y-63935I-433J-433D01*
G01X53444D01*
G01Y-61318D01*
G01X53445Y-61315D01*
G01X54408Y-60352D01*
G03X54587Y-59920I-433J433D01*
G01Y-58040D01*
G03X54638Y-57785I-612J255D01*
G03X54501Y-57381I-663J0D01*
G01X59606D01*
G03X59027Y-58039I84J-658D01*
G03X59690Y-58702I663J0D01*
G03X60353Y-58039I0J663D01*
G03X59774Y-57381I-663J0D01*
G01X63118D01*
G03X63373Y-57432I255J612D01*
G03X63628Y-57381I0J663D01*
G01X67310D01*
G03X67743Y-57202I0J612D01*
G01X67997Y-56948D01*
G03X68176Y-56515I-433J433D01*
G01Y-35525D01*
G03X68049Y-35152I-612J0D01*
G01Y-17399D01*
G03X67870Y-16966I-612J0D01*
G01X64643Y-13739D01*
G03X65301Y-13076I-5J663D01*
G03X64840Y-12444I-663J0D01*
G03X65306Y-11811I-197J633D01*
G03X64643Y-11148I-663J0D01*
G03X63980Y-11811I0J-663D01*
G03X64441Y-12443I663J0D01*
G03X63975Y-13071I197J-633D01*
G01X63298Y-12394D01*
G03X62865Y-12215I-433J-433D01*
G01X40894D01*
G03X40461Y-12394I0J-612D01*
G01X38863Y-13992D01*
G01X38861Y-13993D01*
G01X37338D01*
G03X36905Y-14172I0J-612D01*
G01X35306Y-15771D01*
G01X28190D01*
G01X28068D01*
G01Y-14546D01*
G03X28119Y-14291I-612J255D01*
G03X27456Y-13628I-663J0D01*
G03X26793Y-14291I0J-663D01*
G03X26844Y-14546I663J0D01*
G01Y-14610D01*
G03X26719Y-14429I-555J-249D01*
G01X26149Y-13859D01*
G03X25719Y-13681I-430J-430D01*
G01X25500D01*
G01Y-13589D01*
G03X25322Y-13159I-608J0D01*
G01X25068Y-12905D01*
G03X24638Y-12727I-430J-430D01*
G01X22017D01*
G03X21587Y-12905I0J-608D01*
G01X20946Y-13546D01*
G03X20799Y-13626I243J-617D01*
G01Y-12623D01*
G01X23821Y-9601D01*
G01X28605D01*
G03X29338Y-8868I0J733D01*
G03X28605Y-8135I-733J0D01*
G01X23517D01*
G03X22999Y-8349I0J-733D01*
G01X19548Y-11801D01*
G03X19333Y-12319I518J-518D01*
G01Y-13024D01*
G03X19187Y-12817I-664J-311D01*
G01X18171Y-11801D01*
G03X17653Y-11586I-518J-518D01*
G01X14224D01*
G01X9398D01*
G03X8880Y-11801I0J-733D01*
G01X8425Y-12256D01*
G03X8210Y-12774I518J-518D01*
G01Y-13467D01*
G03X8943Y-14200I733J0D01*
G03X9676Y-13467I0J733D01*
G01Y-13078D01*
G01X9702Y-13052D01*
G01X14224D01*
G01X17349D01*
G01X17936Y-13639D01*
G01Y-14224D01*
G01Y-19508D01*
G01X16500Y-20945D01*
G03X16285Y-21463I518J-518D01*
G01Y-22803D01*
G03X15621Y-22381I-664J-311D01*
G01X11938D01*
G03X11420Y-22596I0J-733D01*
G01X10658Y-23358D01*
G03X10443Y-23876I518J-518D01*
G01Y-27933D01*
G01Y-29210D01*
G03X10658Y-29728I733J0D01*
G01X11420Y-30490D01*
G03X11938Y-30705I518J518D01*
G03X12671Y-29972I0J733D01*
G03X12456Y-29454I-733J0D01*
G01X11909Y-28906D01*
G01Y-27933D01*
G01Y-24180D01*
G01X12242Y-23847D01*
G01X15621D01*
G03X16285Y-23425I0J733D01*
G01Y-28956D01*
G03X16500Y-29474I733J0D01*
G01X17389Y-30363D01*
G03X17907Y-30578I518J518D01*
G01X18873D01*
G01X20183Y-31887D01*
G03X20701Y-32102I518J518D01*
G01X21590D01*
G03X22323Y-31369I0J733D01*
G03X21590Y-30636I-733J0D01*
G01X21005D01*
G01X19695Y-29327D01*
G03X19177Y-29112I-518J-518D01*
G01X18211D01*
G01X17751Y-28652D01*
G01Y-23868D01*
G01X18151Y-24267D01*
G03X18669Y-24482I518J518D01*
G01X21079D01*
G01X21486D01*
G01Y-26472D01*
G03X21308Y-26924I485J-452D01*
G03X21971Y-27587I663J0D01*
G03X22634Y-26924I0J663D01*
G03X22456Y-26472I-663J0D01*
G01Y-24152D01*
G03X22577Y-23749I-612J403D01*
G01Y-20193D01*
G01Y-18894D01*
G01X23876D01*
G03X24609Y-18161I0J733D01*
G03X23876Y-17428I-733J0D01*
G01X21847D01*
G01X21336D01*
G01X21005D01*
G01X20799Y-17222D01*
G01Y-16002D01*
G01Y-14700D01*
G03X21189Y-14826I390J537D01*
G03X21806Y-14406I0J663D01*
G01X22269Y-13943D01*
G01X24284D01*
G01Y-13975D01*
G03X24205Y-14289I584J-314D01*
G03X24868Y-14952I663J0D01*
G03X25132Y-14897I0J663D01*
G01X25467D01*
G01X25681Y-15111D01*
G01Y-17145D01*
G03X25859Y-17575I608J0D01*
G01X26688Y-18404D01*
G01X26697Y-18425D01*
G01Y-19433D01*
G01X26427Y-19703D01*
G03X26007Y-20320I243J-617D01*
G03X26062Y-20584I663J0D01*
G01Y-22606D01*
G03X26240Y-23036I608J0D01*
G01X26494Y-23290D01*
G03X26924Y-23468I430J430D01*
G01X27942D01*
G01X28094Y-23620D01*
G01Y-25180D01*
G03X27813Y-25118I-281J-601D01*
G03X27150Y-25781I0J-663D01*
G03X27813Y-26444I663J0D01*
G03X28094Y-26382I0J663D01*
G01Y-27048D01*
G01X26822D01*
G03X26479Y-27191I0J-485D01*
G01X26266Y-27404D01*
G03X25626Y-28067I23J-663D01*
G03X26289Y-28730I663J0D01*
G03X26952Y-28090I0J663D01*
G01X27023Y-28019D01*
G01X28094D01*
G01Y-29327D01*
G03X28039Y-29591I608J-264D01*
G03X28094Y-29855I663J0D01*
G01Y-30851D01*
G03X28039Y-31115I608J-264D01*
G03X28094Y-31379I663J0D01*
G01Y-33428D01*
G01X27297D01*
G03X26867Y-33606I0J-608D01*
G01X26367Y-34106D01*
G03X26189Y-34536I430J-430D01*
G01Y-35308D01*
G01X25792Y-35705D01*
G03X25311Y-36342I182J-638D01*
G03X25974Y-37005I663J0D01*
G03X26298Y-36921I0J663D01*
G03X26924Y-37366I626J218D01*
G03X27587Y-36703I0J663D01*
G03X27141Y-36076I-663J0D01*
G01X27227Y-35990D01*
G03X27405Y-35560I-430J430D01*
G01Y-34788D01*
G01X27549Y-34644D01*
G01X28438D01*
G03X28702Y-34699I264J608D01*
G03X29365Y-34036I0J663D01*
G03X29310Y-33772I-663J0D01*
G01Y-31379D01*
G03X29365Y-31115I-608J264D01*
G03X29310Y-30851I-663J0D01*
G01Y-29855D01*
G03X29365Y-29591I-608J264D01*
G03X29310Y-29327I-663J0D01*
G01Y-28458D01*
G03X29464Y-28476I154J645D01*
G03X29995Y-28210I0J663D01*
G01Y-31114D01*
G03X29944Y-31369I612J-255D01*
G03X30354Y-31982I663J0D01*
G01X31011Y-32639D01*
G01Y-35542D01*
G03X30607Y-35405I-404J-526D01*
G03X29944Y-36068I0J-663D01*
G03X30607Y-36731I663J0D01*
G03X31011Y-36594I0J663D01*
G01Y-40259D01*
G01X30099Y-41171D01*
G01X27432D01*
G03X26999Y-41350I0J-612D01*
G01X26491Y-41858D01*
G03X26312Y-42291I433J-433D01*
G01Y-47752D01*
G01X26289Y-47775D01*
G01X23599D01*
G01Y-47188D01*
G03X23777Y-46736I-485J452D01*
G03X23114Y-46073I-663J0D01*
G03X22451Y-46736I0J-663D01*
G03X22629Y-47188I663J0D01*
G01Y-47775D01*
G01X21849D01*
G01X20828D01*
G03X20395Y-47954I0J-612D01*
G01X19304Y-49045D01*
G01X18543D01*
G03X18288Y-48994I-255J-612D01*
G03X17625Y-49657I0J-663D01*
G03X18288Y-50320I663J0D01*
G03X18543Y-50269I0J663D01*
G01X19558D01*
G03X19991Y-50090I0J612D01*
G01X21082Y-48999D01*
G01X21364D01*
G01Y-52442D01*
G03X20828Y-52169I-536J-390D01*
G03X20165Y-52832I0J-663D01*
G03X20346Y-53288I663J0D01*
G03X20038Y-53848I355J-560D01*
G03X20701Y-54511I663J0D01*
G03X21364Y-53859I0J663D01*
G01Y-56819D01*
G03X21181Y-57277I480J-458D01*
G03X21844Y-57940I663J0D01*
G03X22507Y-57277I0J663D01*
G03X22334Y-56831I-663J0D01*
G01Y-53825D01*
G01X22662D01*
G03X23114Y-54003I452J485D01*
G03X23566Y-53825I0J663D01*
G01X24765D01*
G03X25108Y-53683I0J485D01*
G01X26954Y-51837D01*
G03X27051Y-51844I97J656D01*
G03X27714Y-51181I0J663D01*
G03X27051Y-50518I-663J0D01*
G03X26411Y-51008I0J-663D01*
G01X24564Y-52855D01*
G01X23566D01*
G03X23114Y-52677I-452J-485D01*
G03X22662Y-52855I0J-663D01*
G01X22334D01*
G01Y-48999D01*
G01X23132D01*
G01X26543D01*
G03X26976Y-48820I0J612D01*
G01X27357Y-48439D01*
G03X27536Y-48006I-433J433D01*
G01Y-42545D01*
G01X27686Y-42395D01*
G01X30353D01*
G03X30786Y-42216I0J612D01*
G01X30931Y-42070D01*
G03X30833Y-42418I565J-348D01*
G03X31496Y-43081I663J0D01*
G03X32159Y-42418I0J663D01*
G03X31496Y-41755I-663J0D01*
G03X31148Y-41853I0J-663D01*
G01X32056Y-40946D01*
G03X32189Y-40746I-433J433D01*
G03X32639Y-40922I450J487D01*
G03X33274Y-40450I0J663D01*
G03X33909Y-40922I635J191D01*
G03X34572Y-40272I0J663D01*
G03X35179Y-40668I607J267D01*
G03X35842Y-40005I0J663D01*
G03X35179Y-39342I-663J0D01*
G03X34516Y-39992I0J-663D01*
G03X33909Y-39596I-607J-267D01*
G03X33274Y-40068I0J-663D01*
G03X32639Y-39596I-635J-191D01*
G03X32235Y-39733I0J-663D01*
G01Y-36968D01*
G03X32385Y-36985I150J646D01*
G03X33048Y-36322I0J663D01*
G03X32385Y-35659I-663J0D01*
G03X32235Y-35676I0J-663D01*
G01Y-32997D01*
G01X34346D01*
G03X34798Y-33175I452J485D01*
G03X35250Y-32997I0J663D01*
G01X37394D01*
G03X37846Y-33175I452J485D01*
G03X38509Y-32512I0J663D01*
G03X37846Y-31849I-663J0D01*
G03X37620Y-31889I0J-663D01*
G01Y-31877D01*
G03X36957Y-31214I-663J0D01*
G03X36294Y-31877I0J-663D01*
G03X36311Y-32027I663J0D01*
G01X35250D01*
G03X34798Y-31849I-452J-485D01*
G03X34346Y-32027I0J-663D01*
G01X32119D01*
G03X32056Y-31952I-496J-358D01*
G01X31220Y-31116D01*
G01X31219Y-31114D01*
G01Y-23622D01*
G03X31040Y-23189I-612J0D01*
G01X28803Y-20952D01*
G01Y-16995D01*
G01X35560D01*
G03X35993Y-16816I0J612D01*
G01X37592Y-15217D01*
G01X38861D01*
G03X39116Y-15268I255J612D01*
G03X39729Y-14858I0J663D01*
G01X41148Y-13439D01*
G01X42021D01*
G03X41755Y-13970I397J-531D01*
G03X41926Y-14414I663J0D01*
G03X41764Y-14747I492J-444D01*
G03X41529Y-14704I-235J-620D01*
G03X40866Y-15367I0J-663D01*
G03X41529Y-16030I663J0D01*
G03X42183Y-15479I0J663D01*
G03X42418Y-15522I235J620D01*
G03X43081Y-14859I0J663D01*
G03X42910Y-14414I-663J0D01*
G03X43081Y-13970I-492J445D01*
G03X42815Y-13439I-663J0D01*
G01X62611D01*
G01X66825Y-17653D01*
G01Y-25636D01*
G03X66421Y-25499I-404J-526D01*
G03X65758Y-26162I0J-663D01*
G03X66421Y-26825I663J0D01*
G03X66825Y-26688I0J663D01*
G01Y-35075D01*
G01X65476D01*
G03X65024Y-34897I-452J-485D01*
G03X64361Y-35560I0J-663D01*
G03X65024Y-36223I663J0D01*
G03X65476Y-36045I0J663D01*
G01X66952D01*
G01Y-56157D01*
G01X63628D01*
G03X63373Y-56106I-255J-612D01*
G03X63118Y-56157I0J-663D01*
G01X60978D01*
G03X61115Y-55753I-526J404D01*
G03X60452Y-55090I-663J0D01*
G03X59948Y-55322I0J-663D01*
G03X59309Y-54836I-639J-177D01*
G03X58646Y-55499I0J-663D01*
G03X59225Y-56157I663J0D01*
G01X56991D01*
G03X57051Y-55880I-603J277D01*
G03X56388Y-55217I-663J0D01*
G03X55725Y-55880I0J-663D01*
G03X55785Y-56157I663J0D01*
G01X53689D01*
G03X53749Y-55880I-603J277D01*
G03X53086Y-55217I-663J0D01*
G03X52423Y-55880I0J-663D01*
G03X52483Y-56157I663J0D01*
G01X48260D01*
G03X47827Y-56336I0J-612D01*
G01X45213Y-58950D01*
G03X44803Y-59563I253J-613D01*
G03X44854Y-59818I663J0D01*
G01Y-64643D01*
G01X43561Y-65936D01*
G01X28532D01*
G03X29111Y-65278I-84J658D01*
G03X28448Y-64615I-663J0D01*
G03X28171Y-64675I0J-663D01*
G01Y-64263D01*
G03X28222Y-64008I-612J255D01*
G03X28044Y-63556I-663J0D01*
G01Y-58748D01*
G01X28791Y-58001D01*
G03X28933Y-57658I-343J343D01*
G01Y-57602D01*
G03X29111Y-57150I-485J452D01*
G03X28448Y-56487I-663J0D01*
G03X27785Y-57150I0J-663D01*
G03X27899Y-57521I663J0D01*
G01X27216Y-58204D01*
G03X27074Y-58547I343J-343D01*
G01Y-63396D01*
G01X21293D01*
G03X21872Y-62738I-84J658D01*
G03X21209Y-62075I-663J0D01*
G03X20546Y-62738I0J-663D01*
G03X21125Y-63396I663J0D01*
G01X16614D01*
G01Y-62993D01*
G03X16665Y-62738I-612J255D01*
G03X16614Y-62483I-663J0D01*
G01Y-61468D01*
G01X16637Y-61445D01*
G03X17070Y-61266I0J612D01*
G01X17525Y-60811D01*
G03X17935Y-60198I-253J613D01*
G03X17272Y-59535I-663J0D01*
G03X16659Y-59945I0J-663D01*
G01X16383Y-60221D01*
G03X15950Y-60400I0J-612D01*
G01X15569Y-60781D01*
G03X15390Y-61214I433J-433D01*
G01Y-62483D01*
G03X15339Y-62738I612J-255D01*
G03X15390Y-62993I663J0D01*
G01Y-63992D01*
G03X14859Y-63726I-531J-397D01*
G03X14196Y-64389I0J-663D01*
G03X14859Y-65052I663J0D01*
G03X15522Y-64389I0J663D01*
G01Y-64388D01*
G03X16002Y-64620I480J380D01*
G01X26947D01*
G01Y-66548D01*
G03X27254Y-67079I612J0D01*
G01X14097D01*
G01X11153Y-64135D01*
G01Y-57508D01*
G01X11175D01*
G03X11430Y-57559I255J612D01*
G03X11685Y-57508I0J663D01*
G01X12827D01*
G01X12850Y-57531D01*
G01Y-59690D01*
G03X13029Y-60123I612J0D01*
G01X13664Y-60758D01*
G03X14097Y-60937I433J433D01*
G01X14731D01*
G03X14986Y-60988I255J612D01*
G03X15649Y-60325I0J663D01*
G03X14986Y-59662I-663J0D01*
G03X14731Y-59713I0J-663D01*
G01X14351D01*
G01X14074Y-59436D01*
G01Y-57277D01*
G03X13895Y-56844I-612J0D01*
G01X13514Y-56463D01*
G03X13081Y-56284I-433J-433D01*
G01X11685D01*
G03X11430Y-56233I-255J-612D01*
G03X11175Y-56284I0J-663D01*
G01X11153D01*
G01Y-56043D01*
G01Y-46483D01*
G03X11204Y-46228I-612J255D01*
G03X11153Y-45973I-663J0D01*
G01Y-42037D01*
G01X11684Y-41506D01*
G01X17431D01*
G03X17371Y-41783I603J-277D01*
G03X18034Y-42446I663J0D01*
G03X18606Y-42119I0J663D01*
G03X19177Y-42446I572J336D01*
G03X19840Y-41783I0J663D01*
G03X19780Y-41506I-663J0D01*
G01X24119D01*
G03X24102Y-41656I646J-150D01*
G03X24765Y-42319I663J0D01*
G03X25428Y-41656I0J663D01*
G03X24886Y-41004I-663J0D01*
G01X26341Y-39549D01*
G03X26520Y-39117I-433J433D01*
G03X26571Y-38862I-612J255D01*
G03X25908Y-38199I-663J0D01*
G03X25245Y-38862I0J-663D01*
G03X25247Y-38912I663J0D01*
G01X23876Y-40282D01*
G01X23209D01*
G03X23269Y-40005I-603J277D01*
G03X22606Y-39342I-663J0D01*
G03X21943Y-40005I0J-663D01*
G03X22003Y-40282I663J0D01*
G01X20404D01*
G03X20983Y-39624I-84J658D01*
G03X20320Y-38961I-663J0D01*
G03X20128Y-38989I0J-663D01*
G01Y-33867D01*
G03X19949Y-33434I-612J0D01*
G01X19483Y-32968D01*
G03X19050Y-32789I-433J-433D01*
G01X16383D01*
G01X14964Y-31370D01*
G03X14351Y-30960I-613J-253D01*
G03X13688Y-31623I0J-663D01*
G03X14098Y-32236I663J0D01*
G01X15696Y-33834D01*
G03X16129Y-34013I433J433D01*
G01X18796D01*
G01X18904Y-34121D01*
G01Y-40282D01*
G01X12042D01*
G01Y-39498D01*
G03X12093Y-39243I-612J255D01*
G03X11430Y-38580I-663J0D01*
G03X10767Y-39243I0J-663D01*
G03X10818Y-39498I663J0D01*
G01Y-40640D01*
G01X10108Y-41350D01*
G03X9929Y-41783I433J-433D01*
G01Y-45973D01*
G03X9878Y-46228I612J-255D01*
G03X9929Y-46483I663J0D01*
G01Y-55399D01*
G01X9154D01*
G03X8890Y-55344I-264J-608D01*
G03X8346Y-55627I0J-663D01*
G03X8205Y-56037I522J-409D01*
G03X8868Y-56700I663J0D01*
G03X9192Y-56615I0J663D01*
G01X9929D01*
G01Y-56885D01*
G01Y-64389D01*
G03X10108Y-64822I612J0D01*
G01X13383Y-68097D01*
G01X8602D01*
G01X9398Y-29562D02*
G03X10131Y-28829I0J733D01*
G03X9916Y-28311I-733J0D01*
G01X8099Y-26493D01*
G01Y-23876D01*
G03X7366Y-23143I-733J0D01*
G03X6633Y-23876I0J-733D01*
G01Y-26797D01*
G03X6848Y-27315I733J0D01*
G01X8880Y-29347D01*
G03X9398Y-29562I518J518D01*
G01X38946Y-31715D02*
G03X39531Y-32066I585J312D01*
G03X40097Y-31750I0J663D01*
G03X40640Y-32032I543J381D01*
G03X41303Y-31369I0J663D01*
G03X41187Y-30994I-663J0D01*
G03X41430Y-30480I-420J514D01*
G03X41314Y-30105I-663J0D01*
G03X41557Y-29591I-420J514D01*
G03X41159Y-28983I-663J0D01*
G03X41430Y-28448I-392J535D01*
G03X40958Y-27813I-663J0D01*
G03X41430Y-27178I-191J635D01*
G03X40767Y-26515I-663J0D01*
G03X40104Y-27178I0J-663D01*
G03X40576Y-27813I663J0D01*
G03X40104Y-28448I191J-635D01*
G03X40502Y-29056I663J0D01*
G03X40231Y-29591I392J-535D01*
G03X40347Y-29966I663J0D01*
G03X40104Y-30480I420J-514D01*
G03X40220Y-30855I663J0D01*
G03X40074Y-31023I420J-514D01*
G03X39531Y-30740I-543J-381D01*
G03X39066Y-30930I0J-663D01*
G03X38481Y-30579I-585J-312D01*
G03X37818Y-31242I0J-663D01*
G03X38481Y-31905I663J0D01*
G03X38946Y-31715I0J663D01*
G01X39850Y-22860D02*
G03X40513Y-23523I663J0D01*
G03X41176Y-22860I0J663D01*
G03X40849Y-22288I-663J0D01*
G03X41176Y-21717I-336J572D01*
G03X40905Y-21182I-663J0D01*
G03X41303Y-20574I-265J608D01*
G03X40640Y-19911I-663J0D01*
G03X40184Y-20092I0J-663D01*
G03X39624Y-19784I-560J-355D01*
G03X38961Y-20447I0J-663D01*
G03X39624Y-21110I663J0D01*
G03X40080Y-20929I0J663D01*
G03X40248Y-21109I560J355D01*
G03X39850Y-21717I265J-608D01*
G03X40177Y-22288I663J0D01*
G03X39850Y-22860I336J-571D01*
G01X16129Y-38890D02*
G03X16792Y-38227I0J663D01*
G03X16129Y-37564I-663J0D01*
G03X15772Y-37668I0J-663D01*
G03X15776Y-37592I-659J76D01*
G03X15113Y-36929I-663J0D01*
G03X14505Y-37328I0J-663D01*
G03X14351Y-37310I-154J-645D01*
G03X13716Y-37782I0J-663D01*
G03X13081Y-37310I-635J-191D01*
G03X12418Y-37973I0J-663D01*
G03X13081Y-38636I663J0D01*
G03X13716Y-38164I0J663D01*
G03X14351Y-38636I635J191D01*
G03X14959Y-38237I0J663D01*
G03X15113Y-38255I154J645D01*
G03X15470Y-38151I0J663D01*
G03X15466Y-38227I659J-76D01*
G03X16129Y-38890I663J0D01*
G01X40767Y-25682D02*
G03X41430Y-25019I0J663D01*
G03X40767Y-24356I-663J0D01*
G03X40659Y-24365I0J-663D01*
G03X40668Y-24257I-654J108D01*
G03X40005Y-23594I-663J0D01*
G03X39897Y-23603I0J-663D01*
G03X39906Y-23495I-654J108D01*
G03X39243Y-22832I-663J0D01*
G03X38580Y-23495I0J-663D01*
G03X39243Y-24158I663J0D01*
G03X39351Y-24149I0J663D01*
G03X39342Y-24257I654J-108D01*
G03X40005Y-24920I663J0D01*
G03X40113Y-24911I0J663D01*
G03X40104Y-25019I654J-108D01*
G03X40767Y-25682I663J0D01*
G01X33246Y-31242D02*
G03X33909Y-31905I663J0D01*
G03X34572Y-31263I0J663D01*
G03X34671Y-31270I99J656D01*
G03X35334Y-30607I0J663D01*
G03X35318Y-30462I-663J0D01*
G03X35560Y-30508I242J617D01*
G03X36223Y-29845I0J663D01*
G03X35560Y-29182I-663J0D01*
G03X34897Y-29845I0J-663D01*
G03X34913Y-29990I663J0D01*
G03X34671Y-29944I-242J-617D01*
G03X34008Y-30586I0J-663D01*
G03X33909Y-30579I-99J-656D01*
G03X33246Y-31242I0J-663D01*
G01X35941Y-23523D02*
G03X36604Y-22860I0J663D01*
G03X35941Y-22197I-663J0D01*
G01X35929D01*
G03X35969Y-21971I-623J226D01*
G03X35327Y-21308I-663J0D01*
G03X35334Y-21209I-656J99D01*
G03X34671Y-20546I-663J0D01*
G03X34008Y-21209I0J-663D01*
G03X34650Y-21872I663J0D01*
G03X34643Y-21971I656J-99D01*
G03X35306Y-22634I663J0D01*
G01X35318D01*
G03X35278Y-22860I623J-226D01*
G03X35941Y-23523I663J0D01*
G01X55118Y-48034D02*
G03X55781Y-47371I0J663D01*
G03X55738Y-47136I-663J0D01*
G03X56289Y-46482I-112J654D01*
G03X56186Y-46127I-663J0D01*
G03X56797Y-45466I-52J661D01*
G03X56134Y-44803I-663J0D01*
G03X55471Y-45466I0J-663D01*
G03X55574Y-45821I663J0D01*
G03X54963Y-46482I52J-661D01*
G03X55006Y-46717I663J0D01*
G03X54455Y-47371I112J-654D01*
G03X55118Y-48034I663J0D01*
G01X29972Y-53876D02*
G03X30635Y-53213I0J663D01*
G03X30531Y-52856I-663J0D01*
G03X30607Y-52860I76J659D01*
G03X31077Y-52665I0J663D01*
G03X31369Y-52733I292J595D01*
G03X32032Y-52070I0J663D01*
G03X31369Y-51407I-663J0D01*
G03X30899Y-51602I0J-663D01*
G03X30607Y-51534I-292J-595D01*
G03X29944Y-52197I0J-663D01*
G03X30048Y-52554I663J0D01*
G03X29972Y-52550I-76J-659D01*
G03X29309Y-53213I0J-663D01*
G03X29972Y-53876I663J0D01*
G01X67564Y-15649D02*
G03X68227Y-14986I0J663D01*
G03X68123Y-14629I-663J0D01*
G03X68199Y-14633I76J659D01*
G03X68862Y-13970I0J663D01*
G03X68199Y-13307I-663J0D01*
G01X68187D01*
G03X68227Y-13081I-623J226D01*
G03X67564Y-12418I-663J0D01*
G03X66901Y-13081I0J-663D01*
G03X67564Y-13744I663J0D01*
G01X67576D01*
G03X67536Y-13970I623J-226D01*
G03X67640Y-14327I663J0D01*
G03X67564Y-14323I-76J-659D01*
G03X66901Y-14986I0J-663D01*
G03X67564Y-15649I663J0D01*
G01X39624Y-37747D02*
G03X40287Y-37084I0J663D01*
G03X40252Y-36870I-663J0D01*
G03X40541Y-36322I-374J548D01*
G03X40370Y-35877I-663J0D01*
G03X40541Y-35433I-492J445D01*
G03X40304Y-34925I-663J0D01*
G03X40541Y-34417I-426J508D01*
G03X39878Y-33754I-663J0D01*
G03X39215Y-34417I0J-663D01*
G03X39452Y-34925I663J0D01*
G03X39215Y-35433I426J-508D01*
G03X39386Y-35877I663J0D01*
G03X39215Y-36322I492J-444D01*
G03X39250Y-36536I663J0D01*
G03X38961Y-37084I374J-548D01*
G03X39624Y-37747I663J0D01*
G01X35560Y-27841D02*
G03X36223Y-27178I0J663D01*
G03X35560Y-26515I-663J0D01*
G03X35265Y-26584I0J-663D01*
G03X35334Y-26289I-594J295D01*
G03X34671Y-25626I-663J0D01*
G03X34008Y-26289I0J-663D01*
G03X34671Y-26952I663J0D01*
G03X34966Y-26883I0J663D01*
G03X34897Y-27178I594J-295D01*
G03X35560Y-27841I663J0D01*
G01X23622Y-62512D02*
G03X24285Y-61849I0J663D01*
G03X24245Y-61621I-663J0D01*
G03X24638Y-61750I393J534D01*
G03X25301Y-61087I0J663D01*
G03X24638Y-60424I-663J0D01*
G03X23975Y-61087I0J-663D01*
G03X24015Y-61315I663J0D01*
G03X23622Y-61186I-393J-534D01*
G03X22959Y-61849I0J-663D01*
G03X23622Y-62512I663J0D01*
G01X57150Y-45113D02*
G03X57813Y-44450I0J663D01*
G03X57767Y-44208I-663J0D01*
G03X57912Y-44224I145J647D01*
G03X58575Y-43561I0J663D01*
G03X57912Y-42898I-663J0D01*
G03X57249Y-43561I0J-663D01*
G03X57295Y-43803I663J0D01*
G03X57150Y-43787I-145J-647D01*
G03X56487Y-44450I0J-663D01*
G03X57150Y-45113I663J0D01*
G01X62357Y-42446D02*
G03X63020Y-41783I0J663D01*
G03X62974Y-41541I-663J0D01*
G03X63119Y-41557I145J647D01*
G03X63782Y-40894I0J663D01*
G03X63119Y-40231I-663J0D01*
G03X62456Y-40894I0J-663D01*
G03X62502Y-41136I663J0D01*
G03X62357Y-41120I-145J-647D01*
G03X61694Y-41783I0J-663D01*
G03X62357Y-42446I663J0D01*
G01X32103Y-47371D02*
G03X32766Y-48034I663J0D01*
G03X33429Y-47371I0J663D01*
G03X33325Y-47014I-663J0D01*
G03X33401Y-47018I76J659D01*
G03X34064Y-46355I0J663D01*
G03X33401Y-45692I-663J0D01*
G03X32738Y-46355I0J-663D01*
G03X32842Y-46712I663J0D01*
G03X32766Y-46708I-76J-659D01*
G03X32103Y-47371I0J-663D01*
G01X28293Y-35814D02*
G03X28956Y-36477I663J0D01*
G03X29619Y-35814I0J663D01*
G03X29610Y-35706I-663J0D01*
G03X29718Y-35715I108J654D01*
G03X30381Y-35052I0J663D01*
G03X29718Y-34389I-663J0D01*
G03X29055Y-35052I0J-663D01*
G03X29064Y-35160I663J0D01*
G03X28956Y-35151I-108J-654D01*
G03X28293Y-35814I0J-663D01*
G01X55118Y-54130D02*
G03X55781Y-53467I0J663D01*
G03X55774Y-53368I-663J0D01*
G03X56416Y-52705I-21J663D01*
G03X55753Y-52042I-663J0D01*
G03X55090Y-52705I0J-663D01*
G03X55097Y-52804I663J0D01*
G03X54455Y-53467I21J-663D01*
G03X55118Y-54130I663J0D01*
G01X43688Y-54892D02*
G03X44351Y-54229I0J663D01*
G03X43688Y-53566I-663J0D01*
G03X43573Y-53576I0J-663D01*
G03X42926Y-53058I-647J-145D01*
G03X42263Y-53721I0J-663D01*
G03X42926Y-54384I663J0D01*
G03X43041Y-54374I0J663D01*
G03X43688Y-54892I647J145D01*
G01X30480Y-47399D02*
G03X31143Y-46736I0J663D01*
G03X30723Y-46119I-663J0D01*
G03X31270Y-45466I-116J653D01*
G03X30607Y-44803I-663J0D01*
G03X29944Y-45466I0J-663D01*
G03X30364Y-46083I663J0D01*
G03X29817Y-46736I116J-653D01*
G03X30480Y-47399I663J0D01*
G01X59055Y-50447D02*
G03X59718Y-49784I0J663D01*
G03X59055Y-49121I-663J0D01*
G03X58520Y-49392I0J-663D01*
G03X57912Y-48994I-608J-265D01*
G03X57249Y-49657I0J-663D01*
G03X57912Y-50320I663J0D01*
G03X58447Y-50049I0J663D01*
G03X59055Y-50447I608J265D01*
G01X30480Y-50574D02*
G03X31143Y-49911I0J663D01*
G03X30671Y-49276I-663J0D01*
G03X31143Y-48641I-191J635D01*
G03X30480Y-47978I-663J0D01*
G03X29817Y-48641I0J-663D01*
G03X30289Y-49276I663J0D01*
G03X29817Y-49911I191J-635D01*
G03X30480Y-50574I663J0D01*
G01X35913Y-36195D02*
G03X36576Y-36858I663J0D01*
G03X37090Y-36615I0J663D01*
G03X37465Y-36731I375J547D01*
G03X38128Y-36068I0J663D01*
G03X37465Y-35405I-663J0D01*
G03X36951Y-35648I0J-663D01*
G03X36576Y-35532I-375J-547D01*
G03X35913Y-36195I0J-663D01*
G01X41755Y-58420D02*
G03X42418Y-59083I663J0D01*
G03X43081Y-58420I0J663D01*
G03X42418Y-57757I-663J0D01*
G03X41755Y-58420I0J-663D01*
G01X55626Y-37239D02*
G03X56289Y-36576I0J663D01*
G03X55626Y-35913I-663J0D01*
G03X54963Y-36576I0J-663D01*
G03X55626Y-37239I663J0D01*
G01X44676Y-54102D02*
G03X45339Y-54765I663J0D01*
G03X46002Y-54102I0J663D01*
G03X45339Y-53439I-663J0D01*
G03X44676Y-54102I0J-663D01*
G01X34925Y-44605D02*
G03X35588Y-43942I0J663D01*
G03X34925Y-43279I-663J0D01*
G03X34262Y-43942I0J-663D01*
G03X34925Y-44605I663J0D01*
G01X33528Y-61750D02*
G03X34191Y-61087I0J663D01*
G03X33528Y-60424I-663J0D01*
G03X32865Y-61087I0J-663D01*
G03X33528Y-61750I663J0D01*
G01X52423Y-49657D02*
G03X53086Y-50320I663J0D01*
G03X53749Y-49657I0J663D01*
G03X53086Y-48994I-663J0D01*
G03X52423Y-49657I0J-663D01*
G01X57277Y-65306D02*
G03X57940Y-64643I0J663D01*
G03X57277Y-63980I-663J0D01*
G03X56614Y-64643I0J-663D01*
G03X57277Y-65306I663J0D01*
G01X51181Y-53622D02*
G03X51844Y-52959I0J663D01*
G03X51181Y-52296I-663J0D01*
G03X50518Y-52959I0J-663D01*
G03X51181Y-53622I663J0D01*
G01X62865Y-53114D02*
G03X63528Y-52451I0J663D01*
G03X62865Y-51788I-663J0D01*
G03X62202Y-52451I0J-663D01*
G03X62865Y-53114I663J0D01*
G01X58166Y-34826D02*
G03X58829Y-34163I0J663D01*
G03X58166Y-33500I-663J0D01*
G03X57503Y-34163I0J-663D01*
G03X58166Y-34826I663J0D01*
G01X56868Y-52070D02*
G03X57531Y-52733I663J0D01*
G03X58194Y-52070I0J663D01*
G03X57531Y-51407I-663J0D01*
G03X56868Y-52070I0J-663D01*
G01X33274Y-34445D02*
G03X33937Y-33782I0J663D01*
G03X33274Y-33119I-663J0D01*
G03X32611Y-33782I0J-663D01*
G03X33274Y-34445I663J0D01*
G01X65913Y-50828D02*
G03X66576Y-50165I0J663D01*
G03X65913Y-49502I-663J0D01*
G03X65250Y-50165I0J-663D01*
G03X65913Y-50828I663J0D01*
G01X56896Y-36223D02*
G03X57559Y-35560I0J663D01*
G03X56896Y-34897I-663J0D01*
G03X56233Y-35560I0J-663D01*
G03X56896Y-36223I663J0D01*
G01X36957Y-43208D02*
G03X37620Y-42545I0J663D01*
G03X36957Y-41882I-663J0D01*
G03X36294Y-42545I0J-663D01*
G03X36957Y-43208I663J0D01*
G01X37211Y-38255D02*
G03X37874Y-37592I0J663D01*
G03X37211Y-36929I-663J0D01*
G03X36548Y-37592I0J-663D01*
G03X37211Y-38255I663J0D01*
G01X34516Y-41783D02*
G03X35179Y-42446I663J0D01*
G03X35842Y-41783I0J663D01*
G03X35179Y-41120I-663J0D01*
G03X34516Y-41783I0J-663D01*
G01X63881Y-49304D02*
G03X64544Y-48641I0J663D01*
G03X63881Y-47978I-663J0D01*
G03X63218Y-48641I0J-663D01*
G03X63881Y-49304I663J0D01*
G01X39497Y-62512D02*
G03X40160Y-61849I0J663D01*
G03X39497Y-61186I-663J0D01*
G03X38834Y-61849I0J-663D01*
G03X39497Y-62512I663J0D01*
G01X37310Y-41529D02*
G03X37973Y-42192I663J0D01*
G03X38636Y-41529I0J663D01*
G03X37973Y-40866I-663J0D01*
G03X37310Y-41529I0J-663D01*
G01X63754Y-47526D02*
G03X64417Y-46863I0J663D01*
G03X63754Y-46200I-663J0D01*
G03X63091Y-46863I0J-663D01*
G03X63754Y-47526I663J0D01*
G01X60424Y-62738D02*
G03X61087Y-63401I663J0D01*
G03X61750Y-62738I0J663D01*
G03X61087Y-62075I-663J0D01*
G03X60424Y-62738I0J-663D01*
G01X58547Y-40922D02*
G03X59210Y-40259I0J663D01*
G03X58547Y-39596I-663J0D01*
G03X57884Y-40259I0J-663D01*
G03X58547Y-40922I663J0D01*
G01X13589Y-65941D02*
G03X14252Y-65278I0J663D01*
G03X13589Y-64615I-663J0D01*
G03X12926Y-65278I0J-663D01*
G03X13589Y-65941I663J0D01*
G01X59436Y-33302D02*
G03X60099Y-32639I0J663D01*
G03X59436Y-31976I-663J0D01*
G03X58773Y-32639I0J-663D01*
G03X59436Y-33302I663J0D01*
G01X32131Y-44605D02*
G03X32794Y-43942I0J663D01*
G03X32131Y-43279I-663J0D01*
G03X31468Y-43942I0J-663D01*
G03X32131Y-44605I663J0D01*
G01X62456Y-32004D02*
G03X63119Y-32667I663J0D01*
G03X63782Y-32004I0J663D01*
G03X63119Y-31341I-663J0D01*
G03X62456Y-32004I0J-663D01*
G01X47089Y-11049D02*
G03X47752Y-11712I663J0D01*
G03X48415Y-11049I0J663D01*
G03X47752Y-10386I-663J0D01*
G03X47089Y-11049I0J-663D01*
G01X16510Y-46002D02*
G03X17173Y-45339I0J663D01*
G03X16510Y-44676I-663J0D01*
G03X15847Y-45339I0J-663D01*
G03X16510Y-46002I663J0D01*
G01X15466Y-35941D02*
G03X16129Y-36604I663J0D01*
G03X16792Y-35941I0J663D01*
G03X16129Y-35278I-663J0D01*
G03X15466Y-35941I0J-663D01*
G01X54963Y-16891D02*
G03X55626Y-17554I663J0D01*
G03X56289Y-16891I0J663D01*
G03X55626Y-16228I-663J0D01*
G03X54963Y-16891I0J-663D01*
G01X20546Y-42545D02*
G03X21209Y-43208I663J0D01*
G03X21872Y-42545I0J663D01*
G03X21209Y-41882I-663J0D01*
G03X20546Y-42545I0J-663D01*
G01X59436Y-21364D02*
G03X60099Y-20701I0J663D01*
G03X59436Y-20038I-663J0D01*
G03X58773Y-20701I0J-663D01*
G03X59436Y-21364I663J0D01*
G01X19812Y-55654D02*
G03X20475Y-54991I0J663D01*
G03X19812Y-54328I-663J0D01*
G03X19149Y-54991I0J-663D01*
G03X19812Y-55654I663J0D01*
G01X57503Y-19431D02*
G03X58166Y-20094I663J0D01*
G03X58829Y-19431I0J663D01*
G03X58166Y-18768I-663J0D01*
G03X57503Y-19431I0J-663D01*
G01X24483Y-57277D02*
G03X25146Y-57940I663J0D01*
G03X25809Y-57277I0J663D01*
G03X25146Y-56614I-663J0D01*
G03X24483Y-57277I0J-663D01*
G01X56896Y-18824D02*
G03X57559Y-18161I0J663D01*
G03X56896Y-17498I-663J0D01*
G03X56233Y-18161I0J-663D01*
G03X56896Y-18824I663J0D01*
G01X30861Y-58956D02*
G03X31524Y-58293I0J663D01*
G03X30861Y-57630I-663J0D01*
G03X30198Y-58293I0J-663D01*
G03X30861Y-58956I663J0D01*
G01X33909Y-25682D02*
G03X34572Y-25019I0J663D01*
G03X33909Y-24356I-663J0D01*
G03X33246Y-25019I0J-663D01*
G03X33909Y-25682I663J0D01*
G01X29972Y-65306D02*
G03X30635Y-64643I0J663D01*
G03X29972Y-63980I-663J0D01*
G03X29309Y-64643I0J-663D01*
G03X29972Y-65306I663J0D01*
G01X61313Y-29337D02*
G03X61976Y-30000I663J0D01*
G03X62639Y-29337I0J663D01*
G03X61976Y-28674I-663J0D01*
G03X61313Y-29337I0J-663D01*
G01X36929Y-29083D02*
G03X37592Y-29746I663J0D01*
G03X38255Y-29083I0J663D01*
G03X37592Y-28420I-663J0D01*
G03X36929Y-29083I0J-663D01*
G01X19177Y-11458D02*
G03X19840Y-10795I0J663D01*
G03X19177Y-10132I-663J0D01*
G03X18514Y-10795I0J-663D01*
G03X19177Y-11458I663J0D01*
G01X18768Y-26035D02*
G03X19431Y-26698I663J0D01*
G03X20094Y-26035I0J663D01*
G03X19431Y-25372I-663J0D01*
G03X18768Y-26035I0J-663D01*
G01X23721Y-22733D02*
G03X24384Y-23396I663J0D01*
G03X25047Y-22733I0J663D01*
G03X24384Y-22070I-663J0D01*
G03X23721Y-22733I0J-663D01*
G01X30579Y-20447D02*
G03X31242Y-21110I663J0D01*
G03X31905Y-20447I0J663D01*
G03X31242Y-19784I-663J0D01*
G03X30579Y-20447I0J-663D01*
G01X20128Y-40259D02*
G03X20236Y-40282I192J635D01*
G01X20128D01*
G01Y-40259D01*
G01X21364Y-53307D02*
G01X21364Y-53837D01*
G03X21183Y-53392I-663J-11D01*
G03X21364Y-53222I-355J560D01*
G01Y-53307D01*
G01X28171Y-65881D02*
G03X28364Y-65936I277J603D01*
G01X28171D01*
G01Y-65881D01*
G01X52220Y-66802D02*
G01X51943Y-67079D01*
G01X44120D01*
G03X44248Y-66981I-305J531D01*
G01X45899Y-65330D01*
G03X46078Y-64897I-433J433D01*
G01Y-59818D01*
G01X46079Y-59816D01*
G01X48514Y-57381D01*
G01X53449D01*
G03X53312Y-57785I526J-404D01*
G03X53363Y-58040I663J0D01*
G01Y-59666D01*
G01X52579Y-60449D01*
G03X52169Y-61063I253J-613D01*
G03X52220Y-61318I663J0D01*
G01Y-64547D01*
G01Y-66802D01*
G01X46327Y-64135D02*
G03X46990Y-64798I663J0D01*
G03X47653Y-64135I0J663D01*
G03X46990Y-63472I-663J0D01*
G03X46327Y-64135I0J-663D01*
G01X59813Y-55930D02*
G03X59926Y-56157I639J177D01*
G01X59393D01*
G03X59813Y-55930I-84J658D01*
G01X81602Y-69923D02*
G01X81602Y-68025D01*
G03X78000Y-64424I-3602J-0D01*
G01X76102D01*
G01Y-8627D01*
G01X78000D01*
G03X80583Y-7535I0J3602D01*
G03X80490Y-7874I570J-339D01*
G03X81153Y-8537I663J0D01*
G03X81816Y-7874I0J663D01*
G03X81153Y-7211I-663J0D01*
G03X80758Y-7341I0J-663D01*
G03X81602Y-5025I-2758J2316D01*
G01Y-3127D01*
G01X94398D01*
G01Y-5025D01*
G03X98000Y-8627I3602J0D01*
G01X99898D01*
G01Y-64424D01*
G01X98000D01*
G03X94398Y-68025I0J-3602D01*
G01Y-69923D01*
G01X81602D01*
G01X86994Y-69573D02*
G03X87249Y-69624I255J612D01*
G03X87504Y-69573I0J663D01*
G01X90932D01*
G03X91365Y-69394I0J612D01*
G01X97842Y-62917D01*
G03X98021Y-62484I-433J433D01*
G01Y-56228D01*
G01X98656D01*
G03X98911Y-56279I255J612D01*
G03X99574Y-55616I0J663D01*
G03X98911Y-54953I-663J0D01*
G03X98656Y-55004I0J-663D01*
G01X98155D01*
G01X98021Y-54870D01*
G01Y-47371D01*
G01Y-43180D01*
G03X97842Y-42747I-612J0D01*
G01X95100Y-40005D01*
G01X96773Y-38332D01*
G03X97183Y-37719I-253J613D01*
G03X96520Y-37056I-663J0D01*
G03X95907Y-37466I0J-663D01*
G01X93980Y-39393D01*
G01X86107D01*
G03X85852Y-39342I-255J-612D01*
G03X85597Y-39393I0J-663D01*
G01X83447D01*
G01X81236Y-37182D01*
G03X80623Y-36772I-613J-253D01*
G03X80368Y-36823I0J-663D01*
G01X79375D01*
G01X79352Y-36800D01*
G01Y-27433D01*
G03X79403Y-27178I-612J255D01*
G03X79352Y-26923I-663J0D01*
G01Y-25400D01*
G01X81078Y-23674D01*
G03X81257Y-23241I-433J433D01*
G01Y-18924D01*
G03X81308Y-18669I-612J255D01*
G03X81257Y-18414I-663J0D01*
G01Y-18392D01*
G01X89027D01*
G03X89639Y-17780I0J612D01*
G01Y-17527D01*
G03X89690Y-17272I-612J255D01*
G03X89639Y-17017I-663J0D01*
G01Y-11788D01*
G01X96192D01*
G01X96797Y-12393D01*
G01Y-17442D01*
G03X96407Y-16919I-658J-84D01*
G03X96548Y-16510I-522J409D01*
G03X95885Y-15847I-663J0D01*
G03X95222Y-16510I0J-663D01*
G03X95617Y-17117I663J0D01*
G03X95476Y-17526I522J-409D01*
G03X96139Y-18189I663J0D01*
G03X96797Y-17610I0J663D01*
G01Y-17963D01*
G03X96619Y-18415I485J-452D01*
G03X97282Y-19078I663J0D01*
G03X97945Y-18415I0J663D01*
G03X97767Y-17963I-663J0D01*
G01Y-12192D01*
G03X97625Y-11849I-485J0D01*
G01X96736Y-10960D01*
G03X96393Y-10818I-343J-343D01*
G01X89639D01*
G01Y-9399D01*
G03X89690Y-9144I-612J255D01*
G03X89027Y-8481I-663J0D01*
G03X88364Y-9144I0J-663D01*
G03X88415Y-9399I663J0D01*
G01Y-10904D01*
G03X88011Y-10767I-404J-526D01*
G03X87392Y-11192I0J-663D01*
G03X87100Y-11042I-292J-208D01*
G01X83900D01*
G03X83542Y-11400I0J-358D01*
G01Y-13400D01*
G03X83900Y-13758I358J0D01*
G01X87100D01*
G03X87458Y-13400I0J358D01*
G01Y-11796D01*
G03X87656Y-11990I553J366D01*
G03X87475Y-12446I482J-456D01*
G03X88138Y-13109I663J0D01*
G03X88415Y-13049I0J663D01*
G01Y-17017D01*
G03X88372Y-17168I612J-255D01*
G01X80645D01*
G03X80033Y-17780I0J-612D01*
G01Y-18414D01*
G03X79982Y-18669I612J-255D01*
G03X80033Y-18924I663J0D01*
G01Y-22987D01*
G01X78307Y-24713D01*
G03X78128Y-25146I433J-433D01*
G01Y-26923D01*
G03X78077Y-27178I612J-255D01*
G03X78128Y-27433I663J0D01*
G01Y-37054D01*
G03X78307Y-37487I612J0D01*
G01X78688Y-37868D01*
G03X79121Y-38047I433J433D01*
G01X80368D01*
G01X80371Y-38048D01*
G01X82760Y-40438D01*
G03X83193Y-40617I433J433D01*
G01X85597D01*
G03X85852Y-40668I255J612D01*
G03X86107Y-40617I0J663D01*
G01X93980D01*
G01X96797Y-43434D01*
G01Y-46759D01*
G01X91186D01*
G03X90753Y-46938I0J-612D01*
G01X88721Y-48970D01*
G03X88542Y-49403I433J-433D01*
G01Y-53974D01*
G03X88491Y-54229I612J-255D01*
G03X88542Y-54484I663J0D01*
G01Y-54990D01*
G01X88541Y-54992D01*
G01X88392Y-55141D01*
G01X81408D01*
G03X81153Y-55090I-255J-612D01*
G03X80490Y-55753I0J-663D01*
G03X81153Y-56416I663J0D01*
G03X81408Y-56365I0J663D01*
G01X88646D01*
G03X89079Y-56186I0J612D01*
G01X89407Y-55858D01*
G03X89817Y-55245I-253J613D01*
G03X89766Y-54990I-663J0D01*
G01Y-54484D01*
G03X89817Y-54229I-612J255D01*
G03X89766Y-53974I-663J0D01*
G01Y-49657D01*
G01X91440Y-47983D01*
G01X96797D01*
G01Y-55124D01*
G01Y-62230D01*
G01X90678Y-68349D01*
G01X87504D01*
G03X87249Y-68298I-255J-612D01*
G03X86994Y-68349I0J-663D01*
G01X86615D01*
G03X86360Y-68298I-255J-612D01*
G03X85697Y-68961I0J-663D01*
G03X86360Y-69624I663J0D01*
G03X86615Y-69573I0J663D01*
G01X86994D01*
G01X93000Y-58858D02*
G03X94358Y-57500I0J1358D01*
G03X93531Y-56250I-1358J0D01*
G03X94358Y-55000I-531J1250D01*
G03X93735Y-53858I-1358J0D01*
G01X94000D01*
G03X94358Y-53500I0J358D01*
G01Y-51500D01*
G03X94000Y-51142I-358J0D01*
G01X92000D01*
G03X91642Y-51500I0J-358D01*
G01Y-53500D01*
G03X92000Y-53858I358J0D01*
G01X92265D01*
G03X91642Y-55000I735J-1142D01*
G03X92469Y-56250I1358J0D01*
G03X91642Y-57500I531J-1250D01*
G03X93000Y-58858I1358J0D01*
G01X91642Y-20500D02*
G03X93000Y-21858I1358J0D01*
G03X94358Y-20500I0J1358D01*
G03X93531Y-19250I-1358J0D01*
G03X94358Y-18000I-531J1250D01*
G03X93735Y-16858I-1358J0D01*
G01X94000D01*
G03X94358Y-16500I0J358D01*
G01Y-14500D01*
G03X94000Y-14142I-358J0D01*
G01X92000D01*
G03X91642Y-14500I0J-358D01*
G01Y-16500D01*
G03X92000Y-16858I358J0D01*
G01X92265D01*
G03X91642Y-18000I735J-1142D01*
G03X92469Y-19250I1358J0D01*
G03X91642Y-20500I531J-1250D01*
G01X85697Y-25273D02*
G03X86360Y-25936I663J0D01*
G03X87023Y-25273I0J663D01*
G03X86944Y-24958I-663J0D01*
G01X87100D01*
G03X87458Y-24600I0J358D01*
G01Y-22600D01*
G03X87100Y-22242I-358J0D01*
G01X83900D01*
G03X83542Y-22600I0J-358D01*
G01Y-24600D01*
G03X83900Y-24958I358J0D01*
G01X85776D01*
G03X85697Y-25273I584J-315D01*
G01X83542Y-61600D02*
G03X83900Y-61958I358J0D01*
G01X87100D01*
G03X87458Y-61600I0J358D01*
G01Y-59600D01*
G03X87100Y-59242I-358J0D01*
G01X83900D01*
G03X83542Y-59600I0J-358D01*
G01Y-61600D01*
G01X87100Y-50758D02*
G03X87458Y-50400I0J358D01*
G01Y-48400D01*
G03X87100Y-48042I-358J0D01*
G01X83900D01*
G03X83542Y-48400I0J-358D01*
G01Y-50400D01*
G03X83900Y-50758I358J0D01*
G01X87100D01*
G01X78500Y-53858D02*
G03X79858Y-52500I0J1358D01*
G03X78500Y-51142I-1358J0D01*
G03X77142Y-52500I0J-1358D01*
G03X78500Y-53858I1358J0D01*
G01X78500Y-58858D02*
G03X79858Y-57500I0J1358D01*
G03X78500Y-56142I-1358J0D01*
G03X77142Y-57500I0J-1358D01*
G03X78500Y-58858I1358J0D01*
G01X77142Y-15500D02*
G03X78500Y-16858I1358J0D01*
G03X79858Y-15500I0J1358D01*
G03X78500Y-14142I-1358J0D01*
G03X77142Y-15500I0J-1358D01*
G01X78500Y-21858D02*
G03X79858Y-20500I0J1358D01*
G03X78500Y-19142I-1358J0D01*
G03X77142Y-20500I0J-1358D01*
G03X78500Y-21858I1358J0D01*
G01X81915Y-30127D02*
G03X82578Y-29464I0J663D01*
G03X82569Y-29356I-663J0D01*
G03X82677Y-29365I108J654D01*
G03X83340Y-28702I0J663D01*
G03X82677Y-28039I-663J0D01*
G03X82014Y-28702I0J-663D01*
G03X82023Y-28810I663J0D01*
G03X81915Y-28801I-108J-654D01*
G03X81252Y-29464I0J-663D01*
G03X81915Y-30127I663J0D01*
G01X88745Y-31115D02*
G03X89408Y-31778I663J0D01*
G03X90071Y-31115I0J663D01*
G01Y-31103D01*
G03X90297Y-31143I226J623D01*
G03X90960Y-30480I0J663D01*
G03X90297Y-29817I-663J0D01*
G03X89634Y-30480I0J-663D01*
G01Y-30492D01*
G03X89408Y-30452I-226J-623D01*
G03X88745Y-31115I0J-663D01*
G01X92837Y-26444D02*
G03X93500Y-25781I0J663D01*
G03X92837Y-25118I-663J0D01*
G03X92571Y-25173I0J-663D01*
G03X91948Y-24737I-623J-227D01*
G03X91285Y-25400I0J-663D01*
G03X91948Y-26063I663J0D01*
G03X92214Y-26008I0J663D01*
G03X92837Y-26444I623J227D01*
G01X86586Y-34163D02*
G03X87249Y-34826I663J0D01*
G03X87912Y-34163I0J663D01*
G03X87249Y-33500I-663J0D01*
G03X86586Y-34163I0J-663D01*
G01X81887Y-42291D02*
G03X82550Y-42954I663J0D01*
G03X83213Y-42291I0J663D01*
G03X82550Y-41628I-663J0D01*
G03X81887Y-42291I0J-663D01*
G01X84709Y-36858D02*
G03X85372Y-36195I0J663D01*
G03X84709Y-35532I-663J0D01*
G03X84046Y-36195I0J-663D01*
G03X84709Y-36858I663J0D01*
G01X81788Y-41176D02*
G03X82451Y-40513I0J663D01*
G03X81788Y-39850I-663J0D01*
G03X81125Y-40513I0J-663D01*
G03X81788Y-41176I663J0D01*
G01X88745Y-43561D02*
G03X89408Y-44224I663J0D01*
G03X90071Y-43561I0J663D01*
G03X89408Y-42898I-663J0D01*
G03X88745Y-43561I0J-663D01*
G01X85725Y-42065D02*
G03X86388Y-41402I0J663D01*
G03X85725Y-40739I-663J0D01*
G03X85062Y-41402I0J-663D01*
G03X85725Y-42065I663J0D01*
G01X90297Y-45240D02*
G03X90960Y-44577I0J663D01*
G03X90297Y-43914I-663J0D01*
G03X89634Y-44577I0J-663D01*
G03X90297Y-45240I663J0D01*
G01X83820Y-63909D02*
G03X84483Y-63246I0J663D01*
G03X83820Y-62583I-663J0D01*
G03X83157Y-63246I0J-663D01*
G03X83820Y-63909I663J0D01*
G01X81788Y-66449D02*
G03X82451Y-65786I0J663D01*
G03X81788Y-65123I-663J0D01*
G03X81125Y-65786I0J-663D01*
G03X81788Y-66449I663J0D01*
G01X83439Y-58321D02*
G03X84102Y-57658I0J663D01*
G03X83439Y-56995I-663J0D01*
G03X82776Y-57658I0J-663D01*
G03X83439Y-58321I663J0D01*
G01X85471Y-39271D02*
G03X86134Y-38608I0J663D01*
G03X85471Y-37945I-663J0D01*
G03X84808Y-38608I0J-663D01*
G03X85471Y-39271I663J0D01*
G01X90523Y-32131D02*
G03X91186Y-32794I663J0D01*
G03X91849Y-32131I0J663D01*
G03X91186Y-31468I-663J0D01*
G03X90523Y-32131I0J-663D01*
G01X82931Y-9934D02*
G03X83594Y-9271I0J663D01*
G03X82931Y-8608I-663J0D01*
G03X82268Y-9271I0J-663D01*
G03X82931Y-9934I663J0D01*
G01X82776Y-25908D02*
G03X83439Y-26571I663J0D01*
G03X84102Y-25908I0J663D01*
G03X83439Y-25245I-663J0D01*
G03X82776Y-25908I0J-663D01*
G01X96320Y-25299D02*
G03X96983Y-24636I0J663D01*
G03X96320Y-23973I-663J0D01*
G03X95657Y-24636I0J-663D01*
G03X96320Y-25299I663J0D01*
G01X88011Y-32286D02*
G03X88674Y-31623I0J663D01*
G03X88011Y-30960I-663J0D01*
G03X87348Y-31623I0J-663D01*
G03X88011Y-32286I663J0D01*
G01X86233Y-31270D02*
G03X86896Y-30607I0J663D01*
G03X86233Y-29944I-663J0D01*
G03X85570Y-30607I0J-663D01*
G03X86233Y-31270I663J0D01*
G01X82141Y-21336D02*
G03X82804Y-21999I663J0D01*
G03X83467Y-21336I0J663D01*
G03X82804Y-20673I-663J0D01*
G03X82141Y-21336I0J-663D01*
G01X90297Y-22761D02*
G03X90960Y-22098I0J663D01*
G03X90297Y-21435I-663J0D01*
G03X89634Y-22098I0J-663D01*
G03X90297Y-22761I663J0D01*
G54D10*
G01X78500Y-52500D02*
G01X79759Y-52500D01*
G01X78500Y-52500D02*
G01X77241Y-52500D01*
G01X78500Y-52500D02*
G01X78500Y-53759D01*
G01X78500Y-52500D02*
G01X78500Y-51241D01*
G01X78500Y-15500D02*
G01X79759Y-15500D01*
G01X78500Y-15500D02*
G01X77241Y-15500D01*
G01X78500Y-15500D02*
G01X78500Y-16759D01*
G01X78500Y-15500D02*
G01X78500Y-14241D01*
G01X93000Y-18000D02*
G01X94259Y-18000D01*
G01X93000Y-18000D02*
G01X91741Y-18000D01*
G01X93000Y-55000D02*
G01X94259Y-55000D01*
G01X93000Y-55000D02*
G01X91741Y-55000D01*
G04 Copper End*

G04 Pad Start*
G54D11*
G01X5000Y-5000D03*
G01X68000Y-5000D03*
G01X5000Y-68000D03*
G01X68000Y-68000D03*
G54D12*
G01X93000Y-52500D03*
G54D13*
G01X93000Y-57500D03*
G01X93000Y-55000D03*
G54D14*
G01X85500Y-49400D03*
G01X85500Y-60600D03*
G54D13*
G01X78500Y-57500D03*
G01X78500Y-52500D03*
G54D12*
G01X93000Y-15500D03*
G54D13*
G01X93000Y-20500D03*
G01X93000Y-18000D03*
G54D14*
G01X85500Y-12400D03*
G01X85500Y-23600D03*
G54D13*
G01X78500Y-20500D03*
G01X78500Y-15500D03*
G54D11*
G01X78000Y-5000D03*
G01X98000Y-5000D03*
G01X78000Y-68000D03*
G01X98000Y-68000D03*
G04 Pad End*

G04 Via Start*
G54D15*
G01X28605Y-8868D03*
G01X23876Y-18161D03*
G01X21336Y-18161D03*
G01X20066Y-16002D03*
G01X8943Y-13467D03*
G01X20955Y-31369D03*
G01X17005Y-27940D03*
G01X20251Y-20193D03*
G01X18034Y-23114D03*
G01X21075Y-23674D03*
G01X15621Y-23114D03*
G01X11938Y-29972D03*
G01X11189Y-27940D03*
G01X7366Y-23876D03*
G01X9398Y-28829D03*
G01X14224Y-12319D03*
G01X21189Y-14163D03*
G01X27305Y-18161D03*
G01X24868Y-14289D03*
G01X52832Y-61063D03*
G01X18669Y-14224D03*
G01X27456Y-14291D03*
G01X39116Y-14605D03*
G01X30607Y-31369D03*
G01X18288Y-49657D03*
G01X23114Y-46736D03*
G01X32385Y-36322D03*
G01X63373Y-56769D03*
G01X45466Y-59563D03*
G01X27559Y-64008D03*
G01X65024Y-35560D03*
G01X16129Y-35941D03*
G01X16129Y-38227D03*
G01X21971Y-26924D03*
G01X25974Y-36342D03*
G01X28702Y-34036D03*
G01X25908Y-38862D03*
G01X53975Y-65913D03*
G01X53975Y-57785D03*
G01X11430Y-56896D03*
G01X14986Y-60325D03*
G01X8868Y-56037D03*
G01X8890Y-56007D03*
G01X10541Y-46228D03*
G01X14351Y-31623D03*
G01X13589Y-35687D03*
G01X16002Y-62738D03*
G01X17272Y-60198D03*
G01X24384Y-22733D03*
G01X19177Y-10795D03*
G01X26670Y-20320D03*
G01X28702Y-31115D03*
G01X28702Y-29591D03*
G01X26289Y-28067D03*
G01X67564Y-13081D03*
G01X47752Y-11049D03*
G01X11430Y-39243D03*
G01X39624Y-20447D03*
G01X31242Y-20447D03*
G01X30607Y-36068D03*
G01X36576Y-36195D03*
G01X32639Y-40259D03*
G01X20320Y-39624D03*
G01X19431Y-26035D03*
G01X33909Y-25019D03*
G01X34798Y-32512D03*
G01X37846Y-32512D03*
G01X35941Y-36957D03*
G01X27813Y-25781D03*
G01X34671Y-26289D03*
G01X29464Y-27813D03*
G01X35560Y-27178D03*
G01X33909Y-31242D03*
G01X38481Y-31242D03*
G01X34671Y-30607D03*
G01X19177Y-41783D03*
G01X63119Y-40894D03*
G01X62357Y-41783D03*
G01X19812Y-22733D03*
G01X13081Y-37973D03*
G01X42418Y-13970D03*
G01X14351Y-37973D03*
G01X42418Y-14859D03*
G01X15113Y-37592D03*
G01X41529Y-15367D03*
G01X64643Y-11811D03*
G01X68199Y-13970D03*
G01X64638Y-13076D03*
G01X67564Y-14986D03*
G01X42400Y-10537D03*
G01X33274Y-33782D03*
G01X29718Y-35052D03*
G01X36957Y-31877D03*
G01X28956Y-35814D03*
G01X30480Y-49911D03*
G01X26924Y-36703D03*
G01X37211Y-37592D03*
G01X37465Y-36068D03*
G01X18034Y-41783D03*
G01X39624Y-37084D03*
G01X22606Y-40005D03*
G01X15494Y-42037D03*
G01X15494Y-53467D03*
G01X35560Y-29845D03*
G01X40640Y-31369D03*
G01X39531Y-31403D03*
G01X34671Y-21209D03*
G01X40640Y-20574D03*
G01X35306Y-21971D03*
G01X40513Y-21717D03*
G01X39878Y-36322D03*
G01X39878Y-35433D03*
G01X39878Y-34417D03*
G01X30480Y-46736D03*
G01X63754Y-46863D03*
G01X30480Y-48641D03*
G01X63881Y-48641D03*
G01X40767Y-30480D03*
G01X37592Y-29083D03*
G01X35941Y-22860D03*
G01X40513Y-22860D03*
G01X65913Y-50165D03*
G01X62865Y-52451D03*
G01X40894Y-29591D03*
G01X39243Y-23495D03*
G01X40767Y-28448D03*
G01X40005Y-24257D03*
G01X40767Y-27178D03*
G01X40767Y-25019D03*
G01X58547Y-40259D03*
G01X63119Y-32004D03*
G01X66421Y-26162D03*
G01X59436Y-20701D03*
G01X58166Y-19431D03*
G01X56896Y-18161D03*
G01X55626Y-16891D03*
G01X89027Y-9144D03*
G01X89027Y-17272D03*
G01X80623Y-37435D03*
G01X80645Y-18669D03*
G01X78740Y-27178D03*
G01X85852Y-40005D03*
G01X96520Y-37719D03*
G01X81915Y-29464D03*
G01X81153Y-7874D03*
G01X82677Y-28702D03*
G01X82931Y-9271D03*
G01X98911Y-55616D03*
G01X89154Y-54229D03*
G01X89154Y-55245D03*
G01X81153Y-55753D03*
G01X87249Y-68961D03*
G01X86360Y-68961D03*
G01X81788Y-40513D03*
G01X81788Y-65786D03*
G01X82550Y-42291D03*
G01X83820Y-63246D03*
G01X83439Y-57658D03*
G01X83439Y-25908D03*
G01X88011Y-31623D03*
G01X87249Y-34163D03*
G01X84709Y-36195D03*
G01X85725Y-41402D03*
G01X90297Y-44577D03*
G01X90297Y-30480D03*
G01X89408Y-43561D03*
G01X89408Y-31115D03*
G01X86233Y-30607D03*
G01X86360Y-25273D03*
G01X10795Y-36449D03*
G01X23663Y-27772D03*
G01X26289Y-26162D03*
G01X40005Y-16002D03*
G01X37592Y-19177D03*
G01X26670Y-66294D03*
G01X66371Y-31703D03*
G01X66371Y-40553D03*
G01X66548Y-33655D03*
G01X66802Y-38481D03*
G01X35052Y-8763D03*
G01X23495Y-6096D03*
G01X11651Y-6043D03*
G01X11651Y-9759D03*
G01X9144Y-8255D03*
G01X63119Y-33020D03*
G01X60071Y-63754D03*
G01X22270Y-66294D03*
G01X9017Y-62484D03*
G01X8382Y-64516D03*
G01X8890Y-51689D03*
G01X9144Y-39751D03*
G01X5969Y-29464D03*
G01X6118Y-51716D03*
G01X6096Y-19304D03*
G01X66675Y-42418D03*
G01X66548Y-51054D03*
G01X63235Y-61829D03*
G01X62230Y-50673D03*
G01X65913Y-58801D03*
G01X65913Y-55337D03*
G01X67691Y-10922D03*
G01X68453Y-19685D03*
G01X68326Y-24765D03*
G01X68326Y-27506D03*
G01X63627Y-17653D03*
G01X63627Y-20574D03*
G01X76635Y-59865D03*
G01X76635Y-54785D03*
G01X76635Y-49705D03*
G01X76635Y-44625D03*
G01X76635Y-39545D03*
G01X76635Y-34465D03*
G01X76635Y-24305D03*
G01X76635Y-19225D03*
G01X76635Y-14145D03*
G01X76635Y-9065D03*
G01X81080Y-64945D03*
G01X81080Y-59865D03*
G01X81080Y-54785D03*
G01X81080Y-49705D03*
G01X81080Y-29385D03*
G01X83820Y-68580D03*
G01X86160Y-14145D03*
G01X92202Y-69088D03*
G01X91240Y-59865D03*
G01X91240Y-54785D03*
G01X91240Y-49705D03*
G01X91240Y-44625D03*
G01X91440Y-34036D03*
G01X91948Y-23368D03*
G01X91240Y-14145D03*
G01X94488Y-63119D03*
G01X96320Y-54785D03*
G01X96320Y-44625D03*
G01X96320Y-39545D03*
G01X96320Y-9065D03*
G01X6096Y-59563D03*
G01X6096Y-56388D03*
G01X6223Y-47244D03*
G01X6223Y-44069D03*
G01X6096Y-34544D03*
G01X5842Y-24511D03*
G01X6096Y-13970D03*
G01X8080Y-54785D03*
G01X8080Y-49705D03*
G01X8080Y-29385D03*
G01X9144Y-19304D03*
G01X13160Y-54785D03*
G01X13160Y-49705D03*
G01X13160Y-3985D03*
G01X18240Y-59865D03*
G01X18240Y-54785D03*
G01X18240Y-3985D03*
G01X23320Y-34465D03*
G01X23320Y-3985D03*
G01X28400Y-3985D03*
G01X33480Y-24305D03*
G01X34163Y-18288D03*
G01X33528Y-14224D03*
G01X33480Y-9065D03*
G01X33480Y-3985D03*
G01X38560Y-24305D03*
G01X48720Y-24305D03*
G01X48720Y-19225D03*
G01X48720Y-14145D03*
G01X53800Y-24305D03*
G01X53800Y-14145D03*
G01X58880Y-14145D03*
G01X63627Y-19177D03*
G01X69040Y-59865D03*
G01X69040Y-54785D03*
G01X69040Y-49705D03*
G01X69040Y-44625D03*
G01X26289Y-10287D03*
G01X90297Y-22098D03*
G01X96320Y-24636D03*
G01X95885Y-16510D03*
G01X91948Y-25400D03*
G01X96139Y-17526D03*
G01X92837Y-25781D03*
G01X97282Y-18415D03*
G01X81080Y-39545D03*
G01X91186Y-32131D03*
G01X85471Y-38608D03*
G01X82804Y-21336D03*
G01X88138Y-12446D03*
G01X88011Y-11430D03*
G01X87503Y-44069D03*
G01X85217Y-46101D03*
G01X93472Y-37719D03*
G01X93599Y-27305D03*
G01X98806Y-63627D03*
G01X60452Y-55753D03*
G01X28448Y-57150D03*
G01X14859Y-64389D03*
G01X29972Y-64643D03*
G01X13589Y-65278D03*
G01X28448Y-65278D03*
G01X23622Y-61849D03*
G01X39497Y-61849D03*
G01X24638Y-61087D03*
G01X33528Y-61087D03*
G01X21844Y-57277D03*
G01X23114Y-53340D03*
G01X25146Y-57277D03*
G01X30861Y-58293D03*
G01X46990Y-64135D03*
G01X57277Y-64643D03*
G01X21209Y-62738D03*
G01X61087Y-62738D03*
G01X36957Y-42545D03*
G01X31496Y-42418D03*
G01X57912Y-43561D03*
G01X57531Y-52070D03*
G01X51181Y-52959D03*
G01X57912Y-49657D03*
G01X53086Y-49657D03*
G01X57150Y-44450D03*
G01X20828Y-52832D03*
G01X20701Y-53848D03*
G01X21209Y-42545D03*
G01X16510Y-45339D03*
G01X27051Y-51181D03*
G01X37973Y-41529D03*
G01X24765Y-41656D03*
G01X35179Y-41783D03*
G01X19812Y-54991D03*
G01X29972Y-53213D03*
G01X32131Y-43942D03*
G01X34925Y-43942D03*
G01X30607Y-45466D03*
G01X56134Y-45466D03*
G01X45339Y-54102D03*
G01X55118Y-53467D03*
G01X55118Y-47371D03*
G01X32766Y-47371D03*
G01X43688Y-54229D03*
G01X59055Y-49784D03*
G01X33909Y-40259D03*
G01X35179Y-40005D03*
G01X33401Y-46355D03*
G01X55626Y-46482D03*
G01X56388Y-55880D03*
G01X53086Y-55880D03*
G01X55753Y-52705D03*
G01X42926Y-53721D03*
G01X42418Y-58420D03*
G01X30607Y-52197D03*
G01X59309Y-55499D03*
G01X58293Y-57531D03*
G01X31369Y-52070D03*
G01X59690Y-58039D03*
G01X59436Y-32639D03*
G01X58166Y-34163D03*
G01X56896Y-35560D03*
G01X55626Y-36576D03*
G01X47625Y-52070D03*
G01X42799Y-33655D03*
G01X43434Y-36576D03*
G01X61214Y-30607D03*
G01X30226Y-18288D03*
G01X15748Y-49784D03*
G01X19685Y-59055D03*
G01X33528Y-64643D03*
G01X36830Y-64643D03*
G01X40547Y-64643D03*
G01X47879Y-65913D03*
G01X61341Y-65913D03*
G01X63391Y-65913D03*
G01X63500Y-64008D03*
G01X31877Y-59563D03*
G01X36957Y-59690D03*
G01X42799Y-59690D03*
G01X46101Y-57658D03*
G01X49403Y-61595D03*
G01X26924Y-56388D03*
G01X25527Y-55499D03*
G01X17780Y-37846D03*
G01X23114Y-41783D03*
G01X26162Y-45593D03*
G01X21082Y-46863D03*
G01X61976Y-40259D03*
G01X46736Y-33909D03*
G01X48006Y-33909D03*
G01X49254Y-33909D03*
G01X50563Y-33909D03*
G01X51805Y-33909D03*
G01X53086Y-31877D03*
G01X54392Y-31877D03*
G01X44704Y-29591D03*
G01X43307Y-28321D03*
G01X35052Y-10922D03*
G01X35560Y-14224D03*
G01X29464Y-32258D03*
G01X27686Y-32766D03*
G01X32639Y-28448D03*
G01X32639Y-30099D03*
G01X60198Y-60071D03*
G01X37846Y-43942D03*
G01X54136Y-43942D03*
G01X61976Y-29337D03*
G01X64135Y-26289D03*
G54D17*
G01X51586Y-17556D03*
G01X51586Y-18956D03*
G01X50886Y-16856D03*
G01X50186Y-17556D03*
G01X50186Y-18956D03*
G01X52986Y-18956D03*
G01X52986Y-17556D03*
G01X52286Y-16856D03*
G01X52286Y-18256D03*
G01X50886Y-18256D03*
G01X50886Y-19656D03*
G01X52286Y-19656D03*
G04 Via End*

G04 Track Start*
G54D18*
G01X20066Y-17526D02*
G01X20701Y-18161D01*
G01X21336D01*
G01X20066Y-16002D02*
G01X20066Y-17526D01*
G01X8943Y-13467D02*
G01X8943Y-12774D01*
G01X9398Y-12319D01*
G01X17018Y-28956D02*
G01X17907Y-29845D01*
G01X19177D01*
G01X20701Y-31369D01*
G01X21590D01*
G01X20251Y-20193D02*
G01X21844Y-20193D01*
G01Y-18164D01*
G01X21847Y-18161D01*
G01X21336Y-18161D02*
G01X21847Y-18161D01*
G01X23876Y-18161D02*
G01X21847Y-18161D01*
G01X21844Y-20193D02*
G01X21844Y-23749D01*
G01X18669Y-23749D02*
G01X18034Y-23114D01*
G01X15621Y-23114D02*
G01X11938Y-23114D01*
G01X11176Y-23876D01*
G01X11176Y-29210D02*
G01X11938Y-29972D01*
G54D10*
G01X11189Y-27940D02*
G01X11182Y-27933D01*
G01X11176D01*
G54D18*
G01X11176Y-23876D02*
G01X11176Y-27933D01*
G01Y-29210D01*
G01X7366Y-23876D02*
G01X7366Y-26797D01*
G01X9398Y-28829D01*
G01X9398Y-12319D02*
G01X14224Y-12319D01*
G01X17653Y-12319D02*
G01X14224Y-12319D01*
G01X20066Y-12319D02*
G01X23517Y-8868D01*
G01X20066Y-16002D02*
G01X20066Y-12319D01*
G54D19*
G01X21189Y-14163D02*
G01X22017Y-13335D01*
G01X26289Y-17145D02*
G01X27305Y-18161D01*
G01X27305Y-19685D02*
G01X27305Y-18161D01*
G01X26670Y-20320D02*
G01X27305Y-19685D01*
G01X28194Y-22860D02*
G01X26924Y-22860D01*
G01X28702Y-23368D02*
G01X28194Y-22860D01*
G01X26289Y-14859D02*
G01X26289Y-17145D01*
G01X24638Y-13335D02*
G01X24892Y-13589D01*
G01Y-14265D01*
G01X24868Y-14289D01*
G01X24638Y-13335D02*
G01X22017Y-13335D01*
G01X26289Y-14859D02*
G01X25719Y-14289D01*
G01X24868D01*
G54D18*
G01X18669Y-13335D02*
G01X17653Y-12319D01*
G01X18669Y-19812D02*
G01X17018Y-21463D01*
G01Y-28956D01*
G54D20*
G01X27456Y-14291D02*
G01X27456Y-16280D01*
G01X27559Y-16383D01*
G01X37338Y-14605D02*
G01X39116Y-14605D01*
G01X35560Y-16383D02*
G01X37338Y-14605D01*
G01X28190Y-16383D02*
G01X28190Y-21205D01*
G01X27559Y-16383D02*
G01X28190Y-16383D01*
G01X35560D01*
G01X30607Y-31369D02*
G01X31623Y-32385D01*
G01X30353Y-41783D02*
G01X27432Y-41783D01*
G01X26924Y-42291D01*
G01X26924Y-48006D02*
G01X26543Y-48387D01*
G01X26924Y-42291D02*
G01X26924Y-48006D01*
G54D10*
G01X23114Y-46736D02*
G01X23114Y-48369D01*
G01X23132Y-48387D01*
G54D20*
G01X26543Y-48387D02*
G01X23132Y-48387D01*
G01X21849D01*
G54D10*
G01X32385Y-36322D02*
G01X31695Y-36322D01*
G01X31623Y-36250D01*
G54D20*
G01X31623Y-32385D02*
G01X31623Y-36250D01*
G01X67310Y-56769D02*
G01X67564Y-56515D01*
G01X63373Y-56769D02*
G01X67310Y-56769D01*
G01X45466Y-59563D02*
G01X45466Y-64897D01*
G01X43815Y-66548D01*
G54D10*
G01X65024Y-35560D02*
G01X67529Y-35560D01*
G01X67564Y-35525D01*
G54D20*
G01X67564Y-56515D01*
G54D10*
G01X21079Y-23677D02*
G01X21075Y-23674D01*
G01X21079Y-23749D02*
G01X21079Y-23677D01*
G54D18*
G01X21844Y-23749D02*
G01X21079Y-23749D01*
G01X18669D01*
G54D10*
G01X21971Y-26924D02*
G01X21971Y-23876D01*
G01X21844Y-23749D01*
G54D18*
G01X18669Y-14224D02*
G01X18669Y-19812D01*
G01X18669Y-13335D02*
G01X18669Y-14224D01*
G54D19*
G01X26043Y-36314D02*
G01X26797Y-35560D01*
G01Y-34536D01*
G01X27297Y-34036D01*
G01X28702D01*
G54D20*
G01X25908Y-38862D02*
G01X25908Y-39116D01*
G01X52197Y-67691D02*
G01X13843Y-67691D01*
G01X52832Y-67056D02*
G01X52197Y-67691D01*
G01X10541Y-64389D02*
G01X13843Y-67691D01*
G01X52832Y-61063D02*
G01X53975Y-59920D01*
G01Y-57785D01*
G01X11430Y-56896D02*
G01X10552Y-56896D01*
G01X10541Y-56885D01*
G01Y-64389D01*
G01X11430Y-56896D02*
G01X13081Y-56896D01*
G01X13462Y-57277D01*
G01Y-59690D01*
G01X14097Y-60325D01*
G01X14986D01*
G54D19*
G01X8890Y-56007D02*
G01X10505Y-56007D01*
G01X10541Y-56043D01*
G54D20*
G01X10541Y-56885D01*
G01X10541Y-41783D02*
G01X10541Y-46228D01*
G01Y-56043D01*
G01X25908Y-39116D02*
G01X24130Y-40894D01*
G01X11430Y-40894D02*
G01X10541Y-41783D01*
G01X19516Y-40894D02*
G01X19516Y-33867D01*
G01X19050Y-33401D02*
G01X16129Y-33401D01*
G01X14351Y-31623D01*
G01X24130Y-40894D02*
G01X19516Y-40894D01*
G01X19516Y-33867D02*
G01X19050Y-33401D01*
G01X27559Y-64008D02*
G01X16002Y-64008D01*
G01Y-62738D01*
G01Y-61214D01*
G01X16383Y-60833D01*
G01X16637D01*
G01X17272Y-60198D01*
G54D19*
G01X26670Y-20320D02*
G01X26670Y-22606D01*
G01X26924Y-22860D01*
G01X28702Y-34036D02*
G01X28702Y-31115D01*
G01X28702Y-29591D02*
G01X28702Y-31115D01*
G54D10*
G01X26289Y-28067D02*
G01X26822Y-27534D01*
G01X28702D01*
G54D19*
G01X28702Y-29591D02*
G01X28702Y-27534D01*
G01Y-23368D01*
G54D20*
G01X19516Y-40894D02*
G01X11430Y-40894D01*
G01X11430Y-39243D02*
G01X11430Y-40894D01*
G01X52832Y-64547D02*
G01X53879Y-64547D01*
G01X53975Y-64643D01*
G01Y-65913D01*
G01X52832Y-67056D02*
G01X52832Y-64547D01*
G01Y-61063D01*
G54D10*
G01X34798Y-32512D02*
G01X31750Y-32512D01*
G01X31623Y-32385D01*
G01X37846Y-32512D02*
G01X34798Y-32512D01*
G54D20*
G01X28190Y-21205D02*
G01X30607Y-23622D01*
G01Y-31369D01*
G01X67564Y-35525D02*
G01X67437Y-35398D01*
G01Y-17399D01*
G01X62865Y-12827D01*
G01X27559Y-64008D02*
G01X27559Y-66548D01*
G01X43815D01*
G01X89027Y-17780D02*
G01X89027Y-17272D01*
G01X78740Y-27178D02*
G01X78740Y-25146D01*
G01X79121Y-37435D02*
G01X78740Y-37054D01*
G01X80623Y-37435D02*
G01X79121Y-37435D01*
G01X78740Y-37054D02*
G01X78740Y-27178D01*
G01X85852Y-40005D02*
G01X83193Y-40005D01*
G01X80623Y-37435D01*
G01X96520Y-37719D02*
G01X94234Y-40005D01*
G01X80645Y-18669D02*
G01X80645Y-23241D01*
G01X78740Y-25146D01*
G01X80645Y-18669D02*
G01X80645Y-17780D01*
G01X94234Y-40005D02*
G01X97409Y-43180D01*
G01X97409Y-55124D02*
G01X97901Y-55616D01*
G01X98911Y-55616D02*
G01X97901Y-55616D01*
G01X97409Y-47371D02*
G01X91186Y-47371D01*
G01X97409Y-43180D02*
G01X97409Y-47371D01*
G01Y-55124D01*
G01X91186Y-47371D02*
G01X89154Y-49403D01*
G01Y-54229D01*
G01X89154Y-55245D02*
G01X89154Y-54229D01*
G01X81153Y-55753D02*
G01X88646Y-55753D01*
G01X89154Y-55245D01*
G01X97409Y-55124D02*
G01X97409Y-62484D01*
G01X90932Y-68961D01*
G01X87249D01*
G01X86360D01*
G01X85852Y-40005D02*
G01X94234Y-40005D01*
G01X39116Y-14605D02*
G01X40894Y-12827D01*
G01X62865D01*
G54D18*
G01X28605Y-8868D02*
G01X23517Y-8868D01*
G54D20*
G01X89027Y-17780D02*
G01X80645Y-17780D01*
G54D10*
G01X97282Y-18415D02*
G01X97282Y-12192D01*
G01X96393Y-11303D01*
G01X89031D01*
G01X89027Y-11307D01*
G54D20*
G01X89027Y-17272D02*
G01X89027Y-11307D01*
G01Y-9144D01*
G01X31623Y-40513D02*
G01X30353Y-41783D01*
G01X31623Y-36250D02*
G01X31623Y-40513D01*
G01X45466Y-59563D02*
G01X48260Y-56769D01*
G01X63373D01*
G54D10*
G01X21844Y-57277D02*
G01X21849Y-57272D01*
G01X23114Y-53340D02*
G01X21883Y-53340D01*
G01X21849Y-53307D01*
G01X21849Y-48387D02*
G01X21849Y-53307D01*
G01X21849Y-57272D02*
G01X21849Y-53307D01*
G01X28448Y-57150D02*
G01X28448Y-57658D01*
G01X27559Y-58547D01*
G01Y-64008D01*
G01X27051Y-51181D02*
G01X26924Y-51181D01*
G01X24765Y-53340D01*
G01X23114D01*
G54D20*
G01X18288Y-49657D02*
G01X19558Y-49657D01*
G01X20828Y-48387D01*
G01X21849D01*
G04 Track End*

M02*
