G04 Layer: TopSilkscreenLayer*
G04 EasyEDA Pro v1.9.29, 2023-05-19 09:05:19*
G04 Gerber Generator version 0.3*
G04 Scale: 100 percent, Rotated: No, Reflected: No*
G04 Dimensions in millimeters*
G04 Leading zeros omitted, absolute positions, 3 integers and 3 decimals*
%FSLAX33Y33*%
%MOMM*%
%ADD10C,0.202999*%
%ADD11C,0.18*%
%ADD12C,0.0762*%
%ADD13C,0.254*%
%ADD14C,0.1524*%
%ADD15C,0.1582*%
%ADD16C,0.151994*%
%ADD17C,0.124993*%
%ADD18C,0.0254*%
%ADD19C,0.150012*%
%ADD20C,0.2*%
%ADD21C,0.399999*%
%ADD22C,0.299999*%
G75*


G04 Image Start*
G36*
G01X41066Y-39744D02*
G01X41066Y-40144D01*
G01X40066D01*
G01Y-41544D01*
G01X40266D01*
G01Y-40944D01*
G01X42066D01*
G01Y-40344D01*
G01X43866D01*
G01Y-41544D01*
G01X40266D01*
G01X40066D01*
G01Y-41744D01*
G01X41466D01*
G01Y-42144D01*
G01X40266D01*
G01Y-42744D01*
G01X40466D01*
G01X40487Y-42743D01*
G01X40506Y-42740D01*
G01X40525Y-42735D01*
G01X40543Y-42728D01*
G01X40561Y-42720D01*
G01X40578Y-42710D01*
G01X40593Y-42698D01*
G01X40607Y-42685D01*
G01X40620Y-42671D01*
G01X40632Y-42656D01*
G01X40642Y-42639D01*
G01X40650Y-42622D01*
G01X40657Y-42603D01*
G01X40662Y-42584D01*
G01X40665Y-42564D01*
G01X40666Y-42544D01*
G01Y-42344D01*
G01X41866D01*
G01Y-43744D01*
G01X40066D01*
G01Y-44544D01*
G01X40466D01*
G01Y-43944D01*
G01X43666D01*
G01Y-44544D01*
G01X44066D01*
G01Y-43744D01*
G01X42466D01*
G01Y-42344D01*
G01X43466D01*
G01Y-42544D01*
G01X43467Y-42564D01*
G01X43470Y-42584D01*
G01X43475Y-42603D01*
G01X43482Y-42622D01*
G01X43490Y-42639D01*
G01X43500Y-42656D01*
G01X43512Y-42671D01*
G01X43525Y-42685D01*
G01X43539Y-42698D01*
G01X43554Y-42710D01*
G01X43571Y-42720D01*
G01X43588Y-42728D01*
G01X43607Y-42735D01*
G01X43626Y-42740D01*
G01X43646Y-42743D01*
G01X43666Y-42744D01*
G01X43866D01*
G01Y-42144D01*
G01X42666D01*
G01Y-41744D01*
G01X44066D01*
G01Y-40144D01*
G01X42866D01*
G01Y-39744D01*
G37*
G36*
G01X42866Y-40544D02*
G01X42866Y-41144D01*
G01X43466D01*
G01Y-40544D01*
G37*
G36*
G01X94895Y-38608D02*
G01X94895Y-39008D01*
G01X95495D01*
G01Y-42208D01*
G01X94895D01*
G01Y-42608D01*
G01X95695D01*
G01Y-41008D01*
G01X97095D01*
G01Y-42008D01*
G01X96895D01*
G01X96875Y-42009D01*
G01X96855Y-42012D01*
G01X96835Y-42017D01*
G01X96817Y-42024D01*
G01X96800Y-42032D01*
G01X96783Y-42042D01*
G01X96768Y-42054D01*
G01X96754Y-42067D01*
G01X96741Y-42081D01*
G01X96729Y-42096D01*
G01X96719Y-42113D01*
G01X96711Y-42130D01*
G01X96704Y-42149D01*
G01X96699Y-42168D01*
G01X96696Y-42187D01*
G01X96695Y-42208D01*
G01Y-42408D01*
G01X97295D01*
G01Y-41208D01*
G01X97695D01*
G01Y-42608D01*
G01X99295D01*
G01Y-41408D01*
G01X99695D01*
G01Y-39608D01*
G01X99295D01*
G01Y-38608D01*
G01X97695D01*
G01Y-38808D01*
G01X97895D01*
G01X98495D01*
G01Y-40608D01*
G01X99095D01*
G01Y-42408D01*
G01X97895D01*
G01Y-38808D01*
G01X97695D01*
G01Y-40008D01*
G01X97295D01*
G01Y-38808D01*
G01X96695D01*
G01Y-39008D01*
G01X96696Y-39029D01*
G01X96699Y-39048D01*
G01X96704Y-39067D01*
G01X96711Y-39086D01*
G01X96719Y-39103D01*
G01X96729Y-39120D01*
G01X96741Y-39135D01*
G01X96754Y-39149D01*
G01X96768Y-39162D01*
G01X96783Y-39174D01*
G01X96800Y-39184D01*
G01X96817Y-39192D01*
G01X96835Y-39199D01*
G01X96855Y-39204D01*
G01X96875Y-39207D01*
G01X96895Y-39208D01*
G01X97095D01*
G01Y-40408D01*
G01X95695D01*
G01Y-38608D01*
G37*
G36*
G01X98295Y-41408D02*
G01X98295Y-42008D01*
G01X98895D01*
G01Y-41408D01*
G37*
G04 Image End*
G04 Image End*

G04 Text Start*
G04 //text: BAT*
G54D10*
G01X3279Y-15773D02*
G01X4458Y-15773D01*
G01X3279Y-15773D02*
G01X3279Y-15268D01*
G01X3335Y-15100D01*
G01X3391Y-15044D01*
G01X3503Y-14989D01*
G01X3617D01*
G01X3729Y-15044D01*
G01X3785Y-15100D01*
G01X3840Y-15268D01*
G01X3840Y-15773D02*
G01X3840Y-15268D01*
G01X3896Y-15100D01*
G01X3952Y-15044D01*
G01X4067Y-14989D01*
G01X4234D01*
G01X4346Y-15044D01*
G01X4402Y-15100D01*
G01X4458Y-15268D01*
G01Y-15773D01*
G01X3279Y-14067D02*
G01X4458Y-14514D01*
G01X3279Y-14067D02*
G01X4458Y-13617D01*
G01X4067Y-14346D02*
G01X4067Y-13785D01*
G01X3279Y-12751D02*
G01X4458Y-12751D01*
G01X3279Y-13144D02*
G01X3279Y-12357D01*
G04 //text: NEOPIXEL*
G01X3279Y-62382D02*
G01X4458Y-62382D01*
G01X3279Y-62382D02*
G01X4458Y-61598D01*
G01X3279Y-61598D02*
G01X4458Y-61598D01*
G01X3279Y-61123D02*
G01X4458Y-61123D01*
G01X3279Y-61123D02*
G01X3279Y-60394D01*
G01X3840Y-61123D02*
G01X3840Y-60676D01*
G01X4458Y-61123D02*
G01X4458Y-60394D01*
G01X3279Y-59583D02*
G01X3335Y-59698D01*
G01X3447Y-59809D01*
G01X3561Y-59865D01*
G01X3729Y-59921D01*
G01X4008D01*
G01X4178Y-59865D01*
G01X4290Y-59809D01*
G01X4402Y-59698D01*
G01X4458Y-59583D01*
G01Y-59360D01*
G01X4402Y-59248D01*
G01X4290Y-59134D01*
G01X4178Y-59078D01*
G01X4008Y-59022D01*
G01X3729D01*
G01X3561Y-59078D01*
G01X3447Y-59134D01*
G01X3335Y-59248D01*
G01X3279Y-59360D01*
G01Y-59583D01*
G01X3279Y-58550D02*
G01X4458Y-58550D01*
G01X3279Y-58550D02*
G01X3279Y-58044D01*
G01X3335Y-57876D01*
G01X3391Y-57821D01*
G01X3503Y-57765D01*
G01X3673D01*
G01X3785Y-57821D01*
G01X3840Y-57876D01*
G01X3896Y-58044D01*
G01Y-58550D01*
G01X3279Y-57292D02*
G01X4458Y-57292D01*
G01X3279Y-56820D02*
G01X4458Y-56032D01*
G01X3279Y-56032D02*
G01X4458Y-56820D01*
G01X3279Y-55560D02*
G01X4458Y-55560D01*
G01X3279Y-55560D02*
G01X3279Y-54831D01*
G01X3840Y-55560D02*
G01X3840Y-55110D01*
G01X4458Y-55560D02*
G01X4458Y-54831D01*
G01X3279Y-54359D02*
G01X4458Y-54359D01*
G01X4458Y-54359D02*
G01X4458Y-53683D01*
G04 //text: SPK*
G01X3447Y-35055D02*
G01X3335Y-35166D01*
G01X3279Y-35334D01*
G01Y-35557D01*
G01X3335Y-35728D01*
G01X3447Y-35839D01*
G01X3561D01*
G01X3673Y-35784D01*
G01X3729Y-35728D01*
G01X3785Y-35616D01*
G01X3896Y-35278D01*
G01X3952Y-35166D01*
G01X4008Y-35110D01*
G01X4122Y-35055D01*
G01X4290D01*
G01X4402Y-35166D01*
G01X4458Y-35334D01*
G01Y-35557D01*
G01X4402Y-35728D01*
G01X4290Y-35839D01*
G01X3279Y-34580D02*
G01X4458Y-34580D01*
G01X3279Y-34580D02*
G01X3279Y-34074D01*
G01X3335Y-33906D01*
G01X3391Y-33851D01*
G01X3503Y-33795D01*
G01X3673D01*
G01X3785Y-33851D01*
G01X3840Y-33906D01*
G01X3896Y-34074D01*
G01Y-34580D01*
G01X3279Y-33322D02*
G01X4458Y-33322D01*
G01X3279Y-32535D02*
G01X4067Y-33322D01*
G01X3785Y-33040D02*
G01X4458Y-32535D01*
G04 //text: SWD*
G01X68090Y-58296D02*
G01X67978Y-58407D01*
G01X67922Y-58575D01*
G01Y-58798D01*
G01X67978Y-58969D01*
G01X68090Y-59080D01*
G01X68204D01*
G01X68316Y-59025D01*
G01X68372Y-58969D01*
G01X68428Y-58857D01*
G01X68539Y-58519D01*
G01X68595Y-58407D01*
G01X68651Y-58351D01*
G01X68765Y-58296D01*
G01X68933D01*
G01X69045Y-58407D01*
G01X69101Y-58575D01*
G01Y-58798D01*
G01X69045Y-58969D01*
G01X68933Y-59080D01*
G01X67922Y-57821D02*
G01X69101Y-57541D01*
G01X67922Y-57259D02*
G01X69101Y-57541D01*
G01X67922Y-57259D02*
G01X69101Y-56980D01*
G01X67922Y-56698D02*
G01X69101Y-56980D01*
G01X67922Y-56225D02*
G01X69101Y-56225D01*
G01X67922Y-56225D02*
G01X67922Y-55832D01*
G01X67978Y-55664D01*
G01X68090Y-55552D01*
G01X68204Y-55496D01*
G01X68372Y-55441D01*
G01X68651D01*
G01X68821Y-55496D01*
G01X68933Y-55552D01*
G01X69045Y-55664D01*
G01X69101Y-55832D01*
G01Y-56225D01*
G04 //text: PWR SW*
G01X13310Y-3279D02*
G01X13310Y-4458D01*
G01X13310Y-3279D02*
G01X13815Y-3279D01*
G01X13983Y-3335D01*
G01X14039Y-3391D01*
G01X14094Y-3503D01*
G01Y-3673D01*
G01X14039Y-3785D01*
G01X13983Y-3840D01*
G01X13815Y-3896D01*
G01X13310D01*
G01X14569Y-3279D02*
G01X14849Y-4458D01*
G01X15131Y-3279D02*
G01X14849Y-4458D01*
G01X15131Y-3279D02*
G01X15410Y-4458D01*
G01X15692Y-3279D02*
G01X15410Y-4458D01*
G01X16165Y-3279D02*
G01X16165Y-4458D01*
G01X16165Y-3279D02*
G01X16670Y-3279D01*
G01X16838Y-3335D01*
G01X16894Y-3391D01*
G01X16949Y-3503D01*
G01Y-3617D01*
G01X16894Y-3729D01*
G01X16838Y-3785D01*
G01X16670Y-3840D01*
G01X16165D01*
G01X16558Y-3840D02*
G01X16949Y-4458D01*
G01X19467Y-3447D02*
G01X19355Y-3335D01*
G01X19187Y-3279D01*
G01X18961D01*
G01X18793Y-3335D01*
G01X18682Y-3447D01*
G01Y-3561D01*
G01X18738Y-3673D01*
G01X18793Y-3729D01*
G01X18905Y-3785D01*
G01X19243Y-3896D01*
G01X19355Y-3952D01*
G01X19411Y-4008D01*
G01X19467Y-4122D01*
G01Y-4290D01*
G01X19355Y-4402D01*
G01X19187Y-4458D01*
G01X18961D01*
G01X18793Y-4402D01*
G01X18682Y-4290D01*
G01X19939Y-3279D02*
G01X20221Y-4458D01*
G01X20500Y-3279D02*
G01X20221Y-4458D01*
G01X20500Y-3279D02*
G01X20782Y-4458D01*
G01X21062Y-3279D02*
G01X20782Y-4458D01*
G04 //text: USB*
G01X28931Y-3279D02*
G01X28931Y-4122D01*
G01X28986Y-4290D01*
G01X29098Y-4402D01*
G01X29268Y-4458D01*
G01X29380D01*
G01X29548Y-4402D01*
G01X29660Y-4290D01*
G01X29715Y-4122D01*
G01Y-3279D01*
G01X30975Y-3447D02*
G01X30864Y-3335D01*
G01X30696Y-3279D01*
G01X30470D01*
G01X30302Y-3335D01*
G01X30190Y-3447D01*
G01Y-3561D01*
G01X30246Y-3673D01*
G01X30302Y-3729D01*
G01X30414Y-3785D01*
G01X30752Y-3896D01*
G01X30864Y-3952D01*
G01X30919Y-4008D01*
G01X30975Y-4122D01*
G01Y-4290D01*
G01X30864Y-4402D01*
G01X30696Y-4458D01*
G01X30470D01*
G01X30302Y-4402D01*
G01X30190Y-4290D01*
G01X31448Y-3279D02*
G01X31448Y-4458D01*
G01X31448Y-3279D02*
G01X31953Y-3279D01*
G01X32121Y-3335D01*
G01X32179Y-3391D01*
G01X32235Y-3503D01*
G01Y-3617D01*
G01X32179Y-3729D01*
G01X32121Y-3785D01*
G01X31953Y-3840D01*
G01X31448Y-3840D02*
G01X31953Y-3840D01*
G01X32121Y-3896D01*
G01X32179Y-3952D01*
G01X32235Y-4067D01*
G01Y-4234D01*
G01X32179Y-4346D01*
G01X32121Y-4402D01*
G01X31953Y-4458D01*
G01X31448D01*
G04 //text: PWM*
G01X3279Y-47142D02*
G01X4458Y-47142D01*
G01X3279Y-47142D02*
G01X3279Y-46637D01*
G01X3335Y-46469D01*
G01X3391Y-46413D01*
G01X3503Y-46358D01*
G01X3673D01*
G01X3785Y-46413D01*
G01X3840Y-46469D01*
G01X3896Y-46637D01*
G01Y-47142D01*
G01X3279Y-45883D02*
G01X4458Y-45603D01*
G01X3279Y-45321D02*
G01X4458Y-45603D01*
G01X3279Y-45321D02*
G01X4458Y-45042D01*
G01X3279Y-44760D02*
G01X4458Y-45042D01*
G01X3279Y-44287D02*
G01X4458Y-44287D01*
G01X3279Y-44287D02*
G01X4458Y-43838D01*
G01X3279Y-43391D02*
G01X4458Y-43838D01*
G01X3279Y-43391D02*
G01X4458Y-43391D01*
G04 //text: SUB*
G01X12575Y-49478D02*
G01X12463Y-49590D01*
G01X12407Y-49757D01*
G01Y-49981D01*
G01X12463Y-50151D01*
G01X12575Y-50263D01*
G01X12689D01*
G01X12801Y-50207D01*
G01X12857Y-50151D01*
G01X12913Y-50039D01*
G01X13024Y-49701D01*
G01X13080Y-49590D01*
G01X13136Y-49534D01*
G01X13250Y-49478D01*
G01X13418D01*
G01X13530Y-49590D01*
G01X13586Y-49757D01*
G01Y-49981D01*
G01X13530Y-50151D01*
G01X13418Y-50263D01*
G01X12407Y-49003D02*
G01X13250Y-49003D01*
G01X13418Y-48947D01*
G01X13530Y-48835D01*
G01X13586Y-48668D01*
G01Y-48556D01*
G01X13530Y-48386D01*
G01X13418Y-48274D01*
G01X13250Y-48218D01*
G01X12407D01*
G01X12407Y-47746D02*
G01X13586Y-47746D01*
G01X12407Y-47746D02*
G01X12407Y-47240D01*
G01X12463Y-47072D01*
G01X12519Y-47014D01*
G01X12631Y-46958D01*
G01X12745D01*
G01X12857Y-47014D01*
G01X12913Y-47072D01*
G01X12968Y-47240D01*
G01X12968Y-47746D02*
G01X12968Y-47240D01*
G01X13024Y-47072D01*
G01X13080Y-47014D01*
G01X13195Y-46958D01*
G01X13362D01*
G01X13474Y-47014D01*
G01X13530Y-47072D01*
G01X13586Y-47240D01*
G01Y-47746D01*
G04 //text: TOUCH*
G01X69365Y-33388D02*
G01X68186Y-33388D01*
G01X69365Y-32995D02*
G01X69365Y-33779D01*
G01X69365Y-34590D02*
G01X69309Y-34478D01*
G01X69197Y-34366D01*
G01X69083Y-34310D01*
G01X68915Y-34254D01*
G01X68636D01*
G01X68466Y-34310D01*
G01X68354Y-34366D01*
G01X68242Y-34478D01*
G01X68186Y-34590D01*
G01Y-34816D01*
G01X68242Y-34928D01*
G01X68354Y-35039D01*
G01X68466Y-35095D01*
G01X68636Y-35151D01*
G01X68915D01*
G01X69083Y-35095D01*
G01X69197Y-35039D01*
G01X69309Y-34928D01*
G01X69365Y-34816D01*
G01Y-34590D01*
G01X69365Y-35623D02*
G01X68522Y-35623D01*
G01X68354Y-35679D01*
G01X68242Y-35794D01*
G01X68186Y-35961D01*
G01Y-36073D01*
G01X68242Y-36243D01*
G01X68354Y-36355D01*
G01X68522Y-36411D01*
G01X69365D01*
G01X69083Y-37727D02*
G01X69197Y-37668D01*
G01X69309Y-37556D01*
G01X69365Y-37445D01*
G01Y-37221D01*
G01X69309Y-37107D01*
G01X69197Y-36995D01*
G01X69083Y-36939D01*
G01X68915Y-36883D01*
G01X68636D01*
G01X68466Y-36939D01*
G01X68354Y-36995D01*
G01X68242Y-37107D01*
G01X68186Y-37221D01*
G01Y-37445D01*
G01X68242Y-37556D01*
G01X68354Y-37668D01*
G01X68466Y-37727D01*
G01X69365Y-38199D02*
G01X68186Y-38199D01*
G01X69365Y-38984D02*
G01X68186Y-38984D01*
G01X68804Y-38199D02*
G01X68804Y-38984D01*
G04 //text: RST*
G01X65301Y-12421D02*
G01X64122Y-12421D01*
G01X65301Y-12421D02*
G01X65301Y-12926D01*
G01X65245Y-13094D01*
G01X65189Y-13150D01*
G01X65077Y-13205D01*
G01X64963D01*
G01X64851Y-13150D01*
G01X64795Y-13094D01*
G01X64740Y-12926D01*
G01Y-12421D01*
G01X64740Y-12814D02*
G01X64122Y-13205D01*
G01X65133Y-14465D02*
G01X65245Y-14354D01*
G01X65301Y-14186D01*
G01Y-13960D01*
G01X65245Y-13792D01*
G01X65133Y-13680D01*
G01X65019D01*
G01X64907Y-13736D01*
G01X64851Y-13792D01*
G01X64795Y-13904D01*
G01X64684Y-14242D01*
G01X64628Y-14354D01*
G01X64572Y-14409D01*
G01X64458Y-14465D01*
G01X64290D01*
G01X64178Y-14354D01*
G01X64122Y-14186D01*
G01Y-13960D01*
G01X64178Y-13792D01*
G01X64290Y-13680D01*
G01X65301Y-15331D02*
G01X64122Y-15331D01*
G01X65301Y-14938D02*
G01X65301Y-15725D01*
G04 //text: BOOT*
G01X65428Y-17755D02*
G01X64249Y-17755D01*
G01X65428Y-17755D02*
G01X65428Y-18260D01*
G01X65372Y-18428D01*
G01X65316Y-18484D01*
G01X65204Y-18539D01*
G01X65090D01*
G01X64978Y-18484D01*
G01X64922Y-18428D01*
G01X64867Y-18260D01*
G01X64867Y-17755D02*
G01X64867Y-18260D01*
G01X64811Y-18428D01*
G01X64755Y-18484D01*
G01X64640Y-18539D01*
G01X64473D01*
G01X64361Y-18484D01*
G01X64305Y-18428D01*
G01X64249Y-18260D01*
G01Y-17755D01*
G01X65428Y-19350D02*
G01X65372Y-19238D01*
G01X65260Y-19126D01*
G01X65146Y-19070D01*
G01X64978Y-19014D01*
G01X64699D01*
G01X64529Y-19070D01*
G01X64417Y-19126D01*
G01X64305Y-19238D01*
G01X64249Y-19350D01*
G01Y-19576D01*
G01X64305Y-19688D01*
G01X64417Y-19799D01*
G01X64529Y-19855D01*
G01X64699Y-19911D01*
G01X64978D01*
G01X65146Y-19855D01*
G01X65260Y-19799D01*
G01X65372Y-19688D01*
G01X65428Y-19576D01*
G01Y-19350D01*
G01X65428Y-20721D02*
G01X65372Y-20610D01*
G01X65260Y-20498D01*
G01X65146Y-20439D01*
G01X64978Y-20383D01*
G01X64699D01*
G01X64529Y-20439D01*
G01X64417Y-20498D01*
G01X64305Y-20610D01*
G01X64249Y-20721D01*
G01Y-20945D01*
G01X64305Y-21059D01*
G01X64417Y-21171D01*
G01X64529Y-21227D01*
G01X64699Y-21283D01*
G01X64978D01*
G01X65146Y-21227D01*
G01X65260Y-21171D01*
G01X65372Y-21059D01*
G01X65428Y-20945D01*
G01Y-20721D01*
G01X65428Y-22149D02*
G01X64249Y-22149D01*
G01X65428Y-21755D02*
G01X65428Y-22542D01*
G04 //text: PWR*
G01X33505Y-25425D02*
G01X34684Y-25425D01*
G01X33505Y-25425D02*
G01X33505Y-24920D01*
G01X33561Y-24752D01*
G01X33617Y-24696D01*
G01X33729Y-24641D01*
G01X33899D01*
G01X34011Y-24696D01*
G01X34066Y-24752D01*
G01X34122Y-24920D01*
G01Y-25425D01*
G01X33505Y-24166D02*
G01X34684Y-23886D01*
G01X33505Y-23604D02*
G01X34684Y-23886D01*
G01X33505Y-23604D02*
G01X34684Y-23325D01*
G01X33505Y-23043D02*
G01X34684Y-23325D01*
G01X33505Y-22570D02*
G01X34684Y-22570D01*
G01X33505Y-22570D02*
G01X33505Y-22065D01*
G01X33561Y-21897D01*
G01X33617Y-21841D01*
G01X33729Y-21786D01*
G01X33843D01*
G01X33955Y-21841D01*
G01X34011Y-21897D01*
G01X34066Y-22065D01*
G01Y-22570D01*
G01X34066Y-22177D02*
G01X34684Y-21786D01*
G04 //text: -*
G01X9540Y-16916D02*
G01X9540Y-15905D01*
G04 //text: +*
G01X9035Y-11966D02*
G01X10046Y-11966D01*
G01X9540Y-12471D02*
G01X9540Y-11460D01*
G04 //text: VBUS*
G54D11*
G01X28923Y-9868D02*
G01X28252Y-10124D01*
G01X28923Y-10378D02*
G01X28252Y-10124D01*
G01X28923Y-10711D02*
G01X28252Y-10711D01*
G01X28923Y-10711D02*
G01X28923Y-10998D01*
G01X28890Y-11095D01*
G01X28859Y-11125D01*
G01X28796Y-11158D01*
G01X28732D01*
G01X28666Y-11125D01*
G01X28636Y-11095D01*
G01X28603Y-10998D01*
G01X28603Y-10711D02*
G01X28603Y-10998D01*
G01X28572Y-11095D01*
G01X28539Y-11125D01*
G01X28476Y-11158D01*
G01X28379D01*
G01X28316Y-11125D01*
G01X28285Y-11095D01*
G01X28252Y-10998D01*
G01Y-10711D01*
G01X28923Y-11491D02*
G01X28445Y-11491D01*
G01X28349Y-11524D01*
G01X28285Y-11587D01*
G01X28252Y-11681D01*
G01Y-11747D01*
G01X28285Y-11841D01*
G01X28349Y-11905D01*
G01X28445Y-11938D01*
G01X28923D01*
G01X28826Y-12718D02*
G01X28890Y-12652D01*
G01X28923Y-12558D01*
G01Y-12431D01*
G01X28890Y-12334D01*
G01X28826Y-12271D01*
G01X28763D01*
G01X28699Y-12301D01*
G01X28666Y-12334D01*
G01X28636Y-12398D01*
G01X28572Y-12588D01*
G01X28539Y-12652D01*
G01X28509Y-12685D01*
G01X28445Y-12718D01*
G01X28349D01*
G01X28285Y-12652D01*
G01X28252Y-12558D01*
G01Y-12431D01*
G01X28285Y-12334D01*
G01X28349Y-12271D01*
G04 //text: D+*
G01X30193Y-9995D02*
G01X29522Y-9995D01*
G01X30193Y-9995D02*
G01X30193Y-10218D01*
G01X30160Y-10315D01*
G01X30096Y-10378D01*
G01X30033Y-10411D01*
G01X29936Y-10442D01*
G01X29779D01*
G01X29682Y-10411D01*
G01X29619Y-10378D01*
G01X29555Y-10315D01*
G01X29522Y-10218D01*
G01Y-9995D01*
G01X30096Y-11062D02*
G01X29522Y-11062D01*
G01X29809Y-10775D02*
G01X29809Y-11349D01*
G04 //text: D-*
G01X31590Y-9995D02*
G01X30919Y-9995D01*
G01X31590Y-9995D02*
G01X31590Y-10218D01*
G01X31557Y-10315D01*
G01X31493Y-10378D01*
G01X31430Y-10411D01*
G01X31333Y-10442D01*
G01X31176D01*
G01X31079Y-10411D01*
G01X31016Y-10378D01*
G01X30952Y-10315D01*
G01X30919Y-10218D01*
G01Y-9995D01*
G01X31206Y-10775D02*
G01X31206Y-11349D01*
G04 //text: G*
G01X32608Y-10461D02*
G01X32671Y-10428D01*
G01X32735Y-10365D01*
G01X32768Y-10301D01*
G01Y-10174D01*
G01X32735Y-10111D01*
G01X32671Y-10047D01*
G01X32608Y-10014D01*
G01X32511Y-9981D01*
G01X32354D01*
G01X32257Y-10014D01*
G01X32194Y-10047D01*
G01X32130Y-10111D01*
G01X32097Y-10174D01*
G01Y-10301D01*
G01X32130Y-10365D01*
G01X32194Y-10428D01*
G01X32257Y-10461D01*
G01X32354D01*
G01X32354Y-10301D02*
G01X32354Y-10461D01*
G04 //text: S*
G01X19809Y-9934D02*
G01X19873Y-9870D01*
G01X19906Y-9774D01*
G01Y-9647D01*
G01X19873Y-9553D01*
G01X19809Y-9487D01*
G01X19746D01*
G01X19682Y-9520D01*
G01X19649Y-9553D01*
G01X19619Y-9616D01*
G01X19555Y-9807D01*
G01X19522Y-9870D01*
G01X19492Y-9903D01*
G01X19428Y-9934D01*
G01X19332D01*
G01X19268Y-9870D01*
G01X19235Y-9774D01*
G01Y-9647D01*
G01X19268Y-9553D01*
G01X19332Y-9487D01*
G04 //text: G*
G01X62210Y-55276D02*
G01X62177Y-55213D01*
G01X62113Y-55149D01*
G01X62050Y-55116D01*
G01X61923D01*
G01X61859Y-55149D01*
G01X61796Y-55213D01*
G01X61763Y-55276D01*
G01X61730Y-55373D01*
G01Y-55530D01*
G01X61763Y-55627D01*
G01X61796Y-55690D01*
G01X61859Y-55754D01*
G01X61923Y-55787D01*
G01X62050D01*
G01X62113Y-55754D01*
G01X62177Y-55690D01*
G01X62210Y-55627D01*
G01Y-55530D01*
G01X62050Y-55530D02*
G01X62210Y-55530D01*
G04 //text: 3V3*
G01X60226Y-56421D02*
G01X60576Y-56421D01*
G01X60383Y-56678D01*
G01X60480D01*
G01X60543Y-56708D01*
G01X60576Y-56741D01*
G01X60607Y-56835D01*
G01Y-56899D01*
G01X60576Y-56995D01*
G01X60510Y-57059D01*
G01X60416Y-57092D01*
G01X60320D01*
G01X60226Y-57059D01*
G01X60193Y-57028D01*
G01X60160Y-56965D01*
G01X60940Y-56421D02*
G01X61196Y-57092D01*
G01X61450Y-56421D02*
G01X61196Y-57092D01*
G01X61846Y-56421D02*
G01X62197Y-56421D01*
G01X62006Y-56678D01*
G01X62103D01*
G01X62167Y-56708D01*
G01X62197Y-56741D01*
G01X62230Y-56835D01*
G01Y-56899D01*
G01X62197Y-56995D01*
G01X62133Y-57059D01*
G01X62040Y-57092D01*
G01X61943D01*
G01X61846Y-57059D01*
G01X61816Y-57028D01*
G01X61783Y-56965D01*
G04 //text: SDO*
G01X60607Y-57788D02*
G01X60543Y-57724D01*
G01X60447Y-57691D01*
G01X60320D01*
G01X60226Y-57724D01*
G01X60160Y-57788D01*
G01Y-57851D01*
G01X60193Y-57915D01*
G01X60226Y-57948D01*
G01X60289Y-57978D01*
G01X60480Y-58042D01*
G01X60543Y-58075D01*
G01X60576Y-58105D01*
G01X60607Y-58169D01*
G01Y-58265D01*
G01X60543Y-58329D01*
G01X60447Y-58362D01*
G01X60320D01*
G01X60226Y-58329D01*
G01X60160Y-58265D01*
G01X60940Y-57691D02*
G01X60940Y-58362D01*
G01X60940Y-57691D02*
G01X61163Y-57691D01*
G01X61260Y-57724D01*
G01X61323Y-57788D01*
G01X61354Y-57851D01*
G01X61387Y-57948D01*
G01Y-58105D01*
G01X61354Y-58202D01*
G01X61323Y-58265D01*
G01X61260Y-58329D01*
G01X61163Y-58362D01*
G01X60940D01*
G01X61910Y-57691D02*
G01X61846Y-57724D01*
G01X61783Y-57788D01*
G01X61752Y-57851D01*
G01X61719Y-57948D01*
G01Y-58105D01*
G01X61752Y-58202D01*
G01X61783Y-58265D01*
G01X61846Y-58329D01*
G01X61910Y-58362D01*
G01X62040D01*
G01X62103Y-58329D01*
G01X62167Y-58265D01*
G01X62197Y-58202D01*
G01X62230Y-58105D01*
G01Y-57948D01*
G01X62197Y-57851D01*
G01X62167Y-57788D01*
G01X62103Y-57724D01*
G01X62040Y-57691D01*
G01X61910D01*
G04 //text: CLK*
G01X60767Y-59121D02*
G01X60734Y-59058D01*
G01X60670Y-58994D01*
G01X60607Y-58961D01*
G01X60480D01*
G01X60416Y-58994D01*
G01X60353Y-59058D01*
G01X60320Y-59121D01*
G01X60287Y-59218D01*
G01Y-59375D01*
G01X60320Y-59472D01*
G01X60353Y-59535D01*
G01X60416Y-59599D01*
G01X60480Y-59632D01*
G01X60607D01*
G01X60670Y-59599D01*
G01X60734Y-59535D01*
G01X60767Y-59472D01*
G01X61100Y-58961D02*
G01X61100Y-59632D01*
G01X61100Y-59632D02*
G01X61481Y-59632D01*
G01X61813Y-58961D02*
G01X61813Y-59632D01*
G01X62260Y-58961D02*
G01X61813Y-59408D01*
G01X61973Y-59248D02*
G01X62260Y-59632D01*
G04 //text: G*
G01X61021Y-34102D02*
G01X60988Y-34039D01*
G01X60924Y-33975D01*
G01X60861Y-33942D01*
G01X60734D01*
G01X60670Y-33975D01*
G01X60607Y-34039D01*
G01X60574Y-34102D01*
G01X60541Y-34199D01*
G01Y-34356D01*
G01X60574Y-34453D01*
G01X60607Y-34516D01*
G01X60670Y-34580D01*
G01X60734Y-34613D01*
G01X60861D01*
G01X60924Y-34580D01*
G01X60988Y-34516D01*
G01X61021Y-34453D01*
G01Y-34356D01*
G01X60861Y-34356D02*
G01X61021Y-34356D01*
G04 //text: 3V3*
G01X59591Y-35339D02*
G01X59941Y-35339D01*
G01X59748Y-35596D01*
G01X59845D01*
G01X59908Y-35626D01*
G01X59941Y-35659D01*
G01X59972Y-35753D01*
G01Y-35817D01*
G01X59941Y-35913D01*
G01X59875Y-35977D01*
G01X59781Y-36010D01*
G01X59685D01*
G01X59591Y-35977D01*
G01X59558Y-35946D01*
G01X59525Y-35883D01*
G01X60305Y-35339D02*
G01X60561Y-36010D01*
G01X60815Y-35339D02*
G01X60561Y-36010D01*
G01X61211Y-35339D02*
G01X61562Y-35339D01*
G01X61371Y-35596D01*
G01X61468D01*
G01X61532Y-35626D01*
G01X61562Y-35659D01*
G01X61595Y-35753D01*
G01Y-35817D01*
G01X61562Y-35913D01*
G01X61498Y-35977D01*
G01X61405Y-36010D01*
G01X61308D01*
G01X61211Y-35977D01*
G01X61181Y-35946D01*
G01X61148Y-35883D01*
G04 //text: CH2*
G01X60005Y-36515D02*
G01X59972Y-36452D01*
G01X59908Y-36388D01*
G01X59845Y-36355D01*
G01X59718D01*
G01X59654Y-36388D01*
G01X59591Y-36452D01*
G01X59558Y-36515D01*
G01X59525Y-36612D01*
G01Y-36769D01*
G01X59558Y-36866D01*
G01X59591Y-36929D01*
G01X59654Y-36993D01*
G01X59718Y-37026D01*
G01X59845D01*
G01X59908Y-36993D01*
G01X59972Y-36929D01*
G01X60005Y-36866D01*
G01X60338Y-36355D02*
G01X60338Y-37026D01*
G01X60782Y-36355D02*
G01X60782Y-37026D01*
G01X60338Y-36675D02*
G01X60782Y-36675D01*
G01X61148Y-36515D02*
G01X61148Y-36482D01*
G01X61181Y-36419D01*
G01X61211Y-36388D01*
G01X61275Y-36355D01*
G01X61405D01*
G01X61468Y-36388D01*
G01X61498Y-36419D01*
G01X61532Y-36482D01*
G01Y-36546D01*
G01X61498Y-36612D01*
G01X61435Y-36706D01*
G01X61117Y-37026D01*
G01X61562D01*
G04 //text: CH1*
G01X60005Y-37658D02*
G01X59972Y-37595D01*
G01X59908Y-37531D01*
G01X59845Y-37498D01*
G01X59718D01*
G01X59654Y-37531D01*
G01X59591Y-37595D01*
G01X59558Y-37658D01*
G01X59525Y-37755D01*
G01Y-37912D01*
G01X59558Y-38009D01*
G01X59591Y-38072D01*
G01X59654Y-38136D01*
G01X59718Y-38169D01*
G01X59845D01*
G01X59908Y-38136D01*
G01X59972Y-38072D01*
G01X60005Y-38009D01*
G01X60338Y-37498D02*
G01X60338Y-38169D01*
G01X60782Y-37498D02*
G01X60782Y-38169D01*
G01X60338Y-37818D02*
G01X60782Y-37818D01*
G01X61117Y-37625D02*
G01X61181Y-37595D01*
G01X61275Y-37498D01*
G01Y-38169D01*
G04 //text: E5V*
G54D10*
G01X3390Y-25838D02*
G01X4569Y-25838D01*
G01X3390Y-25838D02*
G01X3390Y-25109D01*
G01X3951Y-25838D02*
G01X3951Y-25389D01*
G01X4569Y-25838D02*
G01X4569Y-25109D01*
G01X3390Y-23961D02*
G01X3390Y-24522D01*
G01X3896Y-24578D01*
G01X3840Y-24522D01*
G01X3784Y-24355D01*
G01Y-24187D01*
G01X3840Y-24017D01*
G01X3951Y-23905D01*
G01X4119Y-23849D01*
G01X4233D01*
G01X4401Y-23905D01*
G01X4513Y-24017D01*
G01X4569Y-24187D01*
G01Y-24355D01*
G01X4513Y-24522D01*
G01X4457Y-24578D01*
G01X4345Y-24637D01*
G01X3390Y-23377D02*
G01X4569Y-22927D01*
G01X3390Y-22478D02*
G01X4569Y-22927D01*
G04 //text: +*
G01X9019Y-22479D02*
G01X10030Y-22479D01*
G01X9524Y-22984D02*
G01X9524Y-21973D01*
G04 //text: -*
G01X9524Y-27175D02*
G01X9524Y-26164D01*
G04 //text: I2C*
G01X14072Y-67033D02*
G01X14072Y-68212D01*
G01X14600Y-67315D02*
G01X14600Y-67257D01*
G01X14656Y-67145D01*
G01X14712Y-67089D01*
G01X14826Y-67033D01*
G01X15050D01*
G01X15161Y-67089D01*
G01X15217Y-67145D01*
G01X15273Y-67257D01*
G01Y-67371D01*
G01X15217Y-67483D01*
G01X15105Y-67650D01*
G01X14544Y-68212D01*
G01X15331D01*
G01X16645Y-67315D02*
G01X16589Y-67201D01*
G01X16477Y-67089D01*
G01X16365Y-67033D01*
G01X16139D01*
G01X16027Y-67089D01*
G01X15916Y-67201D01*
G01X15860Y-67315D01*
G01X15804Y-67483D01*
G01Y-67762D01*
G01X15860Y-67932D01*
G01X15916Y-68044D01*
G01X16027Y-68156D01*
G01X16139Y-68212D01*
G01X16365D01*
G01X16477Y-68156D01*
G01X16589Y-68044D01*
G01X16645Y-67932D01*
G04 //text: C*
G54D11*
G01X13274Y-61153D02*
G01X13211Y-61186D01*
G01X13147Y-61250D01*
G01X13114Y-61313D01*
G01Y-61440D01*
G01X13147Y-61504D01*
G01X13211Y-61567D01*
G01X13274Y-61600D01*
G01X13371Y-61633D01*
G01X13528D01*
G01X13625Y-61600D01*
G01X13688Y-61567D01*
G01X13752Y-61504D01*
G01X13785Y-61440D01*
G01Y-61313D01*
G01X13752Y-61250D01*
G01X13688Y-61186D01*
G01X13625Y-61153D01*
G04 //text: D*
G01X14511Y-61633D02*
G01X15182Y-61633D01*
G01X14511Y-61633D02*
G01X14511Y-61410D01*
G01X14544Y-61313D01*
G01X14608Y-61250D01*
G01X14671Y-61217D01*
G01X14768Y-61186D01*
G01X14925D01*
G01X15022Y-61217D01*
G01X15085Y-61250D01*
G01X15149Y-61313D01*
G01X15182Y-61410D01*
G01Y-61633D01*
G04 //text: 3*
G01X15746Y-61499D02*
G01X15746Y-61149D01*
G01X16003Y-61342D01*
G01Y-61245D01*
G01X16033Y-61182D01*
G01X16066Y-61149D01*
G01X16160Y-61118D01*
G01X16224D01*
G01X16320Y-61149D01*
G01X16384Y-61215D01*
G01X16417Y-61309D01*
G01Y-61405D01*
G01X16384Y-61499D01*
G01X16353Y-61532D01*
G01X16290Y-61565D01*
G04 //text: G*
G01X17176Y-61085D02*
G01X17113Y-61118D01*
G01X17049Y-61182D01*
G01X17016Y-61245D01*
G01Y-61372D01*
G01X17049Y-61436D01*
G01X17113Y-61499D01*
G01X17176Y-61532D01*
G01X17273Y-61565D01*
G01X17430D01*
G01X17527Y-61532D01*
G01X17590Y-61499D01*
G01X17654Y-61436D01*
G01X17687Y-61372D01*
G01Y-61245D01*
G01X17654Y-61182D01*
G01X17590Y-61118D01*
G01X17527Y-61085D01*
G01X17430D01*
G01X17430Y-61245D02*
G01X17430Y-61085D01*
G04 //text: +*
G54D10*
G01X9035Y-32286D02*
G01X10046Y-32286D01*
G01X9540Y-32791D02*
G01X9540Y-31780D01*
G04 //text: -*
G01X9540Y-37490D02*
G01X9540Y-36479D01*
G04 //text: 5*
G54D11*
G01X10176Y-55751D02*
G01X9858Y-55751D01*
G01X9825Y-56038D01*
G01X9858Y-56008D01*
G01X9952Y-55975D01*
G01X10049D01*
G01X10143Y-56008D01*
G01X10209Y-56071D01*
G01X10239Y-56165D01*
G01Y-56229D01*
G01X10209Y-56325D01*
G01X10143Y-56389D01*
G01X10049Y-56422D01*
G01X9952D01*
G01X9858Y-56389D01*
G01X9825Y-56358D01*
G01X9792Y-56295D01*
G04 //text: 5*
G01X10192Y-56894D02*
G01X9875Y-56894D01*
G01X9842Y-57181D01*
G01X9875Y-57151D01*
G01X9969Y-57118D01*
G01X10065D01*
G01X10159Y-57151D01*
G01X10225Y-57214D01*
G01X10256Y-57308D01*
G01Y-57372D01*
G01X10225Y-57468D01*
G01X10159Y-57532D01*
G01X10065Y-57565D01*
G01X9969D01*
G01X9875Y-57532D01*
G01X9842Y-57501D01*
G01X9809Y-57438D01*
G04 //text: G*
G01X10272Y-59594D02*
G01X10239Y-59531D01*
G01X10176Y-59467D01*
G01X10112Y-59434D01*
G01X9985D01*
G01X9922Y-59467D01*
G01X9858Y-59531D01*
G01X9825Y-59594D01*
G01X9792Y-59691D01*
G01Y-59848D01*
G01X9825Y-59945D01*
G01X9858Y-60008D01*
G01X9922Y-60072D01*
G01X9985Y-60105D01*
G01X10112D01*
G01X10176Y-60072D01*
G01X10239Y-60008D01*
G01X10272Y-59945D01*
G01Y-59848D01*
G01X10112Y-59848D02*
G01X10272Y-59848D01*
G04 //text: S*
G01X10239Y-58261D02*
G01X10176Y-58197D01*
G01X10079Y-58164D01*
G01X9952D01*
G01X9858Y-58197D01*
G01X9792Y-58261D01*
G01Y-58324D01*
G01X9825Y-58388D01*
G01X9858Y-58421D01*
G01X9922Y-58451D01*
G01X10112Y-58515D01*
G01X10176Y-58548D01*
G01X10209Y-58578D01*
G01X10239Y-58642D01*
G01Y-58738D01*
G01X10176Y-58802D01*
G01X10079Y-58835D01*
G01X9952D01*
G01X9858Y-58802D01*
G01X9792Y-58738D01*
G04 //text: P1*
G01X9919Y-43305D02*
G01X9919Y-43976D01*
G01X9919Y-43305D02*
G01X10206Y-43305D01*
G01X10303Y-43338D01*
G01X10336Y-43369D01*
G01X10366Y-43432D01*
G01Y-43529D01*
G01X10336Y-43592D01*
G01X10303Y-43625D01*
G01X10206Y-43656D01*
G01X9919D01*
G01X10699Y-43432D02*
G01X10763Y-43402D01*
G01X10859Y-43305D01*
G01Y-43976D01*
G04 //text: P2*
G01X9952Y-44575D02*
G01X9952Y-45246D01*
G01X9952Y-44575D02*
G01X10239Y-44575D01*
G01X10336Y-44608D01*
G01X10369Y-44639D01*
G01X10399Y-44702D01*
G01Y-44799D01*
G01X10369Y-44862D01*
G01X10336Y-44895D01*
G01X10239Y-44926D01*
G01X9952D01*
G01X10765Y-44735D02*
G01X10765Y-44702D01*
G01X10796Y-44639D01*
G01X10829Y-44608D01*
G01X10892Y-44575D01*
G01X11019D01*
G01X11083Y-44608D01*
G01X11116Y-44639D01*
G01X11146Y-44702D01*
G01Y-44766D01*
G01X11116Y-44832D01*
G01X11052Y-44926D01*
G01X10732Y-45246D01*
G01X11179D01*
G04 //text: 5*
G01X10319Y-45845D02*
G01X10002Y-45845D01*
G01X9969Y-46132D01*
G01X10002Y-46102D01*
G01X10096Y-46069D01*
G01X10192D01*
G01X10286Y-46102D01*
G01X10352Y-46165D01*
G01X10383Y-46259D01*
G01Y-46323D01*
G01X10352Y-46419D01*
G01X10286Y-46483D01*
G01X10192Y-46516D01*
G01X10096D01*
G01X10002Y-46483D01*
G01X9969Y-46452D01*
G01X9936Y-46389D01*
G04 //text: G*
G01X10416Y-47402D02*
G01X10383Y-47339D01*
G01X10319Y-47275D01*
G01X10256Y-47242D01*
G01X10129D01*
G01X10065Y-47275D01*
G01X10002Y-47339D01*
G01X9969Y-47402D01*
G01X9936Y-47499D01*
G01Y-47656D01*
G01X9969Y-47753D01*
G01X10002Y-47816D01*
G01X10065Y-47880D01*
G01X10129Y-47913D01*
G01X10256D01*
G01X10319Y-47880D01*
G01X10383Y-47816D01*
G01X10416Y-47753D01*
G01Y-47656D01*
G01X10256Y-47656D02*
G01X10416Y-47656D01*
G04 //text: 3*
G01X19273Y-49916D02*
G01X19623Y-49916D01*
G01X19430Y-50172D01*
G01X19527D01*
G01X19590Y-50203D01*
G01X19623Y-50236D01*
G01X19654Y-50330D01*
G01Y-50393D01*
G01X19623Y-50490D01*
G01X19557Y-50553D01*
G01X19463Y-50586D01*
G01X19367D01*
G01X19273Y-50553D01*
G01X19240Y-50523D01*
G01X19207Y-50459D01*
G04 //text: G*
G01X19687Y-51345D02*
G01X19654Y-51282D01*
G01X19590Y-51218D01*
G01X19527Y-51185D01*
G01X19400D01*
G01X19336Y-51218D01*
G01X19273Y-51282D01*
G01X19240Y-51345D01*
G01X19207Y-51442D01*
G01Y-51599D01*
G01X19240Y-51696D01*
G01X19273Y-51759D01*
G01X19336Y-51823D01*
G01X19400Y-51856D01*
G01X19527D01*
G01X19590Y-51823D01*
G01X19654Y-51759D01*
G01X19687Y-51696D01*
G01Y-51599D01*
G01X19527Y-51599D02*
G01X19687Y-51599D01*
G04 //text: A*
G01X19395Y-44991D02*
G01X19139Y-45662D01*
G01X19395Y-44991D02*
G01X19649Y-45662D01*
G01X19235Y-45438D02*
G01X19555Y-45438D01*
G04 //text: TA*
G01X19362Y-47404D02*
G01X19362Y-48075D01*
G01X19139Y-47404D02*
G01X19586Y-47404D01*
G01X20175Y-47404D02*
G01X19919Y-48075D01*
G01X20175Y-47404D02*
G01X20429Y-48075D01*
G01X20015Y-47851D02*
G01X20333Y-47851D01*
G04 //text: TB*
G01X19390Y-48639D02*
G01X19390Y-49310D01*
G01X19166Y-48639D02*
G01X19613Y-48639D01*
G01X19946Y-48639D02*
G01X19946Y-49310D01*
G01X19946Y-48639D02*
G01X20233Y-48639D01*
G01X20330Y-48672D01*
G01X20360Y-48703D01*
G01X20393Y-48766D01*
G01Y-48830D01*
G01X20360Y-48896D01*
G01X20330Y-48926D01*
G01X20233Y-48959D01*
G01X19946Y-48959D02*
G01X20233Y-48959D01*
G01X20330Y-48990D01*
G01X20360Y-49023D01*
G01X20393Y-49086D01*
G01Y-49183D01*
G01X20360Y-49246D01*
G01X20330Y-49277D01*
G01X20233Y-49310D01*
G01X19946D01*
G04 //text: B*
G01X19205Y-46129D02*
G01X19205Y-46799D01*
G01X19205Y-46129D02*
G01X19492Y-46129D01*
G01X19589Y-46162D01*
G01X19622Y-46192D01*
G01X19652Y-46256D01*
G01Y-46319D01*
G01X19622Y-46385D01*
G01X19589Y-46416D01*
G01X19492Y-46449D01*
G01X19205Y-46449D02*
G01X19492Y-46449D01*
G01X19589Y-46479D01*
G01X19622Y-46512D01*
G01X19652Y-46576D01*
G01Y-46672D01*
G01X19622Y-46736D01*
G01X19589Y-46766D01*
G01X19492Y-46799D01*
G01X19205D01*
G04 //text: Macro-TouchPad*
G36*
G01X57539Y-40795D02*
G01X57539Y-41027D01*
G01X57536Y-41215D01*
G01X57534Y-41240D01*
G01X57533Y-41251D01*
G01X57532Y-41254D01*
G01Y-41255D01*
G01X57531D01*
G01Y-41256D01*
G01X57530D01*
G01X57522Y-41252D01*
G01X57508Y-41245D01*
G01X57502Y-41241D01*
G01X57487Y-41236D01*
G01X57472Y-41230D01*
G01X57453Y-41222D01*
G01X57446Y-41220D01*
G01X57438Y-41218D01*
G01X57415Y-41213D01*
G01X57399Y-41208D01*
G01X57385Y-41206D01*
G01X57376Y-41204D01*
G01X57335Y-41199D01*
G01X57324Y-41197D01*
G01X57294Y-41196D01*
G01X57275D01*
G01X57247D01*
G01X57231Y-41198D01*
G01X57222Y-41200D01*
G01X57212Y-41201D01*
G01X57196Y-41202D01*
G01X57187Y-41204D01*
G01X57158Y-41213D01*
G01X57135Y-41220D01*
G01X57124Y-41224D01*
G01X57095Y-41236D01*
G01X57088Y-41239D01*
G01X57081Y-41242D01*
G01X57075Y-41246D01*
G01X57057Y-41259D01*
G01X57037Y-41271D01*
G01X57029Y-41278D01*
G01X57025Y-41283D01*
G01X57020Y-41289D01*
G01X57017Y-41292D01*
G01X57013Y-41294D01*
G01X57005Y-41298D01*
G01X57001Y-41300D01*
G01X56998Y-41303D01*
G01X56983Y-41324D01*
G01X56957Y-41356D01*
G01X56953Y-41362D01*
G01X56946Y-41375D01*
G01X56939Y-41392D01*
G01X56933Y-41403D01*
G01X56926Y-41415D01*
G01X56912Y-41448D01*
G01X56906Y-41459D01*
G01X56902Y-41474D01*
G01X56898Y-41497D01*
G01X56892Y-41518D01*
G01X56889Y-41531D01*
G01X56883Y-41559D01*
G01X56881Y-41570D01*
G01X56880Y-41585D01*
G01Y-41596D01*
G01X56878Y-41605D01*
G01X56877Y-41609D01*
G01X56876Y-41622D01*
G01X56875Y-41677D01*
G01X57024D01*
G01X57025Y-41598D01*
G01X57026Y-41584D01*
G01X57028Y-41578D01*
G01X57029Y-41566D01*
G01X57030Y-41546D01*
G01X57032Y-41539D01*
G01X57035Y-41526D01*
G01X57039Y-41507D01*
G01X57044Y-41494D01*
G01X57051Y-41476D01*
G01X57057Y-41459D01*
G01X57061Y-41449D01*
G01X57069Y-41436D01*
G01X57081Y-41415D01*
G01X57085Y-41409D01*
G01X57095Y-41397D01*
G01X57101Y-41389D01*
G01X57108Y-41382D01*
G01X57132Y-41365D01*
G01X57141Y-41359D01*
G01X57149Y-41353D01*
G01X57155Y-41350D01*
G01X57171Y-41343D01*
G01X57181Y-41339D01*
G01X57197Y-41333D01*
G01X57216Y-41327D01*
G01X57225Y-41325D01*
G01X57234Y-41323D01*
G01X57242Y-41322D01*
G01X57257D01*
G01X57268Y-41320D01*
G01X57275Y-41318D01*
G01X57288Y-41317D01*
G01X57318Y-41316D01*
G01X57346Y-41317D01*
G01X57360Y-41318D01*
G01X57364Y-41319D01*
G01X57374Y-41321D01*
G01X57394Y-41322D01*
G01X57406Y-41323D01*
G01X57420Y-41327D01*
G01X57446Y-41333D01*
G01X57456Y-41336D01*
G01X57479Y-41345D01*
G01X57511Y-41358D01*
G01X57517Y-41361D01*
G01X57522Y-41364D01*
G01X57526Y-41368D01*
G01X57530Y-41375D01*
G01X57535Y-41383D01*
G01X57536Y-41388D01*
G01Y-41390D01*
G01X57537Y-41409D01*
G01X57539Y-41682D01*
G01Y-41969D01*
G01X57524Y-41978D01*
G01X57508Y-41988D01*
G01X57493Y-41999D01*
G01X57480Y-42006D01*
G01X57453Y-42018D01*
G01X57441Y-42023D01*
G01X57429Y-42027D01*
G01X57416Y-42032D01*
G01X57400Y-42035D01*
G01X57386Y-42039D01*
G01X57376Y-42041D01*
G01X57335Y-42046D01*
G01X57320Y-42048D01*
G01X57304Y-42049D01*
G01X57293D01*
G01X57278D01*
G01X57272Y-42048D01*
G01X57269Y-42047D01*
G01X57268D01*
G01X57267Y-42046D01*
G01X57264Y-42045D01*
G01X57260Y-42044D01*
G01X57253D01*
G01X57230Y-42043D01*
G01X57220Y-42042D01*
G01X57216Y-42041D01*
G01X57190Y-42032D01*
G01X57181Y-42029D01*
G01X57173Y-42025D01*
G01X57165Y-42022D01*
G01X57158Y-42018D01*
G01X57129Y-42000D01*
G01X57123Y-41996D01*
G01X57115Y-41990D01*
G01X57111Y-41985D01*
G01X57106Y-41979D01*
G01X57099Y-41972D01*
G01X57091Y-41966D01*
G01X57088Y-41962D01*
G01X57085Y-41959D01*
G01X57082Y-41950D01*
G01X57076Y-41940D01*
G01X57068Y-41928D01*
G01X57064Y-41922D01*
G01X57061Y-41916D01*
G01X57058Y-41908D01*
G01X57048Y-41882D01*
G01X57042Y-41864D01*
G01X57039Y-41850D01*
G01X57035Y-41823D01*
G01X57031Y-41807D01*
G01X57030Y-41797D01*
G01X57029Y-41780D01*
G01X57027Y-41771D01*
G01X57026Y-41768D01*
G01X57025Y-41754D01*
G01X57024Y-41677D01*
G01X56875D01*
G01Y-41700D01*
G01X56876Y-41779D01*
G01X56877Y-41792D01*
G01X56879Y-41799D01*
G01X56880Y-41808D01*
G01X56881Y-41825D01*
G01X56883Y-41834D01*
G01X56885Y-41839D01*
G01X56887Y-41852D01*
G01X56892Y-41875D01*
G01X56903Y-41912D01*
G01X56909Y-41927D01*
G01X56922Y-41956D01*
G01X56929Y-41973D01*
G01X56933Y-41980D01*
G01X56936Y-41986D01*
G01X56949Y-42004D01*
G01X56962Y-42024D01*
G01X56968Y-42032D01*
G01X56973Y-42036D01*
G01X56979Y-42041D01*
G01X56983Y-42045D01*
G01X56986Y-42049D01*
G01X56993Y-42060D01*
G01X56996Y-42065D01*
G01X57001Y-42068D01*
G01X57009Y-42073D01*
G01X57018Y-42080D01*
G01X57022Y-42084D01*
G01X57027Y-42090D01*
G01X57030Y-42093D01*
G01X57034Y-42096D01*
G01X57042Y-42099D01*
G01X57052Y-42105D01*
G01X57064Y-42113D01*
G01X57077Y-42120D01*
G01X57103Y-42132D01*
G01X57115Y-42138D01*
G01X57127Y-42142D01*
G01X57141Y-42146D01*
G01X57181Y-42158D01*
G01X57194Y-42160D01*
G01X57207Y-42161D01*
G01X57235Y-42163D01*
G01X57264D01*
G01X57318Y-42162D01*
G01X57332Y-42161D01*
G01X57341Y-42159D01*
G01X57356Y-42156D01*
G01X57378Y-42153D01*
G01X57387Y-42151D01*
G01X57398Y-42148D01*
G01X57413Y-42141D01*
G01X57430Y-42136D01*
G01X57442Y-42132D01*
G01X57447Y-42129D01*
G01X57462Y-42121D01*
G01X57473Y-42115D01*
G01X57502Y-42097D01*
G01X57508Y-42093D01*
G01X57516Y-42087D01*
G01X57520Y-42083D01*
G01X57525Y-42077D01*
G01X57528Y-42075D01*
G01X57532Y-42074D01*
G01X57536Y-42075D01*
G01X57540Y-42077D01*
G01X57543Y-42080D01*
G01X57546Y-42085D01*
G01X57547Y-42092D01*
G01X57552Y-42112D01*
G01X57556Y-42126D01*
G01X57561Y-42146D01*
G01X57682D01*
G01Y-40801D01*
G01X57664Y-40797D01*
G01X57651Y-40796D01*
G01X57596Y-40795D01*
G37*
G36*
G01X54000Y-40795D02*
G01X54000Y-42146D01*
G01X54144D01*
G01Y-41766D01*
G01X54148Y-41436D01*
G01X54150Y-41403D01*
G01X54152Y-41388D01*
G01X54153Y-41385D01*
G01X54154Y-41383D01*
G01Y-41382D01*
G01X54155D01*
G01X54160Y-41380D01*
G01X54171Y-41376D01*
G01X54184Y-41368D01*
G01X54201Y-41363D01*
G01X54212Y-41359D01*
G01X54224Y-41353D01*
G01X54237Y-41349D01*
G01X54256Y-41345D01*
G01X54295Y-41333D01*
G01X54311Y-41329D01*
G01X54329Y-41326D01*
G01X54341Y-41325D01*
G01X54367Y-41322D01*
G01X54392D01*
G01X54401Y-41321D01*
G01X54405Y-41320D01*
G01X54410Y-41318D01*
G01X54417D01*
G01X54427Y-41320D01*
G01X54434Y-41321D01*
G01X54456Y-41322D01*
G01X54472D01*
G01X54485Y-41323D01*
G01X54504Y-41329D01*
G01X54516Y-41332D01*
G01X54522Y-41334D01*
G01X54529Y-41338D01*
G01X54536Y-41342D01*
G01X54559Y-41356D01*
G01X54563Y-41359D01*
G01X54566Y-41364D01*
G01X54570Y-41369D01*
G01X54577Y-41386D01*
G01X54583Y-41397D01*
G01X54587Y-41404D01*
G01X54589Y-41409D01*
G01X54590Y-41414D01*
G01Y-41425D01*
G01X54592Y-41435D01*
G01X54593Y-41439D01*
G01Y-41442D01*
G01X54595Y-41493D01*
G01X54596Y-41797D01*
G01Y-42146D01*
G01X54739D01*
G01Y-41780D01*
G01X54736Y-41412D01*
G01Y-41406D01*
G01X54735Y-41400D01*
G01X54733Y-41390D01*
G01X54732Y-41374D01*
G01X54730Y-41365D01*
G01X54722Y-41339D01*
G01X54716Y-41323D01*
G01X54706Y-41302D01*
G01X54700Y-41293D01*
G01X54682Y-41267D01*
G01X54678Y-41263D01*
G01X54674Y-41259D01*
G01X54668Y-41255D01*
G01X54645Y-41239D01*
G01X54630Y-41229D01*
G01X54622Y-41225D01*
G01X54616Y-41222D01*
G01X54601Y-41218D01*
G01X54587Y-41211D01*
G01X54575Y-41208D01*
G01X54565Y-41206D01*
G01X54531Y-41201D01*
G01X54520Y-41199D01*
G01X54516Y-41198D01*
G01X54501Y-41197D01*
G01X54464Y-41196D01*
G01X54428Y-41197D01*
G01X54412Y-41198D01*
G01X54405Y-41200D01*
G01X54394Y-41201D01*
G01X54374Y-41202D01*
G01X54366Y-41204D01*
G01X54354Y-41207D01*
G01X54328Y-41213D01*
G01X54293Y-41224D01*
G01X54265Y-41234D01*
G01X54232Y-41248D01*
G01X54222Y-41252D01*
G01X54212Y-41257D01*
G01X54200Y-41264D01*
G01X54181Y-41275D01*
G01X54172Y-41281D01*
G01X54161Y-41288D01*
G01X54156Y-41290D01*
G01X54152Y-41291D01*
G01X54149Y-41290D01*
G01X54148Y-41286D01*
G01X54146Y-41254D01*
G01X54144Y-41044D01*
G01Y-40801D01*
G01X54125Y-40797D01*
G01X54112Y-40796D01*
G01X54058Y-40795D01*
G37*
G36*
G01X44611Y-40881D02*
G01X44611Y-42146D01*
G01X44748D01*
G01Y-41611D01*
G01X44752Y-41095D01*
G01X44753Y-41081D01*
G01Y-41079D01*
G01Y-41078D01*
G01X44756Y-41080D01*
G01X44758Y-41084D01*
G01X44760Y-41089D01*
G01X44763Y-41103D01*
G01X44768Y-41115D01*
G01X44776Y-41134D01*
G01X44781Y-41154D01*
G01X44785Y-41167D01*
G01X44792Y-41183D01*
G01X44800Y-41201D01*
G01X44856Y-41374D01*
G01X44867Y-41401D01*
G01X44878Y-41432D01*
G01X44937Y-41608D01*
G01X44942Y-41624D01*
G01X44951Y-41643D01*
G01X44955Y-41655D01*
G01X44961Y-41676D01*
G01X44968Y-41694D01*
G01X44972Y-41707D01*
G01X44977Y-41728D01*
G01X44985Y-41745D01*
G01X44989Y-41759D01*
G01X44995Y-41779D01*
G01X45002Y-41797D01*
G01X45007Y-41810D01*
G01X45010Y-41824D01*
G01X45013Y-41833D01*
G01X45015Y-41838D01*
G01X45019Y-41844D01*
G01X45022Y-41850D01*
G01X45024Y-41856D01*
G01X45027Y-41870D01*
G01X45031Y-41883D01*
G01X45039Y-41901D01*
G01X45044Y-41921D01*
G01X45048Y-41934D01*
G01X45056Y-41952D01*
G01X45062Y-41973D01*
G01X45066Y-41986D01*
G01X45073Y-42004D01*
G01X45078Y-42024D01*
G01X45083Y-42038D01*
G01X45090Y-42053D01*
G01X45097Y-42072D01*
G01X45108Y-42106D01*
G01X45114Y-42122D01*
G01X45120Y-42135D01*
G01X45122Y-42138D01*
G01X45127Y-42140D01*
G01X45133Y-42142D01*
G01X45141Y-42143D01*
G01X45164Y-42146D01*
G01X45194D01*
G01X45263D01*
G01X45267Y-42125D01*
G01X45272Y-42112D01*
G01X45280Y-42094D01*
G01X45285Y-42074D01*
G01X45289Y-42060D01*
G01X45297Y-42043D01*
G01X45302Y-42022D01*
G01X45306Y-42009D01*
G01X45314Y-41992D01*
G01X45319Y-41975D01*
G01X45323Y-41963D01*
G01X45329Y-41952D01*
G01X45333Y-41938D01*
G01X45338Y-41918D01*
G01X45346Y-41900D01*
G01X45350Y-41887D01*
G01X45355Y-41866D01*
G01X45360Y-41854D01*
G01X45365Y-41843D01*
G01X45370Y-41826D01*
G01X45375Y-41814D01*
G01X45380Y-41803D01*
G01X45385Y-41790D01*
G01X45390Y-41769D01*
G01X45397Y-41751D01*
G01X45401Y-41738D01*
G01X45407Y-41717D01*
G01X45412Y-41705D01*
G01X45417Y-41694D01*
G01X45422Y-41677D01*
G01X45426Y-41665D01*
G01X45432Y-41653D01*
G01X45436Y-41641D01*
G01X45441Y-41620D01*
G01X45449Y-41602D01*
G01X45453Y-41589D01*
G01X45458Y-41569D01*
G01X45466Y-41551D01*
G01X45471Y-41538D01*
G01X45474Y-41524D01*
G01X45477Y-41515D01*
G01X45479Y-41510D01*
G01X45483Y-41503D01*
G01X45486Y-41498D01*
G01X45488Y-41492D01*
G01X45491Y-41478D01*
G01X45495Y-41465D01*
G01X45503Y-41447D01*
G01X45508Y-41426D01*
G01X45512Y-41414D01*
G01X45520Y-41395D01*
G01X45523Y-41382D01*
G01X45525Y-41375D01*
G01X45528Y-41366D01*
G01X45531Y-41361D01*
G01X45535Y-41354D01*
G01X45537Y-41349D01*
G01X45539Y-41343D01*
G01X45542Y-41329D01*
G01X45547Y-41316D01*
G01X45554Y-41298D01*
G01X45559Y-41278D01*
G01X45564Y-41265D01*
G01X45572Y-41247D01*
G01X45575Y-41233D01*
G01X45577Y-41226D01*
G01X45580Y-41218D01*
G01X45582Y-41213D01*
G01X45586Y-41205D01*
G01X45589Y-41200D01*
G01X45594Y-41180D01*
G01X45598Y-41167D01*
G01X45606Y-41150D01*
G01X45611Y-41129D01*
G01X45615Y-41116D01*
G01X45623Y-41099D01*
G01X45627Y-41087D01*
G01X45628Y-41082D01*
G01X45630Y-41079D01*
G01X45633Y-41078D01*
G01X45635D01*
G01X45636Y-41081D01*
G01X45637Y-41098D01*
G01X45641Y-41614D01*
G01Y-42146D01*
G01X45790D01*
G01Y-40887D01*
G01X45775Y-40884D01*
G01X45771Y-40883D01*
G01X45740Y-40882D01*
G01X45664Y-40881D01*
G01X45567D01*
G01X45564Y-40898D01*
G01X45562Y-40906D01*
G01X45560Y-40914D01*
G01X45558Y-40920D01*
G01X45552Y-40933D01*
G01X45548Y-40945D01*
G01X45543Y-40966D01*
G01X45534Y-40987D01*
G01X45526Y-41007D01*
G01X45446Y-41248D01*
G01X45441Y-41263D01*
G01X45432Y-41282D01*
G01X45428Y-41295D01*
G01X45423Y-41315D01*
G01X45415Y-41333D01*
G01X45411Y-41346D01*
G01X45406Y-41367D01*
G01X45398Y-41385D01*
G01X45393Y-41398D01*
G01X45388Y-41418D01*
G01X45381Y-41437D01*
G01X45376Y-41449D01*
G01X45371Y-41470D01*
G01X45363Y-41488D01*
G01X45359Y-41501D01*
G01X45356Y-41515D01*
G01X45353Y-41523D01*
G01X45350Y-41528D01*
G01X45346Y-41536D01*
G01X45344Y-41541D01*
G01X45342Y-41547D01*
G01X45338Y-41560D01*
G01X45334Y-41574D01*
G01X45327Y-41591D01*
G01X45322Y-41612D01*
G01X45317Y-41625D01*
G01X45310Y-41643D01*
G01X45304Y-41664D01*
G01X45300Y-41677D01*
G01X45292Y-41695D01*
G01X45287Y-41715D01*
G01X45283Y-41728D01*
G01X45275Y-41746D01*
G01X45270Y-41767D01*
G01X45266Y-41779D01*
G01X45259Y-41795D01*
G01X45252Y-41814D01*
G01X45217Y-41917D01*
G01X45213Y-41929D01*
G01X45207Y-41941D01*
G01X45206Y-41943D01*
G01X45203Y-41946D01*
G01X45200Y-41947D01*
G01X45197Y-41945D01*
G01X45194Y-41940D01*
G01X45189Y-41928D01*
G01X45184Y-41907D01*
G01X45180Y-41895D01*
G01X45173Y-41879D01*
G01X45166Y-41860D01*
G01X45108Y-41688D01*
G01X45098Y-41661D01*
G01X45087Y-41630D01*
G01X45028Y-41453D01*
G01X45023Y-41438D01*
G01X45014Y-41419D01*
G01X45010Y-41406D01*
G01X45005Y-41385D01*
G01X44997Y-41367D01*
G01X44993Y-41355D01*
G01X44987Y-41334D01*
G01X44980Y-41316D01*
G01X44975Y-41303D01*
G01X44970Y-41283D01*
G01X44963Y-41264D01*
G01X44959Y-41252D01*
G01X44955Y-41238D01*
G01X44952Y-41229D01*
G01X44949Y-41224D01*
G01X44945Y-41217D01*
G01X44943Y-41211D01*
G01X44941Y-41205D01*
G01X44938Y-41192D01*
G01X44934Y-41179D01*
G01X44926Y-41161D01*
G01X44921Y-41140D01*
G01X44916Y-41127D01*
G01X44909Y-41109D01*
G01X44904Y-41089D01*
G01X44899Y-41076D01*
G01X44891Y-41058D01*
G01X44886Y-41037D01*
G01X44882Y-41024D01*
G01X44875Y-41009D01*
G01X44868Y-40990D01*
G01X44845Y-40921D01*
G01X44839Y-40905D01*
G01X44834Y-40892D01*
G01X44830Y-40889D01*
G01X44824Y-40887D01*
G01X44815Y-40885D01*
G01X44786Y-40882D01*
G01X44719Y-40881D01*
G37*
G36*
G01X50027Y-40881D02*
G01X50027Y-41007D01*
G01X50410D01*
G01Y-42146D01*
G01X50559D01*
G01Y-41007D01*
G01X50949D01*
G01Y-40887D01*
G01X50934Y-40884D01*
G01X50931Y-40883D01*
G01X50473Y-40881D01*
G37*
G36*
G01X55037Y-40881D02*
G01X55037Y-41007D01*
G01X55186D01*
G01X55329D01*
G01X55468Y-41008D01*
G01X55479Y-41009D01*
G01X55480Y-41010D01*
G01X55485Y-41011D01*
G01X55496Y-41012D01*
G01X55516Y-41013D01*
G01X55524Y-41015D01*
G01X55552Y-41024D01*
G01X55580Y-41034D01*
G01X55590Y-41038D01*
G01X55598Y-41043D01*
G01X55602Y-41045D01*
G01X55614Y-41056D01*
G01X55622Y-41062D01*
G01X55629Y-41069D01*
G01X55639Y-41080D01*
G01X55646Y-41087D01*
G01X55650Y-41090D01*
G01X55653Y-41094D01*
G01X55656Y-41099D01*
G01X55660Y-41110D01*
G01X55664Y-41120D01*
G01X55669Y-41129D01*
G01X55672Y-41135D01*
G01X55673Y-41142D01*
G01X55678Y-41165D01*
G01X55682Y-41181D01*
G01X55685Y-41195D01*
G01X55686Y-41204D01*
G01X55688Y-41217D01*
G01X55689Y-41252D01*
G01X55690Y-41276D01*
G01X55688Y-41319D01*
G01X55687Y-41333D01*
G01X55685Y-41341D01*
G01X55682Y-41354D01*
G01X55679Y-41370D01*
G01X55676Y-41380D01*
G01X55674Y-41385D01*
G01X55667Y-41396D01*
G01X55662Y-41409D01*
G01X55657Y-41418D01*
G01X55644Y-41439D01*
G01X55637Y-41447D01*
G01X55629Y-41453D01*
G01X55618Y-41462D01*
G01X55612Y-41468D01*
G01X55607Y-41472D01*
G01X55595Y-41479D01*
G01X55580Y-41487D01*
G01X55564Y-41493D01*
G01X55526Y-41505D01*
G01X55517Y-41508D01*
G01X55508Y-41509D01*
G01X55500Y-41510D01*
G01X55485Y-41511D01*
G01X55474Y-41512D01*
G01X55469Y-41514D01*
G01X55465D01*
G01X55429Y-41516D01*
G01X55326D01*
G01X55200Y-41515D01*
G01X55190Y-41514D01*
G01X55189D01*
G01X55188Y-41509D01*
G01X55186Y-41259D01*
G01Y-41007D01*
G01X55037D01*
G01Y-42146D01*
G01X55186D01*
G01Y-41642D01*
G01X55320D01*
G01X55450Y-41641D01*
G01X55462Y-41640D01*
G01X55463D01*
G01X55469Y-41638D01*
G01X55477Y-41637D01*
G01X55501D01*
G01X55519Y-41636D01*
G01X55528D01*
G01X55537Y-41634D01*
G01X55543Y-41633D01*
G01X55555Y-41630D01*
G01X55578Y-41625D01*
G01X55589Y-41622D01*
G01X55612Y-41614D01*
G01X55641Y-41602D01*
G01X55651Y-41598D01*
G01X55662Y-41592D01*
G01X55673Y-41585D01*
G01X55690Y-41576D01*
G01X55696Y-41572D01*
G01X55709Y-41562D01*
G01X55728Y-41548D01*
G01X55736Y-41542D01*
G01X55744Y-41535D01*
G01X55753Y-41523D01*
G01X55761Y-41516D01*
G01X55768Y-41510D01*
G01X55771Y-41506D01*
G01X55774Y-41498D01*
G01X55776Y-41494D01*
G01X55778Y-41491D01*
G01X55784Y-41485D01*
G01X55790Y-41476D01*
G01X55798Y-41460D01*
G01X55807Y-41446D01*
G01X55810Y-41441D01*
G01X55815Y-41428D01*
G01X55826Y-41400D01*
G01X55831Y-41383D01*
G01X55834Y-41371D01*
G01X55838Y-41347D01*
G01X55842Y-41331D01*
G01X55844Y-41322D01*
G01X55845Y-41305D01*
G01X55847Y-41296D01*
G01X55848Y-41290D01*
G01X55849Y-41280D01*
G01X55850Y-41248D01*
G01X55849Y-41218D01*
G01X55848Y-41203D01*
G01X55845Y-41194D01*
G01X55844Y-41184D01*
G01X55843Y-41168D01*
G01X55838Y-41149D01*
G01X55834Y-41129D01*
G01X55830Y-41116D01*
G01X55822Y-41099D01*
G01X55817Y-41081D01*
G01X55812Y-41071D01*
G01X55804Y-41058D01*
G01X55795Y-41041D01*
G01X55791Y-41035D01*
G01X55781Y-41021D01*
G01X55767Y-41003D01*
G01X55761Y-40994D01*
G01X55756Y-40990D01*
G01X55750Y-40985D01*
G01X55737Y-40977D01*
G01X55729Y-40970D01*
G01X55726Y-40966D01*
G01X55720Y-40960D01*
G01X55717Y-40957D01*
G01X55713Y-40954D01*
G01X55705Y-40951D01*
G01X55697Y-40947D01*
G01X55682Y-40938D01*
G01X55660Y-40928D01*
G01X55649Y-40922D01*
G01X55642Y-40918D01*
G01X55637Y-40916D01*
G01X55631Y-40914D01*
G01X55611Y-40910D01*
G01X55572Y-40898D01*
G01X55556Y-40894D01*
G01X55539Y-40891D01*
G01X55526Y-40889D01*
G01X55497Y-40887D01*
G01X55478Y-40886D01*
G01X55469Y-40884D01*
G01X55463Y-40883D01*
G01X55249Y-40881D01*
G37*
G36*
G01X48844Y-41196D02*
G01X48810Y-41197D01*
G01X48797Y-41198D01*
G01X48788Y-41200D01*
G01X48778Y-41201D01*
G01X48762Y-41202D01*
G01X48753Y-41204D01*
G01X48724Y-41213D01*
G01X48687Y-41224D01*
G01X48676Y-41229D01*
G01X48663Y-41234D01*
G01X48652Y-41241D01*
G01X48630Y-41253D01*
G01X48604Y-41270D01*
G01X48588Y-41282D01*
G01X48574Y-41293D01*
G01X48569Y-41298D01*
G01X48563Y-41305D01*
G01X48558Y-41312D01*
G01X48551Y-41319D01*
G01X48542Y-41325D01*
G01X48538Y-41330D01*
G01X48534Y-41335D01*
G01X48524Y-41351D01*
G01X48517Y-41360D01*
G01X48512Y-41365D01*
G01X48509Y-41369D01*
G01X48501Y-41382D01*
G01X48495Y-41393D01*
G01X48490Y-41404D01*
G01X48483Y-41420D01*
G01X48472Y-41438D01*
G01X48469Y-41444D01*
G01X48464Y-41459D01*
G01X48452Y-41493D01*
G01X48448Y-41507D01*
G01X48445Y-41521D01*
G01X48441Y-41548D01*
G01X48437Y-41564D01*
G01X48435Y-41574D01*
G01X48434Y-41590D01*
G01X48432Y-41600D01*
G01Y-41603D01*
G01X48430Y-41617D01*
G01Y-41665D01*
G01X48572D01*
G01X48573Y-41612D01*
G01X48574Y-41597D01*
G01X48576Y-41589D01*
G01X48578Y-41578D01*
G01X48579Y-41558D01*
G01X48581Y-41550D01*
G01X48583Y-41543D01*
G01X48585Y-41530D01*
G01X48588Y-41514D01*
G01X48590Y-41507D01*
G01X48593Y-41500D01*
G01X48600Y-41482D01*
G01X48605Y-41465D01*
G01X48610Y-41455D01*
G01X48627Y-41428D01*
G01X48634Y-41417D01*
G01X48647Y-41399D01*
G01X48653Y-41392D01*
G01X48658Y-41387D01*
G01X48665Y-41381D01*
G01X48675Y-41374D01*
G01X48685Y-41364D01*
G01X48701Y-41353D01*
G01X48721Y-41342D01*
G01X48737Y-41334D01*
G01X48756Y-41327D01*
G01X48769Y-41324D01*
G01X48783Y-41321D01*
G01X48793Y-41319D01*
G01X48812Y-41317D01*
G01X48834Y-41316D01*
G01X48842Y-41315D01*
G01X48846Y-41314D01*
G01X48850Y-41312D01*
G01X48854D01*
G01X48857D01*
G01X48867Y-41315D01*
G01X48874D01*
G01X48908Y-41317D01*
G01X48919Y-41318D01*
G01X48953Y-41327D01*
G01X48967Y-41332D01*
G01X48977Y-41336D01*
G01X48991Y-41345D01*
G01X49008Y-41354D01*
G01X49014Y-41358D01*
G01X49028Y-41367D01*
G01X49034Y-41373D01*
G01X49040Y-41378D01*
G01X49046Y-41385D01*
G01X49053Y-41395D01*
G01X49062Y-41406D01*
G01X49066Y-41410D01*
G01X49073Y-41422D01*
G01X49088Y-41445D01*
G01X49094Y-41456D01*
G01X49099Y-41471D01*
G01X49111Y-41505D01*
G01X49113Y-41514D01*
G01X49115Y-41524D01*
G01X49119Y-41542D01*
G01X49122Y-41570D01*
G01X49125Y-41581D01*
G01Y-41582D01*
G01X49126Y-41586D01*
G01X49127Y-41601D01*
G01X49128Y-41688D01*
G01X49127Y-41779D01*
G01X49126Y-41792D01*
G01X49125Y-41794D01*
G01X49124Y-41799D01*
G01X49121Y-41813D01*
G01X49116Y-41840D01*
G01X49113Y-41852D01*
G01X49105Y-41877D01*
G01X49101Y-41889D01*
G01X49095Y-41901D01*
G01X49088Y-41913D01*
G01X49079Y-41932D01*
G01X49076Y-41938D01*
G01X49072Y-41943D01*
G01X49068Y-41946D01*
G01X49064Y-41949D01*
G01X49061Y-41952D01*
G01X49058Y-41956D01*
G01X49055Y-41964D01*
G01X49052Y-41968D01*
G01X49049Y-41971D01*
G01X49041Y-41978D01*
G01X49034Y-41985D01*
G01X49028Y-41993D01*
G01X49024Y-41996D01*
G01X49020Y-41998D01*
G01X49012Y-42002D01*
G01X49002Y-42008D01*
G01X48990Y-42016D01*
G01X48983Y-42020D01*
G01X48976Y-42023D01*
G01X48968Y-42026D01*
G01X48933Y-42038D01*
G01X48925Y-42040D01*
G01X48917Y-42042D01*
G01X48909Y-42043D01*
G01X48895Y-42044D01*
G01X48883Y-42045D01*
G01X48879Y-42046D01*
G01X48874Y-42047D01*
G01X48867Y-42048D01*
G01X48847Y-42049D01*
G01X48833D01*
G01X48826Y-42048D01*
G01X48822Y-42047D01*
G01X48821Y-42046D01*
G01X48819Y-42045D01*
G01X48814Y-42044D01*
G01X48808D01*
G01X48785Y-42043D01*
G01X48775Y-42042D01*
G01X48770Y-42041D01*
G01X48744Y-42032D01*
G01X48736Y-42029D01*
G01X48728Y-42025D01*
G01X48720Y-42022D01*
G01X48713Y-42018D01*
G01X48684Y-42000D01*
G01X48678Y-41996D01*
G01X48669Y-41990D01*
G01X48665Y-41985D01*
G01X48661Y-41979D01*
G01X48654Y-41972D01*
G01X48646Y-41965D01*
G01X48642Y-41962D01*
G01X48638Y-41957D01*
G01X48630Y-41941D01*
G01X48621Y-41927D01*
G01X48618Y-41922D01*
G01X48604Y-41889D01*
G01X48598Y-41877D01*
G01X48596Y-41870D01*
G01X48594Y-41862D01*
G01X48590Y-41839D01*
G01X48585Y-41824D01*
G01X48583Y-41809D01*
G01X48581Y-41800D01*
G01X48575Y-41754D01*
G01X48574Y-41734D01*
G01X48572Y-41665D01*
G01X48430D01*
G01X48429Y-41694D01*
G01X48431Y-41773D01*
G01X48432Y-41786D01*
G01X48433Y-41793D01*
G01X48435Y-41803D01*
G01X48436Y-41819D01*
G01X48438Y-41829D01*
G01X48439Y-41833D01*
G01X48442Y-41846D01*
G01X48445Y-41862D01*
G01X48447Y-41870D01*
G01X48449Y-41877D01*
G01X48455Y-41889D01*
G01X48459Y-41902D01*
G01X48462Y-41916D01*
G01X48466Y-41924D01*
G01X48468Y-41929D01*
G01X48475Y-41941D01*
G01X48485Y-41964D01*
G01X48491Y-41975D01*
G01X48506Y-42000D01*
G01X48511Y-42007D01*
G01X48518Y-42015D01*
G01X48522Y-42019D01*
G01X48528Y-42023D01*
G01X48531Y-42027D01*
G01X48533Y-42030D01*
G01X48537Y-42039D01*
G01X48539Y-42043D01*
G01X48543Y-42046D01*
G01X48551Y-42052D01*
G01X48558Y-42059D01*
G01X48564Y-42067D01*
G01X48568Y-42071D01*
G01X48573Y-42075D01*
G01X48588Y-42083D01*
G01X48594Y-42088D01*
G01X48599Y-42092D01*
G01X48603Y-42095D01*
G01X48616Y-42104D01*
G01X48637Y-42115D01*
G01X48654Y-42122D01*
G01X48665Y-42127D01*
G01X48671Y-42132D01*
G01X48677Y-42134D01*
G01X48683Y-42136D01*
G01X48697Y-42139D01*
G01X48710Y-42144D01*
G01X48722Y-42149D01*
G01X48730Y-42151D01*
G01X48741Y-42153D01*
G01X48769Y-42157D01*
G01X48778Y-42159D01*
G01X48780D01*
G01Y-42160D01*
G01X48781D01*
G01X48787Y-42162D01*
G01X48819Y-42163D01*
G01X48847D01*
G01X48901Y-42162D01*
G01X48916Y-42161D01*
G01X48924Y-42159D01*
G01X48938Y-42156D01*
G01X48965Y-42152D01*
G01X48976Y-42149D01*
G01X49002Y-42141D01*
G01X49017Y-42135D01*
G01X49053Y-42118D01*
G01X49064Y-42112D01*
G01X49096Y-42092D01*
G01X49103Y-42088D01*
G01X49111Y-42081D01*
G01X49115Y-42077D01*
G01X49120Y-42071D01*
G01X49123Y-42067D01*
G01X49127Y-42065D01*
G01X49135Y-42061D01*
G01X49138Y-42059D01*
G01X49142Y-42056D01*
G01X49151Y-42044D01*
G01X49159Y-42034D01*
G01X49176Y-42012D01*
G01X49183Y-42006D01*
G01X49194Y-41989D01*
G01X49214Y-41956D01*
G01X49224Y-41933D01*
G01X49229Y-41922D01*
G01X49234Y-41916D01*
G01X49238Y-41905D01*
G01X49244Y-41885D01*
G01X49254Y-41854D01*
G01X49257Y-41845D01*
G01X49259Y-41836D01*
G01X49262Y-41820D01*
G01X49265Y-41795D01*
G01X49269Y-41778D01*
G01X49271Y-41765D01*
G01X49272Y-41742D01*
G01X49273Y-41733D01*
G01X49274Y-41728D01*
G01X49275Y-41718D01*
G01X49277Y-41681D01*
G01Y-41668D01*
G01X49276Y-41623D01*
G01X49274Y-41608D01*
G01X49272Y-41600D01*
G01X49271Y-41587D01*
G01X49270Y-41565D01*
G01X49269Y-41556D01*
G01X49267Y-41549D01*
G01X49264Y-41535D01*
G01X49260Y-41508D01*
G01X49257Y-41496D01*
G01X49248Y-41471D01*
G01X49238Y-41443D01*
G01X49228Y-41419D01*
G01X49220Y-41403D01*
G01X49208Y-41384D01*
G01X49199Y-41367D01*
G01X49195Y-41361D01*
G01X49185Y-41348D01*
G01X49162Y-41319D01*
G01X49157Y-41312D01*
G01X49152Y-41307D01*
G01X49144Y-41300D01*
G01X49126Y-41287D01*
G01X49101Y-41268D01*
G01X49096Y-41264D01*
G01X49073Y-41250D01*
G01X49063Y-41244D01*
G01X49052Y-41239D01*
G01X49025Y-41227D01*
G01X49013Y-41222D01*
G01X49006Y-41220D01*
G01X48999Y-41218D01*
G01X48975Y-41213D01*
G01X48954Y-41207D01*
G01X48942Y-41204D01*
G01X48932Y-41203D01*
G01X48916Y-41201D01*
G01X48905D01*
G01X48896Y-41199D01*
G01X48889Y-41197D01*
G01X48879D01*
G37*
G36*
G01X51499Y-41196D02*
G01X51462Y-41197D01*
G01X51447Y-41198D01*
G01X51440Y-41200D01*
G01X51429Y-41201D01*
G01X51413Y-41202D01*
G01X51404Y-41204D01*
G01X51375Y-41213D01*
G01X51361Y-41217D01*
G01X51350Y-41222D01*
G01X51334Y-41229D01*
G01X51315Y-41236D01*
G01X51307Y-41239D01*
G01X51299Y-41242D01*
G01X51292Y-41246D01*
G01X51274Y-41259D01*
G01X51251Y-41273D01*
G01X51242Y-41280D01*
G01X51230Y-41290D01*
G01X51222Y-41296D01*
G01X51215Y-41303D01*
G01X51205Y-41315D01*
G01X51198Y-41322D01*
G01X51194Y-41325D01*
G01X51191Y-41328D01*
G01X51188Y-41332D01*
G01X51185Y-41340D01*
G01X51182Y-41344D01*
G01X51178Y-41347D01*
G01X51171Y-41353D01*
G01X51168Y-41357D01*
G01X51165Y-41361D01*
G01X51162Y-41369D01*
G01X51158Y-41378D01*
G01X51140Y-41405D01*
G01X51136Y-41412D01*
G01X51133Y-41420D01*
G01X51129Y-41428D01*
G01X51121Y-41452D01*
G01X51112Y-41471D01*
G01X51108Y-41484D01*
G01X51103Y-41504D01*
G01X51099Y-41519D01*
G01X51096Y-41533D01*
G01X51092Y-41559D01*
G01X51088Y-41576D01*
G01X51086Y-41587D01*
G01X51085Y-41607D01*
G01X51084Y-41614D01*
G01X51082Y-41620D01*
G01X51081Y-41632D01*
G01Y-41671D01*
G01X51224D01*
G01Y-41646D01*
G01X51225Y-41632D01*
G01X51226Y-41628D01*
G01X51228Y-41623D01*
G01Y-41615D01*
G01X51229Y-41594D01*
G01X51230Y-41577D01*
G01X51231Y-41565D01*
G01X51233Y-41554D01*
G01X51236Y-41540D01*
G01X51239Y-41521D01*
G01X51241Y-41513D01*
G01X51245Y-41502D01*
G01X51251Y-41488D01*
G01X51257Y-41471D01*
G01X51261Y-41461D01*
G01X51269Y-41446D01*
G01X51278Y-41427D01*
G01X51282Y-41421D01*
G01X51285Y-41417D01*
G01X51289Y-41413D01*
G01X51293Y-41410D01*
G01X51296Y-41407D01*
G01X51299Y-41403D01*
G01X51302Y-41395D01*
G01X51305Y-41391D01*
G01X51308Y-41388D01*
G01X51320Y-41379D01*
G01X51329Y-41371D01*
G01X51341Y-41362D01*
G01X51358Y-41350D01*
G01X51368Y-41345D01*
G01X51401Y-41330D01*
G01X51413Y-41325D01*
G01X51422Y-41323D01*
G01X51432Y-41321D01*
G01X51444Y-41319D01*
G01X51472Y-41317D01*
G01X51496Y-41315D01*
G01X51501D01*
G01X51504Y-41313D01*
G01X51507Y-41312D01*
G01X51510D01*
G01X51514D01*
G01X51523Y-41315D01*
G01X51530D01*
G01X51560Y-41317D01*
G01X51571Y-41318D01*
G01X51585Y-41322D01*
G01X51605Y-41326D01*
G01X51614Y-41329D01*
G01X51619Y-41332D01*
G01X51630Y-41338D01*
G01X51643Y-41344D01*
G01X51651Y-41348D01*
G01X51673Y-41362D01*
G01X51681Y-41368D01*
G01X51690Y-41380D01*
G01X51698Y-41387D01*
G01X51706Y-41394D01*
G01X51710Y-41398D01*
G01X51714Y-41404D01*
G01X51739Y-41444D01*
G01X51753Y-41476D01*
G01X51759Y-41488D01*
G01X51761Y-41495D01*
G01X51763Y-41503D01*
G01X51767Y-41526D01*
G01X51772Y-41542D01*
G01X51774Y-41559D01*
G01X51776Y-41571D01*
G01X51778Y-41600D01*
G01X51779Y-41619D01*
G01X51781Y-41628D01*
G01X51782Y-41631D01*
G01X51783Y-41641D01*
G01X51785Y-41678D01*
G01Y-41691D01*
G01X51783Y-41736D01*
G01X51782Y-41751D01*
G01X51780Y-41759D01*
G01X51779Y-41772D01*
G01X51778Y-41795D01*
G01X51776Y-41803D01*
G01X51774Y-41810D01*
G01X51772Y-41825D01*
G01X51769Y-41844D01*
G01X51767Y-41852D01*
G01X51763Y-41863D01*
G01X51758Y-41875D01*
G01X51750Y-41894D01*
G01X51747Y-41902D01*
G01X51744Y-41910D01*
G01X51740Y-41917D01*
G01X51727Y-41935D01*
G01X51714Y-41955D01*
G01X51708Y-41963D01*
G01X51704Y-41967D01*
G01X51698Y-41972D01*
G01X51690Y-41979D01*
G01X51684Y-41987D01*
G01X51679Y-41992D01*
G01X51674Y-41996D01*
G01X51667Y-42000D01*
G01X51644Y-42015D01*
G01X51634Y-42020D01*
G01X51618Y-42026D01*
G01X51592Y-42034D01*
G01X51583Y-42038D01*
G01X51570Y-42041D01*
G01X51536Y-42046D01*
G01X51520Y-42048D01*
G01X51506Y-42049D01*
G01X51495D01*
G01X51486D01*
G01X51477Y-42048D01*
G01X51475Y-42047D01*
G01X51474D01*
G01X51473Y-42046D01*
G01X51470Y-42045D01*
G01X51465Y-42044D01*
G01X51458D01*
G01X51436Y-42043D01*
G01X51426Y-42042D01*
G01X51421Y-42041D01*
G01X51395Y-42032D01*
G01X51384Y-42027D01*
G01X51372Y-42022D01*
G01X51360Y-42015D01*
G01X51339Y-42003D01*
G01X51334Y-41999D01*
G01X51322Y-41989D01*
G01X51314Y-41983D01*
G01X51310Y-41978D01*
G01X51305Y-41972D01*
G01X51295Y-41956D01*
G01X51288Y-41948D01*
G01X51283Y-41943D01*
G01X51272Y-41926D01*
G01X51268Y-41919D01*
G01X51264Y-41911D01*
G01X51261Y-41903D01*
G01X51258Y-41894D01*
G01X51247Y-41860D01*
G01X51242Y-41846D01*
G01X51239Y-41833D01*
G01X51231Y-41780D01*
G01X51230Y-41766D01*
G01X51229Y-41731D01*
G01X51228Y-41719D01*
G01X51226Y-41711D01*
G01X51224Y-41699D01*
G01Y-41671D01*
G01X51081D01*
G01X51080Y-41694D01*
G01X51081Y-41755D01*
G01X51082Y-41768D01*
G01X51083Y-41771D01*
G01X51084Y-41776D01*
G01X51086Y-41788D01*
G01X51087Y-41807D01*
G01X51088Y-41815D01*
G01X51090Y-41822D01*
G01X51093Y-41835D01*
G01X51098Y-41858D01*
G01X51109Y-41894D01*
G01X51119Y-41922D01*
G01X51132Y-41955D01*
G01X51137Y-41966D01*
G01X51140Y-41971D01*
G01X51146Y-41978D01*
G01X51152Y-41986D01*
G01X51158Y-41997D01*
G01X51162Y-42004D01*
G01X51172Y-42018D01*
G01X51195Y-42046D01*
G01X51201Y-42053D01*
G01X51207Y-42059D01*
G01X51214Y-42064D01*
G01X51230Y-42075D01*
G01X51239Y-42082D01*
G01X51244Y-42086D01*
G01X51249Y-42090D01*
G01X51261Y-42097D01*
G01X51294Y-42118D01*
G01X51326Y-42132D01*
G01X51338Y-42138D01*
G01X51351Y-42142D01*
G01X51371Y-42146D01*
G01X51402Y-42155D01*
G01X51412Y-42158D01*
G01X51419Y-42159D01*
G01X51430Y-42161D01*
G01X51451Y-42162D01*
G01X51499Y-42163D01*
G01X51552Y-42162D01*
G01X51567Y-42161D01*
G01X51574Y-42159D01*
G01X51584Y-42158D01*
G01X51601Y-42157D01*
G01X51610Y-42155D01*
G01X51670Y-42135D01*
G01X51682Y-42130D01*
G01X51694Y-42125D01*
G01X51705Y-42118D01*
G01X51727Y-42106D01*
G01X51753Y-42089D01*
G01X51764Y-42080D01*
G01X51777Y-42069D01*
G01X51786Y-42063D01*
G01X51793Y-42056D01*
G01X51802Y-42044D01*
G01X51810Y-42038D01*
G01X51814Y-42034D01*
G01X51818Y-42030D01*
G01X51822Y-42026D01*
G01X51830Y-42010D01*
G01X51835Y-42004D01*
G01X51839Y-42000D01*
G01X51842Y-41995D01*
G01X51851Y-41983D01*
G01X51870Y-41950D01*
G01X51885Y-41918D01*
G01X51891Y-41905D01*
G01X51895Y-41894D01*
G01X51899Y-41880D01*
G01X51910Y-41840D01*
G01X51915Y-41824D01*
G01X51918Y-41807D01*
G01X51925Y-41748D01*
G01X51926Y-41739D01*
G01X51927Y-41705D01*
G01X51928Y-41663D01*
G01X51927Y-41605D01*
G01X51926Y-41591D01*
G01X51925Y-41588D01*
G01X51924Y-41583D01*
G01X51922Y-41572D01*
G01X51921Y-41552D01*
G01X51920Y-41544D01*
G01X51918Y-41538D01*
G01X51915Y-41524D01*
G01X51910Y-41502D01*
G01X51899Y-41465D01*
G01X51893Y-41449D01*
G01X51881Y-41421D01*
G01X51872Y-41400D01*
G01X51866Y-41390D01*
G01X51844Y-41355D01*
G01X51837Y-41346D01*
G01X51828Y-41334D01*
G01X51822Y-41326D01*
G01X51814Y-41319D01*
G01X51802Y-41310D01*
G01X51796Y-41302D01*
G01X51793Y-41297D01*
G01X51788Y-41293D01*
G01X51782Y-41289D01*
G01X51766Y-41279D01*
G01X51758Y-41272D01*
G01X51753Y-41267D01*
G01X51748Y-41264D01*
G01X51736Y-41256D01*
G01X51714Y-41245D01*
G01X51697Y-41237D01*
G01X51686Y-41232D01*
G01X51680Y-41227D01*
G01X51674Y-41225D01*
G01X51668Y-41223D01*
G01X51648Y-41219D01*
G01X51610Y-41207D01*
G01X51600Y-41205D01*
G01X51591Y-41203D01*
G01X51583Y-41202D01*
G01X51569Y-41201D01*
G01X51557Y-41200D01*
G01X51553Y-41199D01*
G01X51546Y-41197D01*
G01X51535D01*
G37*
G36*
G01X47359Y-41196D02*
G01X47316Y-41197D01*
G01X47301Y-41198D01*
G01X47294Y-41200D01*
G01X47284Y-41201D01*
G01X47268Y-41202D01*
G01X47258Y-41204D01*
G01X47254Y-41206D01*
G01X47241Y-41208D01*
G01X47224Y-41211D01*
G01X47217Y-41214D01*
G01X47210Y-41216D01*
G01X47193Y-41224D01*
G01X47175Y-41229D01*
G01X47166Y-41233D01*
G01X47151Y-41241D01*
G01X47125Y-41254D01*
G01X47119Y-41258D01*
G01X47093Y-41276D01*
G01X47076Y-41288D01*
G01X47063Y-41299D01*
G01X47057Y-41304D01*
G01X47051Y-41311D01*
G01X47046Y-41317D01*
G01X47039Y-41324D01*
G01X47031Y-41331D01*
G01X47027Y-41334D01*
G01X47015Y-41355D01*
G01X47011Y-41360D01*
G01X47006Y-41365D01*
G01X47003Y-41369D01*
G01X46995Y-41382D01*
G01X46989Y-41393D01*
G01X46984Y-41404D01*
G01X46976Y-41420D01*
G01X46971Y-41431D01*
G01X46967Y-41438D01*
G01X46962Y-41448D01*
G01X46957Y-41465D01*
G01X46951Y-41479D01*
G01X46948Y-41486D01*
G01X46946Y-41494D01*
G01X46941Y-41525D01*
G01X46936Y-41542D01*
G01X46934Y-41556D01*
G01X46932Y-41565D01*
G01X46927Y-41611D01*
G01X46925Y-41631D01*
G01X46923Y-41700D01*
G01X46924Y-41754D01*
G01X46925Y-41768D01*
G01X46928Y-41776D01*
G01X46929Y-41789D01*
G01X46930Y-41812D01*
G01X46932Y-41821D01*
G01X46934Y-41828D01*
G01X46936Y-41840D01*
G01X46939Y-41857D01*
G01X46941Y-41864D01*
G01X46944Y-41871D01*
G01X46949Y-41883D01*
G01X46953Y-41896D01*
G01X46959Y-41917D01*
G01X46964Y-41929D01*
G01X46971Y-41944D01*
G01X46978Y-41961D01*
G01X46981Y-41968D01*
G01X46985Y-41975D01*
G01X46998Y-41992D01*
G01X47012Y-42016D01*
G01X47019Y-42024D01*
G01X47030Y-42036D01*
G01X47035Y-42045D01*
G01X47042Y-42052D01*
G01X47055Y-42060D01*
G01X47064Y-42069D01*
G01X47075Y-42078D01*
G01X47107Y-42100D01*
G01X47121Y-42109D01*
G01X47132Y-42115D01*
G01X47142Y-42120D01*
G01X47150Y-42123D01*
G01X47178Y-42135D01*
G01X47189Y-42139D01*
G01X47200Y-42142D01*
G01X47220Y-42146D01*
G01X47251Y-42155D01*
G01X47261Y-42158D01*
G01X47268Y-42159D01*
G01X47281Y-42161D01*
G01X47309Y-42162D01*
G01X47356Y-42163D01*
G01X47419Y-42162D01*
G01X47433Y-42161D01*
G01X47436D01*
G01X47441Y-42159D01*
G01X47457Y-42156D01*
G01X47478Y-42153D01*
G01X47487Y-42151D01*
G01X47499Y-42148D01*
G01X47514Y-42141D01*
G01X47535Y-42136D01*
G01X47547Y-42132D01*
G01X47569Y-42122D01*
G01X47589Y-42113D01*
G01X47600Y-42108D01*
G01X47619Y-42095D01*
G01X47621Y-42092D01*
G01X47623Y-42089D01*
G01X47624Y-42084D01*
G01X47626Y-42077D01*
G01X47627Y-42059D01*
G01X47628Y-42034D01*
G01X47627Y-42011D01*
G01Y-42000D01*
G01X47625Y-41992D01*
G01X47623Y-41987D01*
G01Y-41985D01*
G01X47621Y-41983D01*
G01X47619D01*
G01X47610Y-41987D01*
G01X47584Y-41999D01*
G01X47573Y-42003D01*
G01X47546Y-42013D01*
G01X47542Y-42015D01*
G01X47505Y-42026D01*
G01X47489Y-42030D01*
G01X47472Y-42033D01*
G01X47459Y-42034D01*
G01X47407Y-42041D01*
G01X47382Y-42043D01*
G01X47356D01*
G01X47339D01*
G01X47327Y-42042D01*
G01X47317Y-42039D01*
G01X47307Y-42038D01*
G01X47291Y-42037D01*
G01X47271Y-42032D01*
G01X47252Y-42027D01*
G01X47238Y-42023D01*
G01X47217Y-42013D01*
G01X47200Y-42006D01*
G01X47195Y-42002D01*
G01X47190Y-41999D01*
G01X47187Y-41994D01*
G01X47184Y-41991D01*
G01X47181Y-41987D01*
G01X47176Y-41985D01*
G01X47168Y-41981D01*
G01X47165Y-41979D01*
G01X47161Y-41976D01*
G01X47155Y-41967D01*
G01X47148Y-41960D01*
G01X47140Y-41954D01*
G01X47137Y-41951D01*
G01X47134Y-41947D01*
G01X47131Y-41938D01*
G01X47125Y-41928D01*
G01X47117Y-41917D01*
G01X47113Y-41911D01*
G01X47110Y-41904D01*
G01X47107Y-41897D01*
G01X47097Y-41870D01*
G01X47090Y-41849D01*
G01X47081Y-41805D01*
G01X47078Y-41789D01*
G01X47075Y-41766D01*
G01X47074Y-41749D01*
G01X47072Y-41660D01*
G01X47073Y-41587D01*
G01X47075Y-41573D01*
G01X47077Y-41566D01*
G01X47079Y-41551D01*
G01X47084Y-41525D01*
G01X47087Y-41514D01*
G01X47095Y-41488D01*
G01X47100Y-41476D01*
G01X47105Y-41464D01*
G01X47112Y-41453D01*
G01X47122Y-41436D01*
G01X47125Y-41430D01*
G01X47135Y-41416D01*
G01X47150Y-41398D01*
G01X47156Y-41389D01*
G01X47160Y-41385D01*
G01X47166Y-41381D01*
G01X47182Y-41370D01*
G01X47191Y-41363D01*
G01X47196Y-41359D01*
G01X47206Y-41353D01*
G01X47223Y-41346D01*
G01X47233Y-41341D01*
G01X47240Y-41336D01*
G01X47246Y-41334D01*
G01X47253Y-41332D01*
G01X47277Y-41327D01*
G01X47292Y-41323D01*
G01X47310Y-41320D01*
G01X47321Y-41319D01*
G01X47345Y-41317D01*
G01X47379Y-41316D01*
G01X47402Y-41317D01*
G01X47415Y-41318D01*
G01X47419Y-41319D01*
G01X47423Y-41320D01*
G01X47437Y-41322D01*
G01X47459Y-41323D01*
G01X47468Y-41324D01*
G01X47475Y-41326D01*
G01X47488Y-41329D01*
G01X47511Y-41333D01*
G01X47522Y-41336D01*
G01X47545Y-41345D01*
G01X47572Y-41355D01*
G01X47588Y-41360D01*
G01X47600Y-41366D01*
G01X47609Y-41372D01*
G01X47612Y-41373D01*
G01X47613Y-41374D01*
G01X47615Y-41369D01*
G01Y-41358D01*
G01X47616Y-41313D01*
G01Y-41290D01*
G01X47615Y-41276D01*
G01X47613Y-41264D01*
G01X47611Y-41258D01*
G01X47610Y-41255D01*
G01X47609Y-41253D01*
G01X47608Y-41252D01*
G01X47607Y-41251D01*
G01X47606D01*
G01X47599Y-41249D01*
G01X47589Y-41245D01*
G01X47575Y-41236D01*
G01X47562Y-41230D01*
G01X47535Y-41220D01*
G01X47517Y-41215D01*
G01X47503Y-41211D01*
G01X47476Y-41207D01*
G01X47460Y-41203D01*
G01X47448Y-41202D01*
G01X47429Y-41201D01*
G01X47421Y-41199D01*
G01X47416Y-41198D01*
G01X47406Y-41197D01*
G01X47371Y-41196D01*
G37*
G36*
G01X53528Y-41196D02*
G01X53483Y-41197D01*
G01X53468Y-41198D01*
G01X53460Y-41200D01*
G01X53451Y-41201D01*
G01X53434Y-41202D01*
G01X53415Y-41207D01*
G01X53389Y-41213D01*
G01X53379Y-41216D01*
G01X53356Y-41224D01*
G01X53328Y-41236D01*
G01X53318Y-41240D01*
G01X53307Y-41246D01*
G01X53295Y-41253D01*
G01X53279Y-41262D01*
G01X53272Y-41266D01*
G01X53259Y-41276D01*
G01X53240Y-41290D01*
G01X53232Y-41296D01*
G01X53225Y-41303D01*
G01X53215Y-41315D01*
G01X53207Y-41322D01*
G01X53203Y-41325D01*
G01X53199Y-41330D01*
G01X53195Y-41335D01*
G01X53179Y-41359D01*
G01X53164Y-41380D01*
G01X53156Y-41393D01*
G01X53144Y-41415D01*
G01X53141Y-41422D01*
G01X53130Y-41451D01*
G01X53120Y-41478D01*
G01X53113Y-41499D01*
G01X53099Y-41571D01*
G01X53097Y-41581D01*
G01X53096Y-41597D01*
G01X53095Y-41607D01*
G01X53093Y-41617D01*
G01X53092Y-41620D01*
G01X53091Y-41631D01*
G01X53090Y-41691D01*
G01X53091Y-41749D01*
G01X53092Y-41763D01*
G01X53093Y-41765D01*
G01X53094Y-41770D01*
G01X53096Y-41783D01*
G01X53097Y-41806D01*
G01X53098Y-41815D01*
G01X53100Y-41822D01*
G01X53103Y-41836D01*
G01X53106Y-41855D01*
G01X53108Y-41864D01*
G01X53111Y-41874D01*
G01X53118Y-41889D01*
G01X53122Y-41903D01*
G01X53123Y-41909D01*
G01X53126Y-41919D01*
G01X53129Y-41924D01*
G01X53133Y-41930D01*
G01X53137Y-41940D01*
G01X53142Y-41957D01*
G01X53147Y-41966D01*
G01X53168Y-41999D01*
G01X53182Y-42018D01*
G01X53204Y-42046D01*
G01X53210Y-42053D01*
G01X53219Y-42060D01*
G01X53225Y-42064D01*
G01X53233Y-42069D01*
G01X53237Y-42073D01*
G01X53241Y-42076D01*
G01X53248Y-42084D01*
G01X53251Y-42088D01*
G01X53255Y-42090D01*
G01X53263Y-42093D01*
G01X53272Y-42098D01*
G01X53299Y-42115D01*
G01X53314Y-42123D01*
G01X53330Y-42129D01*
G01X53382Y-42146D01*
G01X53391Y-42149D01*
G01X53400Y-42151D01*
G01X53416Y-42154D01*
G01X53437Y-42157D01*
G01X53445Y-42159D01*
G01X53447Y-42160D01*
G01X53450Y-42161D01*
G01X53454Y-42162D01*
G01X53468Y-42163D01*
G01X53522D01*
G01X53585Y-42162D01*
G01X53599Y-42161D01*
G01X53602D01*
G01X53608Y-42159D01*
G01X53623Y-42156D01*
G01X53645Y-42153D01*
G01X53654Y-42151D01*
G01X53665Y-42148D01*
G01X53680Y-42141D01*
G01X53701Y-42136D01*
G01X53714Y-42132D01*
G01X53735Y-42122D01*
G01X53756Y-42113D01*
G01X53766Y-42108D01*
G01X53786Y-42095D01*
G01X53788Y-42092D01*
G01X53790Y-42089D01*
G01X53791Y-42084D01*
G01X53792Y-42077D01*
G01X53794Y-42059D01*
G01Y-42034D01*
G01Y-41980D01*
G01X53780Y-41986D01*
G01X53760Y-41994D01*
G01X53745Y-42002D01*
G01X53726Y-42009D01*
G01X53691Y-42020D01*
G01X53678Y-42024D01*
G01X53664Y-42027D01*
G01X53637Y-42032D01*
G01X53620Y-42036D01*
G01X53608Y-42038D01*
G01X53584D01*
G01X53576Y-42040D01*
G01X53571Y-42041D01*
G01X53559Y-42043D01*
G01X53531D01*
G01X53506D01*
G01X53492Y-42042D01*
G01X53483Y-42039D01*
G01X53474Y-42038D01*
G01X53457Y-42037D01*
G01X53438Y-42032D01*
G01X53418Y-42027D01*
G01X53409Y-42024D01*
G01X53404Y-42022D01*
G01X53397Y-42018D01*
G01X53388Y-42013D01*
G01X53377Y-42010D01*
G01X53372Y-42008D01*
G01X53368Y-42006D01*
G01X53361Y-42000D01*
G01X53357Y-41997D01*
G01X53338Y-41985D01*
G01X53330Y-41978D01*
G01X53326Y-41974D01*
G01X53322Y-41967D01*
G01X53315Y-41960D01*
G01X53306Y-41954D01*
G01X53303Y-41951D01*
G01X53301Y-41947D01*
G01X53297Y-41938D01*
G01X53291Y-41928D01*
G01X53284Y-41917D01*
G01X53280Y-41910D01*
G01X53276Y-41902D01*
G01X53267Y-41879D01*
G01X53260Y-41863D01*
G01X53257Y-41852D01*
G01X53255Y-41842D01*
G01X53250Y-41812D01*
G01X53246Y-41795D01*
G01X53244Y-41786D01*
G01Y-41769D01*
G01X53242Y-41760D01*
G01X53241Y-41757D01*
G01X53240Y-41743D01*
G01X53239Y-41668D01*
G01X53240Y-41594D01*
G01X53241Y-41579D01*
G01X53243Y-41572D01*
G01X53244Y-41562D01*
G01X53246Y-41546D01*
G01X53248Y-41537D01*
G01X53256Y-41508D01*
G01X53260Y-41494D01*
G01X53265Y-41483D01*
G01X53274Y-41461D01*
G01X53282Y-41444D01*
G01X53286Y-41436D01*
G01X53289Y-41432D01*
G01X53299Y-41420D01*
G01X53314Y-41400D01*
G01X53325Y-41387D01*
G01X53330Y-41382D01*
G01X53334Y-41378D01*
G01X53337Y-41377D01*
G01X53343Y-41375D01*
G01X53347Y-41373D01*
G01X53350Y-41371D01*
G01X53361Y-41361D01*
G01X53374Y-41353D01*
G01X53384Y-41347D01*
G01X53395Y-41342D01*
G01X53402Y-41339D01*
G01X53418Y-41333D01*
G01X53437Y-41327D01*
G01X53450Y-41324D01*
G01X53458Y-41323D01*
G01X53474Y-41322D01*
G01X53483Y-41320D01*
G01X53490Y-41318D01*
G01X53505Y-41317D01*
G01X53537Y-41316D01*
G01X53566Y-41317D01*
G01X53581Y-41318D01*
G01X53585Y-41319D01*
G01X53590Y-41320D01*
G01X53603Y-41322D01*
G01X53626Y-41323D01*
G01X53635Y-41324D01*
G01X53642Y-41326D01*
G01X53654Y-41329D01*
G01X53678Y-41333D01*
G01X53714Y-41345D01*
G01X53730Y-41350D01*
G01X53758Y-41363D01*
G01X53772Y-41369D01*
G01X53775D01*
G01X53777Y-41370D01*
G01X53780Y-41369D01*
G01X53782D01*
G01X53783Y-41368D01*
G01X53786Y-41365D01*
G01X53787Y-41358D01*
G01X53788Y-41346D01*
G01X53789Y-41308D01*
G01Y-41259D01*
G01X53774Y-41253D01*
G01X53764Y-41249D01*
G01X53754Y-41243D01*
G01X53741Y-41236D01*
G01X53729Y-41230D01*
G01X53701Y-41220D01*
G01X53684Y-41215D01*
G01X53671Y-41211D01*
G01X53647Y-41207D01*
G01X53632Y-41203D01*
G01X53621Y-41202D01*
G01X53601Y-41201D01*
G01X53593Y-41199D01*
G01X53588Y-41198D01*
G01X53578Y-41197D01*
G01X53541Y-41196D01*
G37*
G36*
G01X56316Y-41196D02*
G01X56272Y-41197D01*
G01X56256Y-41198D01*
G01X56249Y-41200D01*
G01X56237Y-41201D01*
G01X56218Y-41202D01*
G01X56210Y-41204D01*
G01X56203Y-41206D01*
G01X56187Y-41208D01*
G01X56157Y-41213D01*
G01X56145Y-41216D01*
G01X56085Y-41236D01*
G01X56077Y-41239D01*
G01X56067Y-41243D01*
G01X56061Y-41248D01*
G01X56060Y-41250D01*
G01X56059Y-41253D01*
G01X56058Y-41257D01*
G01X56057Y-41270D01*
G01X56056Y-41299D01*
G01Y-41315D01*
G01X56057Y-41323D01*
G01X56059Y-41333D01*
G01X56060Y-41338D01*
G01X56061Y-41340D01*
G01X56062Y-41342D01*
G01X56064Y-41344D01*
G01X56066Y-41345D01*
G01X56067D01*
G01X56078Y-41344D01*
G01X56097Y-41339D01*
G01X56110Y-41336D01*
G01X56145Y-41330D01*
G01X56185Y-41325D01*
G01X56202Y-41323D01*
G01X56228Y-41322D01*
G01X56259Y-41321D01*
G01X56272Y-41320D01*
G01X56276Y-41319D01*
G01X56281Y-41318D01*
G01X56292D01*
G01X56307Y-41320D01*
G01X56322Y-41321D01*
G01X56361Y-41322D01*
G01X56370Y-41323D01*
G01X56378Y-41324D01*
G01X56384Y-41326D01*
G01X56397Y-41329D01*
G01X56413Y-41332D01*
G01X56423Y-41335D01*
G01X56429Y-41337D01*
G01X56440Y-41345D01*
G01X56456Y-41353D01*
G01X56461Y-41357D01*
G01X56465Y-41361D01*
G01X56474Y-41373D01*
G01X56479Y-41379D01*
G01X56482Y-41383D01*
G01X56488Y-41392D01*
G01X56491Y-41399D01*
G01X56497Y-41415D01*
G01X56502Y-41433D01*
G01X56504Y-41439D01*
G01X56505Y-41447D01*
G01X56507Y-41467D01*
G01X56508Y-41519D01*
G01Y-41528D01*
G01X56507Y-41560D01*
G01X56506Y-41576D01*
G01X56504Y-41590D01*
G01X56502Y-41597D01*
G01X56500Y-41601D01*
G01X56499D01*
G01X56498Y-41602D01*
G01X56497D01*
G01X56491Y-41603D01*
G01X56481Y-41604D01*
G01X56472Y-41606D01*
G01X56459Y-41608D01*
G01X56436Y-41609D01*
G01X56428Y-41610D01*
G01X56421Y-41612D01*
G01X56409Y-41614D01*
G01X56390D01*
G01X56381Y-41616D01*
G01X56375Y-41618D01*
G01X56363Y-41619D01*
G01X56344Y-41620D01*
G01X56336Y-41622D01*
G01X56329Y-41623D01*
G01X56316Y-41625D01*
G01X56293Y-41626D01*
G01X56284Y-41628D01*
G01X56277Y-41630D01*
G01X56266Y-41631D01*
G01X56246Y-41632D01*
G01X56239Y-41633D01*
G01X56231Y-41635D01*
G01X56217Y-41638D01*
G01X56190Y-41642D01*
G01X56179Y-41645D01*
G01X56153Y-41654D01*
G01X56138Y-41660D01*
G01X56101Y-41677D01*
G01X56093Y-41681D01*
G01X56085Y-41687D01*
G01X56055Y-41708D01*
G01X56048Y-41715D01*
G01X56038Y-41728D01*
G01X56030Y-41734D01*
G01X56026Y-41737D01*
G01X56022Y-41741D01*
G01X56019Y-41746D01*
G01X56010Y-41762D01*
G01X56001Y-41776D01*
G01X55998Y-41781D01*
G01X55993Y-41794D01*
G01X55987Y-41810D01*
G01X55982Y-41829D01*
G01X55979Y-41838D01*
G01X55977Y-41847D01*
G01X55976Y-41855D01*
G01Y-41870D01*
G01X55974Y-41881D01*
G01X55971Y-41891D01*
G01Y-41894D01*
G01X56120D01*
G01X56121Y-41890D01*
G01X56123Y-41881D01*
G01X56124Y-41870D01*
G01X56125Y-41850D01*
G01X56127Y-41840D01*
G01X56136Y-41817D01*
G01X56142Y-41805D01*
G01X56145Y-41800D01*
G01X56150Y-41794D01*
G01X56159Y-41782D01*
G01X56162Y-41779D01*
G01X56165Y-41775D01*
G01X56169Y-41773D01*
G01X56177Y-41770D01*
G01X56181Y-41768D01*
G01X56184Y-41765D01*
G01X56191Y-41760D01*
G01X56194Y-41758D01*
G01X56200Y-41756D01*
G01X56216Y-41750D01*
G01X56231Y-41744D01*
G01X56236Y-41742D01*
G01X56242Y-41740D01*
G01X56248D01*
G01X56262Y-41739D01*
G01X56275Y-41736D01*
G01X56285Y-41734D01*
G01X56301Y-41733D01*
G01X56311Y-41731D01*
G01X56315Y-41730D01*
G01X56329Y-41729D01*
G01X56351Y-41728D01*
G01X56360Y-41726D01*
G01X56367Y-41724D01*
G01X56380Y-41723D01*
G01X56403Y-41722D01*
G01X56411Y-41721D01*
G01X56418Y-41718D01*
G01X56430Y-41717D01*
G01X56449Y-41716D01*
G01X56465Y-41713D01*
G01X56471Y-41712D01*
G01X56488Y-41711D01*
G01X56508D01*
G01Y-41992D01*
G01X56465Y-42018D01*
G01X56451Y-42025D01*
G01X56444Y-42027D01*
G01X56430Y-42030D01*
G01X56417Y-42035D01*
G01X56405Y-42040D01*
G01X56399Y-42042D01*
G01X56394Y-42043D01*
G01X56382Y-42044D01*
G01X56372Y-42045D01*
G01X56359Y-42048D01*
G01X56342Y-42049D01*
G01X56332Y-42051D01*
G01X56323Y-42053D01*
G01X56316Y-42054D01*
G01X56299Y-42055D01*
G01X56290Y-42054D01*
G01X56281D01*
G01X56279Y-42053D01*
G01X56277Y-42052D01*
G01X56276D01*
G01X56274Y-42051D01*
G01X56269Y-42050D01*
G01X56263Y-42049D01*
G01X56244D01*
G01X56232Y-42047D01*
G01X56225Y-42045D01*
G01X56210Y-42038D01*
G01X56193Y-42033D01*
G01X56189Y-42031D01*
G01X56185Y-42029D01*
G01X56179Y-42023D01*
G01X56168Y-42015D01*
G01X56163Y-42011D01*
G01X56159Y-42007D01*
G01X56155Y-42001D01*
G01X56150Y-41994D01*
G01X56135Y-41969D01*
G01X56132Y-41963D01*
G01X56130Y-41954D01*
G01X56127Y-41937D01*
G01X56124Y-41916D01*
G01X56122Y-41904D01*
G01X56121Y-41899D01*
G01X56120Y-41894D01*
G01X55971D01*
G01X55970Y-41903D01*
G01Y-41920D01*
G01X55971Y-41932D01*
G01X55974Y-41942D01*
G01X55976Y-41952D01*
G01X55977Y-41968D01*
G01X55979Y-41978D01*
G01X55987Y-42000D01*
G01X55998Y-42029D01*
G01X56004Y-42041D01*
G01X56007Y-42046D01*
G01X56013Y-42052D01*
G01X56022Y-42063D01*
G01X56025Y-42067D01*
G01X56032Y-42076D01*
G01X56042Y-42086D01*
G01X56053Y-42095D01*
G01X56061Y-42101D01*
G01X56067Y-42109D01*
G01X56071Y-42113D01*
G01X56075Y-42116D01*
G01X56079Y-42119D01*
G01X56090Y-42122D01*
G01X56100Y-42126D01*
G01X56115Y-42135D01*
G01X56127Y-42141D01*
G01X56143Y-42146D01*
G01X56162Y-42152D01*
G01X56190Y-42160D01*
G01X56193Y-42161D01*
G01X56205Y-42162D01*
G01X56262Y-42163D01*
G01X56316Y-42162D01*
G01X56331Y-42161D01*
G01X56338Y-42159D01*
G01X56351Y-42156D01*
G01X56368Y-42153D01*
G01X56375Y-42151D01*
G01X56382Y-42149D01*
G01X56399Y-42141D01*
G01X56416Y-42136D01*
G01X56427Y-42132D01*
G01X56440Y-42123D01*
G01X56457Y-42114D01*
G01X56463Y-42111D01*
G01X56477Y-42100D01*
G01X56484Y-42095D01*
G01X56489Y-42090D01*
G01X56495Y-42083D01*
G01X56500Y-42077D01*
G01X56504Y-42073D01*
G01X56508Y-42071D01*
G01X56514Y-42069D01*
G01X56519Y-42068D01*
G01X56523Y-42070D01*
G01X56525Y-42073D01*
G01Y-42078D01*
G01X56526Y-42088D01*
G01X56530Y-42103D01*
G01X56532Y-42117D01*
G01X56537Y-42146D01*
G01X56657D01*
G01Y-41811D01*
G01X56655Y-41475D01*
G01X56654Y-41469D01*
G01Y-41468D01*
G01X56653Y-41462D01*
G01X56652Y-41455D01*
G01X56651Y-41433D01*
G01Y-41417D01*
G01X56650Y-41405D01*
G01X56646Y-41389D01*
G01X56641Y-41369D01*
G01X56637Y-41356D01*
G01X56634Y-41350D01*
G01X56623Y-41327D01*
G01X56618Y-41319D01*
G01X56613Y-41311D01*
G01X56591Y-41281D01*
G01X56584Y-41273D01*
G01X56560Y-41256D01*
G01X56548Y-41248D01*
G01X56534Y-41239D01*
G01X56527Y-41235D01*
G01X56519Y-41231D01*
G01X56511Y-41227D01*
G01X56502Y-41224D01*
G01X56468Y-41213D01*
G01X56459Y-41210D01*
G01X56449Y-41208D01*
G01X56432Y-41205D01*
G01X56393Y-41200D01*
G01X56381Y-41198D01*
G01X56369Y-41197D01*
G37*
G36*
G01X46362Y-41196D02*
G01X46320Y-41197D01*
G01X46305Y-41198D01*
G01X46298Y-41200D01*
G01X46288Y-41201D01*
G01X46272Y-41202D01*
G01X46257Y-41206D01*
G01X46241Y-41208D01*
G01X46211Y-41213D01*
G01X46199Y-41216D01*
G01X46139Y-41236D01*
G01X46131Y-41239D01*
G01X46122Y-41243D01*
G01X46118Y-41246D01*
G01X46116Y-41248D01*
G01X46115Y-41250D01*
G01X46114Y-41253D01*
G01X46113Y-41257D01*
G01X46111Y-41270D01*
G01Y-41299D01*
G01Y-41315D01*
G01X46112Y-41323D01*
G01X46113Y-41333D01*
G01X46115Y-41338D01*
G01X46116Y-41340D01*
G01X46117Y-41342D01*
G01X46118Y-41343D01*
G01X46119Y-41344D01*
G01X46120Y-41345D01*
G01X46122D01*
G01X46132Y-41344D01*
G01X46152Y-41339D01*
G01X46165Y-41336D01*
G01X46199Y-41330D01*
G01X46239Y-41325D01*
G01X46256Y-41323D01*
G01X46283Y-41322D01*
G01X46314Y-41321D01*
G01X46327Y-41320D01*
G01X46331Y-41319D01*
G01X46336Y-41318D01*
G01X46347D01*
G01X46362Y-41320D01*
G01X46377Y-41321D01*
G01X46415Y-41322D01*
G01X46425Y-41323D01*
G01X46433Y-41324D01*
G01X46444Y-41327D01*
G01X46464Y-41332D01*
G01X46477Y-41336D01*
G01X46483Y-41339D01*
G01X46498Y-41347D01*
G01X46508Y-41353D01*
G01X46515Y-41358D01*
G01X46523Y-41364D01*
G01X46527Y-41368D01*
G01X46540Y-41388D01*
G01X46546Y-41398D01*
G01X46551Y-41413D01*
G01X46555Y-41427D01*
G01X46558Y-41441D01*
G01X46560Y-41451D01*
G01X46561Y-41460D01*
G01X46562Y-41493D01*
G01X46563Y-41537D01*
G01X46562Y-41562D01*
G01X46561Y-41577D01*
G01X46559Y-41590D01*
G01X46557Y-41596D01*
G01X46555Y-41600D01*
G01X46554Y-41601D01*
G01X46553Y-41602D01*
G01X46552D01*
G01X46546Y-41603D01*
G01X46536Y-41604D01*
G01X46526Y-41606D01*
G01X46513Y-41608D01*
G01X46491Y-41609D01*
G01X46482Y-41610D01*
G01X46475Y-41612D01*
G01X46464Y-41614D01*
G01X46444D01*
G01X46436Y-41616D01*
G01X46429Y-41618D01*
G01X46418Y-41619D01*
G01X46398Y-41620D01*
G01X46391Y-41622D01*
G01X46383Y-41623D01*
G01X46370Y-41625D01*
G01X46347Y-41626D01*
G01X46339Y-41628D01*
G01X46332Y-41630D01*
G01X46320Y-41631D01*
G01X46301Y-41632D01*
G01X46293Y-41633D01*
G01X46286Y-41635D01*
G01X46272Y-41638D01*
G01X46245Y-41642D01*
G01X46234Y-41645D01*
G01X46208Y-41654D01*
G01X46192Y-41660D01*
G01X46163Y-41672D01*
G01X46147Y-41680D01*
G01X46139Y-41684D01*
G01X46135Y-41687D01*
G01X46123Y-41697D01*
G01X46115Y-41703D01*
G01X46108Y-41710D01*
G01X46098Y-41722D01*
G01X46090Y-41728D01*
G01X46086Y-41732D01*
G01X46082Y-41736D01*
G01X46078Y-41742D01*
G01X46073Y-41748D01*
G01X46053Y-41781D01*
G01X46048Y-41794D01*
G01X46042Y-41810D01*
G01X46036Y-41829D01*
G01X46032Y-41842D01*
G01X46031Y-41850D01*
G01X46030Y-41865D01*
G01X46029Y-41875D01*
G01X46026Y-41885D01*
G01X46025Y-41892D01*
G01X46175D01*
G01Y-41884D01*
G01X46176Y-41874D01*
G01X46182Y-41840D01*
G01X46184Y-41833D01*
G01X46187Y-41824D01*
G01X46189Y-41819D01*
G01X46197Y-41808D01*
G01X46205Y-41792D01*
G01X46209Y-41787D01*
G01X46212Y-41783D01*
G01X46237Y-41766D01*
G01X46243Y-41761D01*
G01X46249Y-41758D01*
G01X46257Y-41754D01*
G01X46265Y-41751D01*
G01X46281Y-41746D01*
G01X46325Y-41737D01*
G01X46342Y-41734D01*
G01X46365Y-41731D01*
G01X46468Y-41719D01*
G01X46514Y-41714D01*
G01X46533Y-41712D01*
G01X46563Y-41711D01*
G01Y-41852D01*
G01X46561Y-41940D01*
G01X46559Y-41968D01*
G01X46557Y-41981D01*
G01X46556Y-41990D01*
G01X46554Y-41993D01*
G01X46553Y-41996D01*
G01X46552Y-41997D01*
G01X46543Y-42002D01*
G01X46534Y-42008D01*
G01X46523Y-42016D01*
G01X46514Y-42020D01*
G01X46508Y-42022D01*
G01X46494Y-42027D01*
G01X46479Y-42033D01*
G01X46473Y-42035D01*
G01X46465Y-42038D01*
G01X46434Y-42043D01*
G01X46418Y-42047D01*
G01X46408Y-42049D01*
G01X46392Y-42050D01*
G01X46382Y-42052D01*
G01X46377Y-42053D01*
G01X46371Y-42054D01*
G01X46354Y-42055D01*
G01X46345Y-42054D01*
G01X46335D01*
G01X46333Y-42053D01*
G01X46332Y-42052D01*
G01X46331D01*
G01X46329Y-42051D01*
G01X46324Y-42050D01*
G01X46317Y-42049D01*
G01X46299D01*
G01X46286Y-42047D01*
G01X46279Y-42045D01*
G01X46265Y-42038D01*
G01X46248Y-42033D01*
G01X46244Y-42031D01*
G01X46240Y-42029D01*
G01X46234Y-42023D01*
G01X46222Y-42015D01*
G01X46214Y-42008D01*
G01X46208Y-42000D01*
G01X46197Y-41983D01*
G01X46190Y-41972D01*
G01X46185Y-41957D01*
G01X46182Y-41949D01*
G01X46181Y-41941D01*
G01X46180Y-41933D01*
G01X46179Y-41919D01*
G01X46178Y-41907D01*
G01X46176Y-41903D01*
G01X46175Y-41898D01*
G01Y-41892D01*
G01X46025D01*
G01Y-41912D01*
G01Y-41927D01*
G01X46026Y-41938D01*
G01X46029Y-41948D01*
G01X46032Y-41962D01*
G01X46035Y-41981D01*
G01X46036Y-41990D01*
G01X46041Y-42000D01*
G01X46049Y-42019D01*
G01X46056Y-42036D01*
G01X46060Y-42043D01*
G01X46065Y-42050D01*
G01X46071Y-42057D01*
G01X46093Y-42086D01*
G01X46102Y-42095D01*
G01X46107Y-42099D01*
G01X46111Y-42103D01*
G01X46117Y-42105D01*
G01X46121Y-42107D01*
G01X46124Y-42109D01*
G01X46131Y-42115D01*
G01X46141Y-42120D01*
G01X46157Y-42127D01*
G01X46169Y-42134D01*
G01X46175Y-42138D01*
G01X46181Y-42141D01*
G01X46197Y-42146D01*
G01X46234Y-42158D01*
G01X46246Y-42160D01*
G01X46259Y-42161D01*
G01X46288Y-42163D01*
G01X46316D01*
G01X46370Y-42162D01*
G01X46385Y-42161D01*
G01X46388Y-42160D01*
G01X46393Y-42159D01*
G01X46406Y-42156D01*
G01X46422Y-42153D01*
G01X46430Y-42151D01*
G01X46436Y-42149D01*
G01X46454Y-42141D01*
G01X46471Y-42136D01*
G01X46481Y-42132D01*
G01X46495Y-42123D01*
G01X46511Y-42114D01*
G01X46518Y-42111D01*
G01X46531Y-42100D01*
G01X46538Y-42095D01*
G01X46543Y-42090D01*
G01X46550Y-42083D01*
G01X46555Y-42077D01*
G01X46559Y-42073D01*
G01X46563Y-42071D01*
G01X46568Y-42069D01*
G01X46573Y-42068D01*
G01X46577Y-42071D01*
G01X46579Y-42075D01*
G01X46580Y-42080D01*
G01X46581Y-42093D01*
G01X46582Y-42101D01*
G01X46584Y-42108D01*
G01X46587Y-42121D01*
G01X46591Y-42146D01*
G01X46706D01*
G01Y-41777D01*
G01X46703Y-41406D01*
G01Y-41400D01*
G01Y-41399D01*
G01X46694Y-41371D01*
G01X46690Y-41357D01*
G01X46686Y-41347D01*
G01X46680Y-41337D01*
G01X46676Y-41329D01*
G01X46673Y-41320D01*
G01X46669Y-41315D01*
G01X46665Y-41309D01*
G01X46646Y-41284D01*
G01X46639Y-41274D01*
G01X46635Y-41270D01*
G01X46629Y-41266D01*
G01X46606Y-41251D01*
G01X46591Y-41240D01*
G01X46585Y-41236D01*
G01X46579Y-41233D01*
G01X46571Y-41230D01*
G01X46544Y-41220D01*
G01X46523Y-41214D01*
G01X46480Y-41204D01*
G01X46463Y-41201D01*
G01X46440Y-41199D01*
G01X46416Y-41197D01*
G37*
G36*
G01X48231Y-41202D02*
G01X48219Y-41203D01*
G01X48210Y-41206D01*
G01X48199Y-41207D01*
G01X48179Y-41208D01*
G01X48171Y-41209D01*
G01X48109Y-41230D01*
G01X48097Y-41234D01*
G01X48085Y-41240D01*
G01X48074Y-41248D01*
G01X48054Y-41258D01*
G01X48046Y-41263D01*
G01X48016Y-41285D01*
G01X48009Y-41292D01*
G01X48002Y-41300D01*
G01X47998Y-41304D01*
G01X47994Y-41308D01*
G01X47986Y-41312D01*
G01X47981Y-41314D01*
G01X47979D01*
G01X47975D01*
G01X47971Y-41313D01*
G01X47969Y-41309D01*
G01X47967Y-41299D01*
G01X47966Y-41283D01*
G01X47965Y-41262D01*
G01Y-41213D01*
G01X47834D01*
G01Y-42146D01*
G01X47977D01*
G01Y-41777D01*
G01X47982Y-41457D01*
G01X47984Y-41423D01*
G01X47986Y-41408D01*
G01X47987Y-41404D01*
G01X47988Y-41403D01*
G01Y-41402D01*
G01X47999Y-41396D01*
G01X48013Y-41388D01*
G01X48019Y-41385D01*
G01X48042Y-41375D01*
G01X48052Y-41369D01*
G01X48059Y-41365D01*
G01X48069Y-41361D01*
G01X48090Y-41355D01*
G01X48120Y-41345D01*
G01X48129Y-41342D01*
G01X48140Y-41340D01*
G01X48157Y-41337D01*
G01X48163Y-41336D01*
G01X48191Y-41333D01*
G01X48216Y-41332D01*
G01X48224Y-41331D01*
G01X48231Y-41329D01*
G01X48236D01*
G01X48242D01*
G01X48256Y-41331D01*
G01X48264Y-41332D01*
G01X48298Y-41333D01*
G01Y-41207D01*
G01X48277D01*
G01X48265Y-41206D01*
G01X48256Y-41203D01*
G01X48244Y-41202D01*
G37*
G36*
G01X52140Y-41213D02*
G01X52140Y-41559D01*
G01X52142Y-41907D01*
G01Y-41914D01*
G01Y-41915D01*
G01X52144Y-41919D01*
G01X52145Y-41932D01*
G01X52146Y-41955D01*
G01X52147Y-41964D01*
G01X52151Y-41976D01*
G01X52155Y-41996D01*
G01X52160Y-42009D01*
G01X52170Y-42030D01*
G01X52177Y-42047D01*
G01X52180Y-42053D01*
G01X52184Y-42057D01*
G01X52188Y-42060D01*
G01X52192Y-42063D01*
G01X52195Y-42067D01*
G01X52198Y-42071D01*
G01X52202Y-42079D01*
G01X52204Y-42083D01*
G01X52207Y-42086D01*
G01X52215Y-42092D01*
G01X52222Y-42099D01*
G01X52228Y-42107D01*
G01X52232Y-42111D01*
G01X52236Y-42113D01*
G01X52244Y-42116D01*
G01X52252Y-42121D01*
G01X52267Y-42129D01*
G01X52300Y-42143D01*
G01X52315Y-42150D01*
G01X52323Y-42152D01*
G01X52350Y-42157D01*
G01X52358Y-42159D01*
G01X52359Y-42160D01*
G01X52360D01*
G01X52365Y-42162D01*
G01X52397Y-42163D01*
G01X52423D01*
G01X52474Y-42162D01*
G01X52489Y-42161D01*
G01X52497Y-42159D01*
G01X52512Y-42156D01*
G01X52534Y-42153D01*
G01X52543Y-42151D01*
G01X52555Y-42148D01*
G01X52570Y-42141D01*
G01X52583Y-42138D01*
G01X52590Y-42136D01*
G01X52599Y-42133D01*
G01X52604Y-42130D01*
G01X52616Y-42123D01*
G01X52639Y-42113D01*
G01X52650Y-42108D01*
G01X52662Y-42100D01*
G01X52682Y-42092D01*
G01X52689Y-42088D01*
G01X52693Y-42085D01*
G01X52698Y-42080D01*
G01X52707Y-42075D01*
G01X52729Y-42063D01*
G01X52732D01*
G01X52734Y-42067D01*
G01X52736Y-42075D01*
G01X52738Y-42086D01*
G01X52742Y-42118D01*
G01X52745Y-42129D01*
G01X52747Y-42136D01*
G01X52748Y-42138D01*
G01X52749Y-42140D01*
G01X52751Y-42141D01*
G01X52753Y-42143D01*
G01X52755D01*
G01X52758Y-42144D01*
G01X52768Y-42145D01*
G01X52805Y-42146D01*
G01X52873D01*
G01Y-41213D01*
G01X52729D01*
G01Y-41969D01*
G01X52715Y-41975D01*
G01X52705Y-41979D01*
G01X52687Y-41989D01*
G01X52681Y-41992D01*
G01X52666Y-41997D01*
G01X52651Y-42003D01*
G01X52632Y-42012D01*
G01X52619Y-42016D01*
G01X52599Y-42020D01*
G01X52560Y-42032D01*
G01X52551Y-42034D01*
G01X52541Y-42036D01*
G01X52532Y-42037D01*
G01X52515Y-42038D01*
G01X52502Y-42039D01*
G01X52497Y-42041D01*
G01X52492Y-42042D01*
G01X52484Y-42043D01*
G01X52460D01*
G01X52441D01*
G01X52432Y-42042D01*
G01X52424Y-42041D01*
G01X52418Y-42039D01*
G01X52408Y-42038D01*
G01X52392Y-42037D01*
G01X52383Y-42034D01*
G01X52360Y-42026D01*
G01X52353Y-42023D01*
G01X52346Y-42019D01*
G01X52339Y-42014D01*
G01X52331Y-42009D01*
G01X52325Y-42003D01*
G01X52317Y-41994D01*
G01X52313Y-41989D01*
G01X52300Y-41963D01*
G01X52297Y-41956D01*
G01X52295Y-41948D01*
G01X52293Y-41938D01*
G01X52291Y-41926D01*
G01X52290Y-41905D01*
G01X52288Y-41556D01*
G01Y-41213D01*
G37*
G36*
G01X49454Y-41471D02*
G01X49454Y-41597D01*
G01X50078D01*
G01Y-41471D01*
G37*
G04 //text: R1.0*
G36*
G01X95014Y-42960D02*
G01X95014Y-43108D01*
G01X95558D01*
G01Y-43231D01*
G01Y-43234D01*
G01X95672D01*
G01X95674Y-43124D01*
G01X95675Y-43113D01*
G01Y-43111D01*
G01X95679Y-43110D01*
G01X95915Y-43108D01*
G01X96153D01*
G01Y-43242D01*
G01X96152Y-43373D01*
G01X96151Y-43384D01*
G01X96150Y-43386D01*
G01X96149Y-43390D01*
G01X96148Y-43400D01*
G01X96147Y-43417D01*
G01X96142Y-43436D01*
G01X96137Y-43456D01*
G01X96134Y-43464D01*
G01X96131Y-43470D01*
G01X96125Y-43480D01*
G01X96120Y-43493D01*
G01X96114Y-43504D01*
G01X96096Y-43529D01*
G01X96092Y-43533D01*
G01X96088Y-43538D01*
G01X96083Y-43542D01*
G01X96076Y-43546D01*
G01X96053Y-43560D01*
G01X96042Y-43566D01*
G01X96027Y-43572D01*
G01X96010Y-43577D01*
G01X95996Y-43580D01*
G01X95978Y-43583D01*
G01X95956Y-43586D01*
G01X95932Y-43588D01*
G01X95901Y-43589D01*
G01X95882D01*
G01X95873Y-43588D01*
G01X95865Y-43586D01*
G01X95859Y-43585D01*
G01X95845Y-43582D01*
G01X95826Y-43579D01*
G01X95817Y-43577D01*
G01X95807Y-43573D01*
G01X95788Y-43565D01*
G01X95771Y-43557D01*
G01X95764Y-43553D01*
G01X95756Y-43549D01*
G01X95749Y-43543D01*
G01X95743Y-43538D01*
G01X95737Y-43533D01*
G01X95731Y-43525D01*
G01X95711Y-43497D01*
G01X95704Y-43484D01*
G01X95701Y-43478D01*
G01X95689Y-43449D01*
G01X95687Y-43441D01*
G01X95684Y-43433D01*
G01X95682Y-43424D01*
G01X95681Y-43415D01*
G01X95675Y-43375D01*
G01X95674Y-43368D01*
G01X95673Y-43320D01*
G01X95672Y-43234D01*
G01X95558D01*
G01X95556Y-43304D01*
G01X95554Y-43328D01*
G01X95553Y-43340D01*
G01X95551Y-43348D01*
G01X95550Y-43353D01*
G01X95548Y-43356D01*
G01X95547Y-43357D01*
G01X95541Y-43359D01*
G01X95536Y-43361D01*
G01X95532Y-43363D01*
G01X95526Y-43368D01*
G01X95516Y-43375D01*
G01X95497Y-43383D01*
G01X95492Y-43386D01*
G01X95486Y-43392D01*
G01X95477Y-43397D01*
G01X95461Y-43406D01*
G01X95443Y-43417D01*
G01X95421Y-43429D01*
G01X95402Y-43440D01*
G01X95381Y-43452D01*
G01X95349Y-43472D01*
G01X95329Y-43483D01*
G01X95312Y-43492D01*
G01X95280Y-43512D01*
G01X95260Y-43523D01*
G01X95243Y-43532D01*
G01X95225Y-43543D01*
G01X95203Y-43555D01*
G01X95171Y-43575D01*
G01X95151Y-43586D01*
G01X95135Y-43595D01*
G01X95116Y-43606D01*
G01X95095Y-43618D01*
G01X95063Y-43638D01*
G01X95043Y-43649D01*
G01X95031Y-43655D01*
G01X95026Y-43659D01*
G01X95022Y-43662D01*
G01X95019Y-43667D01*
G01X95018Y-43670D01*
G01X95017Y-43675D01*
G01X95015Y-43692D01*
G01X95014Y-43753D01*
G01Y-43830D01*
G01X95035Y-43821D01*
G01X95043Y-43817D01*
G01X95046Y-43814D01*
G01X95051Y-43809D01*
G01X95060Y-43804D01*
G01X95076Y-43795D01*
G01X95095Y-43784D01*
G01X95116Y-43772D01*
G01X95148Y-43753D01*
G01X95177Y-43735D01*
G01X95197Y-43724D01*
G01X95213Y-43715D01*
G01X95245Y-43695D01*
G01X95274Y-43678D01*
G01X95294Y-43667D01*
G01X95311Y-43658D01*
G01X95343Y-43638D01*
G01X95400Y-43604D01*
G01X95420Y-43592D01*
G01X95437Y-43583D01*
G01X95469Y-43564D01*
G01X95497Y-43546D01*
G01X95517Y-43535D01*
G01X95534Y-43526D01*
G01X95566Y-43506D01*
G01X95573Y-43503D01*
G01X95579Y-43501D01*
G01X95584Y-43500D01*
G01X95589Y-43501D01*
G01X95593Y-43503D01*
G01X95596Y-43506D01*
G01X95599Y-43511D01*
G01X95602Y-43524D01*
G01X95607Y-43538D01*
G01X95616Y-43559D01*
G01X95625Y-43579D01*
G01X95630Y-43590D01*
G01X95644Y-43609D01*
G01X95655Y-43626D01*
G01X95666Y-43639D01*
G01X95672Y-43644D01*
G01X95679Y-43650D01*
G01X95685Y-43655D01*
G01X95692Y-43662D01*
G01X95699Y-43671D01*
G01X95703Y-43675D01*
G01X95709Y-43679D01*
G01X95715Y-43683D01*
G01X95748Y-43704D01*
G01X95781Y-43718D01*
G01X95793Y-43724D01*
G01X95805Y-43728D01*
G01X95833Y-43734D01*
G01X95852Y-43739D01*
G01X95859Y-43740D01*
G01X95872Y-43742D01*
G01X95899Y-43743D01*
G01X95927Y-43744D01*
G01X95978Y-43743D01*
G01X95993Y-43741D01*
G01X96001Y-43739D01*
G01X96015Y-43737D01*
G01X96034Y-43734D01*
G01X96042Y-43732D01*
G01X96053Y-43728D01*
G01X96065Y-43722D01*
G01X96085Y-43715D01*
G01X96093Y-43712D01*
G01X96100Y-43709D01*
G01X96107Y-43705D01*
G01X96125Y-43692D01*
G01X96146Y-43679D01*
G01X96153Y-43673D01*
G01X96157Y-43669D01*
G01X96162Y-43662D01*
G01X96169Y-43655D01*
G01X96181Y-43646D01*
G01X96187Y-43638D01*
G01X96211Y-43606D01*
G01X96219Y-43592D01*
G01X96225Y-43581D01*
G01X96230Y-43571D01*
G01X96233Y-43564D01*
G01X96245Y-43535D01*
G01X96250Y-43519D01*
G01X96256Y-43501D01*
G01X96260Y-43485D01*
G01X96263Y-43471D01*
G01X96271Y-43426D01*
G01X96272Y-43415D01*
G01X96273Y-43405D01*
G01X96274Y-43384D01*
G01X96276Y-43377D01*
G01Y-43375D01*
G01X96277Y-43369D01*
G01X96279Y-43210D01*
G01Y-42960D01*
G37*
G36*
G01X96079Y-43996D02*
G01X96079Y-44017D01*
G01X96080Y-44028D01*
G01X96090Y-44061D01*
G01X96094Y-44077D01*
G01X96097Y-44091D01*
G01X96101Y-44119D01*
G01X96104Y-44130D01*
G01X96113Y-44159D01*
G01X96117Y-44174D01*
G01X96120Y-44190D01*
G01X96122Y-44202D01*
G01X96124Y-44224D01*
G01X95566D01*
G01X95010Y-44227D01*
G01X95006D01*
G01X95005D01*
G01X95004Y-44233D01*
G01X95003Y-44269D01*
G01X95002Y-44299D01*
G01Y-44368D01*
G01X96296D01*
G01Y-44325D01*
G01X96295Y-44301D01*
G01Y-44290D01*
G01X96293Y-44280D01*
G01X96292Y-44276D01*
G01X96291Y-44275D01*
G01X96285Y-44264D01*
G01X96271Y-44231D01*
G01X96260Y-44209D01*
G01X96252Y-44189D01*
G01X96246Y-44178D01*
G01X96239Y-44166D01*
G01X96233Y-44153D01*
G01X96222Y-44124D01*
G01X96218Y-44115D01*
G01X96212Y-44104D01*
G01X96205Y-44091D01*
G01X96195Y-44069D01*
G01X96189Y-44058D01*
G01X96185Y-44051D01*
G01X96181Y-44041D01*
G01X96175Y-44025D01*
G01X96170Y-44016D01*
G01X96162Y-44004D01*
G01X96159Y-44001D01*
G01X96154Y-43999D01*
G01X96145Y-43997D01*
G01X96132Y-43996D01*
G37*
G36*
G01X94962Y-44643D02*
G01X94962Y-44809D01*
G01X95134D01*
G01Y-44643D01*
G37*
G36*
G01X95641Y-45124D02*
G01X95511Y-45125D01*
G01X95499Y-45126D01*
G01X95498D01*
G01X95492Y-45128D01*
G01X95486Y-45129D01*
G01X95456Y-45130D01*
G01X95445Y-45131D01*
G01X95435Y-45134D01*
G01X95418Y-45136D01*
G01X95385Y-45141D01*
G01X95373Y-45143D01*
G01X95343Y-45152D01*
G01X95306Y-45164D01*
G01X95271Y-45175D01*
G01X95260Y-45179D01*
G01X95248Y-45185D01*
G01X95236Y-45192D01*
G01X95209Y-45204D01*
G01X95203Y-45208D01*
G01X95189Y-45219D01*
G01X95180Y-45224D01*
G01X95164Y-45232D01*
G01X95159Y-45237D01*
G01X95147Y-45247D01*
G01X95138Y-45253D01*
G01X95131Y-45260D01*
G01X95125Y-45268D01*
G01X95120Y-45272D01*
G01X95115Y-45277D01*
G01X95102Y-45285D01*
G01X95097Y-45290D01*
G01X95093Y-45294D01*
G01X95092Y-45296D01*
G01X95089Y-45302D01*
G01X95087Y-45306D01*
G01X95083Y-45310D01*
G01X95076Y-45316D01*
G01X95072Y-45319D01*
G01X95070Y-45323D01*
G01X95066Y-45331D01*
G01X95061Y-45342D01*
G01X95052Y-45353D01*
G01X95045Y-45366D01*
G01X95038Y-45383D01*
G01X95033Y-45393D01*
G01X95028Y-45400D01*
G01X95025Y-45406D01*
G01X95019Y-45421D01*
G01X95008Y-45456D01*
G01X95004Y-45469D01*
G01X95001Y-45483D01*
G01X94997Y-45506D01*
G01X94995Y-45515D01*
G01X94993Y-45519D01*
G01Y-45521D01*
G01X94992Y-45525D01*
G01X94991Y-45539D01*
G01Y-45582D01*
G01X95111D01*
G01Y-45567D01*
G01X95112Y-45561D01*
G01X95113Y-45558D01*
G01Y-45557D01*
G01X95114Y-45556D01*
G01X95115Y-45553D01*
G01X95116Y-45549D01*
G01Y-45542D01*
G01X95117Y-45523D01*
G01X95119Y-45511D01*
G01X95121Y-45505D01*
G01X95128Y-45489D01*
G01X95131Y-45476D01*
G01X95133Y-45469D01*
G01X95136Y-45460D01*
G01X95138Y-45455D01*
G01X95160Y-45420D01*
G01X95167Y-45412D01*
G01X95176Y-45402D01*
G01X95195Y-45387D01*
G01X95201Y-45382D01*
G01X95207Y-45375D01*
G01X95211Y-45369D01*
G01X95215Y-45365D01*
G01X95219Y-45363D01*
G01X95227Y-45360D01*
G01X95236Y-45355D01*
G01X95249Y-45347D01*
G01X95260Y-45341D01*
G01X95275Y-45334D01*
G01X95286Y-45330D01*
G01X95315Y-45318D01*
G01X95322Y-45316D01*
G01X95329Y-45313D01*
G01X95337Y-45311D01*
G01X95361Y-45307D01*
G01X95382Y-45301D01*
G01X95394Y-45298D01*
G01X95429Y-45292D01*
G01X95475Y-45287D01*
G01X95489Y-45286D01*
G01X95667Y-45284D01*
G01X95830Y-45286D01*
G01X95840Y-45287D01*
G01X95846Y-45288D01*
G01X95857Y-45289D01*
G01X95877Y-45290D01*
G01X95884Y-45292D01*
G01X95892Y-45294D01*
G01X95906Y-45297D01*
G01X95933Y-45301D01*
G01X95944Y-45304D01*
G01X95970Y-45313D01*
G01X95998Y-45323D01*
G01X96021Y-45332D01*
G01X96027Y-45335D01*
G01X96042Y-45344D01*
G01X96053Y-45350D01*
G01X96064Y-45357D01*
G01X96082Y-45370D01*
G01X96088Y-45376D01*
G01X96094Y-45381D01*
G01X96100Y-45388D01*
G01X96104Y-45394D01*
G01X96112Y-45401D01*
G01X96120Y-45408D01*
G01X96124Y-45411D01*
G01X96127Y-45416D01*
G01X96136Y-45432D01*
G01X96145Y-45446D01*
G01X96148Y-45452D01*
G01X96153Y-45467D01*
G01X96162Y-45493D01*
G01X96164Y-45503D01*
G01X96167Y-45516D01*
G01X96173Y-45550D01*
G01X96175Y-45567D01*
G01X96176Y-45594D01*
G01Y-45602D01*
G01Y-45625D01*
G01X96174Y-45638D01*
G01X96172Y-45647D01*
G01X96169Y-45660D01*
G01X96166Y-45676D01*
G01X96164Y-45683D01*
G01X96161Y-45690D01*
G01X96152Y-45711D01*
G01X96145Y-45729D01*
G01X96140Y-45736D01*
G01X96137Y-45740D01*
G01X96127Y-45752D01*
G01X96121Y-45761D01*
G01X96114Y-45768D01*
G01X96102Y-45777D01*
G01X96093Y-45789D01*
G01X96086Y-45796D01*
G01X96082Y-45799D01*
G01X96064Y-45811D01*
G01X96041Y-45825D01*
G01X96034Y-45829D01*
G01X96026Y-45833D01*
G01X96019Y-45836D01*
G01X95994Y-45845D01*
G01X95975Y-45854D01*
G01X95961Y-45858D01*
G01X95938Y-45862D01*
G01X95922Y-45866D01*
G01X95908Y-45869D01*
G01X95881Y-45873D01*
G01X95865Y-45878D01*
G01X95854Y-45879D01*
G01X95834Y-45880D01*
G01X95826Y-45882D01*
G01X95821Y-45883D01*
G01X95811Y-45884D01*
G01X95776Y-45885D01*
G01X95764D01*
G01X95721Y-45886D01*
G01X95707Y-45887D01*
G01X95704Y-45888D01*
G01X95701Y-45889D01*
G01X95689Y-45890D01*
G01X95632Y-45891D01*
G01X95579Y-45890D01*
G01X95563Y-45889D01*
G01X95560Y-45888D01*
G01X95558Y-45887D01*
G01X95548Y-45886D01*
G01X95513Y-45885D01*
G01X95500D01*
G01X95458Y-45884D01*
G01X95443Y-45883D01*
G01X95435Y-45881D01*
G01X95424Y-45880D01*
G01X95404Y-45878D01*
G01X95397Y-45877D01*
G01X95390Y-45875D01*
G01X95375Y-45872D01*
G01X95349Y-45868D01*
G01X95337Y-45865D01*
G01X95311Y-45857D01*
G01X95284Y-45846D01*
G01X95270Y-45841D01*
G01X95259Y-45835D01*
G01X95247Y-45828D01*
G01X95228Y-45819D01*
G01X95222Y-45816D01*
G01X95217Y-45812D01*
G01X95214Y-45808D01*
G01X95211Y-45804D01*
G01X95208Y-45801D01*
G01X95204Y-45798D01*
G01X95196Y-45795D01*
G01X95192Y-45792D01*
G01X95189Y-45789D01*
G01X95182Y-45781D01*
G01X95175Y-45774D01*
G01X95167Y-45768D01*
G01X95164Y-45764D01*
G01X95162Y-45761D01*
G01X95158Y-45752D01*
G01X95154Y-45743D01*
G01X95145Y-45730D01*
G01X95140Y-45719D01*
G01X95135Y-45710D01*
G01X95128Y-45691D01*
G01X95125Y-45677D01*
G01X95121Y-45663D01*
G01X95113Y-45611D01*
G01X95111Y-45598D01*
G01Y-45582D01*
G01X94991D01*
G01Y-45587D01*
G01X94992Y-45641D01*
G01X94993Y-45656D01*
G01X94995Y-45664D01*
G01X94998Y-45678D01*
G01X95002Y-45705D01*
G01X95005Y-45716D01*
G01X95014Y-45739D01*
G01X95025Y-45768D01*
G01X95030Y-45778D01*
G01X95035Y-45789D01*
G01X95042Y-45800D01*
G01X95053Y-45819D01*
G01X95058Y-45828D01*
G01X95080Y-45858D01*
G01X95087Y-45865D01*
G01X95099Y-45874D01*
G01X95108Y-45886D01*
G01X95115Y-45894D01*
G01X95128Y-45903D01*
G01X95134Y-45911D01*
G01X95140Y-45918D01*
G01X95144Y-45921D01*
G01X95152Y-45924D01*
G01X95156Y-45926D01*
G01X95160Y-45928D01*
G01X95166Y-45934D01*
G01X95174Y-45939D01*
G01X95191Y-45948D01*
G01X95204Y-45957D01*
G01X95210Y-45960D01*
G01X95233Y-45969D01*
G01X95243Y-45976D01*
G01X95250Y-45980D01*
G01X95260Y-45984D01*
G01X95277Y-45989D01*
G01X95295Y-45996D01*
G01X95301Y-45999D01*
G01X95309Y-46001D01*
G01X95332Y-46005D01*
G01X95371Y-46017D01*
G01X95386Y-46020D01*
G01X95393Y-46022D01*
G01X95408Y-46023D01*
G01X95419Y-46024D01*
G01X95428Y-46027D01*
G01X95446Y-46030D01*
G01X95457Y-46031D01*
G01X95485Y-46033D01*
G01X95511Y-46034D01*
G01X95518Y-46036D01*
G01X95520Y-46037D01*
G01X95524D01*
G01X95559Y-46039D01*
G01X95658Y-46040D01*
G01X95782Y-46038D01*
G01X95794Y-46037D01*
G01X95801Y-46035D01*
G01X95807Y-46034D01*
G01X95842Y-46033D01*
G01X95853Y-46032D01*
G01X95864Y-46030D01*
G01X95881Y-46027D01*
G01X95914Y-46023D01*
G01X95926Y-46020D01*
G01X95956Y-46011D01*
G01X95983Y-46004D01*
G01X95997Y-46001D01*
G01X96010Y-45996D01*
G01X96025Y-45990D01*
G01X96045Y-45983D01*
G01X96056Y-45978D01*
G01X96068Y-45972D01*
G01X96080Y-45965D01*
G01X96101Y-45954D01*
G01X96133Y-45934D01*
G01X96140Y-45929D01*
G01X96148Y-45923D01*
G01X96152Y-45919D01*
G01X96156Y-45913D01*
G01X96159Y-45909D01*
G01X96163Y-45907D01*
G01X96172Y-45903D01*
G01X96175Y-45901D01*
G01X96179Y-45898D01*
G01X96185Y-45890D01*
G01X96192Y-45883D01*
G01X96200Y-45876D01*
G01X96203Y-45873D01*
G01X96206Y-45869D01*
G01X96209Y-45861D01*
G01X96212Y-45857D01*
G01X96215Y-45854D01*
G01X96223Y-45848D01*
G01X96226Y-45843D01*
G01X96228Y-45839D01*
G01X96232Y-45828D01*
G01X96234Y-45824D01*
G01X96237Y-45820D01*
G01X96242Y-45813D01*
G01X96248Y-45803D01*
G01X96255Y-45787D01*
G01X96260Y-45776D01*
G01X96264Y-45769D01*
G01X96267Y-45764D01*
G01X96269Y-45758D01*
G01X96272Y-45743D01*
G01X96276Y-45731D01*
G01X96282Y-45718D01*
G01X96284Y-45710D01*
G01X96286Y-45700D01*
G01X96290Y-45666D01*
G01X96293Y-45654D01*
G01X96294Y-45650D01*
G01X96295Y-45639D01*
G01X96296Y-45579D01*
G01X96295Y-45521D01*
G01X96294Y-45507D01*
G01X96293Y-45505D01*
G01X96292Y-45500D01*
G01X96289Y-45485D01*
G01X96286Y-45466D01*
G01X96284Y-45458D01*
G01X96280Y-45447D01*
G01X96274Y-45432D01*
G01X96271Y-45418D01*
G01X96269Y-45412D01*
G01X96266Y-45403D01*
G01X96263Y-45398D01*
G01X96256Y-45386D01*
G01X96244Y-45359D01*
G01X96240Y-45353D01*
G01X96227Y-45335D01*
G01X96215Y-45315D01*
G01X96208Y-45306D01*
G01X96204Y-45302D01*
G01X96198Y-45298D01*
G01X96190Y-45291D01*
G01X96181Y-45279D01*
G01X96169Y-45269D01*
G01X96162Y-45262D01*
G01X96155Y-45254D01*
G01X96151Y-45250D01*
G01X96146Y-45245D01*
G01X96122Y-45230D01*
G01X96101Y-45215D01*
G01X96087Y-45206D01*
G01X96066Y-45195D01*
G01X96039Y-45184D01*
G01X96022Y-45176D01*
G01X96004Y-45171D01*
G01X95993Y-45166D01*
G01X95981Y-45161D01*
G01X95974Y-45159D01*
G01X95967Y-45157D01*
G01X95943Y-45152D01*
G01X95928Y-45148D01*
G01X95913Y-45145D01*
G01X95887Y-45141D01*
G01X95870Y-45136D01*
G01X95853Y-45134D01*
G01X95841Y-45132D01*
G01X95812Y-45130D01*
G01X95793Y-45129D01*
G01X95784Y-45127D01*
G01X95780Y-45126D01*
G01X95744Y-45124D01*
G37*
G04 //text: G*
G01X82325Y-38434D02*
G01X82292Y-38371D01*
G01X82229Y-38307D01*
G01X82165Y-38274D01*
G01X82038D01*
G01X81975Y-38307D01*
G01X81911Y-38371D01*
G01X81878Y-38434D01*
G01X81845Y-38531D01*
G01Y-38688D01*
G01X81878Y-38785D01*
G01X81911Y-38848D01*
G01X81975Y-38912D01*
G01X82038Y-38945D01*
G01X82165D01*
G01X82229Y-38912D01*
G01X82292Y-38848D01*
G01X82325Y-38785D01*
G01Y-38688D01*
G01X82165Y-38688D02*
G01X82325Y-38688D01*
G04 //text: 3*
G01X81911Y-37004D02*
G01X82262Y-37004D01*
G01X82069Y-37261D01*
G01X82165D01*
G01X82229Y-37291D01*
G01X82262Y-37324D01*
G01X82292Y-37418D01*
G01Y-37482D01*
G01X82262Y-37578D01*
G01X82196Y-37642D01*
G01X82102Y-37675D01*
G01X82005D01*
G01X81911Y-37642D01*
G01X81878Y-37612D01*
G01X81845Y-37548D01*
G04 //text: RB*
G01X81877Y-35720D02*
G01X81877Y-36391D01*
G01X81877Y-35720D02*
G01X82164Y-35720D01*
G01X82260Y-35753D01*
G01X82293Y-35784D01*
G01X82324Y-35847D01*
G01Y-35911D01*
G01X82293Y-35977D01*
G01X82260Y-36007D01*
G01X82164Y-36040D01*
G01X81877D01*
G01X82100Y-36040D02*
G01X82324Y-36391D01*
G01X82657Y-35720D02*
G01X82657Y-36391D01*
G01X82657Y-35720D02*
G01X82944Y-35720D01*
G01X83040Y-35753D01*
G01X83071Y-35784D01*
G01X83104Y-35847D01*
G01Y-35911D01*
G01X83071Y-35977D01*
G01X83040Y-36007D01*
G01X82944Y-36040D01*
G01X82657Y-36040D02*
G01X82944Y-36040D01*
G01X83040Y-36071D01*
G01X83071Y-36104D01*
G01X83104Y-36167D01*
G01Y-36264D01*
G01X83071Y-36327D01*
G01X83040Y-36358D01*
G01X82944Y-36391D01*
G01X82657D01*
G04 //text: RA*
G01X81877Y-34450D02*
G01X81877Y-35121D01*
G01X81877Y-34450D02*
G01X82164Y-34450D01*
G01X82260Y-34483D01*
G01X82293Y-34514D01*
G01X82324Y-34577D01*
G01Y-34641D01*
G01X82293Y-34707D01*
G01X82260Y-34737D01*
G01X82164Y-34770D01*
G01X81877D01*
G01X82100Y-34770D02*
G01X82324Y-35121D01*
G01X82913Y-34450D02*
G01X82657Y-35121D01*
G01X82913Y-34450D02*
G01X83167Y-35121D01*
G01X82753Y-34897D02*
G01X83071Y-34897D01*
G04 //text: TB*
G01X82067Y-33218D02*
G01X82067Y-33888D01*
G01X81843Y-33218D02*
G01X82291Y-33218D01*
G01X82623Y-33218D02*
G01X82623Y-33888D01*
G01X82623Y-33218D02*
G01X82910Y-33218D01*
G01X83007Y-33251D01*
G01X83037Y-33281D01*
G01X83070Y-33345D01*
G01Y-33408D01*
G01X83037Y-33474D01*
G01X83007Y-33505D01*
G01X82910Y-33538D01*
G01X82623Y-33538D02*
G01X82910Y-33538D01*
G01X83007Y-33568D01*
G01X83037Y-33601D01*
G01X83070Y-33665D01*
G01Y-33761D01*
G01X83037Y-33825D01*
G01X83007Y-33855D01*
G01X82910Y-33888D01*
G01X82623D01*
G04 //text: TA*
G01X82001Y-32080D02*
G01X82001Y-32750D01*
G01X81777Y-32080D02*
G01X82224Y-32080D01*
G01X82814Y-32080D02*
G01X82557Y-32750D01*
G01X82814Y-32080D02*
G01X83068Y-32750D01*
G01X82654Y-32527D02*
G01X82971Y-32527D01*
G04 //text: SUB*
G54D10*
G01X77472Y-46079D02*
G01X77360Y-46191D01*
G01X77304Y-46359D01*
G01Y-46582D01*
G01X77360Y-46752D01*
G01X77472Y-46864D01*
G01X77586D01*
G01X77698Y-46808D01*
G01X77754Y-46752D01*
G01X77810Y-46641D01*
G01X77921Y-46303D01*
G01X77977Y-46191D01*
G01X78033Y-46135D01*
G01X78147Y-46079D01*
G01X78315D01*
G01X78427Y-46191D01*
G01X78483Y-46359D01*
G01Y-46582D01*
G01X78427Y-46752D01*
G01X78315Y-46864D01*
G01X77304Y-45604D02*
G01X78147Y-45604D01*
G01X78315Y-45548D01*
G01X78427Y-45437D01*
G01X78483Y-45269D01*
G01Y-45157D01*
G01X78427Y-44987D01*
G01X78315Y-44875D01*
G01X78147Y-44820D01*
G01X77304D01*
G01X77304Y-44347D02*
G01X78483Y-44347D01*
G01X77304Y-44347D02*
G01X77304Y-43842D01*
G01X77360Y-43674D01*
G01X77416Y-43616D01*
G01X77528Y-43560D01*
G01X77642D01*
G01X77754Y-43616D01*
G01X77810Y-43674D01*
G01X77865Y-43842D01*
G01X77865Y-44347D02*
G01X77865Y-43842D01*
G01X77921Y-43674D01*
G01X77977Y-43616D01*
G01X78092Y-43560D01*
G01X78259D01*
G01X78371Y-43616D01*
G01X78427Y-43674D01*
G01X78483Y-43842D01*
G01Y-44347D01*
G04 //text: SWD*
G01X95294Y-47353D02*
G01X95182Y-47241D01*
G01X95014Y-47186D01*
G01X94791D01*
G01X94621Y-47241D01*
G01X94509Y-47353D01*
G01Y-47467D01*
G01X94565Y-47579D01*
G01X94621Y-47635D01*
G01X94732Y-47691D01*
G01X95070Y-47803D01*
G01X95182Y-47859D01*
G01X95238Y-47915D01*
G01X95294Y-48029D01*
G01Y-48196D01*
G01X95182Y-48308D01*
G01X95014Y-48364D01*
G01X94791D01*
G01X94621Y-48308D01*
G01X94509Y-48196D01*
G01X95769Y-47186D02*
G01X96048Y-48364D01*
G01X96330Y-47186D02*
G01X96048Y-48364D01*
G01X96330Y-47186D02*
G01X96609Y-48364D01*
G01X96891Y-47186D02*
G01X96609Y-48364D01*
G01X97364Y-47186D02*
G01X97364Y-48364D01*
G01X97364Y-47186D02*
G01X97758Y-47186D01*
G01X97925Y-47241D01*
G01X98037Y-47353D01*
G01X98093Y-47467D01*
G01X98149Y-47635D01*
G01Y-47915D01*
G01X98093Y-48085D01*
G01X98037Y-48196D01*
G01X97925Y-48308D01*
G01X97758Y-48364D01*
G01X97364D01*
G04 //text: CLK*
G54D11*
G01X92263Y-46421D02*
G01X92230Y-46358D01*
G01X92166Y-46294D01*
G01X92103Y-46261D01*
G01X91976D01*
G01X91912Y-46294D01*
G01X91849Y-46358D01*
G01X91816Y-46421D01*
G01X91783Y-46518D01*
G01Y-46675D01*
G01X91816Y-46772D01*
G01X91849Y-46835D01*
G01X91912Y-46899D01*
G01X91976Y-46932D01*
G01X92103D01*
G01X92166Y-46899D01*
G01X92230Y-46835D01*
G01X92263Y-46772D01*
G01X92596Y-46261D02*
G01X92596Y-46932D01*
G01X92596Y-46932D02*
G01X92977Y-46932D01*
G01X93309Y-46261D02*
G01X93309Y-46932D01*
G01X93756Y-46261D02*
G01X93309Y-46708D01*
G01X93469Y-46548D02*
G01X93756Y-46932D01*
G04 //text: SDO*
G01X92297Y-47720D02*
G01X92233Y-47656D01*
G01X92137Y-47623D01*
G01X92010D01*
G01X91916Y-47656D01*
G01X91850Y-47720D01*
G01Y-47783D01*
G01X91883Y-47847D01*
G01X91916Y-47880D01*
G01X91979Y-47910D01*
G01X92170Y-47974D01*
G01X92233Y-48007D01*
G01X92266Y-48037D01*
G01X92297Y-48101D01*
G01Y-48197D01*
G01X92233Y-48261D01*
G01X92137Y-48294D01*
G01X92010D01*
G01X91916Y-48261D01*
G01X91850Y-48197D01*
G01X92629Y-47623D02*
G01X92629Y-48294D01*
G01X92629Y-47623D02*
G01X92853Y-47623D01*
G01X92949Y-47656D01*
G01X93013Y-47720D01*
G01X93043Y-47783D01*
G01X93076Y-47880D01*
G01Y-48037D01*
G01X93043Y-48134D01*
G01X93013Y-48197D01*
G01X92949Y-48261D01*
G01X92853Y-48294D01*
G01X92629D01*
G01X93600Y-47623D02*
G01X93536Y-47656D01*
G01X93473Y-47720D01*
G01X93442Y-47783D01*
G01X93409Y-47880D01*
G01Y-48037D01*
G01X93442Y-48134D01*
G01X93473Y-48197D01*
G01X93536Y-48261D01*
G01X93600Y-48294D01*
G01X93729D01*
G01X93793Y-48261D01*
G01X93856Y-48197D01*
G01X93887Y-48134D01*
G01X93920Y-48037D01*
G01Y-47880D01*
G01X93887Y-47783D01*
G01X93856Y-47720D01*
G01X93793Y-47656D01*
G01X93729Y-47623D01*
G01X93600D01*
G04 //text: 3V3*
G01X91867Y-48766D02*
G01X92218Y-48766D01*
G01X92025Y-49023D01*
G01X92121D01*
G01X92185Y-49053D01*
G01X92218Y-49086D01*
G01X92248Y-49180D01*
G01Y-49244D01*
G01X92218Y-49340D01*
G01X92152Y-49404D01*
G01X92058Y-49437D01*
G01X91961D01*
G01X91867Y-49404D01*
G01X91834Y-49373D01*
G01X91801Y-49310D01*
G01X92581Y-48766D02*
G01X92838Y-49437D01*
G01X93092Y-48766D02*
G01X92838Y-49437D01*
G01X93488Y-48766D02*
G01X93838Y-48766D01*
G01X93648Y-49023D01*
G01X93745D01*
G01X93808Y-49053D01*
G01X93838Y-49086D01*
G01X93872Y-49180D01*
G01Y-49244D01*
G01X93838Y-49340D01*
G01X93775Y-49404D01*
G01X93681Y-49437D01*
G01X93584D01*
G01X93488Y-49404D01*
G01X93457Y-49373D01*
G01X93424Y-49310D01*
G04 //text: GND*
G01X92281Y-50196D02*
G01X92248Y-50133D01*
G01X92185Y-50069D01*
G01X92121Y-50036D01*
G01X91994D01*
G01X91931Y-50069D01*
G01X91867Y-50133D01*
G01X91834Y-50196D01*
G01X91801Y-50293D01*
G01Y-50450D01*
G01X91834Y-50547D01*
G01X91867Y-50610D01*
G01X91931Y-50674D01*
G01X91994Y-50707D01*
G01X92121D01*
G01X92185Y-50674D01*
G01X92248Y-50610D01*
G01X92281Y-50547D01*
G01Y-50450D01*
G01X92121Y-50450D02*
G01X92281Y-50450D01*
G01X92614Y-50036D02*
G01X92614Y-50707D01*
G01X92614Y-50036D02*
G01X93059Y-50707D01*
G01X93059Y-50036D02*
G01X93059Y-50707D01*
G01X93394Y-50036D02*
G01X93394Y-50707D01*
G01X93394Y-50036D02*
G01X93615Y-50036D01*
G01X93711Y-50069D01*
G01X93775Y-50133D01*
G01X93808Y-50196D01*
G01X93838Y-50293D01*
G01Y-50450D01*
G01X93808Y-50547D01*
G01X93775Y-50610D01*
G01X93711Y-50674D01*
G01X93615Y-50707D01*
G01X93394D01*
G04 //text: TCH1*
G01X58097Y-44483D02*
G01X58097Y-45154D01*
G01X57874Y-44483D02*
G01X58321Y-44483D01*
G01X59131Y-44643D02*
G01X59101Y-44580D01*
G01X59037Y-44516D01*
G01X58974Y-44483D01*
G01X58847D01*
G01X58781Y-44516D01*
G01X58717Y-44580D01*
G01X58687Y-44643D01*
G01X58654Y-44740D01*
G01Y-44897D01*
G01X58687Y-44994D01*
G01X58717Y-45057D01*
G01X58781Y-45121D01*
G01X58847Y-45154D01*
G01X58974D01*
G01X59037Y-45121D01*
G01X59101Y-45057D01*
G01X59131Y-44994D01*
G01X59466Y-44483D02*
G01X59466Y-45154D01*
G01X59911Y-44483D02*
G01X59911Y-45154D01*
G01X59466Y-44803D02*
G01X59911Y-44803D01*
G01X60244Y-44610D02*
G01X60307Y-44580D01*
G01X60404Y-44483D01*
G01Y-45154D01*
G04 //text: MCU_TX*
G01X55842Y-45753D02*
G01X55842Y-46424D01*
G01X55842Y-45753D02*
G01X56098Y-46424D01*
G01X56352Y-45753D02*
G01X56098Y-46424D01*
G01X56352Y-45753D02*
G01X56352Y-46424D01*
G01X57165Y-45913D02*
G01X57132Y-45850D01*
G01X57069Y-45786D01*
G01X57005Y-45753D01*
G01X56878D01*
G01X56815Y-45786D01*
G01X56749Y-45850D01*
G01X56718Y-45913D01*
G01X56685Y-46010D01*
G01Y-46167D01*
G01X56718Y-46264D01*
G01X56749Y-46327D01*
G01X56815Y-46391D01*
G01X56878Y-46424D01*
G01X57005D01*
G01X57069Y-46391D01*
G01X57132Y-46327D01*
G01X57165Y-46264D01*
G01X57498Y-45753D02*
G01X57498Y-46231D01*
G01X57528Y-46327D01*
G01X57592Y-46391D01*
G01X57688Y-46424D01*
G01X57752D01*
G01X57849Y-46391D01*
G01X57912Y-46327D01*
G01X57942Y-46231D01*
G01Y-45753D01*
G01X58275Y-46647D02*
G01X58849Y-46647D01*
G01X59406Y-45753D02*
G01X59406Y-46424D01*
G01X59182Y-45753D02*
G01X59629Y-45753D01*
G01X59962Y-45753D02*
G01X60409Y-46424D01*
G01X60409Y-45753D02*
G01X59962Y-46424D01*
G04 //text: TCH2*
G01X57970Y-47023D02*
G01X57970Y-47694D01*
G01X57747Y-47023D02*
G01X58194Y-47023D01*
G01X59004Y-47183D02*
G01X58974Y-47120D01*
G01X58910Y-47056D01*
G01X58847Y-47023D01*
G01X58720D01*
G01X58654Y-47056D01*
G01X58590Y-47120D01*
G01X58560Y-47183D01*
G01X58527Y-47280D01*
G01Y-47437D01*
G01X58560Y-47534D01*
G01X58590Y-47597D01*
G01X58654Y-47661D01*
G01X58720Y-47694D01*
G01X58847D01*
G01X58910Y-47661D01*
G01X58974Y-47597D01*
G01X59004Y-47534D01*
G01X59339Y-47023D02*
G01X59339Y-47694D01*
G01X59784Y-47023D02*
G01X59784Y-47694D01*
G01X59339Y-47343D02*
G01X59784Y-47343D01*
G01X60150Y-47183D02*
G01X60150Y-47150D01*
G01X60180Y-47087D01*
G01X60213Y-47056D01*
G01X60277Y-47023D01*
G01X60404D01*
G01X60467Y-47056D01*
G01X60500Y-47087D01*
G01X60531Y-47150D01*
G01Y-47214D01*
G01X60500Y-47280D01*
G01X60437Y-47374D01*
G01X60117Y-47694D01*
G01X60564D01*
G04 //text: MCU_RX*
G01X56009Y-48258D02*
G01X56009Y-48929D01*
G01X56009Y-48258D02*
G01X56266Y-48929D01*
G01X56520Y-48258D02*
G01X56266Y-48929D01*
G01X56520Y-48258D02*
G01X56520Y-48929D01*
G01X57332Y-48418D02*
G01X57299Y-48355D01*
G01X57236Y-48291D01*
G01X57172Y-48258D01*
G01X57045D01*
G01X56982Y-48291D01*
G01X56916Y-48355D01*
G01X56885Y-48418D01*
G01X56852Y-48515D01*
G01Y-48672D01*
G01X56885Y-48769D01*
G01X56916Y-48832D01*
G01X56982Y-48896D01*
G01X57045Y-48929D01*
G01X57172D01*
G01X57236Y-48896D01*
G01X57299Y-48832D01*
G01X57332Y-48769D01*
G01X57665Y-48258D02*
G01X57665Y-48736D01*
G01X57696Y-48832D01*
G01X57759Y-48896D01*
G01X57856Y-48929D01*
G01X57919D01*
G01X58016Y-48896D01*
G01X58079Y-48832D01*
G01X58110Y-48736D01*
G01Y-48258D01*
G01X58442Y-49152D02*
G01X59016Y-49152D01*
G01X59349Y-48258D02*
G01X59349Y-48929D01*
G01X59349Y-48258D02*
G01X59636Y-48258D01*
G01X59733Y-48291D01*
G01X59766Y-48322D01*
G01X59796Y-48385D01*
G01Y-48449D01*
G01X59766Y-48515D01*
G01X59733Y-48545D01*
G01X59636Y-48578D01*
G01X59349D01*
G01X59573Y-48578D02*
G01X59796Y-48929D01*
G01X60129Y-48258D02*
G01X60576Y-48929D01*
G01X60576Y-48258D02*
G01X60129Y-48929D01*
G04 //text: R_TER*
G01X48603Y-50452D02*
G01X48603Y-51123D01*
G01X48603Y-50452D02*
G01X48890Y-50452D01*
G01X48986Y-50485D01*
G01X49019Y-50516D01*
G01X49050Y-50579D01*
G01Y-50643D01*
G01X49019Y-50709D01*
G01X48986Y-50739D01*
G01X48890Y-50772D01*
G01X48603D01*
G01X48826Y-50772D02*
G01X49050Y-51123D01*
G01X49383Y-51346D02*
G01X49957Y-51346D01*
G01X50513Y-50452D02*
G01X50513Y-51123D01*
G01X50289Y-50452D02*
G01X50737Y-50452D01*
G01X51069Y-50452D02*
G01X51069Y-51123D01*
G01X51069Y-50452D02*
G01X51483Y-50452D01*
G01X51069Y-50772D02*
G01X51323Y-50772D01*
G01X51069Y-51123D02*
G01X51483Y-51123D01*
G01X51816Y-50452D02*
G01X51816Y-51123D01*
G01X51816Y-50452D02*
G01X52103Y-50452D01*
G01X52200Y-50485D01*
G01X52230Y-50516D01*
G01X52263Y-50579D01*
G01Y-50643D01*
G01X52230Y-50709D01*
G01X52200Y-50739D01*
G01X52103Y-50772D01*
G01X51816D01*
G01X52040Y-50772D02*
G01X52263Y-51123D01*
G04 //text: T_TER*
G01X48826Y-51849D02*
G01X48826Y-52520D01*
G01X48603Y-51849D02*
G01X49050Y-51849D01*
G01X49383Y-52743D02*
G01X49957Y-52743D01*
G01X50513Y-51849D02*
G01X50513Y-52520D01*
G01X50289Y-51849D02*
G01X50737Y-51849D01*
G01X51069Y-51849D02*
G01X51069Y-52520D01*
G01X51069Y-51849D02*
G01X51483Y-51849D01*
G01X51069Y-52169D02*
G01X51323Y-52169D01*
G01X51069Y-52520D02*
G01X51483Y-52520D01*
G01X51816Y-51849D02*
G01X51816Y-52520D01*
G01X51816Y-51849D02*
G01X52103Y-51849D01*
G01X52200Y-51882D01*
G01X52230Y-51913D01*
G01X52263Y-51976D01*
G01Y-52040D01*
G01X52230Y-52106D01*
G01X52200Y-52136D01*
G01X52103Y-52169D01*
G01X51816D01*
G01X52040Y-52169D02*
G01X52263Y-52520D01*
G04 //text: RX_RE*
G01X48603Y-54262D02*
G01X48603Y-54933D01*
G01X48603Y-54262D02*
G01X48890Y-54262D01*
G01X48986Y-54295D01*
G01X49019Y-54326D01*
G01X49050Y-54389D01*
G01Y-54453D01*
G01X49019Y-54519D01*
G01X48986Y-54549D01*
G01X48890Y-54582D01*
G01X48603D01*
G01X48826Y-54582D02*
G01X49050Y-54933D01*
G01X49383Y-54262D02*
G01X49830Y-54933D01*
G01X49830Y-54262D02*
G01X49383Y-54933D01*
G01X50162Y-55156D02*
G01X50737Y-55156D01*
G01X51069Y-54262D02*
G01X51069Y-54933D01*
G01X51069Y-54262D02*
G01X51356Y-54262D01*
G01X51453Y-54295D01*
G01X51483Y-54326D01*
G01X51516Y-54389D01*
G01Y-54453D01*
G01X51483Y-54519D01*
G01X51453Y-54549D01*
G01X51356Y-54582D01*
G01X51069D01*
G01X51293Y-54582D02*
G01X51516Y-54933D01*
G01X51849Y-54262D02*
G01X51849Y-54933D01*
G01X51849Y-54262D02*
G01X52263Y-54262D01*
G01X51849Y-54582D02*
G01X52103Y-54582D01*
G01X51849Y-54933D02*
G01X52263Y-54933D01*
G04 //text: GND*
G01X92461Y-12968D02*
G01X92428Y-12904D01*
G01X92365Y-12841D01*
G01X92301Y-12808D01*
G01X92174D01*
G01X92111Y-12841D01*
G01X92047Y-12904D01*
G01X92014Y-12968D01*
G01X91981Y-13064D01*
G01Y-13222D01*
G01X92014Y-13318D01*
G01X92047Y-13382D01*
G01X92111Y-13445D01*
G01X92174Y-13478D01*
G01X92301D01*
G01X92365Y-13445D01*
G01X92428Y-13382D01*
G01X92461Y-13318D01*
G01Y-13222D01*
G01X92301Y-13222D02*
G01X92461Y-13222D01*
G01X92794Y-12808D02*
G01X92794Y-13478D01*
G01X92794Y-12808D02*
G01X93239Y-13478D01*
G01X93239Y-12808D02*
G01X93239Y-13478D01*
G01X93574Y-12808D02*
G01X93574Y-13478D01*
G01X93574Y-12808D02*
G01X93795Y-12808D01*
G01X93891Y-12841D01*
G01X93955Y-12904D01*
G01X93988Y-12968D01*
G01X94018Y-13064D01*
G01Y-13222D01*
G01X93988Y-13318D01*
G01X93955Y-13382D01*
G01X93891Y-13445D01*
G01X93795Y-13478D01*
G01X93574D01*
G04 //text: 3V3*
G01X92047Y-11538D02*
G01X92398Y-11538D01*
G01X92205Y-11794D01*
G01X92301D01*
G01X92365Y-11825D01*
G01X92398Y-11858D01*
G01X92428Y-11952D01*
G01Y-12015D01*
G01X92398Y-12112D01*
G01X92332Y-12175D01*
G01X92238Y-12208D01*
G01X92141D01*
G01X92047Y-12175D01*
G01X92014Y-12145D01*
G01X91981Y-12081D01*
G01X92761Y-11538D02*
G01X93018Y-12208D01*
G01X93272Y-11538D02*
G01X93018Y-12208D01*
G01X93668Y-11538D02*
G01X94018Y-11538D01*
G01X93828Y-11794D01*
G01X93924D01*
G01X93988Y-11825D01*
G01X94018Y-11858D01*
G01X94051Y-11952D01*
G01Y-12015D01*
G01X94018Y-12112D01*
G01X93955Y-12175D01*
G01X93861Y-12208D01*
G01X93764D01*
G01X93668Y-12175D01*
G01X93637Y-12145D01*
G01X93604Y-12081D01*
G04 //text: TX*
G01X92253Y-10395D02*
G01X92253Y-11065D01*
G01X92030Y-10395D02*
G01X92477Y-10395D01*
G01X92809Y-10395D02*
G01X93256Y-11065D01*
G01X93256Y-10395D02*
G01X92809Y-11065D01*
G04 //text: RX*
G01X91963Y-9033D02*
G01X91963Y-9703D01*
G01X91963Y-9033D02*
G01X92250Y-9033D01*
G01X92346Y-9066D01*
G01X92379Y-9096D01*
G01X92410Y-9160D01*
G01Y-9223D01*
G01X92379Y-9289D01*
G01X92346Y-9320D01*
G01X92250Y-9353D01*
G01X91963D01*
G01X92186Y-9353D02*
G01X92410Y-9703D01*
G01X92743Y-9033D02*
G01X93190Y-9703D01*
G01X93190Y-9033D02*
G01X92743Y-9703D01*
G04 //text: UART*
G54D10*
G01X94717Y-10391D02*
G01X94717Y-11234D01*
G01X94772Y-11402D01*
G01X94884Y-11514D01*
G01X95054Y-11570D01*
G01X95166D01*
G01X95334Y-11514D01*
G01X95446Y-11402D01*
G01X95501Y-11234D01*
G01Y-10391D01*
G01X96423Y-10391D02*
G01X95976Y-11570D01*
G01X96423Y-10391D02*
G01X96873Y-11570D01*
G01X96144Y-11179D02*
G01X96705Y-11179D01*
G01X97346Y-10391D02*
G01X97346Y-11570D01*
G01X97346Y-10391D02*
G01X97851Y-10391D01*
G01X98021Y-10447D01*
G01X98077Y-10503D01*
G01X98133Y-10615D01*
G01Y-10729D01*
G01X98077Y-10841D01*
G01X98021Y-10897D01*
G01X97851Y-10952D01*
G01X97346D01*
G01X97739Y-10952D02*
G01X98133Y-11570D01*
G01X98999Y-10391D02*
G01X98999Y-11570D01*
G01X98605Y-10391D02*
G01X99390Y-10391D01*
G04 //text: 8MHz*
G54D11*
G01X95471Y-30475D02*
G01X95438Y-30381D01*
G01X95374Y-30348D01*
G01X95311D01*
G01X95247Y-30381D01*
G01X95214Y-30444D01*
G01X95184Y-30571D01*
G01X95151Y-30665D01*
G01X95087Y-30731D01*
G01X95024Y-30762D01*
G01X94927D01*
G01X94864Y-30731D01*
G01X94833Y-30698D01*
G01X94800Y-30602D01*
G01Y-30475D01*
G01X94833Y-30381D01*
G01X94864Y-30348D01*
G01X94927Y-30315D01*
G01X95024D01*
G01X95087Y-30348D01*
G01X95151Y-30411D01*
G01X95184Y-30508D01*
G01X95214Y-30635D01*
G01X95247Y-30698D01*
G01X95311Y-30731D01*
G01X95374D01*
G01X95438Y-30698D01*
G01X95471Y-30602D01*
G01Y-30475D01*
G01X95471Y-31095D02*
G01X94800Y-31095D01*
G01X95471Y-31095D02*
G01X94800Y-31351D01*
G01X95471Y-31605D02*
G01X94800Y-31351D01*
G01X95471Y-31605D02*
G01X94800Y-31605D01*
G01X95471Y-31938D02*
G01X94800Y-31938D01*
G01X95471Y-32385D02*
G01X94800Y-32385D01*
G01X95151Y-31938D02*
G01X95151Y-32385D01*
G01X95247Y-33068D02*
G01X94800Y-32718D01*
G01X95247Y-32718D02*
G01X95247Y-33068D01*
G01X94800Y-32718D02*
G01X94800Y-33068D01*
G04 //text: 1*
G54D10*
G01X50444Y-57203D02*
G01X50333Y-57259D01*
G01X50162Y-57427D01*
G01Y-56248D01*
G04 //text: R1.0*
G36*
G01X47230Y-43150D02*
G01X47172Y-43151D01*
G01X47159Y-43152D01*
G01X47156Y-43153D01*
G01X47151Y-43154D01*
G01X47136Y-43157D01*
G01X47117Y-43160D01*
G01X47109Y-43162D01*
G01X47098Y-43166D01*
G01X47083Y-43172D01*
G01X47069Y-43175D01*
G01X47063Y-43177D01*
G01X47054Y-43180D01*
G01X47049Y-43183D01*
G01X47037Y-43190D01*
G01X47010Y-43202D01*
G01X47004Y-43206D01*
G01X46986Y-43219D01*
G01X46966Y-43231D01*
G01X46957Y-43238D01*
G01X46953Y-43242D01*
G01X46949Y-43248D01*
G01X46942Y-43256D01*
G01X46930Y-43265D01*
G01X46920Y-43277D01*
G01X46913Y-43284D01*
G01X46905Y-43291D01*
G01X46901Y-43295D01*
G01X46897Y-43300D01*
G01X46881Y-43324D01*
G01X46866Y-43345D01*
G01X46857Y-43359D01*
G01X46846Y-43380D01*
G01X46835Y-43407D01*
G01X46827Y-43424D01*
G01X46822Y-43442D01*
G01X46817Y-43453D01*
G01X46812Y-43465D01*
G01X46810Y-43472D01*
G01X46808Y-43479D01*
G01X46803Y-43503D01*
G01X46799Y-43518D01*
G01X46796Y-43533D01*
G01X46792Y-43559D01*
G01X46787Y-43576D01*
G01X46785Y-43593D01*
G01X46783Y-43605D01*
G01X46781Y-43634D01*
G01X46780Y-43653D01*
G01X46778Y-43662D01*
G01X46777Y-43666D01*
G01X46775Y-43702D01*
G01Y-43779D01*
G01X46935D01*
G01X46937Y-43616D01*
G01X46938Y-43606D01*
G01X46939Y-43600D01*
G01X46941Y-43589D01*
G01Y-43569D01*
G01X46943Y-43562D01*
G01X46945Y-43554D01*
G01X46948Y-43540D01*
G01X46952Y-43513D01*
G01X46955Y-43502D01*
G01X46964Y-43476D01*
G01X46974Y-43448D01*
G01X46983Y-43425D01*
G01X46986Y-43419D01*
G01X46995Y-43404D01*
G01X47001Y-43393D01*
G01X47008Y-43382D01*
G01X47021Y-43364D01*
G01X47027Y-43358D01*
G01X47032Y-43352D01*
G01X47039Y-43346D01*
G01X47045Y-43342D01*
G01X47052Y-43334D01*
G01X47059Y-43326D01*
G01X47062Y-43322D01*
G01X47067Y-43319D01*
G01X47083Y-43310D01*
G01X47097Y-43301D01*
G01X47103Y-43298D01*
G01X47118Y-43293D01*
G01X47144Y-43284D01*
G01X47154Y-43282D01*
G01X47167Y-43279D01*
G01X47201Y-43273D01*
G01X47218Y-43271D01*
G01X47245Y-43270D01*
G01X47253D01*
G01X47276D01*
G01X47289Y-43272D01*
G01X47298Y-43274D01*
G01X47311Y-43277D01*
G01X47327Y-43280D01*
G01X47334Y-43282D01*
G01X47341Y-43285D01*
G01X47362Y-43294D01*
G01X47380Y-43301D01*
G01X47387Y-43306D01*
G01X47391Y-43309D01*
G01X47403Y-43319D01*
G01X47412Y-43325D01*
G01X47419Y-43332D01*
G01X47428Y-43344D01*
G01X47440Y-43353D01*
G01X47447Y-43360D01*
G01X47450Y-43364D01*
G01X47462Y-43382D01*
G01X47476Y-43405D01*
G01X47480Y-43412D01*
G01X47484Y-43420D01*
G01X47487Y-43427D01*
G01X47496Y-43452D01*
G01X47505Y-43471D01*
G01X47509Y-43485D01*
G01X47513Y-43508D01*
G01X47517Y-43524D01*
G01X47520Y-43538D01*
G01X47524Y-43565D01*
G01X47529Y-43581D01*
G01X47530Y-43592D01*
G01X47531Y-43612D01*
G01X47533Y-43620D01*
G01X47534Y-43625D01*
G01X47535Y-43635D01*
G01X47536Y-43670D01*
G01Y-43682D01*
G01X47537Y-43725D01*
G01X47538Y-43739D01*
G01X47539Y-43742D01*
G01X47540Y-43745D01*
G01X47541Y-43757D01*
G01X47542Y-43814D01*
G01X47541Y-43867D01*
G01X47540Y-43883D01*
G01X47539Y-43886D01*
G01X47538Y-43888D01*
G01X47537Y-43898D01*
G01X47536Y-43933D01*
G01Y-43946D01*
G01X47535Y-43988D01*
G01X47534Y-44003D01*
G01X47532Y-44011D01*
G01X47531Y-44022D01*
G01X47529Y-44042D01*
G01X47528Y-44049D01*
G01X47526Y-44056D01*
G01X47523Y-44071D01*
G01X47519Y-44097D01*
G01X47516Y-44109D01*
G01X47508Y-44135D01*
G01X47497Y-44162D01*
G01X47492Y-44176D01*
G01X47486Y-44187D01*
G01X47479Y-44199D01*
G01X47470Y-44218D01*
G01X47467Y-44224D01*
G01X47463Y-44229D01*
G01X47459Y-44232D01*
G01X47455Y-44235D01*
G01X47452Y-44238D01*
G01X47449Y-44242D01*
G01X47446Y-44250D01*
G01X47443Y-44254D01*
G01X47440Y-44257D01*
G01X47432Y-44264D01*
G01X47425Y-44271D01*
G01X47419Y-44279D01*
G01X47415Y-44282D01*
G01X47412Y-44284D01*
G01X47403Y-44288D01*
G01X47394Y-44292D01*
G01X47381Y-44301D01*
G01X47370Y-44306D01*
G01X47361Y-44311D01*
G01X47342Y-44318D01*
G01X47328Y-44321D01*
G01X47314Y-44325D01*
G01X47262Y-44333D01*
G01X47249Y-44335D01*
G01X47233D01*
G01X47218D01*
G01X47212Y-44334D01*
G01X47209Y-44333D01*
G01X47208D01*
G01X47207Y-44332D01*
G01X47204Y-44331D01*
G01X47200Y-44330D01*
G01X47193D01*
G01X47174Y-44329D01*
G01X47162Y-44327D01*
G01X47156Y-44325D01*
G01X47140Y-44318D01*
G01X47127Y-44315D01*
G01X47120Y-44313D01*
G01X47111Y-44310D01*
G01X47106Y-44308D01*
G01X47071Y-44286D01*
G01X47063Y-44279D01*
G01X47054Y-44270D01*
G01X47038Y-44251D01*
G01X47033Y-44245D01*
G01X47026Y-44239D01*
G01X47020Y-44235D01*
G01X47016Y-44231D01*
G01X47014Y-44227D01*
G01X47011Y-44219D01*
G01X47006Y-44210D01*
G01X46998Y-44197D01*
G01X46992Y-44186D01*
G01X46985Y-44171D01*
G01X46981Y-44160D01*
G01X46969Y-44131D01*
G01X46967Y-44124D01*
G01X46964Y-44117D01*
G01X46962Y-44109D01*
G01X46958Y-44085D01*
G01X46952Y-44064D01*
G01X46949Y-44052D01*
G01X46943Y-44017D01*
G01X46938Y-43971D01*
G01X46937Y-43957D01*
G01X46935Y-43779D01*
G01X46775D01*
G01Y-43805D01*
G01X46776Y-43935D01*
G01X46777Y-43947D01*
G01Y-43948D01*
G01X46779Y-43954D01*
G01X46780Y-43960D01*
G01X46781Y-43990D01*
G01X46782Y-44001D01*
G01X46785Y-44011D01*
G01X46787Y-44028D01*
G01X46792Y-44061D01*
G01X46794Y-44073D01*
G01X46803Y-44103D01*
G01X46815Y-44140D01*
G01X46826Y-44175D01*
G01X46830Y-44186D01*
G01X46836Y-44198D01*
G01X46843Y-44210D01*
G01X46855Y-44237D01*
G01X46859Y-44243D01*
G01X46870Y-44257D01*
G01X46875Y-44266D01*
G01X46883Y-44282D01*
G01X46888Y-44287D01*
G01X46898Y-44299D01*
G01X46904Y-44308D01*
G01X46911Y-44315D01*
G01X46919Y-44321D01*
G01X46923Y-44326D01*
G01X46928Y-44331D01*
G01X46936Y-44344D01*
G01X46941Y-44349D01*
G01X46945Y-44353D01*
G01X46947Y-44354D01*
G01X46953Y-44357D01*
G01X46957Y-44359D01*
G01X46961Y-44363D01*
G01X46967Y-44370D01*
G01X46970Y-44374D01*
G01X46974Y-44376D01*
G01X46982Y-44380D01*
G01X46993Y-44385D01*
G01X47004Y-44394D01*
G01X47017Y-44401D01*
G01X47034Y-44408D01*
G01X47044Y-44413D01*
G01X47051Y-44418D01*
G01X47057Y-44421D01*
G01X47072Y-44427D01*
G01X47107Y-44438D01*
G01X47120Y-44442D01*
G01X47134Y-44445D01*
G01X47157Y-44449D01*
G01X47166Y-44451D01*
G01X47170Y-44453D01*
G01X47172D01*
G01X47176Y-44454D01*
G01X47190Y-44455D01*
G01X47238D01*
G01X47292Y-44454D01*
G01X47307Y-44453D01*
G01X47315Y-44451D01*
G01X47329Y-44448D01*
G01X47356Y-44444D01*
G01X47367Y-44441D01*
G01X47390Y-44432D01*
G01X47419Y-44421D01*
G01X47429Y-44416D01*
G01X47440Y-44411D01*
G01X47451Y-44404D01*
G01X47470Y-44393D01*
G01X47479Y-44388D01*
G01X47509Y-44366D01*
G01X47516Y-44359D01*
G01X47525Y-44347D01*
G01X47537Y-44338D01*
G01X47545Y-44331D01*
G01X47554Y-44318D01*
G01X47562Y-44312D01*
G01X47569Y-44306D01*
G01X47572Y-44302D01*
G01X47575Y-44294D01*
G01X47577Y-44290D01*
G01X47579Y-44286D01*
G01X47585Y-44280D01*
G01X47590Y-44272D01*
G01X47599Y-44255D01*
G01X47608Y-44242D01*
G01X47611Y-44236D01*
G01X47620Y-44213D01*
G01X47627Y-44203D01*
G01X47631Y-44196D01*
G01X47635Y-44186D01*
G01X47640Y-44169D01*
G01X47647Y-44151D01*
G01X47650Y-44145D01*
G01X47652Y-44137D01*
G01X47656Y-44114D01*
G01X47668Y-44075D01*
G01X47671Y-44060D01*
G01X47673Y-44053D01*
G01X47674Y-44038D01*
G01X47675Y-44027D01*
G01X47678Y-44018D01*
G01X47681Y-44000D01*
G01X47682Y-43989D01*
G01X47684Y-43961D01*
G01X47685Y-43935D01*
G01X47687Y-43928D01*
G01X47688Y-43926D01*
G01X47689Y-43922D01*
G01X47690Y-43887D01*
G01X47691Y-43788D01*
G01X47689Y-43664D01*
G01X47688Y-43652D01*
G01X47686Y-43645D01*
G01X47685Y-43639D01*
G01X47684Y-43604D01*
G01X47683Y-43593D01*
G01X47681Y-43582D01*
G01X47678Y-43565D01*
G01X47674Y-43532D01*
G01X47671Y-43520D01*
G01X47662Y-43490D01*
G01X47655Y-43463D01*
G01X47652Y-43449D01*
G01X47647Y-43436D01*
G01X47641Y-43421D01*
G01X47634Y-43401D01*
G01X47629Y-43390D01*
G01X47623Y-43378D01*
G01X47616Y-43366D01*
G01X47605Y-43345D01*
G01X47585Y-43313D01*
G01X47580Y-43306D01*
G01X47574Y-43298D01*
G01X47570Y-43294D01*
G01X47564Y-43290D01*
G01X47560Y-43287D01*
G01X47558Y-43283D01*
G01X47554Y-43274D01*
G01X47552Y-43271D01*
G01X47549Y-43267D01*
G01X47541Y-43261D01*
G01X47534Y-43254D01*
G01X47527Y-43246D01*
G01X47524Y-43243D01*
G01X47520Y-43240D01*
G01X47512Y-43237D01*
G01X47508Y-43234D01*
G01X47505Y-43231D01*
G01X47499Y-43223D01*
G01X47494Y-43220D01*
G01X47490Y-43218D01*
G01X47479Y-43214D01*
G01X47475Y-43212D01*
G01X47471Y-43209D01*
G01X47464Y-43204D01*
G01X47454Y-43198D01*
G01X47438Y-43191D01*
G01X47427Y-43186D01*
G01X47420Y-43182D01*
G01X47415Y-43179D01*
G01X47409Y-43177D01*
G01X47394Y-43174D01*
G01X47382Y-43170D01*
G01X47369Y-43164D01*
G01X47361Y-43162D01*
G01X47351Y-43160D01*
G01X47317Y-43156D01*
G01X47305Y-43153D01*
G01X47301Y-43152D01*
G01X47290Y-43151D01*
G37*
G36*
G01X45976Y-43150D02*
G01X45952Y-43151D01*
G01X45941D01*
G01X45931Y-43153D01*
G01X45927Y-43154D01*
G01X45926Y-43155D01*
G01X45915Y-43161D01*
G01X45882Y-43175D01*
G01X45860Y-43186D01*
G01X45840Y-43194D01*
G01X45829Y-43200D01*
G01X45817Y-43207D01*
G01X45804Y-43213D01*
G01X45775Y-43224D01*
G01X45766Y-43228D01*
G01X45755Y-43234D01*
G01X45742Y-43241D01*
G01X45720Y-43251D01*
G01X45709Y-43257D01*
G01X45702Y-43261D01*
G01X45692Y-43265D01*
G01X45676Y-43271D01*
G01X45667Y-43276D01*
G01X45655Y-43284D01*
G01X45652Y-43287D01*
G01X45650Y-43292D01*
G01X45648Y-43301D01*
G01X45647Y-43314D01*
G01Y-43367D01*
G01X45668D01*
G01X45679Y-43366D01*
G01X45712Y-43356D01*
G01X45728Y-43352D01*
G01X45742Y-43349D01*
G01X45770Y-43345D01*
G01X45781Y-43342D01*
G01X45810Y-43333D01*
G01X45825Y-43329D01*
G01X45841Y-43326D01*
G01X45853Y-43324D01*
G01X45875Y-43322D01*
G01Y-43880D01*
G01X45878Y-44436D01*
G01Y-44440D01*
G01Y-44441D01*
G01X45884Y-44442D01*
G01X45920Y-44443D01*
G01X45950Y-44444D01*
G01X46019D01*
G01Y-43150D01*
G37*
G36*
G01X44611Y-43167D02*
G01X44611Y-43293D01*
G01X44759D01*
G01X44893D01*
G01X45024Y-43294D01*
G01X45035Y-43295D01*
G01X45037Y-43296D01*
G01X45041Y-43297D01*
G01X45051Y-43298D01*
G01X45068Y-43299D01*
G01X45087Y-43304D01*
G01X45107Y-43309D01*
G01X45115Y-43312D01*
G01X45121Y-43315D01*
G01X45131Y-43321D01*
G01X45144Y-43326D01*
G01X45155Y-43332D01*
G01X45180Y-43350D01*
G01X45184Y-43354D01*
G01X45189Y-43358D01*
G01X45193Y-43363D01*
G01X45197Y-43370D01*
G01X45211Y-43393D01*
G01X45217Y-43404D01*
G01X45223Y-43419D01*
G01X45228Y-43436D01*
G01X45231Y-43450D01*
G01X45234Y-43468D01*
G01X45237Y-43490D01*
G01X45239Y-43514D01*
G01X45240Y-43545D01*
G01Y-43564D01*
G01X45239Y-43573D01*
G01X45237Y-43581D01*
G01X45236Y-43587D01*
G01X45233Y-43601D01*
G01X45230Y-43620D01*
G01X45228Y-43629D01*
G01X45224Y-43639D01*
G01X45216Y-43658D01*
G01X45208Y-43675D01*
G01X45204Y-43682D01*
G01X45200Y-43690D01*
G01X45194Y-43697D01*
G01X45189Y-43703D01*
G01X45184Y-43709D01*
G01X45176Y-43715D01*
G01X45149Y-43735D01*
G01X45135Y-43742D01*
G01X45129Y-43745D01*
G01X45100Y-43757D01*
G01X45092Y-43759D01*
G01X45084Y-43762D01*
G01X45075Y-43764D01*
G01X45066Y-43765D01*
G01X45026Y-43771D01*
G01X45019Y-43772D01*
G01X44971Y-43773D01*
G01X44885Y-43774D01*
G01X44775Y-43772D01*
G01X44764Y-43771D01*
G01X44762D01*
G01X44761Y-43767D01*
G01X44759Y-43531D01*
G01Y-43293D01*
G01X44611D01*
G01Y-44432D01*
G01X44759D01*
G01Y-43888D01*
G01X44882D01*
G01X44955Y-43890D01*
G01X44979Y-43892D01*
G01X44991Y-43893D01*
G01X44999Y-43895D01*
G01X45004Y-43896D01*
G01X45007Y-43898D01*
G01X45008Y-43899D01*
G01X45010Y-43905D01*
G01X45012Y-43910D01*
G01X45014Y-43914D01*
G01X45019Y-43920D01*
G01X45026Y-43930D01*
G01X45034Y-43949D01*
G01X45037Y-43954D01*
G01X45043Y-43960D01*
G01X45048Y-43969D01*
G01X45057Y-43985D01*
G01X45068Y-44003D01*
G01X45080Y-44025D01*
G01X45091Y-44044D01*
G01X45103Y-44065D01*
G01X45123Y-44097D01*
G01X45134Y-44117D01*
G01X45143Y-44134D01*
G01X45163Y-44166D01*
G01X45174Y-44186D01*
G01X45183Y-44203D01*
G01X45194Y-44221D01*
G01X45206Y-44243D01*
G01X45226Y-44275D01*
G01X45237Y-44295D01*
G01X45246Y-44311D01*
G01X45257Y-44330D01*
G01X45269Y-44351D01*
G01X45289Y-44383D01*
G01X45300Y-44403D01*
G01X45306Y-44415D01*
G01X45310Y-44420D01*
G01X45313Y-44424D01*
G01X45318Y-44427D01*
G01X45321Y-44428D01*
G01X45326Y-44429D01*
G01X45343Y-44431D01*
G01X45404Y-44432D01*
G01X45481D01*
G01X45472Y-44411D01*
G01X45468Y-44403D01*
G01X45465Y-44400D01*
G01X45460Y-44395D01*
G01X45455Y-44386D01*
G01X45446Y-44370D01*
G01X45435Y-44351D01*
G01X45423Y-44330D01*
G01X45404Y-44298D01*
G01X45386Y-44269D01*
G01X45375Y-44249D01*
G01X45366Y-44233D01*
G01X45346Y-44201D01*
G01X45329Y-44172D01*
G01X45318Y-44152D01*
G01X45309Y-44135D01*
G01X45289Y-44103D01*
G01X45255Y-44046D01*
G01X45243Y-44026D01*
G01X45234Y-44009D01*
G01X45215Y-43977D01*
G01X45197Y-43949D01*
G01X45186Y-43929D01*
G01X45177Y-43912D01*
G01X45157Y-43880D01*
G01X45154Y-43873D01*
G01X45152Y-43867D01*
G01X45151Y-43862D01*
G01X45152Y-43857D01*
G01X45154Y-43853D01*
G01X45157Y-43850D01*
G01X45162Y-43847D01*
G01X45175Y-43844D01*
G01X45189Y-43839D01*
G01X45210Y-43830D01*
G01X45230Y-43821D01*
G01X45241Y-43816D01*
G01X45260Y-43802D01*
G01X45277Y-43791D01*
G01X45290Y-43780D01*
G01X45295Y-43774D01*
G01X45301Y-43767D01*
G01X45306Y-43761D01*
G01X45313Y-43754D01*
G01X45322Y-43747D01*
G01X45326Y-43743D01*
G01X45330Y-43737D01*
G01X45334Y-43731D01*
G01X45355Y-43698D01*
G01X45369Y-43665D01*
G01X45375Y-43653D01*
G01X45379Y-43641D01*
G01X45385Y-43613D01*
G01X45390Y-43594D01*
G01X45391Y-43587D01*
G01X45393Y-43574D01*
G01X45394Y-43547D01*
G01X45395Y-43519D01*
G01X45394Y-43468D01*
G01X45392Y-43453D01*
G01X45390Y-43445D01*
G01X45388Y-43431D01*
G01X45385Y-43412D01*
G01X45383Y-43404D01*
G01X45379Y-43393D01*
G01X45373Y-43381D01*
G01X45366Y-43361D01*
G01X45363Y-43353D01*
G01X45360Y-43346D01*
G01X45356Y-43339D01*
G01X45343Y-43321D01*
G01X45330Y-43300D01*
G01X45324Y-43293D01*
G01X45320Y-43289D01*
G01X45313Y-43284D01*
G01X45306Y-43277D01*
G01X45297Y-43265D01*
G01X45289Y-43259D01*
G01X45257Y-43235D01*
G01X45243Y-43227D01*
G01X45232Y-43221D01*
G01X45222Y-43216D01*
G01X45215Y-43213D01*
G01X45186Y-43201D01*
G01X45170Y-43196D01*
G01X45152Y-43190D01*
G01X45136Y-43186D01*
G01X45122Y-43183D01*
G01X45077Y-43175D01*
G01X45066Y-43174D01*
G01X45056Y-43173D01*
G01X45035Y-43172D01*
G01X45028Y-43170D01*
G01X45026D01*
G01X45020Y-43169D01*
G01X44861Y-43167D01*
G37*
G36*
G01X46294Y-44312D02*
G01X46294Y-44484D01*
G01X46460D01*
G01Y-44312D01*
G37*
G04 //text: ON*
G54D12*
G01X63627Y-45213D02*
G01X63655Y-45197D01*
G01X63680Y-45172D01*
G01X63695Y-45144D01*
G01X63708Y-45103D01*
G01Y-45037D01*
G01X63695Y-44997D01*
G01X63680Y-44969D01*
G01X63655Y-44941D01*
G01X63627Y-44928D01*
G01X63573D01*
G01X63545Y-44941D01*
G01X63520Y-44969D01*
G01X63505Y-44997D01*
G01X63492Y-45037D01*
G01Y-45103D01*
G01X63505Y-45144D01*
G01X63520Y-45172D01*
G01X63545Y-45197D01*
G01X63573Y-45213D01*
G01X63627D01*
G01X63350Y-45213D02*
G01X63350Y-44928D01*
G01X63350Y-45213D02*
G01X63162Y-44928D01*
G01X63162Y-45213D02*
G01X63162Y-44928D01*
G04 //text: ON*
G01X63647Y-49023D02*
G01X63675Y-49007D01*
G01X63700Y-48982D01*
G01X63715Y-48954D01*
G01X63728Y-48913D01*
G01Y-48847D01*
G01X63715Y-48807D01*
G01X63700Y-48779D01*
G01X63675Y-48751D01*
G01X63647Y-48738D01*
G01X63593D01*
G01X63565Y-48751D01*
G01X63540Y-48779D01*
G01X63525Y-48807D01*
G01X63512Y-48847D01*
G01Y-48913D01*
G01X63525Y-48954D01*
G01X63540Y-48982D01*
G01X63565Y-49007D01*
G01X63593Y-49023D01*
G01X63647D01*
G01X63370Y-49023D02*
G01X63370Y-48738D01*
G01X63370Y-49023D02*
G01X63182Y-48738D01*
G01X63182Y-49023D02*
G01X63182Y-48738D01*
G04 //text: ON*
G01X63637Y-47723D02*
G01X63664Y-47707D01*
G01X63690Y-47682D01*
G01X63705Y-47654D01*
G01X63718Y-47613D01*
G01Y-47547D01*
G01X63705Y-47507D01*
G01X63690Y-47479D01*
G01X63664Y-47451D01*
G01X63637Y-47438D01*
G01X63583D01*
G01X63555Y-47451D01*
G01X63530Y-47479D01*
G01X63515Y-47507D01*
G01X63502Y-47547D01*
G01Y-47613D01*
G01X63515Y-47654D01*
G01X63530Y-47682D01*
G01X63555Y-47707D01*
G01X63583Y-47723D01*
G01X63637D01*
G01X63360Y-47723D02*
G01X63360Y-47438D01*
G01X63360Y-47723D02*
G01X63172Y-47438D01*
G01X63172Y-47723D02*
G01X63172Y-47438D01*
G04 //text: ON*
G01X63647Y-46423D02*
G01X63675Y-46407D01*
G01X63700Y-46382D01*
G01X63715Y-46354D01*
G01X63728Y-46313D01*
G01Y-46247D01*
G01X63715Y-46207D01*
G01X63700Y-46179D01*
G01X63675Y-46151D01*
G01X63647Y-46138D01*
G01X63593D01*
G01X63565Y-46151D01*
G01X63540Y-46179D01*
G01X63525Y-46207D01*
G01X63512Y-46247D01*
G01Y-46313D01*
G01X63525Y-46354D01*
G01X63540Y-46382D01*
G01X63565Y-46407D01*
G01X63593Y-46423D01*
G01X63647D01*
G01X63370Y-46423D02*
G01X63370Y-46138D01*
G01X63370Y-46423D02*
G01X63182Y-46138D01*
G01X63182Y-46423D02*
G01X63182Y-46138D01*
G04 //text: ON*
G01X55245Y-51182D02*
G01X55273Y-51166D01*
G01X55298Y-51141D01*
G01X55313Y-51113D01*
G01X55326Y-51072D01*
G01Y-51006D01*
G01X55313Y-50966D01*
G01X55298Y-50938D01*
G01X55273Y-50910D01*
G01X55245Y-50897D01*
G01X55191D01*
G01X55163Y-50910D01*
G01X55138Y-50938D01*
G01X55123Y-50966D01*
G01X55110Y-51006D01*
G01Y-51072D01*
G01X55123Y-51113D01*
G01X55138Y-51141D01*
G01X55163Y-51166D01*
G01X55191Y-51182D01*
G01X55245D01*
G01X54968Y-51182D02*
G01X54968Y-50897D01*
G01X54968Y-51182D02*
G01X54780Y-50897D01*
G01X54780Y-51182D02*
G01X54780Y-50897D01*
G04 //text: ON*
G01X55265Y-54992D02*
G01X55293Y-54976D01*
G01X55318Y-54951D01*
G01X55333Y-54923D01*
G01X55346Y-54882D01*
G01Y-54816D01*
G01X55333Y-54776D01*
G01X55318Y-54748D01*
G01X55293Y-54720D01*
G01X55265Y-54707D01*
G01X55211D01*
G01X55183Y-54720D01*
G01X55158Y-54748D01*
G01X55143Y-54776D01*
G01X55130Y-54816D01*
G01Y-54882D01*
G01X55143Y-54923D01*
G01X55158Y-54951D01*
G01X55183Y-54976D01*
G01X55211Y-54992D01*
G01X55265D01*
G01X54988Y-54992D02*
G01X54988Y-54707D01*
G01X54988Y-54992D02*
G01X54800Y-54707D01*
G01X54800Y-54992D02*
G01X54800Y-54707D01*
G04 //text: ON*
G01X55255Y-53692D02*
G01X55282Y-53676D01*
G01X55308Y-53651D01*
G01X55323Y-53623D01*
G01X55336Y-53582D01*
G01Y-53516D01*
G01X55323Y-53476D01*
G01X55308Y-53448D01*
G01X55282Y-53420D01*
G01X55255Y-53407D01*
G01X55201D01*
G01X55173Y-53420D01*
G01X55148Y-53448D01*
G01X55133Y-53476D01*
G01X55120Y-53516D01*
G01Y-53582D01*
G01X55133Y-53623D01*
G01X55148Y-53651D01*
G01X55173Y-53676D01*
G01X55201Y-53692D01*
G01X55255D01*
G01X54978Y-53692D02*
G01X54978Y-53407D01*
G01X54978Y-53692D02*
G01X54790Y-53407D01*
G01X54790Y-53692D02*
G01X54790Y-53407D01*
G04 //text: ON*
G01X55265Y-52392D02*
G01X55293Y-52376D01*
G01X55318Y-52351D01*
G01X55333Y-52323D01*
G01X55346Y-52282D01*
G01Y-52216D01*
G01X55333Y-52176D01*
G01X55318Y-52148D01*
G01X55293Y-52120D01*
G01X55265Y-52107D01*
G01X55211D01*
G01X55183Y-52120D01*
G01X55158Y-52148D01*
G01X55143Y-52176D01*
G01X55130Y-52216D01*
G01Y-52282D01*
G01X55143Y-52323D01*
G01X55158Y-52351D01*
G01X55183Y-52376D01*
G01X55211Y-52392D01*
G01X55265D01*
G01X54988Y-52392D02*
G01X54988Y-52107D01*
G01X54988Y-52392D02*
G01X54800Y-52107D01*
G01X54800Y-52392D02*
G01X54800Y-52107D01*
G04 Text End*

G04 PolygonModel Start*
G54D13*
G01X3400Y-5025D02*
G03X6600Y-5025I1600J0D01*
G03X3400I-1600J0D01*
G01X3400Y-68025D02*
G03X6600Y-68025I1600J0D01*
G03X3400I-1600J0D01*
G01X66400Y-68025D02*
G03X69600Y-68025I1600J0D01*
G03X66400I-1600J0D01*
G01X76400Y-68025D02*
G03X79600Y-68025I1600J0D01*
G03X76400I-1600J0D01*
G01X96400Y-68025D02*
G03X99600Y-68025I1600J0D01*
G03X96400I-1600J0D01*
G01X76400Y-5025D02*
G03X79600Y-5025I1600J0D01*
G03X76400I-1600J0D01*
G01X96400Y-5025D02*
G03X99600Y-5025I1600J0D01*
G03X96400I-1600J0D01*
G01X66400Y-5025D02*
G03X69600Y-5025I1600J0D01*
G03X66400I-1600J0D01*
G01X60383Y-9076D02*
G01X60383Y-4191D01*
G01X60383Y-4191D02*
G01X58148Y-4191D01*
G01X58351Y-9076D02*
G01X58351Y-4191D01*
G01X58351Y-4191D02*
G01X55499Y-4191D01*
G01X55499Y-4191D02*
G01X55499Y-6350D01*
G01X55499Y-6350D02*
G01X52959Y-6350D01*
G01X52959Y-6350D02*
G01X52959Y-4191D01*
G01X52959Y-4191D02*
G01X50419Y-4191D01*
G01X50419Y-4191D02*
G01X50419Y-6350D01*
G01X50419Y-6350D02*
G01X48133Y-6350D01*
G01X48133Y-6350D02*
G01X48133Y-4191D01*
G01X48133Y-4191D02*
G01X45847Y-4191D01*
G01X45847Y-4191D02*
G01X45847Y-7874D01*
G01X44086Y-9076D02*
G01X62103Y-9076D01*
G01X62103Y-9855D02*
G01X62103Y-3048D01*
G01X60752Y-28575D02*
G01X62103Y-28575D01*
G01X62103Y-28575D02*
G01X62103Y-27727D01*
G01X44086Y-27727D02*
G01X44086Y-28575D01*
G01X44086Y-28575D02*
G01X45420Y-28575D01*
G01X44086Y-3036D02*
G01X44086Y-9855D01*
G01X62086Y-3036D02*
G01X44086Y-3036D01*
G54D14*
G01X40209Y-15365D02*
G01X40209Y-13880D01*
G01X38023Y-13880D02*
G01X38023Y-15365D01*
G01X38176Y-15518D02*
G01X40056Y-15518D01*
G01X40209Y-10543D02*
G01X40209Y-12028D01*
G01X38023Y-12028D02*
G01X38023Y-10543D01*
G01X38176Y-10390D02*
G01X40056Y-10390D01*
G01X38023Y-15365D02*
G03X38176Y-15518I152J0D01*
G01X40056Y-15518D02*
G03X40209Y-15365I0J152D01*
G01X38023Y-10543D02*
G02X38176Y-10390I152J0D01*
G01X40056Y-10390D02*
G02X40209Y-10543I0J-152D01*
G01X38100Y-17390D02*
G01X38890Y-17390D01*
G01X38890Y-16392D02*
G01X38100Y-16392D01*
G01X37947Y-16545D02*
G01X37947Y-17237D01*
G01X40132Y-17390D02*
G01X39342Y-17390D01*
G01X39342Y-16392D02*
G01X40132Y-16392D01*
G01X40285Y-16545D02*
G01X40285Y-17237D01*
G01X38100Y-16392D02*
G03X37947Y-16545I0J-152D01*
G01X37947Y-17237D02*
G03X38100Y-17390I152J0D01*
G01X40132Y-16392D02*
G02X40285Y-16545I0J-152D01*
G01X40285Y-17237D02*
G02X40132Y-17390I-152J0D01*
G54D13*
G01X25950Y-57994D02*
G01X25950Y-56400D01*
G01X49450Y-60256D02*
G01X49450Y-61050D01*
G01X49450Y-61050D02*
G01X25950Y-61050D01*
G01X25950Y-61050D02*
G01X25950Y-60256D01*
G01X47831Y-55600D02*
G01X48800Y-55600D01*
G01X48800Y-55600D02*
G01X48800Y-56100D01*
G01X48800Y-56100D02*
G01X49450Y-56100D01*
G01X49450Y-56100D02*
G01X49450Y-57994D01*
G01X25950Y-56550D02*
G01X25950Y-56100D01*
G01X25950Y-56100D02*
G01X26550Y-56100D01*
G01X26550Y-56100D02*
G01X26550Y-55600D01*
G01X26550Y-55600D02*
G01X27569Y-55600D01*
G54D14*
G01X30235Y-38128D02*
G01X30235Y-37410D01*
G01X30235Y-37410D02*
G01X31233Y-37410D01*
G01X31233Y-37410D02*
G01X31233Y-38128D01*
G01X30235Y-38580D02*
G01X30235Y-39298D01*
G01X30235Y-39298D02*
G01X31233Y-39298D01*
G01X31233Y-39298D02*
G01X31233Y-38580D01*
G01X39342Y-17662D02*
G01X40060Y-17662D01*
G01X40060Y-17662D02*
G01X40060Y-18660D01*
G01X40060Y-18660D02*
G01X39342Y-18660D01*
G01X38890Y-17662D02*
G01X38172Y-17662D01*
G01X38172Y-17662D02*
G01X38172Y-18660D01*
G01X38172Y-18660D02*
G01X38890Y-18660D01*
G01X40132Y-19059D02*
G01X39342Y-19059D01*
G01X39342Y-20057D02*
G01X40132Y-20057D01*
G01X40285Y-19904D02*
G01X40285Y-19212D01*
G01X38100Y-19059D02*
G01X38890Y-19059D01*
G01X38890Y-20057D02*
G01X38100Y-20057D01*
G01X37947Y-19904D02*
G01X37947Y-19212D01*
G01X40132Y-20057D02*
G03X40285Y-19904I0J152D01*
G01X40285Y-19212D02*
G03X40132Y-19059I-152J0D01*
G01X38100Y-20057D02*
G02X37947Y-19904I0J152D01*
G01X37947Y-19212D02*
G02X38100Y-19059I152J0D01*
G54D13*
G01X68580Y-13589D02*
G01X68580Y-14605D01*
G01X66548Y-13589D02*
G01X66548Y-14605D01*
G01X68108Y-16297D02*
G01X67020Y-16297D01*
G01X69088Y-15463D02*
G01X69088Y-12731D01*
G01X68108Y-11897D02*
G01X67020Y-11897D01*
G01X66014Y-12716D02*
G01X66014Y-15478D01*
G01X68580Y-14605D02*
G02X66548Y-14605I-1016J0D01*
G01X66548Y-13589D02*
G02X68580Y-13589I1016J0D01*
G01X68580Y-19685D02*
G01X68580Y-20701D01*
G01X66548Y-19685D02*
G01X66548Y-20701D01*
G01X68108Y-22393D02*
G01X67020Y-22393D01*
G01X69088Y-21559D02*
G01X69088Y-18827D01*
G01X68108Y-17993D02*
G01X67020Y-17993D01*
G01X66014Y-18812D02*
G01X66014Y-21574D01*
G01X68580Y-20701D02*
G02X66548Y-20701I-1016J0D01*
G01X66548Y-19685D02*
G02X68580Y-19685I1016J0D01*
G54D14*
G01X30616Y-12474D02*
G01X30616Y-11756D01*
G01X30616Y-11756D02*
G01X31614Y-11756D01*
G01X31614Y-11756D02*
G01X31614Y-12474D01*
G01X30616Y-12926D02*
G01X30616Y-13644D01*
G01X30616Y-13644D02*
G01X31614Y-13644D01*
G01X31614Y-13644D02*
G01X31614Y-12926D01*
G01X29346Y-12474D02*
G01X29346Y-11756D01*
G01X29346Y-11756D02*
G01X30344Y-11756D01*
G01X30344Y-11756D02*
G01X30344Y-12474D01*
G01X29346Y-12926D02*
G01X29346Y-13644D01*
G01X29346Y-13644D02*
G01X30344Y-13644D01*
G01X30344Y-13644D02*
G01X30344Y-12926D01*
G01X23340Y-58810D02*
G01X24058Y-58810D01*
G01X24058Y-58810D02*
G01X24058Y-59808D01*
G01X24058Y-59808D02*
G01X23340Y-59808D01*
G01X22888Y-58810D02*
G01X22170Y-58810D01*
G01X22170Y-58810D02*
G01X22170Y-59808D01*
G01X22170Y-59808D02*
G01X22888Y-59808D01*
G01X23340Y-60080D02*
G01X24058Y-60080D01*
G01X24058Y-60080D02*
G01X24058Y-61078D01*
G01X24058Y-61078D02*
G01X23340Y-61078D01*
G01X22888Y-60080D02*
G01X22170Y-60080D01*
G01X22170Y-60080D02*
G01X22170Y-61078D01*
G01X22170Y-61078D02*
G01X22888Y-61078D01*
G54D16*
G01X98636Y-34100D02*
G01X99398Y-34100D01*
G01X99398Y-34100D02*
G01X99525Y-34100D01*
G54D14*
G01X99299Y-33589D02*
G01X99299Y-33846D01*
G01X99299Y-33846D02*
G01X95969Y-33846D01*
G01X95969Y-33846D02*
G01X95969Y-29274D01*
G01X95969Y-29274D02*
G01X97620Y-29274D01*
G01X97620Y-29274D02*
G01X99271Y-29274D01*
G01X99271Y-29274D02*
G01X99299Y-33589D01*
G54D16*
G01X99525Y-34100D02*
G01X99525Y-33211D01*
G54D14*
G01X97112Y-35360D02*
G01X97902Y-35360D01*
G01X97902Y-34363D02*
G01X97112Y-34363D01*
G01X96960Y-34515D02*
G01X96960Y-35208D01*
G01X99145Y-35360D02*
G01X98355Y-35360D01*
G01X98355Y-34363D02*
G01X99145Y-34363D01*
G01X99297Y-34515D02*
G01X99297Y-35208D01*
G01X97112Y-34363D02*
G03X96960Y-34515I0J-152D01*
G01X96960Y-35208D02*
G03X97112Y-35360I152J0D01*
G01X99145Y-34363D02*
G02X99297Y-34515I0J-152D01*
G01X99297Y-35208D02*
G02X99145Y-35360I-152J0D01*
G01X99018Y-27886D02*
G01X98228Y-27886D01*
G01X98228Y-28883D02*
G01X99018Y-28883D01*
G01X99170Y-28731D02*
G01X99170Y-28038D01*
G01X96985Y-27886D02*
G01X97775Y-27886D01*
G01X97775Y-28883D02*
G01X96985Y-28883D01*
G01X96833Y-28731D02*
G01X96833Y-28038D01*
G01X99018Y-28883D02*
G03X99170Y-28731I0J152D01*
G01X99170Y-28038D02*
G03X99018Y-27886I-152J0D01*
G01X96985Y-28883D02*
G02X96833Y-28731I0J152D01*
G01X96833Y-28038D02*
G02X96985Y-27886I152J0D01*
G54D13*
G01X26928Y-13631D02*
G01X25388Y-13631D01*
G01X26968Y-16849D02*
G01X25368Y-16849D01*
G01X27128Y-14807D02*
G01X27128Y-15691D01*
G54D14*
G01X29328Y-16256D02*
G01X29328Y-15466D01*
G01X28330Y-15466D02*
G01X28330Y-16256D01*
G01X28483Y-16409D02*
G01X29175Y-16409D01*
G01X29328Y-14224D02*
G01X29328Y-15014D01*
G01X28330Y-15014D02*
G01X28330Y-14224D01*
G01X28483Y-14071D02*
G01X29175Y-14071D01*
G01X28330Y-16256D02*
G03X28483Y-16409I152J0D01*
G01X29175Y-16409D02*
G03X29328Y-16256I0J152D01*
G01X28330Y-14224D02*
G02X28483Y-14071I152J0D01*
G01X29175Y-14071D02*
G02X29328Y-14224I0J-152D01*
G54D17*
G01X20828Y-16580D02*
G01X20828Y-16637D01*
G01X20828Y-16637D02*
G01X19177Y-16637D01*
G01X20828Y-14680D02*
G01X20828Y-15546D01*
G01X19177Y-14596D02*
G01X19177Y-13589D01*
G01X19177Y-13589D02*
G01X20828Y-13589D01*
G01X20828Y-13589D02*
G01X20828Y-13646D01*
G01X19177Y-16637D02*
G01X19177Y-15630D01*
G54D14*
G01X23486Y-16092D02*
G01X23486Y-15302D01*
G01X22488Y-15302D02*
G01X22488Y-16092D01*
G01X22641Y-16245D02*
G01X23333Y-16245D01*
G01X23486Y-14060D02*
G01X23486Y-14850D01*
G01X22488Y-14850D02*
G01X22488Y-14060D01*
G01X22641Y-13907D02*
G01X23333Y-13907D01*
G01X22488Y-16092D02*
G03X22641Y-16245I152J0D01*
G01X23333Y-16245D02*
G03X23486Y-16092I0J152D01*
G01X22488Y-14060D02*
G02X22641Y-13907I152J0D01*
G01X23333Y-13907D02*
G02X23486Y-14060I0J-152D01*
G54D16*
G01X25261Y-17435D02*
G01X25261Y-17641D01*
G01X25261Y-18887D02*
G01X25261Y-18691D01*
G54D14*
G01X27013Y-18887D02*
G01X25261Y-18887D01*
G01X27013Y-17435D02*
G01X25261Y-17435D01*
G01X26609Y-18887D02*
G01X26609Y-17435D01*
G36*
G01X26937Y-18963D02*
G01X26937Y-18611D01*
G01X27242D01*
G01Y-18963D01*
G01X26937D01*
G37*
G54D18*
G01X26937Y-18963D02*
G01X26937Y-18611D01*
G01X27242D01*
G01Y-18963D01*
G01X26937D01*
G36*
G01X26937Y-17359D02*
G01X26937Y-17711D01*
G01X27242D01*
G01Y-17359D01*
G01X26937D01*
G37*
G01X26937Y-17359D02*
G01X26937Y-17711D01*
G01X27242D01*
G01Y-17359D01*
G01X26937D01*
G54D14*
G01X20419Y-17662D02*
G01X21137Y-17662D01*
G01X21137Y-17662D02*
G01X21137Y-18660D01*
G01X21137Y-18660D02*
G01X20419Y-18660D01*
G01X19967Y-17662D02*
G01X19249Y-17662D01*
G01X19249Y-17662D02*
G01X19249Y-18660D01*
G01X19249Y-18660D02*
G01X19967Y-18660D01*
G01X24255Y-19100D02*
G01X22770Y-19100D01*
G01X22770Y-21286D02*
G01X24255Y-21286D01*
G01X24408Y-21133D02*
G01X24408Y-19253D01*
G01X19433Y-19100D02*
G01X20918Y-19100D01*
G01X20918Y-21286D02*
G01X19433Y-21286D01*
G01X19280Y-21133D02*
G01X19280Y-19253D01*
G01X24255Y-21286D02*
G03X24408Y-21133I0J152D01*
G01X24408Y-19253D02*
G03X24255Y-19100I-152J0D01*
G01X19433Y-21286D02*
G02X19280Y-21133I0J152D01*
G01X19280Y-19253D02*
G02X19433Y-19100I152J0D01*
G54D13*
G01X16147Y-23485D02*
G01X16147Y-28585D01*
G01X16147Y-28585D02*
G01X12047Y-28585D01*
G01X12047Y-28585D02*
G01X12047Y-23485D01*
G01X14897Y-23485D02*
G01X16147Y-23485D01*
G01X13297Y-23485D02*
G01X12047Y-23485D01*
G01X14897Y-23535D02*
G02X13297Y-23535I-800J375D01*
G54D19*
G01X21406Y-27593D02*
G01X21406Y-27603D01*
G01X21406Y-27603D02*
G01X21075Y-27933D01*
G01X20725Y-27593D02*
G01X20735Y-27593D01*
G01X20735Y-27593D02*
G01X21075Y-27933D01*
G01X20725Y-27593D02*
G01X21406Y-27593D01*
G01X20325Y-27573D02*
G01X20325Y-26423D01*
G01X21826Y-27573D02*
G01X21826Y-26423D01*
G01X20326Y-26423D02*
G01X21805Y-26423D01*
G01X21828Y-27953D02*
G01X21828Y-29003D01*
G01X21428Y-29303D02*
G01X21528Y-29303D01*
G01X21528Y-29303D02*
G01X21828Y-29003D01*
G01X20728Y-29303D02*
G01X21428Y-29303D01*
G01X20728Y-29303D02*
G01X20628Y-29303D01*
G01X20628Y-29303D02*
G01X20328Y-29003D01*
G01X20328Y-27953D02*
G01X20328Y-29003D01*
G01X21075Y-27593D02*
G01X21075Y-27933D01*
G01X21402Y-24253D02*
G01X21402Y-24263D01*
G01X21402Y-24263D02*
G01X21072Y-24593D01*
G01X20722Y-24253D02*
G01X20732Y-24253D01*
G01X20732Y-24253D02*
G01X21072Y-24593D01*
G01X20722Y-24253D02*
G01X21402Y-24253D01*
G01X20322Y-24233D02*
G01X20322Y-23083D01*
G01X21822Y-24233D02*
G01X21822Y-23083D01*
G01X20322Y-23083D02*
G01X21802Y-23083D01*
G01X21824Y-24613D02*
G01X21824Y-25663D01*
G01X21424Y-25963D02*
G01X21524Y-25963D01*
G01X21524Y-25963D02*
G01X21824Y-25663D01*
G01X20724Y-25963D02*
G01X21424Y-25963D01*
G01X20724Y-25963D02*
G01X20624Y-25963D01*
G01X20624Y-25963D02*
G01X20324Y-25663D01*
G01X20324Y-24613D02*
G01X20324Y-25663D01*
G01X21072Y-24253D02*
G01X21072Y-24593D01*
G54D14*
G01X19549Y-24685D02*
G01X19549Y-25403D01*
G01X19549Y-25403D02*
G01X18551Y-25403D01*
G01X18551Y-25403D02*
G01X18551Y-24685D01*
G01X19549Y-24233D02*
G01X19549Y-23515D01*
G01X19549Y-23515D02*
G01X18551Y-23515D01*
G01X18551Y-23515D02*
G01X18551Y-24233D01*
G01X18551Y-27766D02*
G01X18551Y-27048D01*
G01X18551Y-27048D02*
G01X19549Y-27048D01*
G01X19549Y-27048D02*
G01X19549Y-27766D01*
G01X18551Y-28218D02*
G01X18551Y-28936D01*
G01X18551Y-28936D02*
G01X19549Y-28936D01*
G01X19549Y-28936D02*
G01X19549Y-28218D01*
G01X23504Y-56670D02*
G01X23504Y-55952D01*
G01X23504Y-55952D02*
G01X24502Y-55952D01*
G01X24502Y-55952D02*
G01X24502Y-56670D01*
G01X23504Y-57122D02*
G01X23504Y-57840D01*
G01X23504Y-57840D02*
G01X24502Y-57840D01*
G01X24502Y-57840D02*
G01X24502Y-57122D01*
G01X22234Y-56670D02*
G01X22234Y-55952D01*
G01X22234Y-55952D02*
G01X23232Y-55952D01*
G01X23232Y-55952D02*
G01X23232Y-56670D01*
G01X22234Y-57122D02*
G01X22234Y-57840D01*
G01X22234Y-57840D02*
G01X23232Y-57840D01*
G01X23232Y-57840D02*
G01X23232Y-57122D01*
G01X32757Y-38580D02*
G01X32757Y-39298D01*
G01X32757Y-39298D02*
G01X31759Y-39298D01*
G01X31759Y-39298D02*
G01X31759Y-38580D01*
G01X32757Y-38128D02*
G01X32757Y-37410D01*
G01X32757Y-37410D02*
G01X31759Y-37410D01*
G01X31759Y-37410D02*
G01X31759Y-38128D01*
G01X35480Y-32775D02*
G01X36198Y-32775D01*
G01X36198Y-32775D02*
G01X36198Y-33773D01*
G01X36198Y-33773D02*
G01X35480Y-33773D01*
G01X35028Y-32775D02*
G01X34310Y-32775D01*
G01X34310Y-32775D02*
G01X34310Y-33773D01*
G01X34310Y-33773D02*
G01X35028Y-33773D01*
G01X37239Y-33773D02*
G01X36521Y-33773D01*
G01X36521Y-33773D02*
G01X36521Y-32775D01*
G01X36521Y-32775D02*
G01X37239Y-32775D01*
G01X37691Y-33773D02*
G01X38409Y-33773D01*
G01X38409Y-33773D02*
G01X38409Y-32775D01*
G01X38409Y-32775D02*
G01X37691Y-32775D01*
G01X17018Y-56881D02*
G01X15240Y-56881D01*
G01X17018Y-59959D02*
G01X15240Y-59959D01*
G54D13*
G01X58827Y-61203D02*
G01X58827Y-63003D01*
G01X55727Y-61203D02*
G01X55727Y-63003D01*
G01X53848Y-62288D02*
G01X53848Y-61894D01*
G01X51816Y-61894D02*
G01X51816Y-62288D01*
G54D16*
G01X54374Y-61316D02*
G01X54261Y-61316D01*
G01X54261Y-61316D02*
G01X54261Y-61554D01*
G01X55213Y-61554D02*
G01X55213Y-61316D01*
G01X55213Y-61316D02*
G01X55093Y-61316D01*
G54D14*
G01X55213Y-61554D02*
G01X55213Y-62906D01*
G01X54261Y-61554D02*
G01X54261Y-62906D01*
G36*
G01X55289Y-61630D02*
G01X55069Y-61630D01*
G01Y-61325D01*
G01X55289D01*
G01Y-61630D01*
G37*
G54D18*
G01X55289Y-61630D02*
G01X55069Y-61630D01*
G01Y-61325D01*
G01X55289D01*
G01Y-61630D01*
G36*
G01X54185Y-61670D02*
G01X54405Y-61670D01*
G01Y-61366D01*
G01X54185D01*
G01Y-61670D01*
G37*
G01X54185Y-61670D02*
G01X54405Y-61670D01*
G01Y-61366D01*
G01X54185D01*
G01Y-61670D01*
G54D14*
G01X59572Y-61877D02*
G01X59572Y-61159D01*
G01X59572Y-61159D02*
G01X60570Y-61159D01*
G01X60570Y-61159D02*
G01X60570Y-61877D01*
G01X59572Y-62329D02*
G01X59572Y-63047D01*
G01X59572Y-63047D02*
G01X60570Y-63047D01*
G01X60570Y-63047D02*
G01X60570Y-62329D01*
G54D13*
G01X54603Y-58401D02*
G01X54603Y-59201D01*
G01X53493Y-58091D02*
G01X54293Y-58091D01*
G01X53493Y-59511D02*
G01X54293Y-59511D01*
G01X52917Y-58086D02*
G01X52117Y-58086D01*
G01X51808Y-58395D02*
G01X51808Y-59195D01*
G01X52917Y-59505D02*
G01X52117Y-59505D01*
G01X51807Y-58395D02*
G02X52117Y-58086I310J0D01*
G01X52117Y-59505D02*
G02X51807Y-59195I-0J310D01*
G01X54293Y-58091D02*
G02X54603Y-58401I0J-310D01*
G01X54603Y-59201D02*
G02X54293Y-59511I-310J0D01*
G01X54603Y-65513D02*
G01X54603Y-66313D01*
G01X53493Y-65203D02*
G01X54293Y-65203D01*
G01X53493Y-66623D02*
G01X54293Y-66623D01*
G01X52917Y-65198D02*
G01X52117Y-65198D01*
G01X51808Y-65507D02*
G01X51808Y-66307D01*
G01X52917Y-66617D02*
G01X52117Y-66617D01*
G01X51807Y-65507D02*
G02X52117Y-65198I310J0D01*
G01X52117Y-66617D02*
G02X51807Y-66307I-0J310D01*
G01X54293Y-65203D02*
G02X54603Y-65513I0J-310D01*
G01X54603Y-66313D02*
G02X54293Y-66623I-310J0D01*
G01X56268Y-59074D02*
G01X56268Y-58274D01*
G01X57378Y-59384D02*
G01X56578Y-59384D01*
G01X57378Y-57964D02*
G01X56578Y-57964D01*
G01X57954Y-59389D02*
G01X58754Y-59389D01*
G01X59063Y-59080D02*
G01X59063Y-58280D01*
G01X57954Y-57970D02*
G01X58754Y-57970D01*
G01X59064Y-59080D02*
G02X58754Y-59389I-310J0D01*
G01X58754Y-57970D02*
G02X59064Y-58280I0J-310D01*
G01X56578Y-59384D02*
G02X56268Y-59074I-0J310D01*
G01X56268Y-58274D02*
G02X56578Y-57964I310J0D01*
G54D14*
G01X57839Y-66574D02*
G01X58798Y-66574D01*
G01X58798Y-66574D02*
G01X58798Y-65252D01*
G01X58798Y-65252D02*
G01X57839Y-65252D01*
G01X56986Y-66574D02*
G01X56028Y-66574D01*
G01X56028Y-66574D02*
G01X56028Y-65252D01*
G01X56028Y-65252D02*
G01X56986Y-65252D01*
G54D20*
G01X85560Y-35281D02*
G01X85560Y-29083D01*
G01X85560Y-29083D02*
G01X92215Y-29083D01*
G01X92215Y-29083D02*
G01X92215Y-35712D01*
G01X92215Y-35712D02*
G01X85560Y-35712D01*
G01X85560Y-35712D02*
G01X85560Y-34950D01*
G54D21*
G01X92960Y-35775D02*
G03X93360Y-35774I200J1D01*
G03X92960Y-35772I-200J0D01*
G54D13*
G01X8704Y-12837D02*
G01X8704Y-10414D01*
G01X8704Y-10414D02*
G01X7774Y-10414D01*
G01X7774Y-17780D02*
G01X8703Y-17780D01*
G01X8703Y-17780D02*
G01X8703Y-15358D01*
G01X4893Y-12098D02*
G01X4893Y-16096D01*
G01X8693Y-60418D02*
G01X8693Y-61222D01*
G01X8693Y-54532D02*
G01X8693Y-55406D01*
G01X8693Y-54532D02*
G01X7849Y-54532D01*
G01X4893Y-61056D02*
G01X4893Y-54768D01*
G01X8693Y-61292D02*
G01X7849Y-61292D01*
G36*
G01X9763Y-55322D02*
G01X9763Y-54322D01*
G01X9013Y-54822D01*
G01X9763Y-55322D01*
G37*
G54D18*
G01X9763Y-55322D02*
G01X9763Y-54322D01*
G01X9013Y-54822D01*
G01X9763Y-55322D01*
G54D13*
G01X12089Y-37187D02*
G01X12481Y-37187D01*
G01X14693Y-37187D02*
G01X15089Y-37187D01*
G01X15089Y-34187D02*
G01X14693Y-34187D01*
G01X12481Y-34187D02*
G01X12089Y-34187D01*
G01X12089Y-37187D02*
G01X12089Y-36791D01*
G01X12089Y-34581D02*
G01X12089Y-34187D01*
G01X15089Y-37187D02*
G01X15089Y-36791D01*
G01X15089Y-34579D02*
G01X15089Y-34187D01*
G54D14*
G01X18314Y-35261D02*
G01X18314Y-34302D01*
G01X18314Y-34302D02*
G01X16992Y-34302D01*
G01X16992Y-34302D02*
G01X16992Y-35261D01*
G01X18314Y-36113D02*
G01X18314Y-37072D01*
G01X18314Y-37072D02*
G01X16992Y-37072D01*
G01X16992Y-37072D02*
G01X16992Y-36113D01*
G01X13464Y-32716D02*
G01X14949Y-32716D01*
G01X14949Y-30530D02*
G01X13464Y-30530D01*
G01X13311Y-30683D02*
G01X13311Y-32563D01*
G01X18286Y-32716D02*
G01X16801Y-32716D01*
G01X16801Y-30530D02*
G01X18286Y-30530D01*
G01X18439Y-30683D02*
G01X18439Y-32563D01*
G01X13464Y-30530D02*
G03X13311Y-30683I0J-152D01*
G01X13311Y-32563D02*
G03X13464Y-32716I152J0D01*
G01X18286Y-30530D02*
G02X18439Y-30683I0J-152D01*
G01X18439Y-32563D02*
G02X18286Y-32716I-152J0D01*
G54D13*
G01X8704Y-33411D02*
G01X8704Y-30988D01*
G01X8704Y-30988D02*
G01X7774Y-30988D01*
G01X7774Y-38354D02*
G01X8703Y-38354D01*
G01X8703Y-38354D02*
G01X8703Y-35932D01*
G01X4893Y-32672D02*
G01X4893Y-36670D01*
G54D14*
G01X16465Y-38582D02*
G01X15506Y-38582D01*
G01X15506Y-38582D02*
G01X15506Y-39904D01*
G01X15506Y-39904D02*
G01X16465Y-39904D01*
G01X17317Y-38582D02*
G01X18276Y-38582D01*
G01X18276Y-38582D02*
G01X18276Y-39904D01*
G01X18276Y-39904D02*
G01X17317Y-39904D01*
G01X13036Y-38582D02*
G01X12077Y-38582D01*
G01X12077Y-38582D02*
G01X12077Y-39904D01*
G01X12077Y-39904D02*
G01X13036Y-39904D01*
G01X13888Y-38582D02*
G01X14847Y-38582D01*
G01X14847Y-38582D02*
G01X14847Y-39904D01*
G01X14847Y-39904D02*
G01X13888Y-39904D01*
G54D13*
G01X27974Y-8693D02*
G01X27170Y-8693D01*
G01X33860Y-8693D02*
G01X32986Y-8693D01*
G01X33860Y-8693D02*
G01X33860Y-7849D01*
G01X27336Y-4893D02*
G01X33624Y-4893D01*
G01X27100Y-8693D02*
G01X27100Y-7849D01*
G36*
G01X33070Y-9763D02*
G01X34070Y-9763D01*
G01X33570Y-9013D01*
G01X33070Y-9763D01*
G37*
G54D18*
G01X33070Y-9763D02*
G01X34070Y-9763D01*
G01X33570Y-9013D01*
G01X33070Y-9763D01*
G54D14*
G01X38407Y-34754D02*
G01X38652Y-34754D01*
G01X38652Y-34754D02*
G01X38652Y-34999D01*
G01X38407Y-38906D02*
G01X38652Y-38906D01*
G01X38652Y-38906D02*
G01X38652Y-38661D01*
G01X34745Y-34754D02*
G01X34500Y-34754D01*
G01X34500Y-34754D02*
G01X34500Y-34999D01*
G01X34745Y-38906D02*
G01X34500Y-38906D01*
G01X34500Y-38906D02*
G01X34500Y-38661D01*
G54D13*
G01X63570Y-54898D02*
G01X63570Y-54094D01*
G01X63570Y-60784D02*
G01X63570Y-59910D01*
G01X63570Y-60784D02*
G01X64414Y-60784D01*
G01X67370Y-54260D02*
G01X67370Y-60548D01*
G01X63570Y-54024D02*
G01X64414Y-54024D01*
G36*
G01X62500Y-59994D02*
G01X62500Y-60994D01*
G01X63250Y-60494D01*
G01X62500Y-59994D01*
G37*
G54D18*
G01X62500Y-59994D02*
G01X62500Y-60994D01*
G01X63250Y-60494D01*
G01X62500Y-59994D01*
G54D14*
G01X18415Y-10296D02*
G01X17625Y-10296D01*
G01X17625Y-11294D02*
G01X18415Y-11294D01*
G01X18568Y-11141D02*
G01X18568Y-10449D01*
G01X16383Y-10296D02*
G01X17173Y-10296D01*
G01X17173Y-11294D02*
G01X16383Y-11294D01*
G01X16230Y-11141D02*
G01X16230Y-10449D01*
G01X18415Y-11294D02*
G03X18568Y-11141I0J152D01*
G01X18568Y-10449D02*
G03X18415Y-10296I-152J0D01*
G01X16383Y-11294D02*
G02X16230Y-11141I0J152D01*
G01X16230Y-10449D02*
G02X16383Y-10296I152J0D01*
G01X28170Y-28128D02*
G01X28170Y-27410D01*
G01X28170Y-27410D02*
G01X29167Y-27410D01*
G01X29167Y-27410D02*
G01X29167Y-28128D01*
G01X28170Y-28581D02*
G01X28170Y-29299D01*
G01X28170Y-29299D02*
G01X29167Y-29299D01*
G01X29167Y-29299D02*
G01X29167Y-28581D01*
G01X23979Y-27301D02*
G01X23979Y-28091D01*
G01X24976Y-28091D02*
G01X24976Y-27301D01*
G01X24824Y-27149D02*
G01X24131Y-27149D01*
G01X23979Y-29334D02*
G01X23979Y-28544D01*
G01X24976Y-28544D02*
G01X24976Y-29334D01*
G01X24824Y-29486D02*
G01X24131Y-29486D01*
G01X24976Y-27301D02*
G03X24824Y-27149I-152J0D01*
G01X24131Y-27149D02*
G03X23979Y-27301I0J-152D01*
G01X24976Y-29334D02*
G02X24824Y-29486I-152J0D01*
G01X24131Y-29486D02*
G02X23979Y-29334I0J152D01*
G01X26283Y-25932D02*
G01X25565Y-25932D01*
G01X25565Y-25932D02*
G01X25565Y-24935D01*
G01X25565Y-24935D02*
G01X26283Y-24935D01*
G01X26736Y-25932D02*
G01X27454Y-25932D01*
G01X27454Y-25932D02*
G01X27454Y-24935D01*
G01X27454Y-24935D02*
G01X26736Y-24935D01*
G01X25110Y-23566D02*
G01X25110Y-21713D01*
G01X28163Y-23566D02*
G01X28163Y-21713D01*
G54D19*
G01X25570Y-29471D02*
G01X25570Y-27171D01*
G01X27770Y-27171D02*
G01X27770Y-27988D01*
G01X27770Y-29471D02*
G01X27770Y-28603D01*
G01X27770Y-28603D02*
G02X27769Y-27988I-1J308D01*
G54D13*
G01X18659Y-8704D02*
G01X21082Y-8704D01*
G01X21082Y-8704D02*
G01X21082Y-7774D01*
G01X13716Y-7774D02*
G01X13716Y-8703D01*
G01X13716Y-8703D02*
G01X16138Y-8703D01*
G01X19398Y-4893D02*
G01X15400Y-4893D01*
G01X8693Y-48099D02*
G01X8693Y-48903D01*
G01X8693Y-42213D02*
G01X8693Y-43087D01*
G01X8693Y-42213D02*
G01X7849Y-42213D01*
G01X4893Y-48737D02*
G01X4893Y-42449D01*
G01X8693Y-48973D02*
G01X7849Y-48973D01*
G36*
G01X9763Y-43003D02*
G01X9763Y-42003D01*
G01X9013Y-42503D01*
G01X9763Y-43003D01*
G37*
G54D18*
G01X9763Y-43003D02*
G01X9763Y-42003D01*
G01X9013Y-42503D01*
G01X9763Y-43003D01*
G54D14*
G01X26952Y-31614D02*
G01X26234Y-31614D01*
G01X26234Y-31614D02*
G01X26234Y-30616D01*
G01X26234Y-30616D02*
G01X26952Y-30616D01*
G01X27404Y-31614D02*
G01X28122Y-31614D01*
G01X28122Y-31614D02*
G01X28122Y-30616D01*
G01X28122Y-30616D02*
G01X27404Y-30616D01*
G54D13*
G01X66816Y-43636D02*
G01X66816Y-44275D01*
G01X66816Y-45387D02*
G01X66816Y-45545D01*
G01X66816Y-46657D02*
G01X66816Y-46815D01*
G01X66816Y-47927D02*
G01X66816Y-48085D01*
G01X66816Y-49197D02*
G01X66816Y-49836D01*
G01X66816Y-49836D02*
G01X62216Y-49836D01*
G01X62216Y-49836D02*
G01X62216Y-49197D01*
G01X62216Y-48085D02*
G01X62216Y-47927D01*
G01X62216Y-46815D02*
G01X62216Y-46657D01*
G01X62216Y-45545D02*
G01X62216Y-45387D01*
G01X62216Y-44275D02*
G01X62216Y-43636D01*
G01X62216Y-43636D02*
G01X66816Y-43636D01*
G01X63796Y-33622D02*
G01X63796Y-32818D01*
G01X63796Y-39508D02*
G01X63796Y-38635D01*
G01X63796Y-39508D02*
G01X64640Y-39508D01*
G01X67596Y-32985D02*
G01X67596Y-39272D01*
G01X63796Y-32748D02*
G01X64640Y-32748D01*
G36*
G01X62726Y-38718D02*
G01X62726Y-39718D01*
G01X63476Y-39218D01*
G01X62726Y-38718D01*
G37*
G54D18*
G01X62726Y-38718D02*
G01X62726Y-39718D01*
G01X63476Y-39218D01*
G01X62726Y-38718D01*
G54D14*
G01X62475Y-34888D02*
G01X62475Y-34098D01*
G01X61477Y-34098D02*
G01X61477Y-34888D01*
G01X61630Y-35041D02*
G01X62322Y-35041D01*
G01X62475Y-32856D02*
G01X62475Y-33646D01*
G01X61477Y-33646D02*
G01X61477Y-32856D01*
G01X61630Y-32703D02*
G01X62322Y-32703D01*
G01X61477Y-34888D02*
G03X61630Y-35041I152J0D01*
G01X62322Y-35041D02*
G03X62475Y-34888I0J152D01*
G01X61477Y-32856D02*
G02X61630Y-32703I152J0D01*
G01X62322Y-32703D02*
G02X62475Y-32856I0J-152D01*
G01X61477Y-37592D02*
G01X61477Y-38382D01*
G01X62475Y-38382D02*
G01X62475Y-37592D01*
G01X62322Y-37439D02*
G01X61630Y-37439D01*
G01X61477Y-39624D02*
G01X61477Y-38834D01*
G01X62475Y-38834D02*
G01X62475Y-39624D01*
G01X62322Y-39777D02*
G01X61630Y-39777D01*
G01X62475Y-37592D02*
G03X62322Y-37439I-152J0D01*
G01X61630Y-37439D02*
G03X61477Y-37592I0J-152D01*
G01X62475Y-39624D02*
G02X62322Y-39777I-152J0D01*
G01X61630Y-39777D02*
G02X61477Y-39624I0J152D01*
G54D13*
G01X18288Y-43852D02*
G01X18288Y-43102D01*
G01X18288Y-51652D02*
G01X18288Y-52402D01*
G01X18288Y-43102D02*
G01X17399Y-43102D01*
G01X17399Y-43102D02*
G01X17399Y-41602D01*
G01X18288Y-52402D02*
G01X17399Y-52402D01*
G01X17399Y-52402D02*
G01X17399Y-53902D01*
G01X14224Y-43434D02*
G01X14224Y-51943D01*
G54D14*
G01X27419Y-53083D02*
G01X24376Y-53083D01*
G01X24376Y-53083D02*
G01X24376Y-48031D01*
G01X24376Y-48031D02*
G01X27419Y-48031D01*
G01X27419Y-48031D02*
G01X27419Y-53083D01*
G01X27429Y-47357D02*
G01X24387Y-47357D01*
G01X24387Y-47357D02*
G01X24387Y-42305D01*
G01X24387Y-42305D02*
G01X27429Y-42305D01*
G01X27429Y-42305D02*
G01X27429Y-47357D01*
G01X21489Y-44024D02*
G01X21489Y-43065D01*
G01X21489Y-43065D02*
G01X20167Y-43065D01*
G01X20167Y-43065D02*
G01X20167Y-44024D01*
G01X21489Y-44876D02*
G01X21489Y-45835D01*
G01X21489Y-45835D02*
G01X20167Y-45835D01*
G01X20167Y-45835D02*
G01X20167Y-44876D01*
G01X20157Y-51364D02*
G01X20157Y-52323D01*
G01X20157Y-52323D02*
G01X21478Y-52323D01*
G01X21478Y-52323D02*
G01X21478Y-51364D01*
G01X20157Y-50512D02*
G01X20157Y-49553D01*
G01X20157Y-49553D02*
G01X21478Y-49553D01*
G01X21478Y-49553D02*
G01X21478Y-50512D01*
G54D13*
G01X30226Y-24003D02*
G01X30226Y-22987D01*
G01X32258Y-24003D02*
G01X32258Y-22987D01*
G01X30698Y-21295D02*
G01X31786Y-21295D01*
G01X29718Y-22129D02*
G01X29718Y-24861D01*
G01X30698Y-25695D02*
G01X31786Y-25695D01*
G01X32792Y-24876D02*
G01X32792Y-22114D01*
G01X30226Y-22987D02*
G02X32258Y-22987I1016J0D01*
G01X32258Y-24003D02*
G02X30226Y-24003I-1016J0D01*
G54D17*
G01X28391Y-36703D02*
G01X28448Y-36703D01*
G01X28448Y-36703D02*
G01X28448Y-38354D01*
G01X26491Y-36703D02*
G01X27357Y-36703D01*
G01X26407Y-38354D02*
G01X25400Y-38354D01*
G01X25400Y-38354D02*
G01X25400Y-36703D01*
G01X25400Y-36703D02*
G01X25457Y-36703D01*
G01X28448Y-38354D02*
G01X27441Y-38354D01*
G54D14*
G01X27314Y-34191D02*
G01X27314Y-33473D01*
G01X27314Y-33473D02*
G01X28312Y-33473D01*
G01X28312Y-33473D02*
G01X28312Y-34191D01*
G01X27314Y-34643D02*
G01X27314Y-35361D01*
G01X27314Y-35361D02*
G01X28312Y-35361D01*
G01X28312Y-35361D02*
G01X28312Y-34643D01*
G01X24012Y-38053D02*
G01X24012Y-37335D01*
G01X24012Y-37335D02*
G01X25010Y-37335D01*
G01X25010Y-37335D02*
G01X25010Y-38053D01*
G01X24012Y-38505D02*
G01X24012Y-39223D01*
G01X24012Y-39223D02*
G01X25010Y-39223D01*
G01X25010Y-39223D02*
G01X25010Y-38505D01*
G01X22451Y-34553D02*
G01X23169Y-34553D01*
G01X23169Y-34553D02*
G01X23169Y-35551D01*
G01X23169Y-35551D02*
G01X22451Y-35551D01*
G01X21999Y-34553D02*
G01X21281Y-34553D01*
G01X21281Y-34553D02*
G01X21281Y-35551D01*
G01X21281Y-35551D02*
G01X21999Y-35551D01*
G01X25409Y-34191D02*
G01X25409Y-33473D01*
G01X25409Y-33473D02*
G01X26407Y-33473D01*
G01X26407Y-33473D02*
G01X26407Y-34191D01*
G01X25409Y-34643D02*
G01X25409Y-35361D01*
G01X25409Y-35361D02*
G01X26407Y-35361D01*
G01X26407Y-35361D02*
G01X26407Y-34643D01*
G01X20572Y-36993D02*
G01X20572Y-38445D01*
G01X20572Y-38445D02*
G01X21603Y-38445D01*
G01X23624Y-36993D02*
G01X23624Y-38445D01*
G01X23624Y-38445D02*
G01X22593Y-38445D01*
G01X21643Y-36993D02*
G01X22553Y-36993D01*
G01X90675Y-68058D02*
G01X87633Y-68058D01*
G01X87633Y-68058D02*
G01X87633Y-63006D01*
G01X87633Y-63006D02*
G01X90675Y-63006D01*
G01X90675Y-63006D02*
G01X90675Y-68058D01*
G01X89659Y-9003D02*
G01X86617Y-9003D01*
G01X86617Y-9003D02*
G01X86617Y-3951D01*
G01X86617Y-3951D02*
G01X89659Y-3951D01*
G01X89659Y-3951D02*
G01X89659Y-9003D01*
G01X83719Y-6178D02*
G01X83719Y-5219D01*
G01X83719Y-5219D02*
G01X82397Y-5219D01*
G01X82397Y-5219D02*
G01X82397Y-6178D01*
G01X83719Y-7030D02*
G01X83719Y-7989D01*
G01X83719Y-7989D02*
G01X82397Y-7989D01*
G01X82397Y-7989D02*
G01X82397Y-7030D01*
G01X83159Y-65958D02*
G01X83159Y-66917D01*
G01X83159Y-66917D02*
G01X84481Y-66917D01*
G01X84481Y-66917D02*
G01X84481Y-65958D01*
G01X83159Y-65106D02*
G01X83159Y-64147D01*
G01X83159Y-64147D02*
G01X84481Y-64147D01*
G01X84481Y-64147D02*
G01X84481Y-65106D01*
G54D13*
G01X80645Y-31660D02*
G01X80645Y-30910D01*
G01X80645Y-39460D02*
G01X80645Y-40210D01*
G01X80645Y-30910D02*
G01X79756Y-30910D01*
G01X79756Y-30910D02*
G01X79756Y-29410D01*
G01X80645Y-40210D02*
G01X79756Y-40210D01*
G01X79756Y-40210D02*
G01X79756Y-41710D01*
G01X76581Y-31242D02*
G01X76581Y-39751D01*
G01X98736Y-57497D02*
G01X98736Y-58301D01*
G01X98736Y-51611D02*
G01X98736Y-52485D01*
G01X98736Y-51611D02*
G01X97892Y-51611D01*
G01X94936Y-58135D02*
G01X94936Y-51847D01*
G01X98736Y-58371D02*
G01X97892Y-58371D01*
G36*
G01X99806Y-52401D02*
G01X99806Y-51401D01*
G01X99056Y-51901D01*
G01X99806Y-52401D01*
G37*
G54D18*
G01X99806Y-52401D02*
G01X99806Y-51401D01*
G01X99056Y-51901D01*
G01X99806Y-52401D01*
G54D14*
G01X33646Y-36830D02*
G01X33646Y-36040D01*
G01X32648Y-36040D02*
G01X32648Y-36830D01*
G01X32801Y-36983D02*
G01X33493Y-36983D01*
G01X33646Y-34798D02*
G01X33646Y-35588D01*
G01X32648Y-35588D02*
G01X32648Y-34798D01*
G01X32801Y-34645D02*
G01X33493Y-34645D01*
G01X32648Y-36830D02*
G03X32801Y-36983I152J0D01*
G01X33493Y-36983D02*
G03X33646Y-36830I0J152D01*
G01X32648Y-34798D02*
G02X32801Y-34645I152J0D01*
G01X33493Y-34645D02*
G02X33646Y-34798I0J-152D01*
G01X87122Y-10659D02*
G01X87912Y-10659D01*
G01X87912Y-9661D02*
G01X87122Y-9661D01*
G01X86969Y-9814D02*
G01X86969Y-10506D01*
G01X89154Y-10659D02*
G01X88364Y-10659D01*
G01X88364Y-9661D02*
G01X89154Y-9661D01*
G01X89307Y-9814D02*
G01X89307Y-10506D01*
G01X87122Y-9661D02*
G03X86969Y-9814I0J-152D01*
G01X86969Y-10506D02*
G03X87122Y-10659I152J0D01*
G01X89154Y-9661D02*
G02X89307Y-9814I0J-152D01*
G01X89307Y-10506D02*
G02X89154Y-10659I-152J0D01*
G01X88138Y-69460D02*
G01X88928Y-69460D01*
G01X88928Y-68462D02*
G01X88138Y-68462D01*
G01X87985Y-68615D02*
G01X87985Y-69307D01*
G01X90170Y-69460D02*
G01X89380Y-69460D01*
G01X89380Y-68462D02*
G01X90170Y-68462D01*
G01X90323Y-68615D02*
G01X90323Y-69307D01*
G01X88138Y-68462D02*
G03X87985Y-68615I0J-152D01*
G01X87985Y-69307D02*
G03X88138Y-69460I152J0D01*
G01X90170Y-68462D02*
G02X90323Y-68615I0J-152D01*
G01X90323Y-69307D02*
G02X90170Y-69460I-152J0D01*
G01X96012Y-37075D02*
G01X96802Y-37075D01*
G01X96802Y-36077D02*
G01X96012Y-36077D01*
G01X95859Y-36230D02*
G01X95859Y-36922D01*
G01X98044Y-37075D02*
G01X97254Y-37075D01*
G01X97254Y-36077D02*
G01X98044Y-36077D01*
G01X98197Y-36230D02*
G01X98197Y-36922D01*
G01X96012Y-36077D02*
G03X95859Y-36230I0J-152D01*
G01X95859Y-36922D02*
G03X96012Y-37075I152J0D01*
G01X98044Y-36077D02*
G02X98197Y-36230I0J-152D01*
G01X98197Y-36922D02*
G02X98044Y-37075I-152J0D01*
G01X81144Y-20292D02*
G01X81144Y-21010D01*
G01X81144Y-21010D02*
G01X80146Y-21010D01*
G01X80146Y-21010D02*
G01X80146Y-20292D01*
G01X81144Y-19840D02*
G01X81144Y-19122D01*
G01X81144Y-19122D02*
G01X80146Y-19122D01*
G01X80146Y-19122D02*
G01X80146Y-19840D01*
G01X90052Y-14859D02*
G01X90052Y-15649D01*
G01X91050Y-15649D02*
G01X91050Y-14859D01*
G01X90897Y-14706D02*
G01X90205Y-14706D01*
G01X90052Y-16891D02*
G01X90052Y-16101D01*
G01X91050Y-16101D02*
G01X91050Y-16891D01*
G01X90897Y-17044D02*
G01X90205Y-17044D01*
G01X91050Y-14859D02*
G03X90897Y-14706I-152J0D01*
G01X90205Y-14706D02*
G03X90052Y-14859I0J-152D01*
G01X91050Y-16891D02*
G02X90897Y-17044I-152J0D01*
G01X90205Y-17044D02*
G02X90052Y-16891I0J152D01*
G01X88528Y-15522D02*
G01X88528Y-14804D01*
G01X88528Y-14804D02*
G01X89526Y-14804D01*
G01X89526Y-14804D02*
G01X89526Y-15522D01*
G01X88528Y-15974D02*
G01X88528Y-16692D01*
G01X88528Y-16692D02*
G01X89526Y-16692D01*
G01X89526Y-16692D02*
G01X89526Y-15974D01*
G01X89526Y-20367D02*
G01X89526Y-21085D01*
G01X89526Y-21085D02*
G01X88528Y-21085D01*
G01X88528Y-21085D02*
G01X88528Y-20367D01*
G01X89526Y-19915D02*
G01X89526Y-19197D01*
G01X89526Y-19197D02*
G01X88528Y-19197D01*
G01X88528Y-19197D02*
G01X88528Y-19915D01*
G01X91050Y-21045D02*
G01X91050Y-20255D01*
G01X90052Y-20255D02*
G01X90052Y-21045D01*
G01X90205Y-21198D02*
G01X90897Y-21198D01*
G01X91050Y-19013D02*
G01X91050Y-19803D01*
G01X90052Y-19803D02*
G01X90052Y-19013D01*
G01X90205Y-18860D02*
G01X90897Y-18860D01*
G01X90052Y-21045D02*
G03X90205Y-21198I152J0D01*
G01X90897Y-21198D02*
G03X91050Y-21045I0J152D01*
G01X90052Y-19013D02*
G02X90205Y-18860I152J0D01*
G01X90897Y-18860D02*
G02X91050Y-19013I0J-152D01*
G01X81652Y-57376D02*
G01X81652Y-58094D01*
G01X81652Y-58094D02*
G01X80654Y-58094D01*
G01X80654Y-58094D02*
G01X80654Y-57376D01*
G01X81652Y-56924D02*
G01X81652Y-56206D01*
G01X81652Y-56206D02*
G01X80654Y-56206D01*
G01X80654Y-56206D02*
G01X80654Y-56924D01*
G01X90179Y-52033D02*
G01X90179Y-52823D01*
G01X91177Y-52823D02*
G01X91177Y-52033D01*
G01X91024Y-51880D02*
G01X90332Y-51880D01*
G01X90179Y-54065D02*
G01X90179Y-53275D01*
G01X91177Y-53275D02*
G01X91177Y-54065D01*
G01X91024Y-54218D02*
G01X90332Y-54218D01*
G01X91177Y-52033D02*
G03X91024Y-51880I-152J0D01*
G01X90332Y-51880D02*
G03X90179Y-52033I0J-152D01*
G01X91177Y-54065D02*
G02X91024Y-54218I-152J0D01*
G01X90332Y-54218D02*
G02X90179Y-54065I0J152D01*
G01X88655Y-52606D02*
G01X88655Y-51888D01*
G01X88655Y-51888D02*
G01X89653Y-51888D01*
G01X89653Y-51888D02*
G01X89653Y-52606D01*
G01X88655Y-53058D02*
G01X88655Y-53776D01*
G01X88655Y-53776D02*
G01X89653Y-53776D01*
G01X89653Y-53776D02*
G01X89653Y-53058D01*
G01X89653Y-57376D02*
G01X89653Y-58094D01*
G01X89653Y-58094D02*
G01X88655Y-58094D01*
G01X88655Y-58094D02*
G01X88655Y-57376D01*
G01X89653Y-56924D02*
G01X89653Y-56206D01*
G01X89653Y-56206D02*
G01X88655Y-56206D01*
G01X88655Y-56206D02*
G01X88655Y-56924D01*
G01X91177Y-58002D02*
G01X91177Y-57212D01*
G01X90179Y-57212D02*
G01X90179Y-58002D01*
G01X90332Y-58155D02*
G01X91024Y-58155D01*
G01X91177Y-55970D02*
G01X91177Y-56760D01*
G01X90179Y-56760D02*
G01X90179Y-55970D01*
G01X90332Y-55817D02*
G01X91024Y-55817D01*
G01X90179Y-58002D02*
G03X90332Y-58155I152J0D01*
G01X91024Y-58155D02*
G03X91177Y-58002I0J152D01*
G01X90179Y-55970D02*
G02X90332Y-55817I152J0D01*
G01X91024Y-55817D02*
G02X91177Y-55970I0J-152D01*
G01X21999Y-31868D02*
G01X21281Y-31868D01*
G01X21281Y-31868D02*
G01X21281Y-30870D01*
G01X21281Y-30870D02*
G01X21999Y-30870D01*
G01X22451Y-31868D02*
G01X23169Y-31868D01*
G01X23169Y-31868D02*
G01X23169Y-30870D01*
G01X23169Y-30870D02*
G01X22451Y-30870D01*
G01X22451Y-32267D02*
G01X23169Y-32267D01*
G01X23169Y-32267D02*
G01X23169Y-33265D01*
G01X23169Y-33265D02*
G01X22451Y-33265D01*
G01X21999Y-32267D02*
G01X21281Y-32267D01*
G01X21281Y-32267D02*
G01X21281Y-33265D01*
G01X21281Y-33265D02*
G01X21999Y-33265D01*
G54D13*
G01X58434Y-49605D02*
G01X58434Y-50244D01*
G01X58434Y-51356D02*
G01X58434Y-51514D01*
G01X58434Y-52626D02*
G01X58434Y-52784D01*
G01X58434Y-53896D02*
G01X58434Y-54054D01*
G01X58434Y-55166D02*
G01X58434Y-55805D01*
G01X58434Y-55805D02*
G01X53834Y-55805D01*
G01X53834Y-55805D02*
G01X53834Y-55166D01*
G01X53834Y-54054D02*
G01X53834Y-53896D01*
G01X53834Y-52784D02*
G01X53834Y-52626D01*
G01X53834Y-51514D02*
G01X53834Y-51356D01*
G01X53834Y-50244D02*
G01X53834Y-49605D01*
G01X53834Y-49605D02*
G01X58434Y-49605D01*
G54D14*
G01X31106Y-43787D02*
G01X31106Y-44505D01*
G01X31106Y-44505D02*
G01X30108Y-44505D01*
G01X30108Y-44505D02*
G01X30108Y-43787D01*
G01X31106Y-43335D02*
G01X31106Y-42617D01*
G01X31106Y-42617D02*
G01X30108Y-42617D01*
G01X30108Y-42617D02*
G01X30108Y-43335D01*
G01X14732Y-14463D02*
G01X12954Y-14463D01*
G01X14732Y-17541D02*
G01X12954Y-17541D01*
G54D13*
G01X14870Y-21616D02*
G01X13070Y-21616D01*
G01X14870Y-18516D02*
G01X13070Y-18516D01*
G54D14*
G01X10550Y-14478D02*
G01X10550Y-15268D01*
G01X11548Y-15268D02*
G01X11548Y-14478D01*
G01X11395Y-14325D02*
G01X10703Y-14325D01*
G01X10550Y-16510D02*
G01X10550Y-15720D01*
G01X11548Y-15720D02*
G01X11548Y-16510D01*
G01X11395Y-16663D02*
G01X10703Y-16663D01*
G01X11548Y-14478D02*
G03X11395Y-14325I-152J0D01*
G01X10703Y-14325D02*
G03X10550Y-14478I0J-152D01*
G01X11548Y-16510D02*
G02X11395Y-16663I-152J0D01*
G01X10703Y-16663D02*
G02X10550Y-16510I0J152D01*
G01X14017Y-12963D02*
G01X14735Y-12963D01*
G01X14735Y-12963D02*
G01X14735Y-13961D01*
G01X14735Y-13961D02*
G01X14017Y-13961D01*
G01X13565Y-12963D02*
G01X12847Y-12963D01*
G01X12847Y-12963D02*
G01X12847Y-13961D01*
G01X12847Y-13961D02*
G01X13565Y-13961D01*
G01X17136Y-16736D02*
G01X17136Y-17454D01*
G01X17136Y-17454D02*
G01X16138Y-17454D01*
G01X16138Y-17454D02*
G01X16138Y-16736D01*
G01X17136Y-16284D02*
G01X17136Y-15566D01*
G01X17136Y-15566D02*
G01X16138Y-15566D01*
G01X16138Y-15566D02*
G01X16138Y-16284D01*
G54D19*
G01X30930Y-31911D02*
G01X30930Y-31921D01*
G01X30930Y-31921D02*
G01X30600Y-32251D01*
G01X30250Y-31911D02*
G01X30260Y-31911D01*
G01X30260Y-31911D02*
G01X30600Y-32251D01*
G01X30250Y-31911D02*
G01X30930Y-31911D01*
G01X29850Y-31891D02*
G01X29850Y-30741D01*
G01X31351Y-31891D02*
G01X31351Y-30741D01*
G01X29850Y-30741D02*
G01X31330Y-30741D01*
G01X31353Y-32271D02*
G01X31353Y-33321D01*
G01X30953Y-33621D02*
G01X31053Y-33621D01*
G01X31053Y-33621D02*
G01X31353Y-33321D01*
G01X30253Y-33621D02*
G01X30953Y-33621D01*
G01X30253Y-33621D02*
G01X30153Y-33621D01*
G01X30153Y-33621D02*
G01X29853Y-33321D01*
G01X29853Y-32271D02*
G01X29853Y-33321D01*
G01X30600Y-31911D02*
G01X30600Y-32251D01*
G54D14*
G01X31106Y-35151D02*
G01X31106Y-35869D01*
G01X31106Y-35869D02*
G01X30108Y-35869D01*
G01X30108Y-35869D02*
G01X30108Y-35151D01*
G01X31106Y-34699D02*
G01X31106Y-33981D01*
G01X31106Y-33981D02*
G01X30108Y-33981D01*
G01X30108Y-33981D02*
G01X30108Y-34699D01*
G54D19*
G01X80425Y-26855D02*
G01X80435Y-26855D01*
G01X80435Y-26855D02*
G01X80765Y-27185D01*
G01X80425Y-27535D02*
G01X80425Y-27525D01*
G01X80425Y-27525D02*
G01X80765Y-27185D01*
G01X80425Y-27535D02*
G01X80425Y-26855D01*
G01X80405Y-27935D02*
G01X79255Y-27935D01*
G01X80405Y-26434D02*
G01X79255Y-26434D01*
G01X79255Y-27935D02*
G01X79255Y-26455D01*
G01X80785Y-26432D02*
G01X81835Y-26432D01*
G01X82135Y-26832D02*
G01X82135Y-26732D01*
G01X82135Y-26732D02*
G01X81835Y-26432D01*
G01X82135Y-27532D02*
G01X82135Y-26832D01*
G01X82135Y-27532D02*
G01X82135Y-27632D01*
G01X82135Y-27632D02*
G01X81835Y-27932D01*
G01X80785Y-27932D02*
G01X81835Y-27932D01*
G01X80425Y-27185D02*
G01X80765Y-27185D01*
G54D14*
G01X83792Y-26679D02*
G01X84510Y-26679D01*
G01X84510Y-26679D02*
G01X84510Y-27677D01*
G01X84510Y-27677D02*
G01X83792Y-27677D01*
G01X83340Y-26679D02*
G01X82622Y-26679D01*
G01X82622Y-26679D02*
G01X82622Y-27677D01*
G01X82622Y-27677D02*
G01X83340Y-27677D01*
G01X96901Y-27423D02*
G01X97691Y-27423D01*
G01X97691Y-26425D02*
G01X96901Y-26425D01*
G01X96748Y-26578D02*
G01X96748Y-27270D01*
G01X98933Y-27423D02*
G01X98143Y-27423D01*
G01X98143Y-26425D02*
G01X98933Y-26425D01*
G01X99086Y-26578D02*
G01X99086Y-27270D01*
G01X96901Y-26425D02*
G03X96748Y-26578I0J-152D01*
G01X96748Y-27270D02*
G03X96901Y-27423I152J0D01*
G01X98933Y-26425D02*
G02X99086Y-26578I0J-152D01*
G01X99086Y-27270D02*
G02X98933Y-27423I-152J0D01*
G54D13*
G01X8704Y-23251D02*
G01X8704Y-20828D01*
G01X8704Y-20828D02*
G01X7774Y-20828D01*
G01X7774Y-28194D02*
G01X8703Y-28194D01*
G01X8703Y-28194D02*
G01X8703Y-25772D01*
G01X4893Y-22512D02*
G01X4893Y-26510D01*
G54D16*
G01X9767Y-29246D02*
G01X9767Y-29452D01*
G01X9767Y-30698D02*
G01X9767Y-30502D01*
G54D14*
G01X11519Y-30698D02*
G01X9767Y-30698D01*
G01X11519Y-29246D02*
G01X9767Y-29246D01*
G01X11115Y-30698D02*
G01X11115Y-29246D01*
G36*
G01X11443Y-30774D02*
G01X11443Y-30422D01*
G01X11748D01*
G01Y-30774D01*
G01X11443D01*
G37*
G54D18*
G01X11443Y-30774D02*
G01X11443Y-30422D01*
G01X11748D01*
G01Y-30774D01*
G01X11443D01*
G36*
G01X11443Y-29170D02*
G01X11443Y-29522D01*
G01X11748D01*
G01Y-29170D01*
G01X11443D01*
G37*
G01X11443Y-29170D02*
G01X11443Y-29522D01*
G01X11748D01*
G01Y-29170D01*
G01X11443D01*
G54D14*
G01X10550Y-21312D02*
G01X10550Y-20594D01*
G01X10550Y-20594D02*
G01X11548Y-20594D01*
G01X11548Y-20594D02*
G01X11548Y-21312D01*
G01X10550Y-21764D02*
G01X10550Y-22482D01*
G01X10550Y-22482D02*
G01X11548Y-22482D01*
G01X11548Y-22482D02*
G01X11548Y-21764D01*
G54D13*
G01X17873Y-62935D02*
G01X18677Y-62935D01*
G01X11987Y-62935D02*
G01X12861Y-62935D01*
G01X11987Y-62935D02*
G01X11987Y-63779D01*
G01X18511Y-66735D02*
G01X12223Y-66735D01*
G01X18747Y-62935D02*
G01X18747Y-63779D01*
G36*
G01X12777Y-61865D02*
G01X11777Y-61865D01*
G01X12277Y-62615D01*
G01X12777Y-61865D01*
G37*
G54D18*
G01X12777Y-61865D02*
G01X11777Y-61865D01*
G01X12277Y-62615D01*
G01X12777Y-61865D01*
G54D14*
G01X24864Y-9788D02*
G01X25582Y-9788D01*
G01X25582Y-9788D02*
G01X25582Y-10786D01*
G01X25582Y-10786D02*
G01X24864Y-10786D01*
G01X24412Y-9788D02*
G01X23694Y-9788D01*
G01X23694Y-9788D02*
G01X23694Y-10786D01*
G01X23694Y-10786D02*
G01X24412Y-10786D01*
G54D19*
G01X24858Y-12261D02*
G01X24848Y-12261D01*
G01X24848Y-12261D02*
G01X24518Y-11931D01*
G01X24858Y-11581D02*
G01X24858Y-11591D01*
G01X24858Y-11591D02*
G01X24518Y-11931D01*
G01X24858Y-11581D02*
G01X24858Y-12261D01*
G01X24878Y-11181D02*
G01X26028Y-11181D01*
G01X24878Y-12682D02*
G01X26028Y-12682D01*
G01X26028Y-11181D02*
G01X26028Y-12661D01*
G01X24498Y-12684D02*
G01X23448Y-12684D01*
G01X23148Y-12284D02*
G01X23148Y-12384D01*
G01X23148Y-12384D02*
G01X23448Y-12684D01*
G01X23148Y-11584D02*
G01X23148Y-12284D01*
G01X23148Y-11584D02*
G01X23148Y-11484D01*
G01X23148Y-11484D02*
G01X23448Y-11184D01*
G01X24498Y-11184D02*
G01X23448Y-11184D01*
G01X24858Y-11931D02*
G01X24518Y-11931D01*
G54D13*
G01X98863Y-20286D02*
G01X98863Y-21090D01*
G01X98863Y-14400D02*
G01X98863Y-15274D01*
G01X98863Y-14400D02*
G01X98019Y-14400D01*
G01X95063Y-20924D02*
G01X95063Y-14636D01*
G01X98863Y-21160D02*
G01X98019Y-21160D01*
G36*
G01X99933Y-15190D02*
G01X99933Y-14190D01*
G01X99183Y-14690D01*
G01X99933Y-15190D01*
G37*
G54D18*
G01X99933Y-15190D02*
G01X99933Y-14190D01*
G01X99183Y-14690D01*
G01X99933Y-15190D01*
G54D16*
G01X11188Y-58924D02*
G01X11188Y-58774D01*
G01X11188Y-58774D02*
G01X12588Y-58774D01*
G01X12588Y-58774D02*
G01X12638Y-58774D01*
G01X12638Y-58774D02*
G01X12638Y-58924D01*
G01X11188Y-58924D02*
G01X12638Y-58924D01*
G54D13*
G01X10788Y-59974D02*
G01X10800Y-59974D01*
G54D16*
G01X10838Y-57674D02*
G01X10838Y-59674D01*
G01X13038Y-59674D02*
G01X13038Y-57674D01*
G04 PolygonModel End*

G04 Rect Start*
G54D13*
G01X65886Y-49066D02*
G01X65886Y-48266D01*
G01X62686D01*
G01Y-49066D01*
G01X65886D01*
G01X65886Y-47766D02*
G01X65886Y-46966D01*
G01X62686D01*
G01Y-47766D01*
G01X65886D01*
G01X65886Y-46466D02*
G01X65886Y-45666D01*
G01X62686D01*
G01Y-46466D01*
G01X65886D01*
G01X65886Y-45266D02*
G01X65886Y-44466D01*
G01X62686D01*
G01Y-45266D01*
G01X65886D01*
G01X57504Y-55035D02*
G01X57504Y-54235D01*
G01X54304D01*
G01Y-55035D01*
G01X57504D01*
G01X57504Y-53735D02*
G01X57504Y-52935D01*
G01X54304D01*
G01Y-53735D01*
G01X57504D01*
G01X57504Y-52435D02*
G01X57504Y-51635D01*
G01X54304D01*
G01Y-52435D01*
G01X57504D01*
G01X57504Y-51235D02*
G01X57504Y-50435D01*
G01X54304D01*
G01Y-51235D01*
G01X57504D01*
G04 Rect End*

G04 Circle Start*
G01X42270Y-9906D02*
G03X43074Y-9906I402J0D01*
G03X42270I-402J0D01*
G01X47889Y-55145D02*
G03X48308Y-55145I209J0D01*
G03X47889I-209J0D01*
G01X24642Y-13651D02*
G03X24770Y-13651I64J0D01*
G03X24642I-64J0D01*
G54D17*
G01X22119Y-15313D02*
G03X22219Y-15313I50J0D01*
G03X22119I-50J0D01*
G54D13*
G01X11427Y-23005D02*
G03X11767Y-23005I170J0D01*
G03X11427I-170J0D01*
G54D22*
G01X17280Y-60088D02*
G03X17581Y-60088I150J0D01*
G03X17280I-150J0D01*
G54D13*
G01X55499Y-63500D02*
G03X55753Y-63500I127J0D01*
G03X55499I-127J0D01*
G01X91560Y-35005D02*
G03X91901Y-35005I170J0D01*
G03X91560I-170J0D01*
G01X15379Y-36976D02*
G03X15488Y-36976I54J0D01*
G03X15379I-54J0D01*
G54D20*
G01X34071Y-34860D02*
G03X34271Y-34860I100J0D01*
G03X34071I-100J0D01*
G01X24885Y-23909D02*
G03X25086Y-23909I100J0D01*
G03X24885I-100J0D01*
G54D13*
G01X27757Y-26651D02*
G03X28043Y-26651I143J0D01*
G03X27757I-143J0D01*
G54D22*
G01X26516Y-52462D02*
G03X26816Y-52462I150J0D01*
G03X26516I-150J0D01*
G01X28515Y-53201D02*
G03X28815Y-53201I150J0D01*
G03X28515I-150J0D01*
G01X26527Y-46736D02*
G03X26827Y-46736I150J0D01*
G03X26527I-150J0D01*
G01X28526Y-47475D02*
G03X28826Y-47475I150J0D01*
G03X28526I-150J0D01*
G54D17*
G01X27074Y-35362D02*
G03X27174Y-35362I50J0D01*
G03X27074I-50J0D01*
G54D22*
G01X89773Y-67437D02*
G03X90073Y-67437I150J0D01*
G03X89773I-150J0D01*
G01X91772Y-68176D02*
G03X92072Y-68176I150J0D01*
G03X91772I-150J0D01*
G01X88757Y-8382D02*
G03X89057Y-8382I150J0D01*
G03X88757I-150J0D01*
G01X90756Y-9121D02*
G03X91056Y-9121I150J0D01*
G03X90756I-150J0D01*
G01X14994Y-17670D02*
G03X15295Y-17670I150J0D01*
G03X14994I-150J0D01*
G54D13*
G01X12446Y-18415D02*
G03X12700Y-18415I127J0D01*
G03X12446I-127J0D01*
G04 Circle End*

M02*
