G04 Layer: BottomLayer*
G04 EasyEDA Pro v1.9.29, 2023-05-19 09:05:19*
G04 Gerber Generator version 0.3*
G04 Scale: 100 percent, Rotated: No, Reflected: No*
G04 Dimensions in millimeters*
G04 Leading zeros omitted, absolute positions, 3 integers and 3 decimals*
%FSLAX33Y33*%
%MOMM*%
%ADD999C,0.2032*%
%ADD10C,0.254*%
%ADD11C,5.0*%
%ADD12R,1.999996X1.999996*%
%ADD13C,1.999996*%
%ADD14R,3.2044X1.999996*%
%ADD15R,3.199994X1.999996*%
%ADD16C,2.299995*%
%ADD17C,0.610001*%
%ADD18C,0.500024*%
G75*


G04 Copper Start*
G36*
G01X8602Y-68097D02*
G01X8602Y-68025D01*
G03X5000Y-64424I-3602J0D01*
G01X3102D01*
G01Y-8627D01*
G01X5000D01*
G03X8602Y-5025I0J3602D01*
G01Y-3127D01*
G01X36398D01*
G01Y-10033D01*
G03X36500Y-10135I102J0D01*
G01X69898D01*
G01Y-64424D01*
G01X68000D01*
G03X64398Y-68025I0J-3602D01*
G01Y-68097D01*
G01X8602D01*
G37*
%LPC*%
G36*
G01X42418Y-59083D02*
G03X43081Y-58420I0J663D01*
G03X42418Y-57757I-663J0D01*
G03X41966Y-57935I0J-663D01*
G01X41811D01*
G01X42365Y-57381D01*
G01X53449D01*
G03X53312Y-57785I526J-404D01*
G03X53975Y-58448I663J0D01*
G03X54638Y-57785I0J663D01*
G03X54501Y-57381I-663J0D01*
G01X58981D01*
G01X59196Y-57596D01*
G03X59027Y-58039I494J-443D01*
G03X59690Y-58702I663J0D01*
G03X60353Y-58039I0J663D01*
G03X60175Y-57587I-663J0D01*
G01Y-57404D01*
G03X60033Y-57061I-485J0D01*
G01X59525Y-56553D01*
G03X59182Y-56411I-343J-343D01*
G01X56785D01*
G03X57051Y-55880I-397J531D01*
G03X56388Y-55217I-663J0D01*
G03X55936Y-55395I0J-663D01*
G01X53538D01*
G03X53086Y-55217I-452J-485D01*
G03X52423Y-55880I0J-663D01*
G03X52689Y-56411I663J0D01*
G01X42164D01*
G03X41821Y-56553I0J-485D01*
G01X41171Y-57203D01*
G01X32870D01*
G01X31854Y-56187D01*
G01Y-52522D01*
G03X32032Y-52070I-485J452D01*
G03X31369Y-51407I-663J0D01*
G03X30899Y-51602I0J-663D01*
G03X30607Y-51534I-292J-595D01*
G03X29944Y-52197I0J-663D01*
G03X30048Y-52554I663J0D01*
G03X29972Y-52550I-76J-659D01*
G03X29520Y-52728I0J-663D01*
G01X26416D01*
G03X26073Y-52870I0J-485D01*
G01X24437Y-54506D01*
G01X20785D01*
G03X21153Y-54333I-84J658D01*
G01X21717D01*
G03X22060Y-54191I0J485D01*
G01X22555Y-53696D01*
G03X23114Y-54003I559J356D01*
G03X23777Y-53340I0J663D01*
G03X23470Y-52781I-663J0D01*
G01X25220Y-51031D01*
G01X26405D01*
G03X26388Y-51181I646J-150D01*
G03X27051Y-51844I663J0D01*
G03X27714Y-51181I0J663D01*
G03X27697Y-51031I-663J0D01*
G01X49680D01*
G01Y-51943D01*
G03X49822Y-52286I485J0D01*
G01X50518Y-52982D01*
G03X50567Y-53210I663J23D01*
G01X46023D01*
G01X45936Y-53124D01*
G03X45593Y-52982I-343J-343D01*
G01X43180D01*
G03X42919Y-53058I0J-485D01*
G03X42263Y-53721I7J-663D01*
G03X42926Y-54384I663J0D01*
G03X43041Y-54374I0J663D01*
G03X43665Y-54892I647J145D01*
G01X43802Y-55029D01*
G03X44145Y-55172I343J343D01*
G01X58732D01*
G03X58646Y-55499I577J-327D01*
G03X59309Y-56162I663J0D01*
G03X59813Y-55930I0J663D01*
G03X60452Y-56416I639J177D01*
G03X61115Y-55753I0J663D01*
G03X60452Y-55090I-663J0D01*
G03X60402Y-55092I0J-663D01*
G01X60922Y-54572D01*
G03X61064Y-54229I-343J343D01*
G01Y-53541D01*
G01X62204Y-52401D01*
G03X62202Y-52451I661J-50D01*
G03X62865Y-53114I663J0D01*
G03X63528Y-52474I0J663D01*
G01X65408Y-50594D01*
G03X65913Y-50828I505J429D01*
G03X66576Y-50165I0J663D01*
G03X66398Y-49713I-663J0D01*
G01Y-41275D01*
G03X66256Y-40932I-485J0D01*
G01X63911Y-38587D01*
G03X63568Y-38445I-343J-343D01*
G01X43068D01*
G01X42522Y-37899D01*
G01Y-35723D01*
G03X42380Y-35380I-485J0D01*
G01X41074Y-34074D01*
G03X40731Y-33932I-343J-343D01*
G01X40330D01*
G03X39878Y-33754I-452J-485D01*
G03X39215Y-34417I0J-663D01*
G03X39452Y-34925I663J0D01*
G03X39215Y-35433I426J-508D01*
G03X39386Y-35877I663J0D01*
G03X39215Y-36322I492J-444D01*
G03X39250Y-36536I663J0D01*
G03X38961Y-37084I374J-548D01*
G03X39075Y-37455I663J0D01*
G01X38369Y-38161D01*
G03X38382Y-38049I-472J112D01*
G01Y-36500D01*
G03X38240Y-36157I-485J0D01*
G01X38128Y-36045D01*
G03X37465Y-35405I-663J-23D01*
G03X36951Y-35648I0J-663D01*
G03X36576Y-35532I-375J-547D01*
G03X36124Y-35710I0J-663D01*
G01X35761D01*
G01X35395Y-35344D01*
G03X35052Y-35202I-343J-343D01*
G01X32131D01*
G03X31788Y-35344I0J-485D01*
G01X31549Y-35583D01*
G01X31059D01*
G03X30607Y-35405I-452J-485D01*
G03X29944Y-36068I0J-663D01*
G03X30607Y-36731I663J0D01*
G03X31059Y-36553I0J663D01*
G01X31750D01*
G01X31763D01*
G03X32385Y-36985I622J231D01*
G03X33048Y-36322I0J663D01*
G03X33031Y-36172I-663J0D01*
G01X34851D01*
G01X35217Y-36538D01*
G03X35560Y-36680I343J343D01*
G01X36124D01*
G03X36576Y-36858I452J485D01*
G03X37090Y-36615I0J663D01*
G03X37412Y-36729I375J547D01*
G01Y-36960D01*
G03X37211Y-36929I-201J-632D01*
G03X36759Y-37107I0J-663D01*
G01X28014D01*
G01X27587Y-36680D01*
G03X26924Y-36040I-663J-23D01*
G03X26600Y-36124I0J-663D01*
G03X25974Y-35679I-626J-218D01*
G03X25311Y-36342I0J-663D01*
G03X25974Y-37005I663J0D01*
G03X26298Y-36921I0J663D01*
G03X26901Y-37366I626J218D01*
G01X27277Y-37742D01*
G01X19939D01*
G03X19596Y-37884I0J-485D01*
G01X18707Y-38773D01*
G03X18565Y-39116I343J-343D01*
G01Y-40566D01*
G01X18011Y-41120D01*
G03X17371Y-41783I23J-663D01*
G03X18034Y-42446I663J0D01*
G03X18606Y-42119I0J663D01*
G03X19177Y-42446I572J336D01*
G03X19840Y-41806I0J663D01*
G01X20115Y-41532D01*
G01X24114D01*
G03X24102Y-41656I651J-124D01*
G03X24251Y-42075I663J0D01*
G03X24130Y-42060I-121J-470D01*
G01X21661D01*
G03X21209Y-41882I-452J-485D01*
G03X20546Y-42545I0J-663D01*
G03X21209Y-43208I663J0D01*
G03X21661Y-43030I0J663D01*
G01X23929D01*
G01X24549Y-43650D01*
G03X24892Y-43792I343J343D01*
G01X31485D01*
G03X31468Y-43942I646J-150D01*
G03X31485Y-44092I663J0D01*
G01X25273D01*
G03X24930Y-44234I0J-485D01*
G01X24310Y-44854D01*
G01X16962D01*
G03X16510Y-44676I-452J-485D01*
G03X15847Y-45339I0J-663D01*
G03X16510Y-46002I663J0D01*
G03X16962Y-45824I0J663D01*
G01X24511D01*
G03X24854Y-45682I0J485D01*
G01X25474Y-45062D01*
G01X30081D01*
G03X29944Y-45466I526J-404D01*
G03X30364Y-46083I663J0D01*
G03X29817Y-46736I116J-653D01*
G03X30457Y-47399I663J0D01*
G01X31214Y-48156D01*
G01X30932D01*
G03X30480Y-47978I-452J-485D01*
G03X29817Y-48641I0J-663D01*
G03X29834Y-48791I663J0D01*
G01X25273D01*
G03X24930Y-48933I0J-485D01*
G01X21516Y-52347D01*
G01X21280D01*
G03X20828Y-52169I-452J-485D01*
G03X20165Y-52832I0J-663D01*
G03X20346Y-53288I663J0D01*
G03X20038Y-53848I355J-560D01*
G03X20617Y-54506I663J0D01*
G01X20264D01*
G03X19812Y-54328I-452J-485D01*
G03X19149Y-54991I0J-663D01*
G03X19812Y-55654I663J0D01*
G03X20264Y-55476I0J663D01*
G01X24638D01*
G03X24981Y-55334I0J485D01*
G01X26617Y-53698D01*
G01X29520D01*
G03X29972Y-53876I452J485D01*
G03X30122Y-53859I0J663D01*
G01Y-56515D01*
G03X30264Y-56858I485J0D01*
G01X31069Y-57663D01*
G03X30861Y-57630I-208J-630D01*
G03X30409Y-57808I0J-663D01*
G01X28532D01*
G03X29111Y-57150I-84J658D01*
G03X28448Y-56487I-663J0D01*
G03X27785Y-57150I0J-663D01*
G03X27787Y-57200I663J0D01*
G01X27521Y-56934D01*
G03X27178Y-56792I-343J-343D01*
G01X25598D01*
G03X25146Y-56614I-452J-485D01*
G03X24483Y-57277I0J-663D01*
G03X25146Y-57940I663J0D01*
G03X25598Y-57762I0J663D01*
G01X26977D01*
G01X27851Y-58636D01*
G03X28194Y-58778I343J343D01*
G01X30409D01*
G03X30861Y-58956I452J485D01*
G03X31524Y-58293I0J663D01*
G03X31491Y-58085I-663J0D01*
G01X32169Y-58763D01*
G03X32512Y-58905I343J343D01*
G01X41966D01*
G03X42418Y-59083I452J485D01*
G37*
G36*
G01X15466Y-38227D02*
G03X16129Y-38890I663J0D01*
G03X16792Y-38227I0J663D01*
G03X16614Y-37775I-663J0D01*
G01Y-36393D01*
G03X16792Y-35941I-485J452D01*
G03X16129Y-35278I-663J0D01*
G03X15598Y-35544I0J-663D01*
G01Y-30226D01*
G03X15456Y-29883I-485J0D01*
G01X14201Y-28628D01*
G01Y-16076D01*
G01X16457Y-13820D01*
G01X18143D01*
G03X18006Y-14224I526J-404D01*
G03X18669Y-14887I663J0D01*
G03X19332Y-14224I0J663D01*
G03X19195Y-13820I-663J0D01*
G01X20621D01*
G03X20526Y-14163I568J-343D01*
G03X21189Y-14826I663J0D01*
G03X21852Y-14163I0J663D01*
G03X21756Y-13820I-663J0D01*
G01X24399D01*
G03X24205Y-14289I469J-469D01*
G03X24868Y-14952I663J0D01*
G03X25531Y-14289I0J663D01*
G03X25337Y-13820I-663J0D01*
G01X26989D01*
G03X26793Y-14291I467J-471D01*
G03X27456Y-14954I663J0D01*
G03X28119Y-14291I0J663D01*
G03X27923Y-13820I-663J0D01*
G01X39296D01*
G01X40866Y-15390D01*
G03X41529Y-16030I663J23D01*
G03X42183Y-15479I0J663D01*
G03X42418Y-15522I235J620D01*
G03X43081Y-14859I0J663D01*
G03X42910Y-14414I-663J0D01*
G03X43081Y-13970I-492J445D01*
G03X42441Y-13307I-663J0D01*
G01X40983Y-11849D01*
G03X40640Y-11707I-343J-343D01*
G01X15621D01*
G03X15278Y-11849I0J-485D01*
G01X14883Y-12244D01*
G03X14224Y-11656I-659J-75D01*
G03X13561Y-12319I0J-663D01*
G03X14149Y-12978I663J0D01*
G01X12230Y-14897D01*
G03X12088Y-15240I343J-343D01*
G01Y-29326D01*
G03X11938Y-29309I-150J-646D01*
G03X11275Y-29972I0J-663D01*
G03X11938Y-30635I663J0D01*
G03X12088Y-30618I0J663D01*
G01Y-37465D01*
G03X12230Y-37808I485J0D01*
G01X12418Y-37996D01*
G03X13081Y-38636I663J23D01*
G03X13716Y-38164I0J663D01*
G03X14351Y-38636I635J191D01*
G03X14959Y-38237I0J663D01*
G03X15113Y-38255I154J645D01*
G03X15470Y-38151I0J663D01*
G03X15466Y-38227I659J-76D01*
G37*
G36*
G01X28293Y-35814D02*
G03X28956Y-36477I663J0D01*
G03X29619Y-35814I0J663D01*
G03X29610Y-35706I-663J0D01*
G03X29718Y-35715I108J654D01*
G03X30381Y-35075I0J663D01*
G01X31189Y-34267D01*
G01X32822D01*
G03X33274Y-34445I452J485D01*
G03X33937Y-33782I0J663D01*
G03X33274Y-33119I-663J0D01*
G03X32822Y-33297I0J-663D01*
G01X31143D01*
G01X31585Y-32855D01*
G03X31727Y-32512I-343J343D01*
G01Y-32459D01*
G01X31824Y-32362D01*
G01X34152D01*
G03X34135Y-32512I646J-150D01*
G03X34798Y-33175I663J0D01*
G03X35461Y-32512I0J663D01*
G03X35444Y-32362I-663J0D01*
G01X36505D01*
G03X36957Y-32540I452J485D01*
G03X37183Y-32500I0J663D01*
G01Y-32512D01*
G03X37846Y-33175I663J0D01*
G03X38509Y-32512I0J663D01*
G03X37846Y-31849I-663J0D01*
G03X37620Y-31889I0J-663D01*
G01Y-31877D01*
G03X37603Y-31727I-663J0D01*
G01X38029D01*
G03X38481Y-31905I452J485D01*
G03X38946Y-31715I0J663D01*
G03X39531Y-32066I585J312D01*
G03X40097Y-31750I0J663D01*
G03X40640Y-32032I543J381D01*
G03X41303Y-31369I0J663D01*
G03X41187Y-30994I-663J0D01*
G03X41430Y-30480I-420J514D01*
G03X41314Y-30105I-663J0D01*
G03X41557Y-29591I-420J514D01*
G03X41159Y-28983I-663J0D01*
G03X41430Y-28448I-392J535D01*
G03X40958Y-27813I-663J0D01*
G03X41430Y-27178I-191J635D01*
G03X41252Y-26726I-663J0D01*
G01Y-25471D01*
G03X41430Y-25019I-485J452D01*
G03X40767Y-24356I-663J0D01*
G03X40659Y-24365I0J-663D01*
G03X40668Y-24257I-654J108D01*
G03X40005Y-23594I-663J0D01*
G03X39897Y-23603I0J-663D01*
G03X39906Y-23495I-654J108D01*
G03X39889Y-23345I-663J0D01*
G01X40061D01*
G03X40513Y-23523I452J485D01*
G03X41176Y-22860I0J663D01*
G03X40849Y-22288I-663J0D01*
G03X41176Y-21717I-336J572D01*
G03X40905Y-21182I-663J0D01*
G03X41303Y-20574I-265J608D01*
G03X40640Y-19911I-663J0D01*
G03X40184Y-20092I0J-663D01*
G03X39624Y-19784I-560J-355D01*
G03X39172Y-19962I0J-663D01*
G01X31694D01*
G03X31242Y-19784I-452J-485D01*
G03X30579Y-20447I0J-663D01*
G03X31242Y-21110I663J0D01*
G03X31694Y-20932I0J663D01*
G01X34068D01*
G03X34008Y-21209I603J-277D01*
G03X34650Y-21872I663J0D01*
G03X34643Y-21971I656J-99D01*
G03X35306Y-22634I663J0D01*
G01X35318D01*
G03X35278Y-22860I623J-226D01*
G03X35941Y-23523I663J0D01*
G03X36393Y-23345I0J663D01*
G01X38597D01*
G03X38580Y-23495I646J-150D01*
G03X38758Y-23947I663J0D01*
G01Y-27940D01*
G03X38900Y-28283I485J0D01*
G01X39215Y-28598D01*
G01X38044D01*
G03X37592Y-28420I-452J-485D01*
G03X36929Y-29083I0J-663D01*
G03X36989Y-29360I663J0D01*
G01X36012D01*
G03X35560Y-29182I-452J-485D01*
G03X34897Y-29845I0J-663D01*
G03X34913Y-29990I663J0D01*
G03X34671Y-29944I-242J-617D01*
G03X34008Y-30586I0J-663D01*
G03X33909Y-30579I-99J-656D01*
G03X33246Y-31242I0J-663D01*
G03X33263Y-31392I663J0D01*
G01X31623D01*
G03X31280Y-31534I0J-485D01*
G01X31237Y-31577D01*
G03X31270Y-31369I-630J208D01*
G03X30607Y-30706I-663J0D01*
G03X29944Y-31369I0J-663D01*
G03X30607Y-32032I663J0D01*
G03X30837Y-31991I0J663D01*
G03X30757Y-32258I405J-267D01*
G01Y-32311D01*
G01X29306Y-33762D01*
G03X28702Y-33373I-604J-274D01*
G03X28039Y-34036I0J-663D01*
G03X28490Y-34664I663J0D01*
G03X28471Y-34798I466J-134D01*
G01Y-35362D01*
G03X28293Y-35814I485J-452D01*
G37*
G36*
G01X60635Y-63223D02*
G03X61087Y-63401I452J485D01*
G03X61750Y-62738I0J663D01*
G03X61087Y-62075I-663J0D01*
G03X60635Y-62253I0J-663D01*
G01X40023D01*
G03X40160Y-61849I-526J404D01*
G03X39497Y-61186I-663J0D01*
G03X39045Y-61364I0J-663D01*
G01X34131D01*
G03X34191Y-61087I-603J277D01*
G03X33528Y-60424I-663J0D01*
G03X33076Y-60602I0J-663D01*
G01X25090D01*
G03X24638Y-60424I-452J-485D01*
G03X23975Y-61087I0J-663D01*
G03X24015Y-61315I663J0D01*
G03X23622Y-61186I-393J-534D01*
G03X22959Y-61849I0J-663D01*
G03X23096Y-62253I663J0D01*
G01X21661D01*
G03X21209Y-62075I-452J-485D01*
G03X20546Y-62738I0J-663D01*
G03X21209Y-63401I663J0D01*
G03X21661Y-63223I0J663D01*
G01X60635D01*
G37*
G36*
G01X67112Y-15471D02*
G03X67564Y-15649I452J485D01*
G03X68227Y-14986I0J663D01*
G03X68123Y-14629I-663J0D01*
G03X68199Y-14633I76J659D01*
G03X68862Y-13970I0J663D01*
G03X68199Y-13307I-663J0D01*
G01X68187D01*
G03X68227Y-13081I-623J226D01*
G03X67587Y-12418I-663J0D01*
G01X65875Y-10706D01*
G03X65532Y-10564I-343J-343D01*
G01X48204D01*
G03X47752Y-10386I-452J-485D01*
G03X47089Y-11049I0J-663D01*
G03X47752Y-11712I663J0D01*
G03X48204Y-11534I0J663D01*
G01X64040D01*
G03X63980Y-11811I603J-277D01*
G03X64441Y-12443I663J0D01*
G03X63975Y-13076I197J-633D01*
G03X64615Y-13739I663J0D01*
G01X66205Y-15329D01*
G03X66548Y-15471I343J343D01*
G01X67112D01*
G37*
G36*
G01X28801Y-27813D02*
G03X29464Y-28476I663J0D01*
G03X30127Y-27836I0J663D01*
G01X30300Y-27663D01*
G01X35108D01*
G03X35560Y-27841I452J485D01*
G03X36223Y-27178I0J663D01*
G03X35560Y-26515I-663J0D01*
G03X35265Y-26584I0J-663D01*
G03X35334Y-26289I-594J295D01*
G03X34671Y-25626I-663J0D01*
G03X34219Y-25804I0J-663D01*
G01X28522D01*
G01X28476Y-25758D01*
G03X28416Y-25504I-663J-23D01*
G01X33457D01*
G03X33909Y-25682I452J485D01*
G03X34572Y-25019I0J663D01*
G03X33909Y-24356I-663J0D01*
G03X33457Y-24534I0J-663D01*
G01X24130D01*
G03X23787Y-24676I0J-485D01*
G01X22913Y-25550D01*
G01X19883D01*
G03X19431Y-25372I-452J-485D01*
G03X18768Y-26035I0J-663D01*
G03X19431Y-26698I663J0D01*
G03X19883Y-26520I0J663D01*
G01X21445D01*
G03X21308Y-26924I526J-404D01*
G03X21971Y-27587I663J0D01*
G03X22634Y-26924I0J663D01*
G03X22497Y-26520I-663J0D01*
G01X23114D01*
G03X23457Y-26378I0J485D01*
G01X24331Y-25504D01*
G01X27210D01*
G03X27150Y-25781I603J-277D01*
G03X27790Y-26444I663J0D01*
G01X27978Y-26632D01*
G03X28321Y-26774I343J343D01*
G01X29830D01*
G03X29756Y-26835I269J-404D01*
G01X29441Y-27150D01*
G03X28801Y-27813I23J-663D01*
G37*
G36*
G01X13589Y-65941D02*
G03X14041Y-65763I0J663D01*
G01X27996D01*
G03X28448Y-65941I452J485D01*
G03X29111Y-65278I0J663D01*
G03X29094Y-65128I-663J0D01*
G01X29520D01*
G03X29972Y-65306I452J485D01*
G03X30635Y-64643I0J663D01*
G03X29972Y-63980I-663J0D01*
G03X29520Y-64158I0J-663D01*
G01X28205D01*
G03X28222Y-64008I-646J150D01*
G03X27559Y-63345I-663J0D01*
G03X26896Y-64008I0J-663D01*
G03X26913Y-64158I663J0D01*
G01X15481D01*
G03X14859Y-63726I-622J-231D01*
G03X14196Y-64389I0J-663D01*
G03X14333Y-64793I663J0D01*
G01X14041D01*
G03X13589Y-64615I-452J-485D01*
G03X12926Y-65278I0J-663D01*
G03X13589Y-65941I663J0D01*
G37*
G36*
G01X63119Y-32667D02*
G03X63599Y-32461I0J663D01*
G03X63781Y-32347I-162J457D01*
G01X66764Y-29364D01*
G03X66906Y-29020I-343J343D01*
G01Y-26614D01*
G03X67084Y-26162I-485J452D01*
G03X66421Y-25499I-663J0D01*
G03X65758Y-26162I0J-663D01*
G03X65936Y-26614I663J0D01*
G01Y-28820D01*
G01X63367Y-31389D01*
G03X63142Y-31341I-248J-615D01*
G01X62461Y-30660D01*
G01Y-29789D01*
G03X62639Y-29337I-485J452D01*
G03X61976Y-28674I-663J0D01*
G03X61313Y-29337I0J-663D01*
G03X61491Y-29789I663J0D01*
G01Y-30861D01*
G03X61633Y-31204I485J0D01*
G01X62456Y-32027D01*
G03X63119Y-32667I663J23D01*
G37*
G36*
G01X21590Y-11541D02*
G03X23098Y-10033I0J1508D01*
G03X22943Y-9366I-1508J0D01*
G01X22956Y-9353D01*
G01X28153D01*
G03X28605Y-9531I452J485D01*
G03X29268Y-8868I0J663D01*
G03X28605Y-8205I-663J0D01*
G03X28153Y-8383I0J-663D01*
G01X22755D01*
G03X22412Y-8525I0J-485D01*
G01X22257Y-8680D01*
G03X21590Y-8525I-667J-1353D01*
G03X20082Y-10033I0J-1508D01*
G03X21590Y-11541I1508J0D01*
G37*
G36*
G01X55626Y-37239D02*
G03X56289Y-36576I0J663D01*
G03X56111Y-36124I-663J0D01*
G01Y-17343D01*
G03X56289Y-16891I-485J452D01*
G03X55626Y-16228I-663J0D01*
G03X54963Y-16891I0J-663D01*
G03X55141Y-17343I663J0D01*
G01Y-36124D01*
G03X54963Y-36576I485J-452D01*
G03X55626Y-37239I663J0D01*
G37*
G36*
G01X56896Y-36223D02*
G03X57559Y-35560I0J663D01*
G03X57381Y-35108I-663J0D01*
G01Y-18613D01*
G03X57559Y-18161I-485J452D01*
G03X56896Y-17498I-663J0D01*
G03X56233Y-18161I0J-663D01*
G03X56411Y-18613I663J0D01*
G01Y-35108D01*
G03X56233Y-35560I485J-452D01*
G03X56896Y-36223I663J0D01*
G37*
G36*
G01X13081Y-44942D02*
G03X14589Y-43434I0J1508D01*
G03X13566Y-42006I-1508J0D01*
G01Y-41783D01*
G03X13424Y-41440I-485J0D01*
G01X11915Y-39931D01*
G01Y-39695D01*
G03X12093Y-39243I-485J452D01*
G03X11430Y-38580I-663J0D01*
G03X10767Y-39243I0J-663D01*
G03X10945Y-39695I663J0D01*
G01Y-40132D01*
G03X11087Y-40475I485J0D01*
G01X12596Y-41984D01*
G01Y-42006D01*
G03X11573Y-43434I485J-1428D01*
G03X13081Y-44942I1508J0D01*
G37*
G36*
G01X56825Y-65128D02*
G03X57277Y-65306I452J485D01*
G03X57940Y-64643I0J663D01*
G03X57277Y-63980I-663J0D01*
G03X56825Y-64158I0J-663D01*
G01X47699D01*
G01X47653Y-64112D01*
G03X46990Y-63472I-663J-23D01*
G03X46327Y-64135I0J-663D01*
G03X46967Y-64798I663J0D01*
G01X47155Y-64986D01*
G03X47498Y-65128I343J343D01*
G01X56825D01*
G37*
G36*
G01X58166Y-34826D02*
G03X58829Y-34163I0J663D01*
G03X58651Y-33711I-663J0D01*
G01Y-19883D01*
G03X58829Y-19431I-485J452D01*
G03X58166Y-18768I-663J0D01*
G03X57503Y-19431I0J-663D01*
G03X57681Y-19883I663J0D01*
G01Y-33711D01*
G03X57503Y-34163I485J-452D01*
G03X58166Y-34826I663J0D01*
G37*
G36*
G01X58773Y-32639D02*
G03X59436Y-33302I663J0D01*
G03X60099Y-32639I0J663D01*
G03X59921Y-32187I-663J0D01*
G01Y-21153D01*
G03X60099Y-20701I-485J452D01*
G03X59436Y-20038I-663J0D01*
G03X58773Y-20701I0J-663D01*
G03X58951Y-21153I663J0D01*
G01Y-32187D01*
G03X58773Y-32639I485J-452D01*
G37*
G36*
G01X24781Y-31115D02*
G03X26289Y-32623I1508J0D01*
G03X27717Y-31600I0J1508D01*
G01X28250D01*
G03X28702Y-31778I452J485D01*
G03X29365Y-31115I0J663D01*
G03X28702Y-30452I-663J0D01*
G03X28250Y-30630I0J-663D01*
G01X27717D01*
G03X26289Y-29607I-1428J-485D01*
G03X24781Y-31115I0J-1508D01*
G37*
G36*
G01X17034Y-31242D02*
G03X18542Y-32750I1508J0D01*
G03X19920Y-31854I0J1508D01*
G01X20503D01*
G03X20955Y-32032I452J485D01*
G03X21618Y-31369I0J663D01*
G03X20955Y-30706I-663J0D01*
G03X20503Y-30884I0J-663D01*
G01X20007D01*
G03X18542Y-29734I-1465J-358D01*
G03X17034Y-31242I0J-1508D01*
G37*
G36*
G01X20412Y-23674D02*
G03X21075Y-24337I663J0D01*
G03X21738Y-23674I0J663D01*
G03X21557Y-23218I-663J0D01*
G01X23932D01*
G03X24384Y-23396I452J485D01*
G03X25047Y-22733I0J663D01*
G03X24384Y-22070I-663J0D01*
G03X23932Y-22248I0J-663D01*
G01X20264D01*
G03X19812Y-22070I-452J-485D01*
G03X19149Y-22733I0J-663D01*
G03X19812Y-23396I663J0D01*
G03X20264Y-23218I0J663D01*
G01X20594D01*
G03X20412Y-23674I482J-456D01*
G37*
G36*
G01X8868Y-56700D02*
G03X9412Y-56416I0J663D01*
G03X9553Y-56007I-522J409D01*
G03X8890Y-55344I-663J0D01*
G03X8346Y-55627I0J-663D01*
G03X8205Y-56037I522J-409D01*
G03X8868Y-56700I663J0D01*
G37*
G36*
G01X62710Y-56769D02*
G03X63373Y-57432I663J0D01*
G03X64036Y-56769I0J663D01*
G03X63373Y-56106I-663J0D01*
G03X62710Y-56769I0J-663D01*
G37*
G36*
G01X45466Y-60226D02*
G03X46129Y-59563I0J663D01*
G03X45466Y-58900I-663J0D01*
G03X44803Y-59563I0J-663D01*
G03X45466Y-60226I663J0D01*
G37*
G36*
G01X65024Y-36223D02*
G03X65687Y-35560I0J663D01*
G03X65024Y-34897I-663J0D01*
G03X64361Y-35560I0J-663D01*
G03X65024Y-36223I663J0D01*
G37*
G36*
G01X52169Y-61063D02*
G03X52832Y-61726I663J0D01*
G03X53495Y-61063I0J663D01*
G03X52832Y-60399I-663J0D01*
G03X52169Y-61063I0J-663D01*
G37*
G36*
G01X53975Y-66576D02*
G03X54638Y-65913I0J663D01*
G03X53975Y-65250I-663J0D01*
G03X53312Y-65913I0J-663D01*
G03X53975Y-66576I663J0D01*
G37*
G36*
G01X9878Y-46228D02*
G03X10541Y-46891I663J0D01*
G03X11204Y-46228I0J663D01*
G03X10541Y-45565I-663J0D01*
G03X9878Y-46228I0J-663D01*
G37*
G36*
G01X39116Y-15268D02*
G03X39779Y-14605I0J663D01*
G03X39116Y-13942I-663J0D01*
G03X38453Y-14605I0J-663D01*
G03X39116Y-15268I663J0D01*
G37*
G36*
G01X14986Y-60988D02*
G03X15649Y-60325I0J663D01*
G03X14986Y-59662I-663J0D01*
G03X14323Y-60325I0J-663D01*
G03X14986Y-60988I663J0D01*
G37*
G36*
G01X10767Y-56896D02*
G03X11430Y-57559I663J0D01*
G03X12093Y-56896I0J663D01*
G03X11430Y-56233I-663J0D01*
G03X10767Y-56896I0J-663D01*
G37*
G36*
G01X16002Y-63401D02*
G03X16665Y-62738I0J663D01*
G03X16002Y-62075I-663J0D01*
G03X15339Y-62738I0J-663D01*
G03X16002Y-63401I663J0D01*
G37*
G36*
G01X23114Y-47399D02*
G03X23777Y-46736I0J663D01*
G03X23114Y-46073I-663J0D01*
G03X22451Y-46736I0J-663D01*
G03X23114Y-47399I663J0D01*
G37*
G36*
G01X8943Y-14130D02*
G03X9606Y-13467I0J663D01*
G03X8943Y-12804I-663J0D01*
G03X8280Y-13467I0J-663D01*
G03X8943Y-14130I663J0D01*
G37*
G36*
G01X17625Y-49657D02*
G03X18288Y-50320I663J0D01*
G03X18951Y-49657I0J663D01*
G03X18288Y-48994I-663J0D01*
G03X17625Y-49657I0J-663D01*
G37*
G36*
G01X17272Y-60861D02*
G03X17935Y-60198I0J663D01*
G03X17272Y-59535I-663J0D01*
G03X16609Y-60198I0J-663D01*
G03X17272Y-60861I663J0D01*
G37*
G36*
G01X21844Y-57940D02*
G03X22507Y-57277I0J663D01*
G03X21844Y-56614I-663J0D01*
G03X21181Y-57277I0J-663D01*
G03X21844Y-57940I663J0D01*
G37*
G36*
G01X18514Y-10795D02*
G03X19177Y-11458I663J0D01*
G03X19840Y-10795I0J663D01*
G03X19177Y-10132I-663J0D01*
G03X18514Y-10795I0J-663D01*
G37*
G36*
G01X7366Y-24539D02*
G03X8029Y-23876I0J663D01*
G03X7366Y-23213I-663J0D01*
G03X6703Y-23876I0J-663D01*
G03X7366Y-24539I663J0D01*
G37*
G36*
G01X10526Y-27940D02*
G03X11189Y-28603I663J0D01*
G03X11852Y-27940I0J663D01*
G03X11189Y-27277I-663J0D01*
G03X10526Y-27940I0J-663D01*
G37*
G36*
G01X9398Y-29492D02*
G03X10061Y-28829I0J663D01*
G03X9398Y-28166I-663J0D01*
G03X8735Y-28829I0J-663D01*
G03X9398Y-29492I663J0D01*
G37*
G36*
G01X20066Y-16665D02*
G03X20729Y-16002I0J663D01*
G03X20066Y-15339I-663J0D01*
G03X19403Y-16002I0J-663D01*
G03X20066Y-16665I663J0D01*
G37*
G36*
G01X14958Y-23114D02*
G03X15621Y-23777I663J0D01*
G03X16284Y-23114I0J663D01*
G03X15621Y-22451I-663J0D01*
G03X14958Y-23114I0J-663D01*
G37*
G36*
G01X28702Y-30254D02*
G03X29365Y-29591I0J663D01*
G03X28702Y-28928I-663J0D01*
G03X28039Y-29591I0J-663D01*
G03X28702Y-30254I663J0D01*
G37*
G36*
G01X26289Y-28730D02*
G03X26952Y-28067I0J663D01*
G03X26289Y-27404I-663J0D01*
G03X25626Y-28067I0J-663D01*
G03X26289Y-28730I663J0D01*
G37*
G36*
G01X26007Y-20320D02*
G03X26670Y-20983I663J0D01*
G03X27333Y-20320I0J663D01*
G03X26670Y-19657I-663J0D01*
G03X26007Y-20320I0J-663D01*
G37*
G36*
G01X20251Y-20856D02*
G03X20915Y-20193I0J663D01*
G03X20251Y-19530I-663J0D01*
G03X19588Y-20193I0J-663D01*
G03X20251Y-20856I663J0D01*
G37*
G36*
G01X21336Y-18824D02*
G03X21999Y-18161I0J663D01*
G03X21336Y-17498I-663J0D01*
G03X20673Y-18161I0J-663D01*
G03X21336Y-18824I663J0D01*
G37*
G36*
G01X17005Y-28603D02*
G03X17668Y-27940I0J663D01*
G03X17005Y-27277I-663J0D01*
G03X16342Y-27940I0J-663D01*
G03X17005Y-28603I663J0D01*
G37*
G36*
G01X27305Y-18824D02*
G03X27968Y-18161I0J663D01*
G03X27305Y-17498I-663J0D01*
G03X26642Y-18161I0J-663D01*
G03X27305Y-18824I663J0D01*
G37*
G36*
G01X18034Y-23777D02*
G03X18697Y-23114I0J663D01*
G03X18034Y-22451I-663J0D01*
G03X17371Y-23114I0J-663D01*
G03X18034Y-23777I663J0D01*
G37*
G36*
G01X23876Y-18824D02*
G03X24539Y-18161I0J663D01*
G03X23876Y-17498I-663J0D01*
G03X23213Y-18161I0J-663D01*
G03X23876Y-18824I663J0D01*
G37*
%LPD*%
G36*
G01X13866Y-37521D02*
G03X13716Y-37782I485J-452D01*
G03X13104Y-37310I-635J-191D01*
G01X13058Y-37264D01*
G01Y-32667D01*
G01X13866Y-33475D01*
G01Y-37521D01*
G37*
G36*
G01X35571Y-44092D02*
G03X35588Y-43942I-646J150D01*
G03X35571Y-43792I-663J0D01*
G01X57066D01*
G03X56592Y-44092I84J-658D01*
G01X35571D01*
G37*
G36*
G01X57295Y-43803D02*
G03X57234Y-43792I-145J-647D01*
G01X57290D01*
G01X57295Y-43803D01*
G37*
G36*
G01X58520Y-49392D02*
G03X58309Y-49126I-608J-265D01*
G01X58971D01*
G03X58520Y-49392I84J-658D01*
G37*
G36*
G01X60094Y-54028D02*
G01X59540Y-54582D01*
G01Y-50236D01*
G03X59718Y-49784I-485J452D01*
G03X59139Y-49126I-663J0D01*
G01X63429D01*
G03X63881Y-49304I452J485D01*
G03X63931Y-49302I0J663D01*
G01X60236Y-52997D01*
G03X60094Y-53340I343J-343D01*
G01Y-54028D01*
G37*
G36*
G01X63119Y-40231D02*
G03X62667Y-40409I0J-663D01*
G01X59193D01*
G03X59210Y-40259I-646J150D01*
G03X59193Y-40109I-663J0D01*
G01X63172D01*
G01X63327Y-40264D01*
G03X63119Y-40231I-208J-630D01*
G37*
G36*
G01X81602Y-69923D02*
G01X81602Y-68025D01*
G03X78000Y-64424I-3602J-0D01*
G01X76102D01*
G01Y-8627D01*
G01X78000D01*
G03X80583Y-7535I0J3602D01*
G03X80490Y-7874I570J-339D01*
G03X80922Y-8496I663J0D01*
G01Y-18066D01*
G03X80645Y-18006I-277J-603D01*
G03X79982Y-18669I0J-663D01*
G03X80645Y-19332I663J0D01*
G03X80922Y-19272I0J663D01*
G01Y-28321D01*
G03X81064Y-28664I485J0D01*
G01X81421Y-29021D01*
G03X81252Y-29464I494J-443D01*
G03X81915Y-30127I663J0D01*
G03X82578Y-29464I0J663D01*
G03X82569Y-29356I-663J0D01*
G03X82677Y-29365I108J654D01*
G03X82954Y-29305I0J663D01*
G01Y-41765D01*
G03X82550Y-41628I-404J-526D01*
G03X82273Y-41688I0J-663D01*
G01Y-40965D01*
G03X82451Y-40513I-485J452D01*
G03X81788Y-39850I-663J0D01*
G03X81125Y-40513I0J-663D01*
G03X81303Y-40965I663J0D01*
G01Y-55107D01*
G03X81153Y-55090I-150J-646D01*
G03X80490Y-55753I0J-663D01*
G03X81153Y-56416I663J0D01*
G03X81303Y-56399I0J663D01*
G01Y-65334D01*
G03X81125Y-65786I485J-452D01*
G03X81788Y-66449I663J0D01*
G03X82451Y-65786I0J663D01*
G03X82273Y-65334I-663J0D01*
G01Y-62385D01*
G01X83157Y-63269D01*
G03X83820Y-63909I663J23D01*
G03X84483Y-63246I0J663D01*
G03X83843Y-62583I-663J0D01*
G01X83035Y-61775D01*
G01Y-58184D01*
G03X83439Y-58321I404J526D01*
G03X84102Y-57658I0J663D01*
G03X83924Y-57206I-663J0D01*
G01Y-50758D01*
G01X87100D01*
G03X87458Y-50400I0J358D01*
G01Y-48400D01*
G03X87100Y-48042I-358J0D01*
G01X83924D01*
G01Y-26360D01*
G03X84102Y-25908I-485J452D01*
G03X84042Y-25631I-663J0D01*
G01X84254D01*
G01X84986Y-26363D01*
G01Y-35592D01*
G03X84709Y-35532I-277J-603D01*
G03X84046Y-36195I0J-663D01*
G03X84224Y-36647I663J0D01*
G01Y-40386D01*
G03X84366Y-40729I485J0D01*
G01X85062Y-41425D01*
G03X85725Y-42065I663J23D01*
G03X86388Y-41402I0J663D01*
G03X85748Y-40739I-663J0D01*
G01X85644Y-40635D01*
G03X85852Y-40668I208J630D01*
G03X86515Y-40005I0J663D01*
G03X85852Y-39342I-663J0D01*
G03X85194Y-39921I0J-663D01*
G01Y-39211D01*
G03X85471Y-39271I277J603D01*
G03X86134Y-38608I0J663D01*
G03X85956Y-38156I-663J0D01*
G01Y-31210D01*
G03X86233Y-31270I277J603D01*
G03X86764Y-31004I0J663D01*
G01Y-33711D01*
G03X86586Y-34163I485J-452D01*
G03X87249Y-34826I663J0D01*
G03X87912Y-34163I0J663D01*
G03X87734Y-33711I-663J0D01*
G01Y-32226D01*
G03X88011Y-32286I277J603D01*
G03X88674Y-31623I0J663D01*
G03X88623Y-31368I-663J0D01*
G01Y-17798D01*
G03X89027Y-17935I404J526D01*
G03X89690Y-17272I0J663D01*
G03X89027Y-16609I-663J0D01*
G03X88623Y-16746I0J-663D01*
G01Y-12898D01*
G03X88801Y-12446I-485J452D01*
G03X88493Y-11886I-663J0D01*
G03X88674Y-11430I-482J456D01*
G03X88011Y-10767I-663J0D01*
G03X87392Y-11192I0J-663D01*
G03X87100Y-11042I-292J-208D01*
G01X83900D01*
G03X83542Y-11400I0J-358D01*
G01Y-13400D01*
G03X83900Y-13758I358J0D01*
G01X87018D01*
G01Y-22242D01*
G01X83900D01*
G03X83542Y-22600I0J-358D01*
G01Y-24309D01*
G01X83289Y-24056D01*
G01Y-21788D01*
G03X83467Y-21336I-485J452D01*
G03X82804Y-20673I-663J0D01*
G03X82299Y-20907I0J-663D01*
G01Y-10590D01*
G01X82954Y-9934D01*
G03X83594Y-9271I-23J663D01*
G03X82931Y-8608I-663J0D01*
G03X82268Y-9248I0J-663D01*
G01X81892Y-9624D01*
G01Y-8128D01*
G03X81816Y-7867I-485J0D01*
G03X81153Y-7211I-663J-7D01*
G03X80758Y-7341I0J-663D01*
G03X81602Y-5025I-2758J2316D01*
G01Y-3127D01*
G01X94398D01*
G01Y-5025D01*
G03X98000Y-8627I3602J0D01*
G01X99898D01*
G01Y-64424D01*
G01X98000D01*
G03X94398Y-68025I0J-3602D01*
G01Y-69923D01*
G01X81602D01*
G37*
%LPC*%
G36*
G01X93000Y-58858D02*
G03X94358Y-57500I0J1358D01*
G03X93531Y-56250I-1358J0D01*
G03X94358Y-55000I-531J1250D01*
G03X93735Y-53858I-1358J0D01*
G01X94000D01*
G03X94358Y-53500I0J358D01*
G01Y-51500D01*
G03X94000Y-51142I-358J0D01*
G01X93485D01*
G01Y-47280D01*
G03X93343Y-46937I-485J0D01*
G01X90960Y-44554D01*
G03X90782Y-44125I-663J-23D01*
G01Y-32657D01*
G03X91186Y-32794I404J526D01*
G03X91849Y-32131I0J663D01*
G03X91671Y-31679I-663J0D01*
G01Y-26003D01*
G03X91948Y-26063I277J603D01*
G03X92214Y-26008I0J663D01*
G03X92837Y-26444I623J227D01*
G03X93500Y-25804I0J663D01*
G01X95974Y-23330D01*
G03X96116Y-22987I-343J343D01*
G01Y-18235D01*
G01X96162Y-18189D01*
G03X96802Y-17526I-23J663D01*
G03X96407Y-16919I-663J0D01*
G03X96548Y-16510I-522J409D01*
G03X95885Y-15847I-663J0D01*
G03X95222Y-16487I0J-663D01*
G01X94247Y-17462D01*
G03X93735Y-16858I-1247J-538D01*
G01X94000D01*
G03X94358Y-16500I0J358D01*
G01Y-14500D01*
G03X94000Y-14142I-358J0D01*
G01X92000D01*
G03X91642Y-14500I0J-358D01*
G01Y-16172D01*
G01X90716Y-17098D01*
G03X90574Y-17441I343J-343D01*
G01Y-21135D01*
G01X90274Y-21435D01*
G03X89634Y-22098I23J-663D01*
G03X90297Y-22761I663J0D01*
G03X90701Y-22624I0J663D01*
G01Y-29954D01*
G03X90297Y-29817I-404J-526D01*
G03X89634Y-30480I0J-663D01*
G01Y-30492D01*
G03X89408Y-30452I-226J-623D01*
G03X88745Y-31115I0J-663D01*
G03X88923Y-31567I663J0D01*
G01Y-43109D01*
G03X88745Y-43561I485J-452D01*
G03X89408Y-44224I663J0D01*
G03X89812Y-44087I0J663D01*
G01Y-44125D01*
G03X89634Y-44577I485J-452D01*
G03X90274Y-45240I663J0D01*
G01X92515Y-47481D01*
G01Y-51142D01*
G01X92000D01*
G03X91642Y-51500I0J-358D01*
G01Y-53500D01*
G03X92000Y-53858I358J0D01*
G01X92265D01*
G03X91642Y-55000I735J-1142D01*
G03X92469Y-56250I1358J0D01*
G03X91642Y-57500I531J-1250D01*
G03X93000Y-58858I1358J0D01*
G37*
G36*
G01X87100Y-61958D02*
G03X87458Y-61600I0J358D01*
G01Y-59600D01*
G03X87100Y-59242I-358J0D01*
G01X83900D01*
G03X83542Y-59600I0J-358D01*
G01Y-61600D01*
G03X83900Y-61958I358J0D01*
G01X87100D01*
G37*
G36*
G01X78500Y-53858D02*
G03X79858Y-52500I0J1358D01*
G03X78500Y-51142I-1358J0D01*
G03X77142Y-52500I0J-1358D01*
G03X78500Y-53858I1358J0D01*
G37*
G36*
G01X78500Y-58858D02*
G03X79858Y-57500I0J1358D01*
G03X78500Y-56142I-1358J0D01*
G03X77142Y-57500I0J-1358D01*
G03X78500Y-58858I1358J0D01*
G37*
G36*
G01X77142Y-15500D02*
G03X78500Y-16858I1358J0D01*
G03X79858Y-15500I0J1358D01*
G03X78500Y-14142I-1358J0D01*
G03X77142Y-15500I0J-1358D01*
G37*
G36*
G01X78500Y-21858D02*
G03X79858Y-20500I0J1358D01*
G03X78500Y-19142I-1358J0D01*
G03X77142Y-20500I0J-1358D01*
G03X78500Y-21858I1358J0D01*
G37*
G36*
G01X89154Y-55908D02*
G03X89817Y-55245I0J663D01*
G03X89580Y-54737I-663J0D01*
G03X89817Y-54229I-426J508D01*
G03X89154Y-53566I-663J0D01*
G03X88491Y-54229I0J-663D01*
G03X88728Y-54737I663J0D01*
G03X88491Y-55245I426J-508D01*
G03X89154Y-55908I663J0D01*
G37*
G36*
G01X87249Y-69624D02*
G03X87912Y-68961I0J663D01*
G03X87249Y-68298I-663J0D01*
G03X86805Y-68469I0J-663D01*
G03X86360Y-68298I-444J-492D01*
G03X85697Y-68961I0J-663D01*
G03X86360Y-69624I663J0D01*
G03X86805Y-69453I0J663D01*
G03X87249Y-69624I445J492D01*
G37*
G36*
G01X79960Y-37435D02*
G03X80623Y-38098I663J0D01*
G03X81286Y-37435I0J663D01*
G03X80623Y-36772I-663J0D01*
G03X79960Y-37435I0J-663D01*
G37*
G36*
G01X98911Y-56279D02*
G03X99574Y-55616I0J663D01*
G03X98911Y-54953I-663J0D01*
G03X98248Y-55616I0J-663D01*
G03X98911Y-56279I663J0D01*
G37*
G36*
G01X96520Y-38382D02*
G03X97183Y-37719I0J663D01*
G03X96520Y-37056I-663J0D01*
G03X95857Y-37719I0J-663D01*
G03X96520Y-38382I663J0D01*
G37*
G36*
G01X89027Y-9807D02*
G03X89690Y-9144I0J663D01*
G03X89027Y-8481I-663J0D01*
G03X88364Y-9144I0J-663D01*
G03X89027Y-9807I663J0D01*
G37*
G36*
G01X97282Y-19078D02*
G03X97945Y-18415I0J663D01*
G03X97282Y-17752I-663J0D01*
G03X96619Y-18415I0J-663D01*
G03X97282Y-19078I663J0D01*
G37*
G36*
G01X96320Y-25299D02*
G03X96983Y-24636I0J663D01*
G03X96320Y-23973I-663J0D01*
G03X95657Y-24636I0J-663D01*
G03X96320Y-25299I663J0D01*
G37*
G36*
G01X78740Y-27841D02*
G03X79403Y-27178I0J663D01*
G03X78740Y-26515I-663J0D01*
G03X78077Y-27178I0J-663D01*
G03X78740Y-27841I663J0D01*
G37*
%LPD*%
G36*
G01X85222Y-40213D02*
G01X85194Y-40185D01*
G01Y-40089D01*
G03X85222Y-40213I658J84D01*
G37*
G36*
G01X91544Y-21270D02*
G01X91544Y-17642D01*
G01X91777Y-17409D01*
G03X91642Y-18000I1223J-591D01*
G03X92469Y-19250I1358J0D01*
G03X91642Y-20500I531J-1250D01*
G03X91760Y-21054I1358J0D01*
G01X91544Y-21270D01*
G37*
G36*
G01X91671Y-24797D02*
G01X91671Y-22515D01*
G01X92446Y-21740D01*
G03X93000Y-21858I554J1240D01*
G03X94003Y-21416I0J1358D01*
G01Y-22659D01*
G01X91925Y-24737D01*
G03X91671Y-24797I23J-663D01*
G37*
G54D999*
G01X8602Y-68097D02*
G01X8602Y-68025D01*
G03X5000Y-64424I-3602J0D01*
G01X3102D01*
G01Y-8627D01*
G01X5000D01*
G03X8602Y-5025I0J3602D01*
G01Y-3127D01*
G01X36398D01*
G01Y-10033D01*
G03X36500Y-10135I102J0D01*
G01X69898D01*
G01Y-64424D01*
G01X68000D01*
G03X64398Y-68025I0J-3602D01*
G01Y-68097D01*
G01X8602D01*
G01X42418Y-59083D02*
G03X43081Y-58420I0J663D01*
G03X42418Y-57757I-663J0D01*
G03X41966Y-57935I0J-663D01*
G01X41811D01*
G01X42365Y-57381D01*
G01X53449D01*
G03X53312Y-57785I526J-404D01*
G03X53975Y-58448I663J0D01*
G03X54638Y-57785I0J663D01*
G03X54501Y-57381I-663J0D01*
G01X58981D01*
G01X59196Y-57596D01*
G03X59027Y-58039I494J-443D01*
G03X59690Y-58702I663J0D01*
G03X60353Y-58039I0J663D01*
G03X60175Y-57587I-663J0D01*
G01Y-57404D01*
G03X60033Y-57061I-485J0D01*
G01X59525Y-56553D01*
G03X59182Y-56411I-343J-343D01*
G01X56785D01*
G03X57051Y-55880I-397J531D01*
G03X56388Y-55217I-663J0D01*
G03X55936Y-55395I0J-663D01*
G01X53538D01*
G03X53086Y-55217I-452J-485D01*
G03X52423Y-55880I0J-663D01*
G03X52689Y-56411I663J0D01*
G01X42164D01*
G03X41821Y-56553I0J-485D01*
G01X41171Y-57203D01*
G01X32870D01*
G01X31854Y-56187D01*
G01Y-52522D01*
G03X32032Y-52070I-485J452D01*
G03X31369Y-51407I-663J0D01*
G03X30899Y-51602I0J-663D01*
G03X30607Y-51534I-292J-595D01*
G03X29944Y-52197I0J-663D01*
G03X30048Y-52554I663J0D01*
G03X29972Y-52550I-76J-659D01*
G03X29520Y-52728I0J-663D01*
G01X26416D01*
G03X26073Y-52870I0J-485D01*
G01X24437Y-54506D01*
G01X20785D01*
G03X21153Y-54333I-84J658D01*
G01X21717D01*
G03X22060Y-54191I0J485D01*
G01X22555Y-53696D01*
G03X23114Y-54003I559J356D01*
G03X23777Y-53340I0J663D01*
G03X23470Y-52781I-663J0D01*
G01X25220Y-51031D01*
G01X26405D01*
G03X26388Y-51181I646J-150D01*
G03X27051Y-51844I663J0D01*
G03X27714Y-51181I0J663D01*
G03X27697Y-51031I-663J0D01*
G01X49680D01*
G01Y-51943D01*
G03X49822Y-52286I485J0D01*
G01X50518Y-52982D01*
G03X50567Y-53210I663J23D01*
G01X46023D01*
G01X45936Y-53124D01*
G03X45593Y-52982I-343J-343D01*
G01X43180D01*
G03X42919Y-53058I0J-485D01*
G03X42263Y-53721I7J-663D01*
G03X42926Y-54384I663J0D01*
G03X43041Y-54374I0J663D01*
G03X43665Y-54892I647J145D01*
G01X43802Y-55029D01*
G03X44145Y-55172I343J343D01*
G01X58732D01*
G03X58646Y-55499I577J-327D01*
G03X59309Y-56162I663J0D01*
G03X59813Y-55930I0J663D01*
G03X60452Y-56416I639J177D01*
G03X61115Y-55753I0J663D01*
G03X60452Y-55090I-663J0D01*
G03X60402Y-55092I0J-663D01*
G01X60922Y-54572D01*
G03X61064Y-54229I-343J343D01*
G01Y-53541D01*
G01X62204Y-52401D01*
G03X62202Y-52451I661J-50D01*
G03X62865Y-53114I663J0D01*
G03X63528Y-52474I0J663D01*
G01X65408Y-50594D01*
G03X65913Y-50828I505J429D01*
G03X66576Y-50165I0J663D01*
G03X66398Y-49713I-663J0D01*
G01Y-41275D01*
G03X66256Y-40932I-485J0D01*
G01X63911Y-38587D01*
G03X63568Y-38445I-343J-343D01*
G01X43068D01*
G01X42522Y-37899D01*
G01Y-35723D01*
G03X42380Y-35380I-485J0D01*
G01X41074Y-34074D01*
G03X40731Y-33932I-343J-343D01*
G01X40330D01*
G03X39878Y-33754I-452J-485D01*
G03X39215Y-34417I0J-663D01*
G03X39452Y-34925I663J0D01*
G03X39215Y-35433I426J-508D01*
G03X39386Y-35877I663J0D01*
G03X39215Y-36322I492J-444D01*
G03X39250Y-36536I663J0D01*
G03X38961Y-37084I374J-548D01*
G03X39075Y-37455I663J0D01*
G01X38369Y-38161D01*
G03X38382Y-38049I-472J112D01*
G01Y-36500D01*
G03X38240Y-36157I-485J0D01*
G01X38128Y-36045D01*
G03X37465Y-35405I-663J-23D01*
G03X36951Y-35648I0J-663D01*
G03X36576Y-35532I-375J-547D01*
G03X36124Y-35710I0J-663D01*
G01X35761D01*
G01X35395Y-35344D01*
G03X35052Y-35202I-343J-343D01*
G01X32131D01*
G03X31788Y-35344I0J-485D01*
G01X31549Y-35583D01*
G01X31059D01*
G03X30607Y-35405I-452J-485D01*
G03X29944Y-36068I0J-663D01*
G03X30607Y-36731I663J0D01*
G03X31059Y-36553I0J663D01*
G01X31750D01*
G01X31763D01*
G03X32385Y-36985I622J231D01*
G03X33048Y-36322I0J663D01*
G03X33031Y-36172I-663J0D01*
G01X34851D01*
G01X35217Y-36538D01*
G03X35560Y-36680I343J343D01*
G01X36124D01*
G03X36576Y-36858I452J485D01*
G03X37090Y-36615I0J663D01*
G03X37412Y-36729I375J547D01*
G01Y-36960D01*
G03X37211Y-36929I-201J-632D01*
G03X36759Y-37107I0J-663D01*
G01X28014D01*
G01X27587Y-36680D01*
G03X26924Y-36040I-663J-23D01*
G03X26600Y-36124I0J-663D01*
G03X25974Y-35679I-626J-218D01*
G03X25311Y-36342I0J-663D01*
G03X25974Y-37005I663J0D01*
G03X26298Y-36921I0J663D01*
G03X26901Y-37366I626J218D01*
G01X27277Y-37742D01*
G01X19939D01*
G03X19596Y-37884I0J-485D01*
G01X18707Y-38773D01*
G03X18565Y-39116I343J-343D01*
G01Y-40566D01*
G01X18011Y-41120D01*
G03X17371Y-41783I23J-663D01*
G03X18034Y-42446I663J0D01*
G03X18606Y-42119I0J663D01*
G03X19177Y-42446I572J336D01*
G03X19840Y-41806I0J663D01*
G01X20115Y-41532D01*
G01X24114D01*
G03X24102Y-41656I651J-124D01*
G03X24251Y-42075I663J0D01*
G03X24130Y-42060I-121J-470D01*
G01X21661D01*
G03X21209Y-41882I-452J-485D01*
G03X20546Y-42545I0J-663D01*
G03X21209Y-43208I663J0D01*
G03X21661Y-43030I0J663D01*
G01X23929D01*
G01X24549Y-43650D01*
G03X24892Y-43792I343J343D01*
G01X31485D01*
G03X31468Y-43942I646J-150D01*
G03X31485Y-44092I663J0D01*
G01X25273D01*
G03X24930Y-44234I0J-485D01*
G01X24310Y-44854D01*
G01X16962D01*
G03X16510Y-44676I-452J-485D01*
G03X15847Y-45339I0J-663D01*
G03X16510Y-46002I663J0D01*
G03X16962Y-45824I0J663D01*
G01X24511D01*
G03X24854Y-45682I0J485D01*
G01X25474Y-45062D01*
G01X30081D01*
G03X29944Y-45466I526J-404D01*
G03X30364Y-46083I663J0D01*
G03X29817Y-46736I116J-653D01*
G03X30457Y-47399I663J0D01*
G01X31214Y-48156D01*
G01X30932D01*
G03X30480Y-47978I-452J-485D01*
G03X29817Y-48641I0J-663D01*
G03X29834Y-48791I663J0D01*
G01X25273D01*
G03X24930Y-48933I0J-485D01*
G01X21516Y-52347D01*
G01X21280D01*
G03X20828Y-52169I-452J-485D01*
G03X20165Y-52832I0J-663D01*
G03X20346Y-53288I663J0D01*
G03X20038Y-53848I355J-560D01*
G03X20617Y-54506I663J0D01*
G01X20264D01*
G03X19812Y-54328I-452J-485D01*
G03X19149Y-54991I0J-663D01*
G03X19812Y-55654I663J0D01*
G03X20264Y-55476I0J663D01*
G01X24638D01*
G03X24981Y-55334I0J485D01*
G01X26617Y-53698D01*
G01X29520D01*
G03X29972Y-53876I452J485D01*
G03X30122Y-53859I0J663D01*
G01Y-56515D01*
G03X30264Y-56858I485J0D01*
G01X31069Y-57663D01*
G03X30861Y-57630I-208J-630D01*
G03X30409Y-57808I0J-663D01*
G01X28532D01*
G03X29111Y-57150I-84J658D01*
G03X28448Y-56487I-663J0D01*
G03X27785Y-57150I0J-663D01*
G03X27787Y-57200I663J0D01*
G01X27521Y-56934D01*
G03X27178Y-56792I-343J-343D01*
G01X25598D01*
G03X25146Y-56614I-452J-485D01*
G03X24483Y-57277I0J-663D01*
G03X25146Y-57940I663J0D01*
G03X25598Y-57762I0J663D01*
G01X26977D01*
G01X27851Y-58636D01*
G03X28194Y-58778I343J343D01*
G01X30409D01*
G03X30861Y-58956I452J485D01*
G03X31524Y-58293I0J663D01*
G03X31491Y-58085I-663J0D01*
G01X32169Y-58763D01*
G03X32512Y-58905I343J343D01*
G01X41966D01*
G03X42418Y-59083I452J485D01*
G01X15466Y-38227D02*
G03X16129Y-38890I663J0D01*
G03X16792Y-38227I0J663D01*
G03X16614Y-37775I-663J0D01*
G01Y-36393D01*
G03X16792Y-35941I-485J452D01*
G03X16129Y-35278I-663J0D01*
G03X15598Y-35544I0J-663D01*
G01Y-30226D01*
G03X15456Y-29883I-485J0D01*
G01X14201Y-28628D01*
G01Y-16076D01*
G01X16457Y-13820D01*
G01X18143D01*
G03X18006Y-14224I526J-404D01*
G03X18669Y-14887I663J0D01*
G03X19332Y-14224I0J663D01*
G03X19195Y-13820I-663J0D01*
G01X20621D01*
G03X20526Y-14163I568J-343D01*
G03X21189Y-14826I663J0D01*
G03X21852Y-14163I0J663D01*
G03X21756Y-13820I-663J0D01*
G01X24399D01*
G03X24205Y-14289I469J-469D01*
G03X24868Y-14952I663J0D01*
G03X25531Y-14289I0J663D01*
G03X25337Y-13820I-663J0D01*
G01X26989D01*
G03X26793Y-14291I467J-471D01*
G03X27456Y-14954I663J0D01*
G03X28119Y-14291I0J663D01*
G03X27923Y-13820I-663J0D01*
G01X39296D01*
G01X40866Y-15390D01*
G03X41529Y-16030I663J23D01*
G03X42183Y-15479I0J663D01*
G03X42418Y-15522I235J620D01*
G03X43081Y-14859I0J663D01*
G03X42910Y-14414I-663J0D01*
G03X43081Y-13970I-492J445D01*
G03X42441Y-13307I-663J0D01*
G01X40983Y-11849D01*
G03X40640Y-11707I-343J-343D01*
G01X15621D01*
G03X15278Y-11849I0J-485D01*
G01X14883Y-12244D01*
G03X14224Y-11656I-659J-75D01*
G03X13561Y-12319I0J-663D01*
G03X14149Y-12978I663J0D01*
G01X12230Y-14897D01*
G03X12088Y-15240I343J-343D01*
G01Y-29326D01*
G03X11938Y-29309I-150J-646D01*
G03X11275Y-29972I0J-663D01*
G03X11938Y-30635I663J0D01*
G03X12088Y-30618I0J663D01*
G01Y-37465D01*
G03X12230Y-37808I485J0D01*
G01X12418Y-37996D01*
G03X13081Y-38636I663J23D01*
G03X13716Y-38164I0J663D01*
G03X14351Y-38636I635J191D01*
G03X14959Y-38237I0J663D01*
G03X15113Y-38255I154J645D01*
G03X15470Y-38151I0J663D01*
G03X15466Y-38227I659J-76D01*
G01X28293Y-35814D02*
G03X28956Y-36477I663J0D01*
G03X29619Y-35814I0J663D01*
G03X29610Y-35706I-663J0D01*
G03X29718Y-35715I108J654D01*
G03X30381Y-35075I0J663D01*
G01X31189Y-34267D01*
G01X32822D01*
G03X33274Y-34445I452J485D01*
G03X33937Y-33782I0J663D01*
G03X33274Y-33119I-663J0D01*
G03X32822Y-33297I0J-663D01*
G01X31143D01*
G01X31585Y-32855D01*
G03X31727Y-32512I-343J343D01*
G01Y-32459D01*
G01X31824Y-32362D01*
G01X34152D01*
G03X34135Y-32512I646J-150D01*
G03X34798Y-33175I663J0D01*
G03X35461Y-32512I0J663D01*
G03X35444Y-32362I-663J0D01*
G01X36505D01*
G03X36957Y-32540I452J485D01*
G03X37183Y-32500I0J663D01*
G01Y-32512D01*
G03X37846Y-33175I663J0D01*
G03X38509Y-32512I0J663D01*
G03X37846Y-31849I-663J0D01*
G03X37620Y-31889I0J-663D01*
G01Y-31877D01*
G03X37603Y-31727I-663J0D01*
G01X38029D01*
G03X38481Y-31905I452J485D01*
G03X38946Y-31715I0J663D01*
G03X39531Y-32066I585J312D01*
G03X40097Y-31750I0J663D01*
G03X40640Y-32032I543J381D01*
G03X41303Y-31369I0J663D01*
G03X41187Y-30994I-663J0D01*
G03X41430Y-30480I-420J514D01*
G03X41314Y-30105I-663J0D01*
G03X41557Y-29591I-420J514D01*
G03X41159Y-28983I-663J0D01*
G03X41430Y-28448I-392J535D01*
G03X40958Y-27813I-663J0D01*
G03X41430Y-27178I-191J635D01*
G03X41252Y-26726I-663J0D01*
G01Y-25471D01*
G03X41430Y-25019I-485J452D01*
G03X40767Y-24356I-663J0D01*
G03X40659Y-24365I0J-663D01*
G03X40668Y-24257I-654J108D01*
G03X40005Y-23594I-663J0D01*
G03X39897Y-23603I0J-663D01*
G03X39906Y-23495I-654J108D01*
G03X39889Y-23345I-663J0D01*
G01X40061D01*
G03X40513Y-23523I452J485D01*
G03X41176Y-22860I0J663D01*
G03X40849Y-22288I-663J0D01*
G03X41176Y-21717I-336J572D01*
G03X40905Y-21182I-663J0D01*
G03X41303Y-20574I-265J608D01*
G03X40640Y-19911I-663J0D01*
G03X40184Y-20092I0J-663D01*
G03X39624Y-19784I-560J-355D01*
G03X39172Y-19962I0J-663D01*
G01X31694D01*
G03X31242Y-19784I-452J-485D01*
G03X30579Y-20447I0J-663D01*
G03X31242Y-21110I663J0D01*
G03X31694Y-20932I0J663D01*
G01X34068D01*
G03X34008Y-21209I603J-277D01*
G03X34650Y-21872I663J0D01*
G03X34643Y-21971I656J-99D01*
G03X35306Y-22634I663J0D01*
G01X35318D01*
G03X35278Y-22860I623J-226D01*
G03X35941Y-23523I663J0D01*
G03X36393Y-23345I0J663D01*
G01X38597D01*
G03X38580Y-23495I646J-150D01*
G03X38758Y-23947I663J0D01*
G01Y-27940D01*
G03X38900Y-28283I485J0D01*
G01X39215Y-28598D01*
G01X38044D01*
G03X37592Y-28420I-452J-485D01*
G03X36929Y-29083I0J-663D01*
G03X36989Y-29360I663J0D01*
G01X36012D01*
G03X35560Y-29182I-452J-485D01*
G03X34897Y-29845I0J-663D01*
G03X34913Y-29990I663J0D01*
G03X34671Y-29944I-242J-617D01*
G03X34008Y-30586I0J-663D01*
G03X33909Y-30579I-99J-656D01*
G03X33246Y-31242I0J-663D01*
G03X33263Y-31392I663J0D01*
G01X31623D01*
G03X31280Y-31534I0J-485D01*
G01X31237Y-31577D01*
G03X31270Y-31369I-630J208D01*
G03X30607Y-30706I-663J0D01*
G03X29944Y-31369I0J-663D01*
G03X30607Y-32032I663J0D01*
G03X30837Y-31991I0J663D01*
G03X30757Y-32258I405J-267D01*
G01Y-32311D01*
G01X29306Y-33762D01*
G03X28702Y-33373I-604J-274D01*
G03X28039Y-34036I0J-663D01*
G03X28490Y-34664I663J0D01*
G03X28471Y-34798I466J-134D01*
G01Y-35362D01*
G03X28293Y-35814I485J-452D01*
G01X60635Y-63223D02*
G03X61087Y-63401I452J485D01*
G03X61750Y-62738I0J663D01*
G03X61087Y-62075I-663J0D01*
G03X60635Y-62253I0J-663D01*
G01X40023D01*
G03X40160Y-61849I-526J404D01*
G03X39497Y-61186I-663J0D01*
G03X39045Y-61364I0J-663D01*
G01X34131D01*
G03X34191Y-61087I-603J277D01*
G03X33528Y-60424I-663J0D01*
G03X33076Y-60602I0J-663D01*
G01X25090D01*
G03X24638Y-60424I-452J-485D01*
G03X23975Y-61087I0J-663D01*
G03X24015Y-61315I663J0D01*
G03X23622Y-61186I-393J-534D01*
G03X22959Y-61849I0J-663D01*
G03X23096Y-62253I663J0D01*
G01X21661D01*
G03X21209Y-62075I-452J-485D01*
G03X20546Y-62738I0J-663D01*
G03X21209Y-63401I663J0D01*
G03X21661Y-63223I0J663D01*
G01X60635D01*
G01X67112Y-15471D02*
G03X67564Y-15649I452J485D01*
G03X68227Y-14986I0J663D01*
G03X68123Y-14629I-663J0D01*
G03X68199Y-14633I76J659D01*
G03X68862Y-13970I0J663D01*
G03X68199Y-13307I-663J0D01*
G01X68187D01*
G03X68227Y-13081I-623J226D01*
G03X67587Y-12418I-663J0D01*
G01X65875Y-10706D01*
G03X65532Y-10564I-343J-343D01*
G01X48204D01*
G03X47752Y-10386I-452J-485D01*
G03X47089Y-11049I0J-663D01*
G03X47752Y-11712I663J0D01*
G03X48204Y-11534I0J663D01*
G01X64040D01*
G03X63980Y-11811I603J-277D01*
G03X64441Y-12443I663J0D01*
G03X63975Y-13076I197J-633D01*
G03X64615Y-13739I663J0D01*
G01X66205Y-15329D01*
G03X66548Y-15471I343J343D01*
G01X67112D01*
G01X28801Y-27813D02*
G03X29464Y-28476I663J0D01*
G03X30127Y-27836I0J663D01*
G01X30300Y-27663D01*
G01X35108D01*
G03X35560Y-27841I452J485D01*
G03X36223Y-27178I0J663D01*
G03X35560Y-26515I-663J0D01*
G03X35265Y-26584I0J-663D01*
G03X35334Y-26289I-594J295D01*
G03X34671Y-25626I-663J0D01*
G03X34219Y-25804I0J-663D01*
G01X28522D01*
G01X28476Y-25758D01*
G03X28416Y-25504I-663J-23D01*
G01X33457D01*
G03X33909Y-25682I452J485D01*
G03X34572Y-25019I0J663D01*
G03X33909Y-24356I-663J0D01*
G03X33457Y-24534I0J-663D01*
G01X24130D01*
G03X23787Y-24676I0J-485D01*
G01X22913Y-25550D01*
G01X19883D01*
G03X19431Y-25372I-452J-485D01*
G03X18768Y-26035I0J-663D01*
G03X19431Y-26698I663J0D01*
G03X19883Y-26520I0J663D01*
G01X21445D01*
G03X21308Y-26924I526J-404D01*
G03X21971Y-27587I663J0D01*
G03X22634Y-26924I0J663D01*
G03X22497Y-26520I-663J0D01*
G01X23114D01*
G03X23457Y-26378I0J485D01*
G01X24331Y-25504D01*
G01X27210D01*
G03X27150Y-25781I603J-277D01*
G03X27790Y-26444I663J0D01*
G01X27978Y-26632D01*
G03X28321Y-26774I343J343D01*
G01X29830D01*
G03X29756Y-26835I269J-404D01*
G01X29441Y-27150D01*
G03X28801Y-27813I23J-663D01*
G01X13589Y-65941D02*
G03X14041Y-65763I0J663D01*
G01X27996D01*
G03X28448Y-65941I452J485D01*
G03X29111Y-65278I0J663D01*
G03X29094Y-65128I-663J0D01*
G01X29520D01*
G03X29972Y-65306I452J485D01*
G03X30635Y-64643I0J663D01*
G03X29972Y-63980I-663J0D01*
G03X29520Y-64158I0J-663D01*
G01X28205D01*
G03X28222Y-64008I-646J150D01*
G03X27559Y-63345I-663J0D01*
G03X26896Y-64008I0J-663D01*
G03X26913Y-64158I663J0D01*
G01X15481D01*
G03X14859Y-63726I-622J-231D01*
G03X14196Y-64389I0J-663D01*
G03X14333Y-64793I663J0D01*
G01X14041D01*
G03X13589Y-64615I-452J-485D01*
G03X12926Y-65278I0J-663D01*
G03X13589Y-65941I663J0D01*
G01X63119Y-32667D02*
G03X63599Y-32461I0J663D01*
G03X63781Y-32347I-162J457D01*
G01X66764Y-29364D01*
G03X66906Y-29020I-343J343D01*
G01Y-26614D01*
G03X67084Y-26162I-485J452D01*
G03X66421Y-25499I-663J0D01*
G03X65758Y-26162I0J-663D01*
G03X65936Y-26614I663J0D01*
G01Y-28820D01*
G01X63367Y-31389D01*
G03X63142Y-31341I-248J-615D01*
G01X62461Y-30660D01*
G01Y-29789D01*
G03X62639Y-29337I-485J452D01*
G03X61976Y-28674I-663J0D01*
G03X61313Y-29337I0J-663D01*
G03X61491Y-29789I663J0D01*
G01Y-30861D01*
G03X61633Y-31204I485J0D01*
G01X62456Y-32027D01*
G03X63119Y-32667I663J23D01*
G01X21590Y-11541D02*
G03X23098Y-10033I0J1508D01*
G03X22943Y-9366I-1508J0D01*
G01X22956Y-9353D01*
G01X28153D01*
G03X28605Y-9531I452J485D01*
G03X29268Y-8868I0J663D01*
G03X28605Y-8205I-663J0D01*
G03X28153Y-8383I0J-663D01*
G01X22755D01*
G03X22412Y-8525I0J-485D01*
G01X22257Y-8680D01*
G03X21590Y-8525I-667J-1353D01*
G03X20082Y-10033I0J-1508D01*
G03X21590Y-11541I1508J0D01*
G01X55626Y-37239D02*
G03X56289Y-36576I0J663D01*
G03X56111Y-36124I-663J0D01*
G01Y-17343D01*
G03X56289Y-16891I-485J452D01*
G03X55626Y-16228I-663J0D01*
G03X54963Y-16891I0J-663D01*
G03X55141Y-17343I663J0D01*
G01Y-36124D01*
G03X54963Y-36576I485J-452D01*
G03X55626Y-37239I663J0D01*
G01X56896Y-36223D02*
G03X57559Y-35560I0J663D01*
G03X57381Y-35108I-663J0D01*
G01Y-18613D01*
G03X57559Y-18161I-485J452D01*
G03X56896Y-17498I-663J0D01*
G03X56233Y-18161I0J-663D01*
G03X56411Y-18613I663J0D01*
G01Y-35108D01*
G03X56233Y-35560I485J-452D01*
G03X56896Y-36223I663J0D01*
G01X13081Y-44942D02*
G03X14589Y-43434I0J1508D01*
G03X13566Y-42006I-1508J0D01*
G01Y-41783D01*
G03X13424Y-41440I-485J0D01*
G01X11915Y-39931D01*
G01Y-39695D01*
G03X12093Y-39243I-485J452D01*
G03X11430Y-38580I-663J0D01*
G03X10767Y-39243I0J-663D01*
G03X10945Y-39695I663J0D01*
G01Y-40132D01*
G03X11087Y-40475I485J0D01*
G01X12596Y-41984D01*
G01Y-42006D01*
G03X11573Y-43434I485J-1428D01*
G03X13081Y-44942I1508J0D01*
G01X56825Y-65128D02*
G03X57277Y-65306I452J485D01*
G03X57940Y-64643I0J663D01*
G03X57277Y-63980I-663J0D01*
G03X56825Y-64158I0J-663D01*
G01X47699D01*
G01X47653Y-64112D01*
G03X46990Y-63472I-663J-23D01*
G03X46327Y-64135I0J-663D01*
G03X46967Y-64798I663J0D01*
G01X47155Y-64986D01*
G03X47498Y-65128I343J343D01*
G01X56825D01*
G01X58166Y-34826D02*
G03X58829Y-34163I0J663D01*
G03X58651Y-33711I-663J0D01*
G01Y-19883D01*
G03X58829Y-19431I-485J452D01*
G03X58166Y-18768I-663J0D01*
G03X57503Y-19431I0J-663D01*
G03X57681Y-19883I663J0D01*
G01Y-33711D01*
G03X57503Y-34163I485J-452D01*
G03X58166Y-34826I663J0D01*
G01X58773Y-32639D02*
G03X59436Y-33302I663J0D01*
G03X60099Y-32639I0J663D01*
G03X59921Y-32187I-663J0D01*
G01Y-21153D01*
G03X60099Y-20701I-485J452D01*
G03X59436Y-20038I-663J0D01*
G03X58773Y-20701I0J-663D01*
G03X58951Y-21153I663J0D01*
G01Y-32187D01*
G03X58773Y-32639I485J-452D01*
G01X24781Y-31115D02*
G03X26289Y-32623I1508J0D01*
G03X27717Y-31600I0J1508D01*
G01X28250D01*
G03X28702Y-31778I452J485D01*
G03X29365Y-31115I0J663D01*
G03X28702Y-30452I-663J0D01*
G03X28250Y-30630I0J-663D01*
G01X27717D01*
G03X26289Y-29607I-1428J-485D01*
G03X24781Y-31115I0J-1508D01*
G01X17034Y-31242D02*
G03X18542Y-32750I1508J0D01*
G03X19920Y-31854I0J1508D01*
G01X20503D01*
G03X20955Y-32032I452J485D01*
G03X21618Y-31369I0J663D01*
G03X20955Y-30706I-663J0D01*
G03X20503Y-30884I0J-663D01*
G01X20007D01*
G03X18542Y-29734I-1465J-358D01*
G03X17034Y-31242I0J-1508D01*
G01X20412Y-23674D02*
G03X21075Y-24337I663J0D01*
G03X21738Y-23674I0J663D01*
G03X21557Y-23218I-663J0D01*
G01X23932D01*
G03X24384Y-23396I452J485D01*
G03X25047Y-22733I0J663D01*
G03X24384Y-22070I-663J0D01*
G03X23932Y-22248I0J-663D01*
G01X20264D01*
G03X19812Y-22070I-452J-485D01*
G03X19149Y-22733I0J-663D01*
G03X19812Y-23396I663J0D01*
G03X20264Y-23218I0J663D01*
G01X20594D01*
G03X20412Y-23674I482J-456D01*
G01X8868Y-56700D02*
G03X9412Y-56416I0J663D01*
G03X9553Y-56007I-522J409D01*
G03X8890Y-55344I-663J0D01*
G03X8346Y-55627I0J-663D01*
G03X8205Y-56037I522J-409D01*
G03X8868Y-56700I663J0D01*
G01X62710Y-56769D02*
G03X63373Y-57432I663J0D01*
G03X64036Y-56769I0J663D01*
G03X63373Y-56106I-663J0D01*
G03X62710Y-56769I0J-663D01*
G01X45466Y-60226D02*
G03X46129Y-59563I0J663D01*
G03X45466Y-58900I-663J0D01*
G03X44803Y-59563I0J-663D01*
G03X45466Y-60226I663J0D01*
G01X65024Y-36223D02*
G03X65687Y-35560I0J663D01*
G03X65024Y-34897I-663J0D01*
G03X64361Y-35560I0J-663D01*
G03X65024Y-36223I663J0D01*
G01X52169Y-61063D02*
G03X52832Y-61726I663J0D01*
G03X53495Y-61063I0J663D01*
G03X52832Y-60399I-663J0D01*
G03X52169Y-61063I0J-663D01*
G01X53975Y-66576D02*
G03X54638Y-65913I0J663D01*
G03X53975Y-65250I-663J0D01*
G03X53312Y-65913I0J-663D01*
G03X53975Y-66576I663J0D01*
G01X9878Y-46228D02*
G03X10541Y-46891I663J0D01*
G03X11204Y-46228I0J663D01*
G03X10541Y-45565I-663J0D01*
G03X9878Y-46228I0J-663D01*
G01X39116Y-15268D02*
G03X39779Y-14605I0J663D01*
G03X39116Y-13942I-663J0D01*
G03X38453Y-14605I0J-663D01*
G03X39116Y-15268I663J0D01*
G01X14986Y-60988D02*
G03X15649Y-60325I0J663D01*
G03X14986Y-59662I-663J0D01*
G03X14323Y-60325I0J-663D01*
G03X14986Y-60988I663J0D01*
G01X10767Y-56896D02*
G03X11430Y-57559I663J0D01*
G03X12093Y-56896I0J663D01*
G03X11430Y-56233I-663J0D01*
G03X10767Y-56896I0J-663D01*
G01X16002Y-63401D02*
G03X16665Y-62738I0J663D01*
G03X16002Y-62075I-663J0D01*
G03X15339Y-62738I0J-663D01*
G03X16002Y-63401I663J0D01*
G01X23114Y-47399D02*
G03X23777Y-46736I0J663D01*
G03X23114Y-46073I-663J0D01*
G03X22451Y-46736I0J-663D01*
G03X23114Y-47399I663J0D01*
G01X8943Y-14130D02*
G03X9606Y-13467I0J663D01*
G03X8943Y-12804I-663J0D01*
G03X8280Y-13467I0J-663D01*
G03X8943Y-14130I663J0D01*
G01X17625Y-49657D02*
G03X18288Y-50320I663J0D01*
G03X18951Y-49657I0J663D01*
G03X18288Y-48994I-663J0D01*
G03X17625Y-49657I0J-663D01*
G01X17272Y-60861D02*
G03X17935Y-60198I0J663D01*
G03X17272Y-59535I-663J0D01*
G03X16609Y-60198I0J-663D01*
G03X17272Y-60861I663J0D01*
G01X21844Y-57940D02*
G03X22507Y-57277I0J663D01*
G03X21844Y-56614I-663J0D01*
G03X21181Y-57277I0J-663D01*
G03X21844Y-57940I663J0D01*
G01X18514Y-10795D02*
G03X19177Y-11458I663J0D01*
G03X19840Y-10795I0J663D01*
G03X19177Y-10132I-663J0D01*
G03X18514Y-10795I0J-663D01*
G01X7366Y-24539D02*
G03X8029Y-23876I0J663D01*
G03X7366Y-23213I-663J0D01*
G03X6703Y-23876I0J-663D01*
G03X7366Y-24539I663J0D01*
G01X10526Y-27940D02*
G03X11189Y-28603I663J0D01*
G03X11852Y-27940I0J663D01*
G03X11189Y-27277I-663J0D01*
G03X10526Y-27940I0J-663D01*
G01X9398Y-29492D02*
G03X10061Y-28829I0J663D01*
G03X9398Y-28166I-663J0D01*
G03X8735Y-28829I0J-663D01*
G03X9398Y-29492I663J0D01*
G01X20066Y-16665D02*
G03X20729Y-16002I0J663D01*
G03X20066Y-15339I-663J0D01*
G03X19403Y-16002I0J-663D01*
G03X20066Y-16665I663J0D01*
G01X14958Y-23114D02*
G03X15621Y-23777I663J0D01*
G03X16284Y-23114I0J663D01*
G03X15621Y-22451I-663J0D01*
G03X14958Y-23114I0J-663D01*
G01X28702Y-30254D02*
G03X29365Y-29591I0J663D01*
G03X28702Y-28928I-663J0D01*
G03X28039Y-29591I0J-663D01*
G03X28702Y-30254I663J0D01*
G01X26289Y-28730D02*
G03X26952Y-28067I0J663D01*
G03X26289Y-27404I-663J0D01*
G03X25626Y-28067I0J-663D01*
G03X26289Y-28730I663J0D01*
G01X26007Y-20320D02*
G03X26670Y-20983I663J0D01*
G03X27333Y-20320I0J663D01*
G03X26670Y-19657I-663J0D01*
G03X26007Y-20320I0J-663D01*
G01X20251Y-20856D02*
G03X20915Y-20193I0J663D01*
G03X20251Y-19530I-663J0D01*
G03X19588Y-20193I0J-663D01*
G03X20251Y-20856I663J0D01*
G01X21336Y-18824D02*
G03X21999Y-18161I0J663D01*
G03X21336Y-17498I-663J0D01*
G03X20673Y-18161I0J-663D01*
G03X21336Y-18824I663J0D01*
G01X17005Y-28603D02*
G03X17668Y-27940I0J663D01*
G03X17005Y-27277I-663J0D01*
G03X16342Y-27940I0J-663D01*
G03X17005Y-28603I663J0D01*
G01X27305Y-18824D02*
G03X27968Y-18161I0J663D01*
G03X27305Y-17498I-663J0D01*
G03X26642Y-18161I0J-663D01*
G03X27305Y-18824I663J0D01*
G01X18034Y-23777D02*
G03X18697Y-23114I0J663D01*
G03X18034Y-22451I-663J0D01*
G03X17371Y-23114I0J-663D01*
G03X18034Y-23777I663J0D01*
G01X23876Y-18824D02*
G03X24539Y-18161I0J663D01*
G03X23876Y-17498I-663J0D01*
G03X23213Y-18161I0J-663D01*
G03X23876Y-18824I663J0D01*
G01X13866Y-37521D02*
G03X13716Y-37782I485J-452D01*
G03X13104Y-37310I-635J-191D01*
G01X13058Y-37264D01*
G01Y-32667D01*
G01X13866Y-33475D01*
G01Y-37521D01*
G01X35571Y-44092D02*
G03X35588Y-43942I-646J150D01*
G03X35571Y-43792I-663J0D01*
G01X57066D01*
G03X56592Y-44092I84J-658D01*
G01X35571D01*
G01X57295Y-43803D02*
G03X57234Y-43792I-145J-647D01*
G01X57290D01*
G01X57295Y-43803D01*
G01X58520Y-49392D02*
G03X58309Y-49126I-608J-265D01*
G01X58971D01*
G03X58520Y-49392I84J-658D01*
G01X60094Y-54028D02*
G01X59540Y-54582D01*
G01Y-50236D01*
G03X59718Y-49784I-485J452D01*
G03X59139Y-49126I-663J0D01*
G01X63429D01*
G03X63881Y-49304I452J485D01*
G03X63931Y-49302I0J663D01*
G01X60236Y-52997D01*
G03X60094Y-53340I343J-343D01*
G01Y-54028D01*
G01X63119Y-40231D02*
G03X62667Y-40409I0J-663D01*
G01X59193D01*
G03X59210Y-40259I-646J150D01*
G03X59193Y-40109I-663J0D01*
G01X63172D01*
G01X63327Y-40264D01*
G03X63119Y-40231I-208J-630D01*
G01X81602Y-69923D02*
G01X81602Y-68025D01*
G03X78000Y-64424I-3602J-0D01*
G01X76102D01*
G01Y-8627D01*
G01X78000D01*
G03X80583Y-7535I0J3602D01*
G03X80490Y-7874I570J-339D01*
G03X80922Y-8496I663J0D01*
G01Y-18066D01*
G03X80645Y-18006I-277J-603D01*
G03X79982Y-18669I0J-663D01*
G03X80645Y-19332I663J0D01*
G03X80922Y-19272I0J663D01*
G01Y-28321D01*
G03X81064Y-28664I485J0D01*
G01X81421Y-29021D01*
G03X81252Y-29464I494J-443D01*
G03X81915Y-30127I663J0D01*
G03X82578Y-29464I0J663D01*
G03X82569Y-29356I-663J0D01*
G03X82677Y-29365I108J654D01*
G03X82954Y-29305I0J663D01*
G01Y-41765D01*
G03X82550Y-41628I-404J-526D01*
G03X82273Y-41688I0J-663D01*
G01Y-40965D01*
G03X82451Y-40513I-485J452D01*
G03X81788Y-39850I-663J0D01*
G03X81125Y-40513I0J-663D01*
G03X81303Y-40965I663J0D01*
G01Y-55107D01*
G03X81153Y-55090I-150J-646D01*
G03X80490Y-55753I0J-663D01*
G03X81153Y-56416I663J0D01*
G03X81303Y-56399I0J663D01*
G01Y-65334D01*
G03X81125Y-65786I485J-452D01*
G03X81788Y-66449I663J0D01*
G03X82451Y-65786I0J663D01*
G03X82273Y-65334I-663J0D01*
G01Y-62385D01*
G01X83157Y-63269D01*
G03X83820Y-63909I663J23D01*
G03X84483Y-63246I0J663D01*
G03X83843Y-62583I-663J0D01*
G01X83035Y-61775D01*
G01Y-58184D01*
G03X83439Y-58321I404J526D01*
G03X84102Y-57658I0J663D01*
G03X83924Y-57206I-663J0D01*
G01Y-50758D01*
G01X87100D01*
G03X87458Y-50400I0J358D01*
G01Y-48400D01*
G03X87100Y-48042I-358J0D01*
G01X83924D01*
G01Y-26360D01*
G03X84102Y-25908I-485J452D01*
G03X84042Y-25631I-663J0D01*
G01X84254D01*
G01X84986Y-26363D01*
G01Y-35592D01*
G03X84709Y-35532I-277J-603D01*
G03X84046Y-36195I0J-663D01*
G03X84224Y-36647I663J0D01*
G01Y-40386D01*
G03X84366Y-40729I485J0D01*
G01X85062Y-41425D01*
G03X85725Y-42065I663J23D01*
G03X86388Y-41402I0J663D01*
G03X85748Y-40739I-663J0D01*
G01X85644Y-40635D01*
G03X85852Y-40668I208J630D01*
G03X86515Y-40005I0J663D01*
G03X85852Y-39342I-663J0D01*
G03X85194Y-39921I0J-663D01*
G01Y-39211D01*
G03X85471Y-39271I277J603D01*
G03X86134Y-38608I0J663D01*
G03X85956Y-38156I-663J0D01*
G01Y-31210D01*
G03X86233Y-31270I277J603D01*
G03X86764Y-31004I0J663D01*
G01Y-33711D01*
G03X86586Y-34163I485J-452D01*
G03X87249Y-34826I663J0D01*
G03X87912Y-34163I0J663D01*
G03X87734Y-33711I-663J0D01*
G01Y-32226D01*
G03X88011Y-32286I277J603D01*
G03X88674Y-31623I0J663D01*
G03X88623Y-31368I-663J0D01*
G01Y-17798D01*
G03X89027Y-17935I404J526D01*
G03X89690Y-17272I0J663D01*
G03X89027Y-16609I-663J0D01*
G03X88623Y-16746I0J-663D01*
G01Y-12898D01*
G03X88801Y-12446I-485J452D01*
G03X88493Y-11886I-663J0D01*
G03X88674Y-11430I-482J456D01*
G03X88011Y-10767I-663J0D01*
G03X87392Y-11192I0J-663D01*
G03X87100Y-11042I-292J-208D01*
G01X83900D01*
G03X83542Y-11400I0J-358D01*
G01Y-13400D01*
G03X83900Y-13758I358J0D01*
G01X87018D01*
G01Y-22242D01*
G01X83900D01*
G03X83542Y-22600I0J-358D01*
G01Y-24309D01*
G01X83289Y-24056D01*
G01Y-21788D01*
G03X83467Y-21336I-485J452D01*
G03X82804Y-20673I-663J0D01*
G03X82299Y-20907I0J-663D01*
G01Y-10590D01*
G01X82954Y-9934D01*
G03X83594Y-9271I-23J663D01*
G03X82931Y-8608I-663J0D01*
G03X82268Y-9248I0J-663D01*
G01X81892Y-9624D01*
G01Y-8128D01*
G03X81816Y-7867I-485J0D01*
G03X81153Y-7211I-663J-7D01*
G03X80758Y-7341I0J-663D01*
G03X81602Y-5025I-2758J2316D01*
G01Y-3127D01*
G01X94398D01*
G01Y-5025D01*
G03X98000Y-8627I3602J0D01*
G01X99898D01*
G01Y-64424D01*
G01X98000D01*
G03X94398Y-68025I0J-3602D01*
G01Y-69923D01*
G01X81602D01*
G01X93000Y-58858D02*
G03X94358Y-57500I0J1358D01*
G03X93531Y-56250I-1358J0D01*
G03X94358Y-55000I-531J1250D01*
G03X93735Y-53858I-1358J0D01*
G01X94000D01*
G03X94358Y-53500I0J358D01*
G01Y-51500D01*
G03X94000Y-51142I-358J0D01*
G01X93485D01*
G01Y-47280D01*
G03X93343Y-46937I-485J0D01*
G01X90960Y-44554D01*
G03X90782Y-44125I-663J-23D01*
G01Y-32657D01*
G03X91186Y-32794I404J526D01*
G03X91849Y-32131I0J663D01*
G03X91671Y-31679I-663J0D01*
G01Y-26003D01*
G03X91948Y-26063I277J603D01*
G03X92214Y-26008I0J663D01*
G03X92837Y-26444I623J227D01*
G03X93500Y-25804I0J663D01*
G01X95974Y-23330D01*
G03X96116Y-22987I-343J343D01*
G01Y-18235D01*
G01X96162Y-18189D01*
G03X96802Y-17526I-23J663D01*
G03X96407Y-16919I-663J0D01*
G03X96548Y-16510I-522J409D01*
G03X95885Y-15847I-663J0D01*
G03X95222Y-16487I0J-663D01*
G01X94247Y-17462D01*
G03X93735Y-16858I-1247J-538D01*
G01X94000D01*
G03X94358Y-16500I0J358D01*
G01Y-14500D01*
G03X94000Y-14142I-358J0D01*
G01X92000D01*
G03X91642Y-14500I0J-358D01*
G01Y-16172D01*
G01X90716Y-17098D01*
G03X90574Y-17441I343J-343D01*
G01Y-21135D01*
G01X90274Y-21435D01*
G03X89634Y-22098I23J-663D01*
G03X90297Y-22761I663J0D01*
G03X90701Y-22624I0J663D01*
G01Y-29954D01*
G03X90297Y-29817I-404J-526D01*
G03X89634Y-30480I0J-663D01*
G01Y-30492D01*
G03X89408Y-30452I-226J-623D01*
G03X88745Y-31115I0J-663D01*
G03X88923Y-31567I663J0D01*
G01Y-43109D01*
G03X88745Y-43561I485J-452D01*
G03X89408Y-44224I663J0D01*
G03X89812Y-44087I0J663D01*
G01Y-44125D01*
G03X89634Y-44577I485J-452D01*
G03X90274Y-45240I663J0D01*
G01X92515Y-47481D01*
G01Y-51142D01*
G01X92000D01*
G03X91642Y-51500I0J-358D01*
G01Y-53500D01*
G03X92000Y-53858I358J0D01*
G01X92265D01*
G03X91642Y-55000I735J-1142D01*
G03X92469Y-56250I1358J0D01*
G03X91642Y-57500I531J-1250D01*
G03X93000Y-58858I1358J0D01*
G01X87100Y-61958D02*
G03X87458Y-61600I0J358D01*
G01Y-59600D01*
G03X87100Y-59242I-358J0D01*
G01X83900D01*
G03X83542Y-59600I0J-358D01*
G01Y-61600D01*
G03X83900Y-61958I358J0D01*
G01X87100D01*
G01X78500Y-53858D02*
G03X79858Y-52500I0J1358D01*
G03X78500Y-51142I-1358J0D01*
G03X77142Y-52500I0J-1358D01*
G03X78500Y-53858I1358J0D01*
G01X78500Y-58858D02*
G03X79858Y-57500I0J1358D01*
G03X78500Y-56142I-1358J0D01*
G03X77142Y-57500I0J-1358D01*
G03X78500Y-58858I1358J0D01*
G01X77142Y-15500D02*
G03X78500Y-16858I1358J0D01*
G03X79858Y-15500I0J1358D01*
G03X78500Y-14142I-1358J0D01*
G03X77142Y-15500I0J-1358D01*
G01X78500Y-21858D02*
G03X79858Y-20500I0J1358D01*
G03X78500Y-19142I-1358J0D01*
G03X77142Y-20500I0J-1358D01*
G03X78500Y-21858I1358J0D01*
G01X89154Y-55908D02*
G03X89817Y-55245I0J663D01*
G03X89580Y-54737I-663J0D01*
G03X89817Y-54229I-426J508D01*
G03X89154Y-53566I-663J0D01*
G03X88491Y-54229I0J-663D01*
G03X88728Y-54737I663J0D01*
G03X88491Y-55245I426J-508D01*
G03X89154Y-55908I663J0D01*
G01X87249Y-69624D02*
G03X87912Y-68961I0J663D01*
G03X87249Y-68298I-663J0D01*
G03X86805Y-68469I0J-663D01*
G03X86360Y-68298I-444J-492D01*
G03X85697Y-68961I0J-663D01*
G03X86360Y-69624I663J0D01*
G03X86805Y-69453I0J663D01*
G03X87249Y-69624I445J492D01*
G01X79960Y-37435D02*
G03X80623Y-38098I663J0D01*
G03X81286Y-37435I0J663D01*
G03X80623Y-36772I-663J0D01*
G03X79960Y-37435I0J-663D01*
G01X98911Y-56279D02*
G03X99574Y-55616I0J663D01*
G03X98911Y-54953I-663J0D01*
G03X98248Y-55616I0J-663D01*
G03X98911Y-56279I663J0D01*
G01X96520Y-38382D02*
G03X97183Y-37719I0J663D01*
G03X96520Y-37056I-663J0D01*
G03X95857Y-37719I0J-663D01*
G03X96520Y-38382I663J0D01*
G01X89027Y-9807D02*
G03X89690Y-9144I0J663D01*
G03X89027Y-8481I-663J0D01*
G03X88364Y-9144I0J-663D01*
G03X89027Y-9807I663J0D01*
G01X97282Y-19078D02*
G03X97945Y-18415I0J663D01*
G03X97282Y-17752I-663J0D01*
G03X96619Y-18415I0J-663D01*
G03X97282Y-19078I663J0D01*
G01X96320Y-25299D02*
G03X96983Y-24636I0J663D01*
G03X96320Y-23973I-663J0D01*
G03X95657Y-24636I0J-663D01*
G03X96320Y-25299I663J0D01*
G01X78740Y-27841D02*
G03X79403Y-27178I0J663D01*
G03X78740Y-26515I-663J0D01*
G03X78077Y-27178I0J-663D01*
G03X78740Y-27841I663J0D01*
G01X85222Y-40213D02*
G01X85194Y-40185D01*
G01Y-40089D01*
G03X85222Y-40213I658J84D01*
G01X91544Y-21270D02*
G01X91544Y-17642D01*
G01X91777Y-17409D01*
G03X91642Y-18000I1223J-591D01*
G03X92469Y-19250I1358J0D01*
G03X91642Y-20500I531J-1250D01*
G03X91760Y-21054I1358J0D01*
G01X91544Y-21270D01*
G01X91671Y-24797D02*
G01X91671Y-22515D01*
G01X92446Y-21740D01*
G03X93000Y-21858I554J1240D01*
G03X94003Y-21416I0J1358D01*
G01Y-22659D01*
G01X91925Y-24737D01*
G03X91671Y-24797I23J-663D01*
G54D10*
G01X78500Y-52500D02*
G01X79759Y-52500D01*
G01X78500Y-52500D02*
G01X77241Y-52500D01*
G01X78500Y-52500D02*
G01X78500Y-53759D01*
G01X78500Y-52500D02*
G01X78500Y-51241D01*
G01X78500Y-15500D02*
G01X79759Y-15500D01*
G01X78500Y-15500D02*
G01X77241Y-15500D01*
G01X78500Y-15500D02*
G01X78500Y-16759D01*
G01X78500Y-15500D02*
G01X78500Y-14241D01*
G01X93000Y-18000D02*
G01X91741Y-18000D01*
G01X93000Y-55000D02*
G01X94259Y-55000D01*
G01X93000Y-55000D02*
G01X91741Y-55000D01*
G04 Copper End*

G04 Pad Start*
G54D11*
G01X5000Y-5000D03*
G01X68000Y-5000D03*
G01X5000Y-68000D03*
G01X68000Y-68000D03*
G54D12*
G01X93000Y-52500D03*
G54D13*
G01X93000Y-57500D03*
G01X93000Y-55000D03*
G54D15*
G01X85500Y-49400D03*
G01X85500Y-60600D03*
G54D13*
G01X78500Y-57500D03*
G01X78500Y-52500D03*
G54D12*
G01X93000Y-15500D03*
G54D13*
G01X93000Y-20500D03*
G01X93000Y-18000D03*
G54D15*
G01X85500Y-12400D03*
G01X85500Y-23600D03*
G54D13*
G01X78500Y-20500D03*
G01X78500Y-15500D03*
G54D11*
G01X78000Y-5000D03*
G01X98000Y-5000D03*
G01X78000Y-68000D03*
G01X98000Y-68000D03*
G54D16*
G01X21590Y-10033D03*
G01X13081Y-43434D03*
G01X26289Y-31115D03*
G01X18542Y-31242D03*
G04 Pad End*

G04 Via Start*
G54D17*
G01X28605Y-8868D03*
G01X23876Y-18161D03*
G01X21336Y-18161D03*
G01X20066Y-16002D03*
G01X8943Y-13467D03*
G01X20955Y-31369D03*
G01X17005Y-27940D03*
G01X20251Y-20193D03*
G01X18034Y-23114D03*
G01X21075Y-23674D03*
G01X15621Y-23114D03*
G01X11938Y-29972D03*
G01X11189Y-27940D03*
G01X7366Y-23876D03*
G01X9398Y-28829D03*
G01X14224Y-12319D03*
G01X21189Y-14163D03*
G01X27305Y-18161D03*
G01X24868Y-14289D03*
G01X52832Y-61063D03*
G01X18669Y-14224D03*
G01X27456Y-14291D03*
G01X39116Y-14605D03*
G01X30607Y-31369D03*
G01X18288Y-49657D03*
G01X23114Y-46736D03*
G01X32385Y-36322D03*
G01X63373Y-56769D03*
G01X45466Y-59563D03*
G01X27559Y-64008D03*
G01X65024Y-35560D03*
G01X16129Y-35941D03*
G01X16129Y-38227D03*
G01X21971Y-26924D03*
G01X25974Y-36342D03*
G01X28702Y-34036D03*
G01X25908Y-38862D03*
G01X53975Y-65913D03*
G01X53975Y-57785D03*
G01X11430Y-56896D03*
G01X14986Y-60325D03*
G01X8868Y-56037D03*
G01X8890Y-56007D03*
G01X10541Y-46228D03*
G01X14351Y-31623D03*
G01X13589Y-35687D03*
G01X16002Y-62738D03*
G01X17272Y-60198D03*
G01X24384Y-22733D03*
G01X19177Y-10795D03*
G01X26670Y-20320D03*
G01X28702Y-31115D03*
G01X28702Y-29591D03*
G01X26289Y-28067D03*
G01X67564Y-13081D03*
G01X47752Y-11049D03*
G01X11430Y-39243D03*
G01X39624Y-20447D03*
G01X31242Y-20447D03*
G01X30607Y-36068D03*
G01X36576Y-36195D03*
G01X32639Y-40259D03*
G01X20320Y-39624D03*
G01X19431Y-26035D03*
G01X33909Y-25019D03*
G01X34798Y-32512D03*
G01X37846Y-32512D03*
G01X35941Y-36957D03*
G01X27813Y-25781D03*
G01X34671Y-26289D03*
G01X29464Y-27813D03*
G01X35560Y-27178D03*
G01X33909Y-31242D03*
G01X38481Y-31242D03*
G01X34671Y-30607D03*
G01X19177Y-41783D03*
G01X63119Y-40894D03*
G01X62357Y-41783D03*
G01X19812Y-22733D03*
G01X13081Y-37973D03*
G01X42418Y-13970D03*
G01X14351Y-37973D03*
G01X42418Y-14859D03*
G01X15113Y-37592D03*
G01X41529Y-15367D03*
G01X64643Y-11811D03*
G01X68199Y-13970D03*
G01X64638Y-13076D03*
G01X67564Y-14986D03*
G01X42400Y-10537D03*
G01X33274Y-33782D03*
G01X29718Y-35052D03*
G01X36957Y-31877D03*
G01X28956Y-35814D03*
G01X30480Y-49911D03*
G01X26924Y-36703D03*
G01X37211Y-37592D03*
G01X37465Y-36068D03*
G01X18034Y-41783D03*
G01X39624Y-37084D03*
G01X22606Y-40005D03*
G01X15494Y-42037D03*
G01X15494Y-53467D03*
G01X35560Y-29845D03*
G01X40640Y-31369D03*
G01X39531Y-31403D03*
G01X34671Y-21209D03*
G01X40640Y-20574D03*
G01X35306Y-21971D03*
G01X40513Y-21717D03*
G01X39878Y-36322D03*
G01X39878Y-35433D03*
G01X39878Y-34417D03*
G01X30480Y-46736D03*
G01X63754Y-46863D03*
G01X30480Y-48641D03*
G01X63881Y-48641D03*
G01X40767Y-30480D03*
G01X37592Y-29083D03*
G01X35941Y-22860D03*
G01X40513Y-22860D03*
G01X65913Y-50165D03*
G01X62865Y-52451D03*
G01X40894Y-29591D03*
G01X39243Y-23495D03*
G01X40767Y-28448D03*
G01X40005Y-24257D03*
G01X40767Y-27178D03*
G01X40767Y-25019D03*
G01X58547Y-40259D03*
G01X63119Y-32004D03*
G01X66421Y-26162D03*
G01X59436Y-20701D03*
G01X58166Y-19431D03*
G01X56896Y-18161D03*
G01X55626Y-16891D03*
G01X89027Y-9144D03*
G01X89027Y-17272D03*
G01X80623Y-37435D03*
G01X80645Y-18669D03*
G01X78740Y-27178D03*
G01X85852Y-40005D03*
G01X96520Y-37719D03*
G01X81915Y-29464D03*
G01X81153Y-7874D03*
G01X82677Y-28702D03*
G01X82931Y-9271D03*
G01X98911Y-55616D03*
G01X89154Y-54229D03*
G01X89154Y-55245D03*
G01X81153Y-55753D03*
G01X87249Y-68961D03*
G01X86360Y-68961D03*
G01X81788Y-40513D03*
G01X81788Y-65786D03*
G01X82550Y-42291D03*
G01X83820Y-63246D03*
G01X83439Y-57658D03*
G01X83439Y-25908D03*
G01X88011Y-31623D03*
G01X87249Y-34163D03*
G01X84709Y-36195D03*
G01X85725Y-41402D03*
G01X90297Y-44577D03*
G01X90297Y-30480D03*
G01X89408Y-43561D03*
G01X89408Y-31115D03*
G01X86233Y-30607D03*
G01X86360Y-25273D03*
G01X10795Y-36449D03*
G01X23663Y-27772D03*
G01X26289Y-26162D03*
G01X40005Y-16002D03*
G01X37592Y-19177D03*
G01X26670Y-66294D03*
G01X66371Y-31703D03*
G01X66371Y-40553D03*
G01X66548Y-33655D03*
G01X66802Y-38481D03*
G01X35052Y-8763D03*
G01X23495Y-6096D03*
G01X11651Y-6043D03*
G01X11651Y-9759D03*
G01X9144Y-8255D03*
G01X63119Y-33020D03*
G01X60071Y-63754D03*
G01X22270Y-66294D03*
G01X9017Y-62484D03*
G01X8382Y-64516D03*
G01X8890Y-51689D03*
G01X9144Y-39751D03*
G01X5969Y-29464D03*
G01X6118Y-51716D03*
G01X6096Y-19304D03*
G01X66675Y-42418D03*
G01X66548Y-51054D03*
G01X63235Y-61829D03*
G01X62230Y-50673D03*
G01X65913Y-58801D03*
G01X65913Y-55337D03*
G01X67691Y-10922D03*
G01X68453Y-19685D03*
G01X68326Y-24765D03*
G01X68326Y-27506D03*
G01X63627Y-17653D03*
G01X63627Y-20574D03*
G01X76635Y-59865D03*
G01X76635Y-54785D03*
G01X76635Y-49705D03*
G01X76635Y-44625D03*
G01X76635Y-39545D03*
G01X76635Y-34465D03*
G01X76635Y-24305D03*
G01X76635Y-19225D03*
G01X76635Y-14145D03*
G01X76635Y-9065D03*
G01X81080Y-64945D03*
G01X81080Y-59865D03*
G01X81080Y-54785D03*
G01X81080Y-49705D03*
G01X81080Y-29385D03*
G01X83820Y-68580D03*
G01X86160Y-14145D03*
G01X92202Y-69088D03*
G01X91240Y-59865D03*
G01X91240Y-54785D03*
G01X91240Y-49705D03*
G01X91240Y-44625D03*
G01X91440Y-34036D03*
G01X91948Y-23368D03*
G01X91240Y-14145D03*
G01X94488Y-63119D03*
G01X96320Y-54785D03*
G01X96320Y-44625D03*
G01X96320Y-39545D03*
G01X96320Y-9065D03*
G01X6096Y-59563D03*
G01X6096Y-56388D03*
G01X6223Y-47244D03*
G01X6223Y-44069D03*
G01X6096Y-34544D03*
G01X5842Y-24511D03*
G01X6096Y-13970D03*
G01X8080Y-54785D03*
G01X8080Y-49705D03*
G01X8080Y-29385D03*
G01X9144Y-19304D03*
G01X13160Y-54785D03*
G01X13160Y-49705D03*
G01X13160Y-3985D03*
G01X18240Y-59865D03*
G01X18240Y-54785D03*
G01X18240Y-3985D03*
G01X23320Y-34465D03*
G01X23320Y-3985D03*
G01X28400Y-3985D03*
G01X33480Y-24305D03*
G01X34163Y-18288D03*
G01X33528Y-14224D03*
G01X33480Y-9065D03*
G01X33480Y-3985D03*
G01X38560Y-24305D03*
G01X48720Y-24305D03*
G01X48720Y-19225D03*
G01X48720Y-14145D03*
G01X53800Y-24305D03*
G01X53800Y-14145D03*
G01X58880Y-14145D03*
G01X63627Y-19177D03*
G01X69040Y-59865D03*
G01X69040Y-54785D03*
G01X69040Y-49705D03*
G01X69040Y-44625D03*
G01X26289Y-10287D03*
G01X90297Y-22098D03*
G01X96320Y-24636D03*
G01X95885Y-16510D03*
G01X91948Y-25400D03*
G01X96139Y-17526D03*
G01X92837Y-25781D03*
G01X97282Y-18415D03*
G01X81080Y-39545D03*
G01X91186Y-32131D03*
G01X85471Y-38608D03*
G01X82804Y-21336D03*
G01X88138Y-12446D03*
G01X88011Y-11430D03*
G01X87503Y-44069D03*
G01X85217Y-46101D03*
G01X93472Y-37719D03*
G01X93599Y-27305D03*
G01X98806Y-63627D03*
G01X60452Y-55753D03*
G01X28448Y-57150D03*
G01X14859Y-64389D03*
G01X29972Y-64643D03*
G01X13589Y-65278D03*
G01X28448Y-65278D03*
G01X23622Y-61849D03*
G01X39497Y-61849D03*
G01X24638Y-61087D03*
G01X33528Y-61087D03*
G01X21844Y-57277D03*
G01X23114Y-53340D03*
G01X25146Y-57277D03*
G01X30861Y-58293D03*
G01X46990Y-64135D03*
G01X57277Y-64643D03*
G01X21209Y-62738D03*
G01X61087Y-62738D03*
G01X36957Y-42545D03*
G01X31496Y-42418D03*
G01X57912Y-43561D03*
G01X57531Y-52070D03*
G01X51181Y-52959D03*
G01X57912Y-49657D03*
G01X53086Y-49657D03*
G01X57150Y-44450D03*
G01X20828Y-52832D03*
G01X20701Y-53848D03*
G01X21209Y-42545D03*
G01X16510Y-45339D03*
G01X27051Y-51181D03*
G01X37973Y-41529D03*
G01X24765Y-41656D03*
G01X35179Y-41783D03*
G01X19812Y-54991D03*
G01X29972Y-53213D03*
G01X32131Y-43942D03*
G01X34925Y-43942D03*
G01X30607Y-45466D03*
G01X56134Y-45466D03*
G01X45339Y-54102D03*
G01X55118Y-53467D03*
G01X55118Y-47371D03*
G01X32766Y-47371D03*
G01X43688Y-54229D03*
G01X59055Y-49784D03*
G01X33909Y-40259D03*
G01X35179Y-40005D03*
G01X33401Y-46355D03*
G01X55626Y-46482D03*
G01X56388Y-55880D03*
G01X53086Y-55880D03*
G01X55753Y-52705D03*
G01X42926Y-53721D03*
G01X42418Y-58420D03*
G01X30607Y-52197D03*
G01X59309Y-55499D03*
G01X58293Y-57531D03*
G01X31369Y-52070D03*
G01X59690Y-58039D03*
G01X59436Y-32639D03*
G01X58166Y-34163D03*
G01X56896Y-35560D03*
G01X55626Y-36576D03*
G01X47625Y-52070D03*
G01X42799Y-33655D03*
G01X43434Y-36576D03*
G01X61214Y-30607D03*
G01X30226Y-18288D03*
G01X15748Y-49784D03*
G01X19685Y-59055D03*
G01X33528Y-64643D03*
G01X36830Y-64643D03*
G01X40547Y-64643D03*
G01X47879Y-65913D03*
G01X61341Y-65913D03*
G01X63391Y-65913D03*
G01X63500Y-64008D03*
G01X31877Y-59563D03*
G01X36957Y-59690D03*
G01X42799Y-59690D03*
G01X46101Y-57658D03*
G01X49403Y-61595D03*
G01X26924Y-56388D03*
G01X25527Y-55499D03*
G01X17780Y-37846D03*
G01X23114Y-41783D03*
G01X26162Y-45593D03*
G01X21082Y-46863D03*
G01X61976Y-40259D03*
G01X46736Y-33909D03*
G01X48006Y-33909D03*
G01X49254Y-33909D03*
G01X50563Y-33909D03*
G01X51805Y-33909D03*
G01X53086Y-31877D03*
G01X54392Y-31877D03*
G01X44704Y-29591D03*
G01X43307Y-28321D03*
G01X35052Y-10922D03*
G01X35560Y-14224D03*
G01X29464Y-32258D03*
G01X27686Y-32766D03*
G01X32639Y-28448D03*
G01X32639Y-30099D03*
G01X60198Y-60071D03*
G01X37846Y-43942D03*
G01X54136Y-43942D03*
G01X61976Y-29337D03*
G01X64135Y-26289D03*
G54D18*
G01X51586Y-17556D03*
G01X51586Y-18956D03*
G01X50886Y-16856D03*
G01X50186Y-17556D03*
G01X50186Y-18956D03*
G01X52986Y-18956D03*
G01X52986Y-17556D03*
G01X52286Y-16856D03*
G01X52286Y-18256D03*
G01X50886Y-18256D03*
G01X50886Y-19656D03*
G01X52286Y-19656D03*
G04 Via End*

G04 Track Start*
G54D10*
G01X21075Y-23674D02*
G01X21082Y-23667D01*
G01Y-23622D01*
G01X24868Y-14289D02*
G01X24892Y-14265D01*
G01Y-14224D01*
G01X16129Y-35941D02*
G01X16129Y-38227D01*
G01X25974Y-36342D02*
G01X26015Y-36342D01*
G01X26035Y-36322D01*
G01X8868Y-56037D02*
G01X8890Y-56015D01*
G01Y-56007D01*
G01X24384Y-22733D02*
G01X19812Y-22733D01*
G01X67564Y-13081D02*
G01X65532Y-11049D01*
G01X47752D01*
G01X39624Y-20447D02*
G01X31242Y-20447D01*
G01X30607Y-36068D02*
G01X31750Y-36068D01*
G01X32131Y-35687D01*
G01X35052D01*
G01X35560Y-36195D01*
G01X36576D01*
G01X19431Y-26035D02*
G01X23114Y-26035D01*
G01X24130Y-25019D01*
G01X33909Y-25019D02*
G01X24130Y-25019D01*
G01X35560Y-27178D02*
G01X30099Y-27178D01*
G01X34671Y-26289D02*
G01X28321Y-26289D01*
G01X27813Y-25781D01*
G01X38481Y-31242D02*
G01X33909Y-31242D01*
G01X30099Y-27178D02*
G01X29464Y-27813D01*
G01X13081Y-37973D02*
G01X12573Y-37465D01*
G01Y-15240D01*
G01X14351Y-33274D02*
G01X14351Y-37973D01*
G01X13081Y-32004D02*
G01X14351Y-33274D01*
G01X13081Y-15621D02*
G01X13081Y-32004D01*
G01X12573Y-15240D02*
G01X15621Y-12192D01*
G01X40640Y-12192D02*
G01X15621Y-12192D01*
G01X42418Y-13970D02*
G01X40640Y-12192D01*
G01X16002Y-12700D02*
G01X13081Y-15621D01*
G01X42418Y-14859D02*
G01X40259Y-12700D01*
G01X16002D01*
G01X15113Y-37592D02*
G01X15113Y-30226D01*
G01X13716Y-28829D01*
G01Y-15875D01*
G01X16256Y-13335D01*
G01X39497D01*
G01X41529Y-15367D01*
G01X64643Y-11811D02*
G01X66802Y-13970D01*
G01X68199D01*
G01X64638Y-13076D02*
G01X66548Y-14986D01*
G01X67564D01*
G01X30988Y-33782D02*
G01X33274Y-33782D01*
G01X29718Y-35052D02*
G01X30988Y-33782D01*
G01X36957Y-31877D02*
G01X31623Y-31877D01*
G01X31242Y-32258D01*
G01Y-32512D01*
G01X28956Y-34798D01*
G01Y-35814D01*
G01X26924Y-36703D02*
G01X27813Y-37592D01*
G01X37211D01*
G01X37465Y-36068D02*
G01X37897Y-36500D01*
G01X19050Y-39116D02*
G01X19050Y-40767D01*
G01X18034Y-41783D01*
G01X39624Y-37084D02*
G01X39624Y-37592D01*
G01X38354Y-38862D01*
G01X27813D01*
G01X26670Y-40005D01*
G01X22606D01*
G01X39116Y-29845D02*
G01X35560Y-29845D01*
G01X40640Y-31369D02*
G01X39116Y-29845D01*
G01X39531Y-31403D02*
G01X39531Y-31361D01*
G01X38777Y-30607D01*
G01X34671D01*
G01X34671Y-21209D02*
G01X40005Y-21209D01*
G01X40640Y-20574D01*
G01X35306Y-21971D02*
G01X40259Y-21971D01*
G01X40513Y-21717D01*
G01X40767Y-30480D02*
G01X39370Y-29083D01*
G01X37592D01*
G01X35941Y-22860D02*
G01X40513Y-22860D01*
G01X65913Y-41275D02*
G01X65913Y-50165D01*
G01X65151Y-50165D02*
G01X62865Y-52451D01*
G01X39243Y-23495D02*
G01X39243Y-27940D01*
G01X40894Y-29591D01*
G01X40767Y-28448D02*
G01X40005Y-27686D01*
G01Y-24257D01*
G01X40767Y-27178D02*
G01X40767Y-25019D01*
G01X40513Y-36322D02*
G01X39878Y-36322D01*
G01X41030Y-39379D02*
G01X41030Y-36839D01*
G01X40513Y-36322D01*
G01X40571Y-35433D02*
G01X41529Y-36391D01*
G01X39878Y-35433D02*
G01X40571Y-35433D01*
G01X65151Y-41402D02*
G01X65151Y-50165D01*
G01X40731Y-34417D02*
G01X42037Y-35723D01*
G01X39878Y-34417D02*
G01X40731Y-34417D01*
G01X63568Y-38930D02*
G01X65913Y-41275D01*
G01X41529Y-36391D02*
G01X41529Y-38728D01*
G01X42037Y-35723D02*
G01X42037Y-38100D01*
G01X42867Y-38930D01*
G01X63568D01*
G01X63119Y-32004D02*
G01X63437Y-32004D01*
G01X81788Y-40513D02*
G01X81788Y-65786D01*
G01X82550Y-42291D02*
G01X82550Y-61976D01*
G01X83820Y-63246D01*
G01X84709Y-36195D02*
G01X84709Y-40386D01*
G01X85725Y-41402D01*
G01X90297Y-30480D02*
G01X90297Y-44577D01*
G01X89408Y-31115D02*
G01X89408Y-43561D01*
G01X86233Y-25400D02*
G01X86233Y-30607D01*
G01X81407Y-8128D02*
G01X81153Y-7874D01*
G01X81915Y-29464D02*
G01X81915Y-28829D01*
G01X81407Y-28321D01*
G01Y-8128D01*
G01X82677Y-28702D02*
G01X81813Y-27838D01*
G01Y-10389D01*
G01X82931Y-9271D01*
G01X23663Y-27772D02*
G01X23622Y-27813D01*
G01X28605Y-8868D02*
G01X22755Y-8868D01*
G01X21590Y-10033D01*
G01X11430Y-39243D02*
G01X11430Y-40132D01*
G01X13081Y-41783D01*
G01Y-43434D01*
G01X18542Y-31242D02*
G01X18669Y-31369D01*
G01X20955D01*
G01X26289Y-31115D02*
G01X28702Y-31115D01*
G01X90297Y-22098D02*
G01X91059Y-21336D01*
G01X91059Y-17441D02*
G01X93000Y-15500D01*
G01X91059Y-21336D02*
G01X91059Y-17441D01*
G01X95885Y-16510D02*
G01X94488Y-17907D01*
G01X94488Y-22860D02*
G01X91948Y-25400D01*
G01X94488Y-17907D02*
G01X94488Y-22860D01*
G01X96139Y-17526D02*
G01X95631Y-18034D01*
G01X95631Y-22987D02*
G01X92837Y-25781D01*
G01X95631Y-18034D02*
G01X95631Y-22987D01*
G01X90297Y-44577D02*
G01X93000Y-47280D01*
G01Y-52500D01*
G01X86360Y-25273D02*
G01X86233Y-25400D01*
G01X91186Y-22314D02*
G01X93000Y-20500D01*
G01X91186Y-32131D02*
G01X91186Y-22314D01*
G01X83439Y-25908D02*
G01X83439Y-57658D01*
G01X85471Y-38608D02*
G01X85471Y-26162D01*
G01X84455Y-25146D01*
G01X83693D01*
G01X82804Y-24257D01*
G01Y-21336D01*
G01X88138Y-12446D02*
G01X88138Y-31496D01*
G01X88011Y-31623D01*
G01X87249Y-34163D02*
G01X87249Y-25781D01*
G01X87503Y-25527D01*
G01Y-11938D01*
G01X88011Y-11430D01*
G01X58547Y-40259D02*
G01X41910Y-40259D01*
G01X41030Y-39379D01*
G01X32639Y-40259D02*
G01X32309Y-40589D01*
G01X21285D01*
G01X20320Y-39624D01*
G01X41529Y-38728D02*
G01X42425Y-39624D01*
G01X63373D01*
G01X65151Y-41402D01*
G01X63881Y-48641D02*
G01X30480Y-48641D01*
G01X14859Y-64389D02*
G01X15113Y-64643D01*
G01X29972D01*
G01X28448Y-65278D02*
G01X13589Y-65278D01*
G01X39497Y-61849D02*
G01X23622Y-61849D01*
G01X24638Y-61087D02*
G01X33528Y-61087D01*
G01X25146Y-57277D02*
G01X27178Y-57277D01*
G01X28194Y-58293D02*
G01X27178Y-57277D01*
G01X30861Y-58293D02*
G01X28194Y-58293D01*
G01X46990Y-64135D02*
G01X47498Y-64643D01*
G01X57277D01*
G01X21209Y-62738D02*
G01X61087Y-62738D01*
G01X36957Y-42545D02*
G01X31623Y-42545D01*
G01X57912Y-49657D02*
G01X53086Y-49657D01*
G01X20828Y-52832D02*
G01X21717Y-52832D01*
G01X24130Y-42545D02*
G01X21209Y-42545D01*
G01X16510Y-45339D02*
G01X24511Y-45339D01*
G01X35179Y-41783D02*
G01X24892Y-41783D01*
G01X24638Y-54991D02*
G01X19812Y-54991D01*
G01X57150Y-44450D02*
G01X57023Y-44577D01*
G01X25273D01*
G01X24511Y-45339D01*
G01X34925Y-43942D02*
G01X32131Y-43942D01*
G01X29972Y-53213D02*
G01X26416Y-53213D01*
G01X24638Y-54991D01*
G01X30607Y-45466D02*
G01X56134Y-45466D01*
G01X35331Y-40157D02*
G01X35179Y-40005D01*
G01X57912Y-43561D02*
G01X57658Y-43307D01*
G01X24892D01*
G01X24130Y-42545D01*
G01X30480Y-46736D02*
G01X31750Y-48006D01*
G01X62611D01*
G01X63754Y-46863D01*
G01X24892Y-41783D02*
G01X24765Y-41656D01*
G01X19939Y-38227D02*
G01X19050Y-39116D01*
G01X37719Y-38227D02*
G01X19939Y-38227D01*
G01X37897Y-38049D02*
G01X37719Y-38227D01*
G01X37897Y-36500D02*
G01X37897Y-38049D01*
G01X32766Y-47371D02*
G01X55118Y-47371D01*
G01X33528Y-46482D02*
G01X55626Y-46482D01*
G01X56388Y-55880D02*
G01X53086Y-55880D01*
G01X55753Y-52705D02*
G01X52324Y-52705D01*
G01X45822Y-53696D02*
G01X45593Y-53467D01*
G01X43180D01*
G01X42926Y-53721D01*
G01X51333Y-53696D02*
G01X52324Y-52705D01*
G01X51333Y-53696D02*
G01X45822Y-53696D01*
G01X43688Y-54229D02*
G01X44145Y-54686D01*
G01X59055D01*
G01Y-49784D01*
G01X45339Y-54102D02*
G01X45466Y-54229D01*
G01X54356D01*
G01X55118Y-53467D01*
G01X42418Y-58420D02*
G01X32512Y-58420D01*
G01X30607Y-56515D01*
G01X30607Y-52197D02*
G01X30607Y-56515D01*
G01X59309Y-55499D02*
G01X60579Y-54229D01*
G01Y-53340D01*
G01X64516Y-49403D01*
G01X63119Y-40894D02*
G01X41783Y-40894D01*
G01X41046Y-40157D01*
G01X35331D01*
G01X34290Y-40640D02*
G01X33909Y-40259D01*
G01X40767Y-40640D02*
G01X34290Y-40640D01*
G01X37973Y-41529D02*
G01X37490Y-41046D01*
G01X19914D01*
G01X19177Y-41783D01*
G01X51435Y-51962D02*
G01X51543Y-52070D01*
G01X57531D01*
G01X50858Y-49276D02*
G01X51435Y-49853D01*
G01Y-51962D01*
G01X21717Y-52832D02*
G01X25273Y-49276D01*
G01X50858Y-49276D02*
G01X25273Y-49276D01*
G01X50165Y-51943D02*
G01X51181Y-52959D01*
G01X50038Y-50546D02*
G01X50165Y-50673D01*
G01Y-51943D01*
G01X20701Y-53848D02*
G01X21717Y-53848D01*
G01X25019Y-50546D01*
G01X50038D01*
G01X31369Y-52070D02*
G01X31369Y-56388D01*
G01X59690Y-57404D02*
G01X59690Y-58039D01*
G01X59182Y-56896D02*
G01X59690Y-57404D01*
G01X31369Y-56388D02*
G01X32669Y-57688D01*
G01X41372D01*
G01X42164Y-56896D01*
G01X59182D01*
G01X33401Y-46355D02*
G01X33528Y-46482D01*
G01X64516Y-49403D02*
G01X64516Y-44831D01*
G01X62230Y-42545D02*
G01X64516Y-44831D01*
G01X36957Y-42545D02*
G01X62230Y-42545D01*
G01X62357Y-41783D02*
G01X62230Y-41656D01*
G01X41783D01*
G01X40767Y-40640D01*
G01X59436Y-32639D02*
G01X59436Y-20701D01*
G01X58166Y-34163D02*
G01X58166Y-19431D01*
G01X56896Y-35560D02*
G01X56896Y-18161D01*
G01X55626Y-36576D02*
G01X55626Y-16891D01*
G01X31623Y-42545D02*
G01X31496Y-42418D01*
G01X66421Y-26162D02*
G01X66421Y-29020D01*
G01X63437Y-32004D01*
G01X61976Y-29337D02*
G01X61976Y-30861D01*
G01X63119Y-32004D01*
G04 Track End*

M02*
